  0
SECTION
  2
HEADER
  9
$ANGBASE
  50
0.0
  9
$ANGDIR
  70
  1
  9
$MEASUREMENT
  70
0
  0
ENDSEC
  0
SECTION
  2
TABLES
  0
TABLE
  2
LTYPE
  70
4
  0
LTYPE
  5
40F
  2
CONTINUOUS
  70
0
  3
Solid line
  72
65
  73
0
  40
0.0
  0
LTYPE
  5
410
  2
DASHDOT
 70
0
  3
Dash Dot ____ _ ____ _
 72
65
 73
4
 40
2.0
 49
1.25
 49
-0.25
 49
0.25
 49
-0.25
  0
LTYPE
  5
411
  2
DASHED
 70
0
  3
Dashed __ __ __ __ __
 72
65
 73
2
 40
0.75
 49
0.5
 49
-0.25
  0
LTYPE
  5
43B
  2
DOTTED
 70
0
  3
Dotted .  .  .  .
 72
65
 73
2
 40
0.2
 49
0.0
 49
-0.2
  0
ENDTAB
  0
TABLE
  2
STYLE
  70
4
  0
STYLE
  2
KICAD
  70
0
  40
0
  41
1
  42
1
  50
0
  71
0
  3
isocp.shx
  0
STYLE
  2
KICADB
  70
0
  40
0
  41
1
  42
1
  50
0
  71
0
  3
isocp.shx
  0
STYLE
  2
KICADI
  70
0
  40
0
  41
1
  42
1
  50
15
  71
0
  3
isocp.shx
  0
STYLE
  2
KICADBI
  70
0
  40
0
  41
1
  42
1
  50
15
  71
0
  3
isocp.shx
  0
ENDTAB
  0
TABLE
  2
LAYER
  70
30
  0
LAYER
  2
BLACK
  70
0
  62
7
  6
CONTINUOUS
  0
LAYER
  2
GRAY1
  70
0
  62
251
  6
CONTINUOUS
  0
LAYER
  2
GRAY2
  70
0
  62
8
  6
CONTINUOUS
  0
LAYER
  2
GRAY3
  70
0
  62
9
  6
CONTINUOUS
  0
LAYER
  2
WHITE
  70
0
  62
7
  6
CONTINUOUS
  0
LAYER
  2
LYELLOW
  70
0
  62
51
  6
CONTINUOUS
  0
LAYER
  2
BLUE1
  70
0
  62
178
  6
CONTINUOUS
  0
LAYER
  2
GREEN1
  70
0
  62
98
  6
CONTINUOUS
  0
LAYER
  2
CYAN1
  70
0
  62
138
  6
CONTINUOUS
  0
LAYER
  2
RED1
  70
0
  62
18
  6
CONTINUOUS
  0
LAYER
  2
MAGENTA1
  70
0
  62
228
  6
CONTINUOUS
  0
LAYER
  2
BROWN1
  70
0
  62
58
  6
CONTINUOUS
  0
LAYER
  2
BLUE2
  70
0
  62
5
  6
CONTINUOUS
  0
LAYER
  2
GREEN2
  70
0
  62
3
  6
CONTINUOUS
  0
LAYER
  2
CYAN2
  70
0
  62
4
  6
CONTINUOUS
  0
LAYER
  2
RED2
  70
0
  62
1
  6
CONTINUOUS
  0
LAYER
  2
MAGENTA2
  70
0
  62
6
  6
CONTINUOUS
  0
LAYER
  2
BROWN2
  70
0
  62
54
  6
CONTINUOUS
  0
LAYER
  2
BLUE3
  70
0
  62
171
  6
CONTINUOUS
  0
LAYER
  2
GREEN3
  70
0
  62
91
  6
CONTINUOUS
  0
LAYER
  2
CYAN3
  70
0
  62
131
  6
CONTINUOUS
  0
LAYER
  2
RED3
  70
0
  62
11
  6
CONTINUOUS
  0
LAYER
  2
MAGENTA3
  70
0
  62
221
  6
CONTINUOUS
  0
LAYER
  2
YELLOW3
  70
0
  62
2
  6
CONTINUOUS
  0
LAYER
  2
BLUE4
  70
0
  62
5
  6
CONTINUOUS
  0
LAYER
  2
GREEN4
  70
0
  62
3
  6
CONTINUOUS
  0
LAYER
  2
CYAN4
  70
0
  62
4
  6
CONTINUOUS
  0
LAYER
  2
RED4
  70
0
  62
1
  6
CONTINUOUS
  0
LAYER
  2
MAGENTA4
  70
0
  62
6
  6
CONTINUOUS
  0
LAYER
  2
YELLOW4
  70
0
  62
2
  6
CONTINUOUS
  0
ENDTAB
  0
ENDSEC
  0
SECTION
  2
ENTITIES
0
LINE
8
BLACK
6
CONTINUOUS
10
152.256
20
-132.872
11
150.956
21
-132.872
0
LINE
8
BLACK
6
CONTINUOUS
10
150.956
20
-132.872
11
150.956
21
-132.172
0
LINE
8
BLACK
6
CONTINUOUS
10
150.956
20
-132.172
11
152.256
21
-132.172
0
LINE
8
BLACK
6
CONTINUOUS
10
152.256
20
-132.172
11
152.256
21
-132.872
0
LINE
8
BLACK
6
CONTINUOUS
10
152.256
20
-130.972
11
150.956
21
-130.972
0
LINE
8
BLACK
6
CONTINUOUS
10
150.956
20
-130.972
11
150.956
21
-130.272
0
LINE
8
BLACK
6
CONTINUOUS
10
150.956
20
-130.272
11
152.256
21
-130.272
0
LINE
8
BLACK
6
CONTINUOUS
10
152.256
20
-130.272
11
152.256
21
-130.972
0
LINE
8
BLACK
6
CONTINUOUS
10
147.088
20
-130.831
11
146.287
21
-130.831
0
LINE
8
BLACK
6
CONTINUOUS
10
146.287
20
-130.831
11
146.287
21
-129.931
0
LINE
8
BLACK
6
CONTINUOUS
10
146.287
20
-129.931
11
147.088
21
-129.931
0
LINE
8
BLACK
6
CONTINUOUS
10
147.088
20
-129.931
11
147.088
21
-130.831
0
LINE
8
BLACK
6
CONTINUOUS
10
148.987
20
-130.831
11
148.188
21
-130.831
0
LINE
8
BLACK
6
CONTINUOUS
10
148.188
20
-130.831
11
148.188
21
-129.931
0
LINE
8
BLACK
6
CONTINUOUS
10
148.188
20
-129.931
11
148.987
21
-129.931
0
LINE
8
BLACK
6
CONTINUOUS
10
148.987
20
-129.931
11
148.987
21
-130.831
0
LINE
8
BLACK
6
CONTINUOUS
10
212.581
20
-130.681
11
211.281
21
-130.681
0
LINE
8
BLACK
6
CONTINUOUS
10
211.281
20
-130.681
11
211.281
21
-129.981
0
LINE
8
BLACK
6
CONTINUOUS
10
211.281
20
-129.981
11
212.581
21
-129.981
0
LINE
8
BLACK
6
CONTINUOUS
10
212.581
20
-129.981
11
212.581
21
-130.681
0
LINE
8
BLACK
6
CONTINUOUS
10
207.819
20
-130.681
11
206.519
21
-130.681
0
LINE
8
BLACK
6
CONTINUOUS
10
206.519
20
-130.681
11
206.519
21
-129.981
0
LINE
8
BLACK
6
CONTINUOUS
10
206.519
20
-129.981
11
207.819
21
-129.981
0
LINE
8
BLACK
6
CONTINUOUS
10
207.819
20
-129.981
11
207.819
21
-130.681
0
LINE
8
BLACK
6
CONTINUOUS
10
156.733
20
-130.681
11
155.433
21
-130.681
0
LINE
8
BLACK
6
CONTINUOUS
10
155.433
20
-130.681
11
155.433
21
-129.981
0
LINE
8
BLACK
6
CONTINUOUS
10
155.433
20
-129.981
11
156.733
21
-129.981
0
LINE
8
BLACK
6
CONTINUOUS
10
156.733
20
-129.981
11
156.733
21
-130.681
0
LINE
8
BLACK
6
CONTINUOUS
10
148.037
20
-128.831
11
147.237
21
-128.831
0
LINE
8
BLACK
6
CONTINUOUS
10
147.237
20
-128.831
11
147.237
21
-127.931
0
LINE
8
BLACK
6
CONTINUOUS
10
147.237
20
-127.931
11
148.037
21
-127.931
0
LINE
8
BLACK
6
CONTINUOUS
10
148.037
20
-127.931
11
148.037
21
-128.831
0
LINE
8
BLACK
6
CONTINUOUS
10
156.733
20
-128.781
11
155.433
21
-128.781
0
LINE
8
BLACK
6
CONTINUOUS
10
155.433
20
-128.781
11
155.433
21
-128.081
0
LINE
8
BLACK
6
CONTINUOUS
10
155.433
20
-128.081
11
156.733
21
-128.081
0
LINE
8
BLACK
6
CONTINUOUS
10
156.733
20
-128.081
11
156.733
21
-128.781
0
LINE
8
BLACK
6
CONTINUOUS
10
207.819
20
-128.781
11
206.519
21
-128.781
0
LINE
8
BLACK
6
CONTINUOUS
10
206.519
20
-128.781
11
206.519
21
-128.081
0
LINE
8
BLACK
6
CONTINUOUS
10
206.519
20
-128.081
11
207.819
21
-128.081
0
LINE
8
BLACK
6
CONTINUOUS
10
207.819
20
-128.081
11
207.819
21
-128.781
0
LINE
8
BLACK
6
CONTINUOUS
10
212.581
20
-128.781
11
211.281
21
-128.781
0
LINE
8
BLACK
6
CONTINUOUS
10
211.281
20
-128.781
11
211.281
21
-128.081
0
LINE
8
BLACK
6
CONTINUOUS
10
211.281
20
-128.081
11
212.581
21
-128.081
0
LINE
8
BLACK
6
CONTINUOUS
10
212.581
20
-128.081
11
212.581
21
-128.781
0
LINE
8
BLACK
6
CONTINUOUS
10
53.0375
20
-128.3
11
51.7375
21
-128.3
0
LINE
8
BLACK
6
CONTINUOUS
10
51.7375
20
-128.3
11
51.7375
21
-127.6
0
LINE
8
BLACK
6
CONTINUOUS
10
51.7375
20
-127.6
11
53.0375
21
-127.6
0
LINE
8
BLACK
6
CONTINUOUS
10
53.0375
20
-127.6
11
53.0375
21
-128.3
0
LINE
8
BLACK
6
CONTINUOUS
10
85.5812
20
-128.3
11
84.2812
21
-128.3
0
LINE
8
BLACK
6
CONTINUOUS
10
84.2812
20
-128.3
11
84.2812
21
-127.6
0
LINE
8
BLACK
6
CONTINUOUS
10
84.2812
20
-127.6
11
85.5812
21
-127.6
0
LINE
8
BLACK
6
CONTINUOUS
10
85.5812
20
-127.6
11
85.5812
21
-128.3
0
LINE
8
BLACK
6
CONTINUOUS
10
152.256
20
-128.3
11
150.956
21
-128.3
0
LINE
8
BLACK
6
CONTINUOUS
10
150.956
20
-128.3
11
150.956
21
-127.6
0
LINE
8
BLACK
6
CONTINUOUS
10
150.956
20
-127.6
11
152.256
21
-127.6
0
LINE
8
BLACK
6
CONTINUOUS
10
152.256
20
-127.6
11
152.256
21
-128.3
0
LINE
8
BLACK
6
CONTINUOUS
10
312.594
20
-128.3
11
311.294
21
-128.3
0
LINE
8
BLACK
6
CONTINUOUS
10
311.294
20
-128.3
11
311.294
21
-127.6
0
LINE
8
BLACK
6
CONTINUOUS
10
311.294
20
-127.6
11
312.594
21
-127.6
0
LINE
8
BLACK
6
CONTINUOUS
10
312.594
20
-127.6
11
312.594
21
-128.3
0
LINE
8
BLACK
6
CONTINUOUS
10
279.256
20
-128.3
11
277.956
21
-128.3
0
LINE
8
BLACK
6
CONTINUOUS
10
277.956
20
-128.3
11
277.956
21
-127.6
0
LINE
8
BLACK
6
CONTINUOUS
10
277.956
20
-127.6
11
279.256
21
-127.6
0
LINE
8
BLACK
6
CONTINUOUS
10
279.256
20
-127.6
11
279.256
21
-128.3
0
LINE
8
BLACK
6
CONTINUOUS
10
152.256
20
-126.4
11
150.956
21
-126.4
0
LINE
8
BLACK
6
CONTINUOUS
10
150.956
20
-126.4
11
150.956
21
-125.7
0
LINE
8
BLACK
6
CONTINUOUS
10
150.956
20
-125.7
11
152.256
21
-125.7
0
LINE
8
BLACK
6
CONTINUOUS
10
152.256
20
-125.7
11
152.256
21
-126.4
0
LINE
8
BLACK
6
CONTINUOUS
10
53.0375
20
-126.4
11
51.7375
21
-126.4
0
LINE
8
BLACK
6
CONTINUOUS
10
51.7375
20
-126.4
11
51.7375
21
-125.7
0
LINE
8
BLACK
6
CONTINUOUS
10
51.7375
20
-125.7
11
53.0375
21
-125.7
0
LINE
8
BLACK
6
CONTINUOUS
10
53.0375
20
-125.7
11
53.0375
21
-126.4
0
LINE
8
BLACK
6
CONTINUOUS
10
85.5812
20
-126.4
11
84.2812
21
-126.4
0
LINE
8
BLACK
6
CONTINUOUS
10
84.2812
20
-126.4
11
84.2812
21
-125.7
0
LINE
8
BLACK
6
CONTINUOUS
10
84.2812
20
-125.7
11
85.5812
21
-125.7
0
LINE
8
BLACK
6
CONTINUOUS
10
85.5812
20
-125.7
11
85.5812
21
-126.4
0
LINE
8
BLACK
6
CONTINUOUS
10
312.594
20
-126.4
11
311.294
21
-126.4
0
LINE
8
BLACK
6
CONTINUOUS
10
311.294
20
-126.4
11
311.294
21
-125.7
0
LINE
8
BLACK
6
CONTINUOUS
10
311.294
20
-125.7
11
312.594
21
-125.7
0
LINE
8
BLACK
6
CONTINUOUS
10
312.594
20
-125.7
11
312.594
21
-126.4
0
LINE
8
BLACK
6
CONTINUOUS
10
279.256
20
-126.4
11
277.956
21
-126.4
0
LINE
8
BLACK
6
CONTINUOUS
10
277.956
20
-126.4
11
277.956
21
-125.7
0
LINE
8
BLACK
6
CONTINUOUS
10
277.956
20
-125.7
11
279.256
21
-125.7
0
LINE
8
BLACK
6
CONTINUOUS
10
279.256
20
-125.7
11
279.256
21
-126.4
0
LINE
8
BLACK
6
CONTINUOUS
10
206.149
20
-126.179
11
204.95
21
-126.179
0
LINE
8
BLACK
6
CONTINUOUS
10
204.95
20
-126.179
11
204.95
21
-125.279
0
LINE
8
BLACK
6
CONTINUOUS
10
204.95
20
-125.279
11
206.149
21
-125.279
0
LINE
8
BLACK
6
CONTINUOUS
10
206.149
20
-125.279
11
206.149
21
-126.179
0
LINE
8
BLACK
6
CONTINUOUS
10
212.499
20
-126.179
11
211.299
21
-126.179
0
LINE
8
BLACK
6
CONTINUOUS
10
211.299
20
-126.179
11
211.299
21
-125.279
0
LINE
8
BLACK
6
CONTINUOUS
10
211.299
20
-125.279
11
212.499
21
-125.279
0
LINE
8
BLACK
6
CONTINUOUS
10
212.499
20
-125.279
11
212.499
21
-126.179
0
LINE
8
BLACK
6
CONTINUOUS
10
158.588
20
-126.179
11
157.388
21
-126.179
0
LINE
8
BLACK
6
CONTINUOUS
10
157.388
20
-126.179
11
157.388
21
-125.279
0
LINE
8
BLACK
6
CONTINUOUS
10
157.388
20
-125.279
11
158.588
21
-125.279
0
LINE
8
BLACK
6
CONTINUOUS
10
158.588
20
-125.279
11
158.588
21
-126.179
0
LINE
8
BLACK
6
CONTINUOUS
10
189.795
20
-122.939
11
188.236
21
-123.839
0
LINE
8
BLACK
6
CONTINUOUS
10
188.236
20
-123.839
11
187.686
21
-122.887
0
LINE
8
BLACK
6
CONTINUOUS
10
187.686
20
-122.887
11
189.245
21
-121.987
0
LINE
8
BLACK
6
CONTINUOUS
10
189.245
20
-121.987
11
189.795
21
-122.939
0
LINE
8
BLACK
6
CONTINUOUS
10
176.296
20
-122.76
11
175.746
21
-123.712
0
LINE
8
BLACK
6
CONTINUOUS
10
175.746
20
-123.712
11
174.187
21
-122.812
0
LINE
8
BLACK
6
CONTINUOUS
10
174.187
20
-122.812
11
174.737
21
-121.86
0
LINE
8
BLACK
6
CONTINUOUS
10
174.737
20
-121.86
11
176.296
21
-122.76
0
LINE
8
BLACK
6
CONTINUOUS
10
312.544
20
-123.544
11
311.344
21
-123.544
0
LINE
8
BLACK
6
CONTINUOUS
10
311.344
20
-123.544
11
311.344
21
-122.644
0
LINE
8
BLACK
6
CONTINUOUS
10
311.344
20
-122.644
11
312.544
21
-122.644
0
LINE
8
BLACK
6
CONTINUOUS
10
312.544
20
-122.644
11
312.544
21
-123.544
0
LINE
8
BLACK
6
CONTINUOUS
10
52.1937
20
-123.544
11
50.9937
21
-123.544
0
LINE
8
BLACK
6
CONTINUOUS
10
50.9937
20
-123.544
11
50.9937
21
-122.644
0
LINE
8
BLACK
6
CONTINUOUS
10
50.9937
20
-122.644
11
52.1937
21
-122.644
0
LINE
8
BLACK
6
CONTINUOUS
10
52.1937
20
-122.644
11
52.1937
21
-123.544
0
LINE
8
BLACK
6
CONTINUOUS
10
279.206
20
-123.544
11
278.006
21
-123.544
0
LINE
8
BLACK
6
CONTINUOUS
10
278.006
20
-123.544
11
278.006
21
-122.644
0
LINE
8
BLACK
6
CONTINUOUS
10
278.006
20
-122.644
11
279.206
21
-122.644
0
LINE
8
BLACK
6
CONTINUOUS
10
279.206
20
-122.644
11
279.206
21
-123.544
0
LINE
8
BLACK
6
CONTINUOUS
10
152.206
20
-123.544
11
151.006
21
-123.544
0
LINE
8
BLACK
6
CONTINUOUS
10
151.006
20
-123.544
11
151.006
21
-122.644
0
LINE
8
BLACK
6
CONTINUOUS
10
151.006
20
-122.644
11
152.206
21
-122.644
0
LINE
8
BLACK
6
CONTINUOUS
10
152.206
20
-122.644
11
152.206
21
-123.544
0
LINE
8
BLACK
6
CONTINUOUS
10
85.5312
20
-123.544
11
84.3312
21
-123.544
0
LINE
8
BLACK
6
CONTINUOUS
10
84.3312
20
-123.544
11
84.3312
21
-122.644
0
LINE
8
BLACK
6
CONTINUOUS
10
84.3312
20
-122.644
11
85.5312
21
-122.644
0
LINE
8
BLACK
6
CONTINUOUS
10
85.5312
20
-122.644
11
85.5312
21
-123.544
0
LINE
8
BLACK
6
CONTINUOUS
10
104.631
20
-123.537
11
103.331
21
-123.537
0
LINE
8
BLACK
6
CONTINUOUS
10
103.331
20
-123.537
11
103.331
21
-122.837
0
LINE
8
BLACK
6
CONTINUOUS
10
103.331
20
-122.837
11
104.631
21
-122.837
0
LINE
8
BLACK
6
CONTINUOUS
10
104.631
20
-122.837
11
104.631
21
-123.537
0
LINE
8
BLACK
6
CONTINUOUS
10
274.494
20
-123.537
11
273.194
21
-123.537
0
LINE
8
BLACK
6
CONTINUOUS
10
273.194
20
-123.537
11
273.194
21
-122.837
0
LINE
8
BLACK
6
CONTINUOUS
10
273.194
20
-122.837
11
274.494
21
-122.837
0
LINE
8
BLACK
6
CONTINUOUS
10
274.494
20
-122.837
11
274.494
21
-123.537
0
LINE
8
BLACK
6
CONTINUOUS
10
212.499
20
-122.879
11
211.299
21
-122.879
0
LINE
8
BLACK
6
CONTINUOUS
10
211.299
20
-122.879
11
211.299
21
-121.979
0
LINE
8
BLACK
6
CONTINUOUS
10
211.299
20
-121.979
11
212.499
21
-121.979
0
LINE
8
BLACK
6
CONTINUOUS
10
212.499
20
-121.979
11
212.499
21
-122.879
0
LINE
8
BLACK
6
CONTINUOUS
10
206.149
20
-122.879
11
204.95
21
-122.879
0
LINE
8
BLACK
6
CONTINUOUS
10
204.95
20
-122.879
11
204.95
21
-121.979
0
LINE
8
BLACK
6
CONTINUOUS
10
204.95
20
-121.979
11
206.149
21
-121.979
0
LINE
8
BLACK
6
CONTINUOUS
10
206.149
20
-121.979
11
206.149
21
-122.879
0
LINE
8
BLACK
6
CONTINUOUS
10
158.588
20
-122.879
11
157.388
21
-122.879
0
LINE
8
BLACK
6
CONTINUOUS
10
157.388
20
-122.879
11
157.388
21
-121.979
0
LINE
8
BLACK
6
CONTINUOUS
10
157.388
20
-121.979
11
158.588
21
-121.979
0
LINE
8
BLACK
6
CONTINUOUS
10
158.588
20
-121.979
11
158.588
21
-122.879
0
LINE
8
BLACK
6
CONTINUOUS
10
121.554
20
-122.712
11
120.254
21
-122.712
0
LINE
8
BLACK
6
CONTINUOUS
10
120.254
20
-122.712
11
120.254
21
-122.012
0
LINE
8
BLACK
6
CONTINUOUS
10
120.254
20
-122.012
11
121.554
21
-122.012
0
LINE
8
BLACK
6
CONTINUOUS
10
121.554
20
-122.012
11
121.554
21
-122.712
0
LINE
8
BLACK
6
CONTINUOUS
10
237.14
20
-122.676
11
236.34
21
-122.676
0
LINE
8
BLACK
6
CONTINUOUS
10
236.34
20
-122.676
11
236.34
21
-121.926
0
LINE
8
BLACK
6
CONTINUOUS
10
236.34
20
-121.926
11
237.14
21
-121.926
0
LINE
8
BLACK
6
CONTINUOUS
10
237.14
20
-121.926
11
237.14
21
-122.676
0
LINE
8
BLACK
6
CONTINUOUS
10
238.64
20
-122.676
11
237.84
21
-122.676
0
LINE
8
BLACK
6
CONTINUOUS
10
237.84
20
-122.676
11
237.84
21
-121.926
0
LINE
8
BLACK
6
CONTINUOUS
10
237.84
20
-121.926
11
238.64
21
-121.926
0
LINE
8
BLACK
6
CONTINUOUS
10
238.64
20
-121.926
11
238.64
21
-122.676
0
LINE
8
BLACK
6
CONTINUOUS
10
241.569
20
-122.585
11
240.269
21
-122.585
0
LINE
8
BLACK
6
CONTINUOUS
10
240.269
20
-122.585
11
240.269
21
-121.885
0
LINE
8
BLACK
6
CONTINUOUS
10
240.269
20
-121.885
11
241.569
21
-121.885
0
LINE
8
BLACK
6
CONTINUOUS
10
241.569
20
-121.885
11
241.569
21
-122.585
0
LINE
8
BLACK
6
CONTINUOUS
10
127.716
20
-121.723
11
126.566
21
-121.723
0
LINE
8
BLACK
6
CONTINUOUS
10
126.566
20
-121.723
11
126.566
21
-120.723
0
LINE
8
BLACK
6
CONTINUOUS
10
126.566
20
-120.723
11
127.716
21
-120.723
0
LINE
8
BLACK
6
CONTINUOUS
10
127.716
20
-120.723
11
127.716
21
-121.723
0
LINE
8
BLACK
6
CONTINUOUS
10
129.466
20
-121.723
11
128.316
21
-121.723
0
LINE
8
BLACK
6
CONTINUOUS
10
128.316
20
-121.723
11
128.316
21
-120.723
0
LINE
8
BLACK
6
CONTINUOUS
10
128.316
20
-120.723
11
129.466
21
-120.723
0
LINE
8
BLACK
6
CONTINUOUS
10
129.466
20
-120.723
11
129.466
21
-121.723
0
LINE
8
BLACK
6
CONTINUOUS
10
131.82
20
-121.673
11
131.07
21
-121.673
0
LINE
8
BLACK
6
CONTINUOUS
10
131.07
20
-121.673
11
131.07
21
-120.873
0
LINE
8
BLACK
6
CONTINUOUS
10
131.07
20
-120.873
11
131.82
21
-120.873
0
LINE
8
BLACK
6
CONTINUOUS
10
131.82
20
-120.873
11
131.82
21
-121.673
0
LINE
8
BLACK
6
CONTINUOUS
10
124.962
20
-121.673
11
124.212
21
-121.673
0
LINE
8
BLACK
6
CONTINUOUS
10
124.212
20
-121.673
11
124.212
21
-120.873
0
LINE
8
BLACK
6
CONTINUOUS
10
124.212
20
-120.873
11
124.962
21
-120.873
0
LINE
8
BLACK
6
CONTINUOUS
10
124.962
20
-120.873
11
124.962
21
-121.673
0
LINE
8
BLACK
6
CONTINUOUS
10
274.494
20
-121.637
11
273.194
21
-121.637
0
LINE
8
BLACK
6
CONTINUOUS
10
273.194
20
-121.637
11
273.194
21
-120.938
0
LINE
8
BLACK
6
CONTINUOUS
10
273.194
20
-120.938
11
274.494
21
-120.938
0
LINE
8
BLACK
6
CONTINUOUS
10
274.494
20
-120.938
11
274.494
21
-121.637
0
LINE
8
BLACK
6
CONTINUOUS
10
104.631
20
-121.637
11
103.331
21
-121.637
0
LINE
8
BLACK
6
CONTINUOUS
10
103.331
20
-121.637
11
103.331
21
-120.938
0
LINE
8
BLACK
6
CONTINUOUS
10
103.331
20
-120.938
11
104.631
21
-120.938
0
LINE
8
BLACK
6
CONTINUOUS
10
104.631
20
-120.938
11
104.631
21
-121.637
0
LINE
8
BLACK
6
CONTINUOUS
10
108.6
20
-121.156
11
107.3
21
-121.156
0
LINE
8
BLACK
6
CONTINUOUS
10
107.3
20
-121.156
11
107.3
21
-120.456
0
LINE
8
BLACK
6
CONTINUOUS
10
107.3
20
-120.456
11
108.6
21
-120.456
0
LINE
8
BLACK
6
CONTINUOUS
10
108.6
20
-120.456
11
108.6
21
-121.156
0
LINE
8
BLACK
6
CONTINUOUS
10
255.444
20
-121.156
11
254.144
21
-121.156
0
LINE
8
BLACK
6
CONTINUOUS
10
254.144
20
-121.156
11
254.144
21
-120.456
0
LINE
8
BLACK
6
CONTINUOUS
10
254.144
20
-120.456
11
255.444
21
-120.456
0
LINE
8
BLACK
6
CONTINUOUS
10
255.444
20
-120.456
11
255.444
21
-121.156
0
LINE
8
BLACK
6
CONTINUOUS
10
229.686
20
-121.025
11
228.886
21
-121.025
0
LINE
8
BLACK
6
CONTINUOUS
10
228.886
20
-121.025
11
228.886
21
-120.275
0
LINE
8
BLACK
6
CONTINUOUS
10
228.886
20
-120.275
11
229.686
21
-120.275
0
LINE
8
BLACK
6
CONTINUOUS
10
229.686
20
-120.275
11
229.686
21
-121.025
0
LINE
8
BLACK
6
CONTINUOUS
10
228.186
20
-121.025
11
227.386
21
-121.025
0
LINE
8
BLACK
6
CONTINUOUS
10
227.386
20
-121.025
11
227.386
21
-120.275
0
LINE
8
BLACK
6
CONTINUOUS
10
227.386
20
-120.275
11
228.186
21
-120.275
0
LINE
8
BLACK
6
CONTINUOUS
10
228.186
20
-120.275
11
228.186
21
-121.025
0
LINE
8
BLACK
6
CONTINUOUS
10
121.554
20
-120.812
11
120.254
21
-120.812
0
LINE
8
BLACK
6
CONTINUOUS
10
120.254
20
-120.812
11
120.254
21
-120.112
0
LINE
8
BLACK
6
CONTINUOUS
10
120.254
20
-120.112
11
121.554
21
-120.112
0
LINE
8
BLACK
6
CONTINUOUS
10
121.554
20
-120.112
11
121.554
21
-120.812
0
LINE
8
BLACK
6
CONTINUOUS
10
195.164
20
-119.839
11
193.605
21
-120.739
0
LINE
8
BLACK
6
CONTINUOUS
10
193.605
20
-120.739
11
193.055
21
-119.787
0
LINE
8
BLACK
6
CONTINUOUS
10
193.055
20
-119.787
11
194.614
21
-118.887
0
LINE
8
BLACK
6
CONTINUOUS
10
194.614
20
-118.887
11
195.164
21
-119.839
0
LINE
8
BLACK
6
CONTINUOUS
10
241.569
20
-120.685
11
240.269
21
-120.685
0
LINE
8
BLACK
6
CONTINUOUS
10
240.269
20
-120.685
11
240.269
21
-119.985
0
LINE
8
BLACK
6
CONTINUOUS
10
240.269
20
-119.985
11
241.569
21
-119.985
0
LINE
8
BLACK
6
CONTINUOUS
10
241.569
20
-119.985
11
241.569
21
-120.685
0
LINE
8
BLACK
6
CONTINUOUS
10
137.825
20
-120.665
11
137.125
21
-120.665
0
LINE
8
BLACK
6
CONTINUOUS
10
137.125
20
-120.665
11
137.125
21
-119.365
0
LINE
8
BLACK
6
CONTINUOUS
10
137.125
20
-119.365
11
137.825
21
-119.365
0
LINE
8
BLACK
6
CONTINUOUS
10
137.825
20
-119.365
11
137.825
21
-120.665
0
LINE
8
BLACK
6
CONTINUOUS
10
135.925
20
-120.665
11
135.225
21
-120.665
0
LINE
8
BLACK
6
CONTINUOUS
10
135.225
20
-120.665
11
135.225
21
-119.365
0
LINE
8
BLACK
6
CONTINUOUS
10
135.225
20
-119.365
11
135.925
21
-119.365
0
LINE
8
BLACK
6
CONTINUOUS
10
135.925
20
-119.365
11
135.925
21
-120.665
0
LINE
8
BLACK
6
CONTINUOUS
10
187.945
20
-119.735
11
186.386
21
-120.635
0
LINE
8
BLACK
6
CONTINUOUS
10
186.386
20
-120.635
11
185.836
21
-119.683
0
LINE
8
BLACK
6
CONTINUOUS
10
185.836
20
-119.683
11
187.395
21
-118.783
0
LINE
8
BLACK
6
CONTINUOUS
10
187.395
20
-118.783
11
187.945
21
-119.735
0
LINE
8
BLACK
6
CONTINUOUS
10
170.927
20
-119.66
11
170.377
21
-120.612
0
LINE
8
BLACK
6
CONTINUOUS
10
170.377
20
-120.612
11
168.818
21
-119.712
0
LINE
8
BLACK
6
CONTINUOUS
10
168.818
20
-119.712
11
169.368
21
-118.76
0
LINE
8
BLACK
6
CONTINUOUS
10
169.368
20
-118.76
11
170.927
21
-119.66
0
LINE
8
BLACK
6
CONTINUOUS
10
178.146
20
-119.556
11
177.596
21
-120.508
0
LINE
8
BLACK
6
CONTINUOUS
10
177.596
20
-120.508
11
176.037
21
-119.608
0
LINE
8
BLACK
6
CONTINUOUS
10
176.037
20
-119.608
11
176.587
21
-118.656
0
LINE
8
BLACK
6
CONTINUOUS
10
176.587
20
-118.656
11
178.146
21
-119.556
0
LINE
8
BLACK
6
CONTINUOUS
10
129.466
20
-120.323
11
128.316
21
-120.323
0
LINE
8
BLACK
6
CONTINUOUS
10
128.316
20
-120.323
11
128.316
21
-119.323
0
LINE
8
BLACK
6
CONTINUOUS
10
128.316
20
-119.323
11
129.466
21
-119.323
0
LINE
8
BLACK
6
CONTINUOUS
10
129.466
20
-119.323
11
129.466
21
-120.323
0
LINE
8
BLACK
6
CONTINUOUS
10
127.716
20
-120.323
11
126.566
21
-120.323
0
LINE
8
BLACK
6
CONTINUOUS
10
126.566
20
-120.323
11
126.566
21
-119.323
0
LINE
8
BLACK
6
CONTINUOUS
10
126.566
20
-119.323
11
127.716
21
-119.323
0
LINE
8
BLACK
6
CONTINUOUS
10
127.716
20
-119.323
11
127.716
21
-120.323
0
LINE
8
BLACK
6
CONTINUOUS
10
152.206
20
-120.244
11
151.006
21
-120.244
0
LINE
8
BLACK
6
CONTINUOUS
10
151.006
20
-120.244
11
151.006
21
-119.344
0
LINE
8
BLACK
6
CONTINUOUS
10
151.006
20
-119.344
11
152.206
21
-119.344
0
LINE
8
BLACK
6
CONTINUOUS
10
152.206
20
-119.344
11
152.206
21
-120.244
0
LINE
8
BLACK
6
CONTINUOUS
10
279.206
20
-120.244
11
278.006
21
-120.244
0
LINE
8
BLACK
6
CONTINUOUS
10
278.006
20
-120.244
11
278.006
21
-119.344
0
LINE
8
BLACK
6
CONTINUOUS
10
278.006
20
-119.344
11
279.206
21
-119.344
0
LINE
8
BLACK
6
CONTINUOUS
10
279.206
20
-119.344
11
279.206
21
-120.244
0
LINE
8
BLACK
6
CONTINUOUS
10
312.544
20
-120.244
11
311.344
21
-120.244
0
LINE
8
BLACK
6
CONTINUOUS
10
311.344
20
-120.244
11
311.344
21
-119.344
0
LINE
8
BLACK
6
CONTINUOUS
10
311.344
20
-119.344
11
312.544
21
-119.344
0
LINE
8
BLACK
6
CONTINUOUS
10
312.544
20
-119.344
11
312.544
21
-120.244
0
LINE
8
BLACK
6
CONTINUOUS
10
52.1937
20
-120.244
11
50.9937
21
-120.244
0
LINE
8
BLACK
6
CONTINUOUS
10
50.9937
20
-120.244
11
50.9937
21
-119.344
0
LINE
8
BLACK
6
CONTINUOUS
10
50.9937
20
-119.344
11
52.1937
21
-119.344
0
LINE
8
BLACK
6
CONTINUOUS
10
52.1937
20
-119.344
11
52.1937
21
-120.244
0
LINE
8
BLACK
6
CONTINUOUS
10
85.5312
20
-120.244
11
84.3312
21
-120.244
0
LINE
8
BLACK
6
CONTINUOUS
10
84.3312
20
-120.244
11
84.3312
21
-119.344
0
LINE
8
BLACK
6
CONTINUOUS
10
84.3312
20
-119.344
11
85.5312
21
-119.344
0
LINE
8
BLACK
6
CONTINUOUS
10
85.5312
20
-119.344
11
85.5312
21
-120.244
0
LINE
8
BLACK
6
CONTINUOUS
10
124.962
20
-120.173
11
124.212
21
-120.173
0
LINE
8
BLACK
6
CONTINUOUS
10
124.212
20
-120.173
11
124.212
21
-119.373
0
LINE
8
BLACK
6
CONTINUOUS
10
124.212
20
-119.373
11
124.962
21
-119.373
0
LINE
8
BLACK
6
CONTINUOUS
10
124.962
20
-119.373
11
124.962
21
-120.173
0
LINE
8
BLACK
6
CONTINUOUS
10
131.82
20
-120.173
11
131.07
21
-120.173
0
LINE
8
BLACK
6
CONTINUOUS
10
131.07
20
-120.173
11
131.07
21
-119.373
0
LINE
8
BLACK
6
CONTINUOUS
10
131.07
20
-119.373
11
131.82
21
-119.373
0
LINE
8
BLACK
6
CONTINUOUS
10
131.82
20
-119.373
11
131.82
21
-120.173
0
LINE
8
BLACK
6
CONTINUOUS
10
235.082
20
-119.71
11
234.832
21
-119.71
0
LINE
8
BLACK
6
CONTINUOUS
10
234.832
20
-119.71
11
234.832
21
-119.01
0
LINE
8
BLACK
6
CONTINUOUS
10
234.832
20
-119.01
11
235.082
21
-119.01
0
LINE
8
BLACK
6
CONTINUOUS
10
235.082
20
-119.01
11
235.082
21
-119.71
0
LINE
8
BLACK
6
CONTINUOUS
10
231.582
20
-119.71
11
231.332
21
-119.71
0
LINE
8
BLACK
6
CONTINUOUS
10
231.332
20
-119.71
11
231.332
21
-119.01
0
LINE
8
BLACK
6
CONTINUOUS
10
231.332
20
-119.01
11
231.582
21
-119.01
0
LINE
8
BLACK
6
CONTINUOUS
10
231.582
20
-119.01
11
231.582
21
-119.71
0
LINE
8
BLACK
6
CONTINUOUS
10
233.582
20
-119.71
11
233.332
21
-119.71
0
LINE
8
BLACK
6
CONTINUOUS
10
233.332
20
-119.71
11
233.332
21
-119.01
0
LINE
8
BLACK
6
CONTINUOUS
10
233.332
20
-119.01
11
233.582
21
-119.01
0
LINE
8
BLACK
6
CONTINUOUS
10
233.582
20
-119.01
11
233.582
21
-119.71
0
LINE
8
BLACK
6
CONTINUOUS
10
232.082
20
-119.71
11
231.832
21
-119.71
0
LINE
8
BLACK
6
CONTINUOUS
10
231.832
20
-119.71
11
231.832
21
-119.01
0
LINE
8
BLACK
6
CONTINUOUS
10
231.832
20
-119.01
11
232.082
21
-119.01
0
LINE
8
BLACK
6
CONTINUOUS
10
232.082
20
-119.01
11
232.082
21
-119.71
0
LINE
8
BLACK
6
CONTINUOUS
10
232.582
20
-119.71
11
232.332
21
-119.71
0
LINE
8
BLACK
6
CONTINUOUS
10
232.332
20
-119.71
11
232.332
21
-119.01
0
LINE
8
BLACK
6
CONTINUOUS
10
232.332
20
-119.01
11
232.582
21
-119.01
0
LINE
8
BLACK
6
CONTINUOUS
10
232.582
20
-119.01
11
232.582
21
-119.71
0
LINE
8
BLACK
6
CONTINUOUS
10
233.082
20
-119.71
11
232.832
21
-119.71
0
LINE
8
BLACK
6
CONTINUOUS
10
232.832
20
-119.71
11
232.832
21
-119.01
0
LINE
8
BLACK
6
CONTINUOUS
10
232.832
20
-119.01
11
233.082
21
-119.01
0
LINE
8
BLACK
6
CONTINUOUS
10
233.082
20
-119.01
11
233.082
21
-119.71
0
LINE
8
BLACK
6
CONTINUOUS
10
235.582
20
-119.71
11
235.332
21
-119.71
0
LINE
8
BLACK
6
CONTINUOUS
10
235.332
20
-119.71
11
235.332
21
-119.01
0
LINE
8
BLACK
6
CONTINUOUS
10
235.332
20
-119.01
11
235.582
21
-119.01
0
LINE
8
BLACK
6
CONTINUOUS
10
235.582
20
-119.01
11
235.582
21
-119.71
0
LINE
8
BLACK
6
CONTINUOUS
10
236.082
20
-119.71
11
235.832
21
-119.71
0
LINE
8
BLACK
6
CONTINUOUS
10
235.832
20
-119.71
11
235.832
21
-119.01
0
LINE
8
BLACK
6
CONTINUOUS
10
235.832
20
-119.01
11
236.082
21
-119.01
0
LINE
8
BLACK
6
CONTINUOUS
10
236.082
20
-119.01
11
236.082
21
-119.71
0
LINE
8
BLACK
6
CONTINUOUS
10
234.082
20
-119.71
11
233.832
21
-119.71
0
LINE
8
BLACK
6
CONTINUOUS
10
233.832
20
-119.71
11
233.832
21
-119.01
0
LINE
8
BLACK
6
CONTINUOUS
10
233.832
20
-119.01
11
234.082
21
-119.01
0
LINE
8
BLACK
6
CONTINUOUS
10
234.082
20
-119.01
11
234.082
21
-119.71
0
LINE
8
BLACK
6
CONTINUOUS
10
234.582
20
-119.71
11
234.332
21
-119.71
0
LINE
8
BLACK
6
CONTINUOUS
10
234.332
20
-119.71
11
234.332
21
-119.01
0
LINE
8
BLACK
6
CONTINUOUS
10
234.332
20
-119.01
11
234.582
21
-119.01
0
LINE
8
BLACK
6
CONTINUOUS
10
234.582
20
-119.01
11
234.582
21
-119.71
0
LINE
8
BLACK
6
CONTINUOUS
10
236.582
20
-119.71
11
236.332
21
-119.71
0
LINE
8
BLACK
6
CONTINUOUS
10
236.332
20
-119.71
11
236.332
21
-119.01
0
LINE
8
BLACK
6
CONTINUOUS
10
236.332
20
-119.01
11
236.582
21
-119.01
0
LINE
8
BLACK
6
CONTINUOUS
10
236.582
20
-119.01
11
236.582
21
-119.71
0
LINE
8
BLACK
6
CONTINUOUS
10
255.444
20
-119.256
11
254.144
21
-119.256
0
LINE
8
BLACK
6
CONTINUOUS
10
254.144
20
-119.256
11
254.144
21
-118.556
0
LINE
8
BLACK
6
CONTINUOUS
10
254.144
20
-118.556
11
255.444
21
-118.556
0
LINE
8
BLACK
6
CONTINUOUS
10
255.444
20
-118.556
11
255.444
21
-119.256
0
LINE
8
BLACK
6
CONTINUOUS
10
108.6
20
-119.256
11
107.3
21
-119.256
0
LINE
8
BLACK
6
CONTINUOUS
10
107.3
20
-119.256
11
107.3
21
-118.556
0
LINE
8
BLACK
6
CONTINUOUS
10
107.3
20
-118.556
11
108.6
21
-118.556
0
LINE
8
BLACK
6
CONTINUOUS
10
108.6
20
-118.556
11
108.6
21
-119.256
0
LINE
8
BLACK
6
CONTINUOUS
10
104.581
20
-118.781
11
103.381
21
-118.781
0
LINE
8
BLACK
6
CONTINUOUS
10
103.381
20
-118.781
11
103.381
21
-117.881
0
LINE
8
BLACK
6
CONTINUOUS
10
103.381
20
-117.881
11
104.581
21
-117.881
0
LINE
8
BLACK
6
CONTINUOUS
10
104.581
20
-117.881
11
104.581
21
-118.781
0
LINE
8
BLACK
6
CONTINUOUS
10
274.444
20
-118.781
11
273.244
21
-118.781
0
LINE
8
BLACK
6
CONTINUOUS
10
273.244
20
-118.781
11
273.244
21
-117.881
0
LINE
8
BLACK
6
CONTINUOUS
10
273.244
20
-117.881
11
274.444
21
-117.881
0
LINE
8
BLACK
6
CONTINUOUS
10
274.444
20
-117.881
11
274.444
21
-118.781
0
LINE
8
BLACK
6
CONTINUOUS
10
121.279
20
-118.625
11
120.529
21
-118.625
0
LINE
8
BLACK
6
CONTINUOUS
10
120.529
20
-118.625
11
120.529
21
-117.825
0
LINE
8
BLACK
6
CONTINUOUS
10
120.529
20
-117.825
11
121.279
21
-117.825
0
LINE
8
BLACK
6
CONTINUOUS
10
121.279
20
-117.825
11
121.279
21
-118.625
0
LINE
8
BLACK
6
CONTINUOUS
10
237.707
20
-118.585
11
237.007
21
-118.585
0
LINE
8
BLACK
6
CONTINUOUS
10
237.007
20
-118.585
11
237.007
21
-118.335
0
LINE
8
BLACK
6
CONTINUOUS
10
237.007
20
-118.335
11
237.707
21
-118.335
0
LINE
8
BLACK
6
CONTINUOUS
10
237.707
20
-118.335
11
237.707
21
-118.585
0
LINE
8
BLACK
6
CONTINUOUS
10
230.907
20
-118.585
11
230.207
21
-118.585
0
LINE
8
BLACK
6
CONTINUOUS
10
230.207
20
-118.585
11
230.207
21
-118.335
0
LINE
8
BLACK
6
CONTINUOUS
10
230.207
20
-118.335
11
230.907
21
-118.335
0
LINE
8
BLACK
6
CONTINUOUS
10
230.907
20
-118.335
11
230.907
21
-118.585
0
LINE
8
BLACK
6
CONTINUOUS
10
232.412
20
-118.277
11
231.639
21
-118.277
0
LINE
8
BLACK
6
CONTINUOUS
10
231.639
20
-118.277
11
231.639
21
-117.505
0
LINE
8
BLACK
6
CONTINUOUS
10
231.639
20
-117.505
11
232.412
21
-117.505
0
LINE
8
BLACK
6
CONTINUOUS
10
232.412
20
-117.505
11
232.412
21
-118.277
0
LINE
8
BLACK
6
CONTINUOUS
10
233.7
20
-118.277
11
232.927
21
-118.277
0
LINE
8
BLACK
6
CONTINUOUS
10
232.927
20
-118.277
11
232.927
21
-117.505
0
LINE
8
BLACK
6
CONTINUOUS
10
232.927
20
-117.505
11
233.7
21
-117.505
0
LINE
8
BLACK
6
CONTINUOUS
10
233.7
20
-117.505
11
233.7
21
-118.277
0
LINE
8
BLACK
6
CONTINUOUS
10
234.987
20
-118.277
11
234.214
21
-118.277
0
LINE
8
BLACK
6
CONTINUOUS
10
234.214
20
-118.277
11
234.214
21
-117.505
0
LINE
8
BLACK
6
CONTINUOUS
10
234.214
20
-117.505
11
234.987
21
-117.505
0
LINE
8
BLACK
6
CONTINUOUS
10
234.987
20
-117.505
11
234.987
21
-118.277
0
LINE
8
BLACK
6
CONTINUOUS
10
236.274
20
-118.277
11
235.502
21
-118.277
0
LINE
8
BLACK
6
CONTINUOUS
10
235.502
20
-118.277
11
235.502
21
-117.505
0
LINE
8
BLACK
6
CONTINUOUS
10
235.502
20
-117.505
11
236.274
21
-117.505
0
LINE
8
BLACK
6
CONTINUOUS
10
236.274
20
-117.505
11
236.274
21
-118.277
0
LINE
8
BLACK
6
CONTINUOUS
10
230.907
20
-118.085
11
230.207
21
-118.085
0
LINE
8
BLACK
6
CONTINUOUS
10
230.207
20
-118.085
11
230.207
21
-117.835
0
LINE
8
BLACK
6
CONTINUOUS
10
230.207
20
-117.835
11
230.907
21
-117.835
0
LINE
8
BLACK
6
CONTINUOUS
10
230.907
20
-117.835
11
230.907
21
-118.085
0
LINE
8
BLACK
6
CONTINUOUS
10
237.707
20
-118.085
11
237.007
21
-118.085
0
LINE
8
BLACK
6
CONTINUOUS
10
237.007
20
-118.085
11
237.007
21
-117.835
0
LINE
8
BLACK
6
CONTINUOUS
10
237.007
20
-117.835
11
237.707
21
-117.835
0
LINE
8
BLACK
6
CONTINUOUS
10
237.707
20
-117.835
11
237.707
21
-118.085
0
LINE
8
BLACK
6
CONTINUOUS
10
230.907
20
-117.585
11
230.207
21
-117.585
0
LINE
8
BLACK
6
CONTINUOUS
10
230.207
20
-117.585
11
230.207
21
-117.335
0
LINE
8
BLACK
6
CONTINUOUS
10
230.207
20
-117.335
11
230.907
21
-117.335
0
LINE
8
BLACK
6
CONTINUOUS
10
230.907
20
-117.335
11
230.907
21
-117.585
0
LINE
8
BLACK
6
CONTINUOUS
10
237.707
20
-117.585
11
237.007
21
-117.585
0
LINE
8
BLACK
6
CONTINUOUS
10
237.007
20
-117.585
11
237.007
21
-117.335
0
LINE
8
BLACK
6
CONTINUOUS
10
237.007
20
-117.335
11
237.707
21
-117.335
0
LINE
8
BLACK
6
CONTINUOUS
10
237.707
20
-117.335
11
237.707
21
-117.585
0
LINE
8
BLACK
6
CONTINUOUS
10
193.314
20
-116.635
11
191.755
21
-117.535
0
LINE
8
BLACK
6
CONTINUOUS
10
191.755
20
-117.535
11
191.205
21
-116.583
0
LINE
8
BLACK
6
CONTINUOUS
10
191.205
20
-116.583
11
192.764
21
-115.683
0
LINE
8
BLACK
6
CONTINUOUS
10
192.764
20
-115.683
11
193.314
21
-116.635
0
LINE
8
BLACK
6
CONTINUOUS
10
136.278
20
-117.469
11
135.478
21
-117.469
0
LINE
8
BLACK
6
CONTINUOUS
10
135.478
20
-117.469
11
135.478
21
-116.719
0
LINE
8
BLACK
6
CONTINUOUS
10
135.478
20
-116.719
11
136.278
21
-116.719
0
LINE
8
BLACK
6
CONTINUOUS
10
136.278
20
-116.719
11
136.278
21
-117.469
0
LINE
8
BLACK
6
CONTINUOUS
10
134.778
20
-117.469
11
133.978
21
-117.469
0
LINE
8
BLACK
6
CONTINUOUS
10
133.978
20
-117.469
11
133.978
21
-116.719
0
LINE
8
BLACK
6
CONTINUOUS
10
133.978
20
-116.719
11
134.778
21
-116.719
0
LINE
8
BLACK
6
CONTINUOUS
10
134.778
20
-116.719
11
134.778
21
-117.469
0
LINE
8
BLACK
6
CONTINUOUS
10
172.777
20
-116.456
11
172.227
21
-117.408
0
LINE
8
BLACK
6
CONTINUOUS
10
172.227
20
-117.408
11
170.668
21
-116.508
0
LINE
8
BLACK
6
CONTINUOUS
10
170.668
20
-116.508
11
171.218
21
-115.556
0
LINE
8
BLACK
6
CONTINUOUS
10
171.218
20
-115.556
11
172.777
21
-116.456
0
LINE
8
BLACK
6
CONTINUOUS
10
329.219
20
-117.363
11
328.519
21
-117.363
0
LINE
8
BLACK
6
CONTINUOUS
10
328.519
20
-117.363
11
328.519
21
-116.063
0
LINE
8
BLACK
6
CONTINUOUS
10
328.519
20
-116.063
11
329.219
21
-116.063
0
LINE
8
BLACK
6
CONTINUOUS
10
329.219
20
-116.063
11
329.219
21
-117.363
0
LINE
8
BLACK
6
CONTINUOUS
10
326.166
20
-117.363
11
325.466
21
-117.363
0
LINE
8
BLACK
6
CONTINUOUS
10
325.466
20
-117.363
11
325.466
21
-116.063
0
LINE
8
BLACK
6
CONTINUOUS
10
325.466
20
-116.063
11
326.166
21
-116.063
0
LINE
8
BLACK
6
CONTINUOUS
10
326.166
20
-116.063
11
326.166
21
-117.363
0
LINE
8
BLACK
6
CONTINUOUS
10
324.266
20
-117.363
11
323.566
21
-117.363
0
LINE
8
BLACK
6
CONTINUOUS
10
323.566
20
-117.363
11
323.566
21
-116.063
0
LINE
8
BLACK
6
CONTINUOUS
10
323.566
20
-116.063
11
324.266
21
-116.063
0
LINE
8
BLACK
6
CONTINUOUS
10
324.266
20
-116.063
11
324.266
21
-117.363
0
LINE
8
BLACK
6
CONTINUOUS
10
331.119
20
-117.363
11
330.419
21
-117.363
0
LINE
8
BLACK
6
CONTINUOUS
10
330.419
20
-117.363
11
330.419
21
-116.063
0
LINE
8
BLACK
6
CONTINUOUS
10
330.419
20
-116.063
11
331.119
21
-116.063
0
LINE
8
BLACK
6
CONTINUOUS
10
331.119
20
-116.063
11
331.119
21
-117.363
0
LINE
8
BLACK
6
CONTINUOUS
10
319.281
20
-117.363
11
318.581
21
-117.363
0
LINE
8
BLACK
6
CONTINUOUS
10
318.581
20
-117.363
11
318.581
21
-116.063
0
LINE
8
BLACK
6
CONTINUOUS
10
318.581
20
-116.063
11
319.281
21
-116.063
0
LINE
8
BLACK
6
CONTINUOUS
10
319.281
20
-116.063
11
319.281
21
-117.363
0
LINE
8
BLACK
6
CONTINUOUS
10
321.181
20
-117.363
11
320.481
21
-117.363
0
LINE
8
BLACK
6
CONTINUOUS
10
320.481
20
-117.363
11
320.481
21
-116.063
0
LINE
8
BLACK
6
CONTINUOUS
10
320.481
20
-116.063
11
321.181
21
-116.063
0
LINE
8
BLACK
6
CONTINUOUS
10
321.181
20
-116.063
11
321.181
21
-117.363
0
LINE
8
BLACK
6
CONTINUOUS
10
40.035
20
-117.331
11
39.335
21
-117.331
0
LINE
8
BLACK
6
CONTINUOUS
10
39.335
20
-117.331
11
39.335
21
-116.031
0
LINE
8
BLACK
6
CONTINUOUS
10
39.335
20
-116.031
11
40.035
21
-116.031
0
LINE
8
BLACK
6
CONTINUOUS
10
40.035
20
-116.031
11
40.035
21
-117.331
0
LINE
8
BLACK
6
CONTINUOUS
10
43.088
20
-117.331
11
42.388
21
-117.331
0
LINE
8
BLACK
6
CONTINUOUS
10
42.388
20
-117.331
11
42.388
21
-116.031
0
LINE
8
BLACK
6
CONTINUOUS
10
42.388
20
-116.031
11
43.088
21
-116.031
0
LINE
8
BLACK
6
CONTINUOUS
10
43.088
20
-116.031
11
43.088
21
-117.331
0
LINE
8
BLACK
6
CONTINUOUS
10
44.988
20
-117.331
11
44.288
21
-117.331
0
LINE
8
BLACK
6
CONTINUOUS
10
44.288
20
-117.331
11
44.288
21
-116.031
0
LINE
8
BLACK
6
CONTINUOUS
10
44.288
20
-116.031
11
44.988
21
-116.031
0
LINE
8
BLACK
6
CONTINUOUS
10
44.988
20
-116.031
11
44.988
21
-117.331
0
LINE
8
BLACK
6
CONTINUOUS
10
35.082
20
-117.331
11
34.382
21
-117.331
0
LINE
8
BLACK
6
CONTINUOUS
10
34.382
20
-117.331
11
34.382
21
-116.031
0
LINE
8
BLACK
6
CONTINUOUS
10
34.382
20
-116.031
11
35.082
21
-116.031
0
LINE
8
BLACK
6
CONTINUOUS
10
35.082
20
-116.031
11
35.082
21
-117.331
0
LINE
8
BLACK
6
CONTINUOUS
10
38.135
20
-117.331
11
37.435
21
-117.331
0
LINE
8
BLACK
6
CONTINUOUS
10
37.435
20
-117.331
11
37.435
21
-116.031
0
LINE
8
BLACK
6
CONTINUOUS
10
37.435
20
-116.031
11
38.135
21
-116.031
0
LINE
8
BLACK
6
CONTINUOUS
10
38.135
20
-116.031
11
38.135
21
-117.331
0
LINE
8
BLACK
6
CONTINUOUS
10
33.182
20
-117.331
11
32.482
21
-117.331
0
LINE
8
BLACK
6
CONTINUOUS
10
32.482
20
-117.331
11
32.482
21
-116.031
0
LINE
8
BLACK
6
CONTINUOUS
10
32.482
20
-116.031
11
33.182
21
-116.031
0
LINE
8
BLACK
6
CONTINUOUS
10
33.182
20
-116.031
11
33.182
21
-117.331
0
LINE
8
BLACK
6
CONTINUOUS
10
121.279
20
-117.125
11
120.529
21
-117.125
0
LINE
8
BLACK
6
CONTINUOUS
10
120.529
20
-117.125
11
120.529
21
-116.325
0
LINE
8
BLACK
6
CONTINUOUS
10
120.529
20
-116.325
11
121.279
21
-116.325
0
LINE
8
BLACK
6
CONTINUOUS
10
121.279
20
-116.325
11
121.279
21
-117.125
0
LINE
8
BLACK
6
CONTINUOUS
10
230.907
20
-117.085
11
230.207
21
-117.085
0
LINE
8
BLACK
6
CONTINUOUS
10
230.207
20
-117.085
11
230.207
21
-116.835
0
LINE
8
BLACK
6
CONTINUOUS
10
230.207
20
-116.835
11
230.907
21
-116.835
0
LINE
8
BLACK
6
CONTINUOUS
10
230.907
20
-116.835
11
230.907
21
-117.085
0
LINE
8
BLACK
6
CONTINUOUS
10
237.707
20
-117.085
11
237.007
21
-117.085
0
LINE
8
BLACK
6
CONTINUOUS
10
237.007
20
-117.085
11
237.007
21
-116.835
0
LINE
8
BLACK
6
CONTINUOUS
10
237.007
20
-116.835
11
237.707
21
-116.835
0
LINE
8
BLACK
6
CONTINUOUS
10
237.707
20
-116.835
11
237.707
21
-117.085
0
LINE
8
BLACK
6
CONTINUOUS
10
232.412
20
-116.99
11
231.639
21
-116.99
0
LINE
8
BLACK
6
CONTINUOUS
10
231.639
20
-116.99
11
231.639
21
-116.217
0
LINE
8
BLACK
6
CONTINUOUS
10
231.639
20
-116.217
11
232.412
21
-116.217
0
LINE
8
BLACK
6
CONTINUOUS
10
232.412
20
-116.217
11
232.412
21
-116.99
0
LINE
8
BLACK
6
CONTINUOUS
10
234.987
20
-116.99
11
234.214
21
-116.99
0
LINE
8
BLACK
6
CONTINUOUS
10
234.214
20
-116.99
11
234.214
21
-116.217
0
LINE
8
BLACK
6
CONTINUOUS
10
234.214
20
-116.217
11
234.987
21
-116.217
0
LINE
8
BLACK
6
CONTINUOUS
10
234.987
20
-116.217
11
234.987
21
-116.99
0
LINE
8
BLACK
6
CONTINUOUS
10
233.7
20
-116.99
11
232.927
21
-116.99
0
LINE
8
BLACK
6
CONTINUOUS
10
232.927
20
-116.99
11
232.927
21
-116.217
0
LINE
8
BLACK
6
CONTINUOUS
10
232.927
20
-116.217
11
233.7
21
-116.217
0
LINE
8
BLACK
6
CONTINUOUS
10
233.7
20
-116.217
11
233.7
21
-116.99
0
LINE
8
BLACK
6
CONTINUOUS
10
236.274
20
-116.99
11
235.502
21
-116.99
0
LINE
8
BLACK
6
CONTINUOUS
10
235.502
20
-116.99
11
235.502
21
-116.217
0
LINE
8
BLACK
6
CONTINUOUS
10
235.502
20
-116.217
11
236.274
21
-116.217
0
LINE
8
BLACK
6
CONTINUOUS
10
236.274
20
-116.217
11
236.274
21
-116.99
0
LINE
8
BLACK
6
CONTINUOUS
10
230.907
20
-116.585
11
230.207
21
-116.585
0
LINE
8
BLACK
6
CONTINUOUS
10
230.207
20
-116.585
11
230.207
21
-116.335
0
LINE
8
BLACK
6
CONTINUOUS
10
230.207
20
-116.335
11
230.907
21
-116.335
0
LINE
8
BLACK
6
CONTINUOUS
10
230.907
20
-116.335
11
230.907
21
-116.585
0
LINE
8
BLACK
6
CONTINUOUS
10
237.707
20
-116.585
11
237.007
21
-116.585
0
LINE
8
BLACK
6
CONTINUOUS
10
237.007
20
-116.585
11
237.007
21
-116.335
0
LINE
8
BLACK
6
CONTINUOUS
10
237.007
20
-116.335
11
237.707
21
-116.335
0
LINE
8
BLACK
6
CONTINUOUS
10
237.707
20
-116.335
11
237.707
21
-116.585
0
LINE
8
BLACK
6
CONTINUOUS
10
108.55
20
-116.4
11
107.35
21
-116.4
0
LINE
8
BLACK
6
CONTINUOUS
10
107.35
20
-116.4
11
107.35
21
-115.5
0
LINE
8
BLACK
6
CONTINUOUS
10
107.35
20
-115.5
11
108.55
21
-115.5
0
LINE
8
BLACK
6
CONTINUOUS
10
108.55
20
-115.5
11
108.55
21
-116.4
0
LINE
8
BLACK
6
CONTINUOUS
10
255.394
20
-116.4
11
254.194
21
-116.4
0
LINE
8
BLACK
6
CONTINUOUS
10
254.194
20
-116.4
11
254.194
21
-115.5
0
LINE
8
BLACK
6
CONTINUOUS
10
254.194
20
-115.5
11
255.394
21
-115.5
0
LINE
8
BLACK
6
CONTINUOUS
10
255.394
20
-115.5
11
255.394
21
-116.4
0
LINE
8
BLACK
6
CONTINUOUS
10
130.387
20
-116.145
11
130.137
21
-116.145
0
LINE
8
BLACK
6
CONTINUOUS
10
130.137
20
-116.145
11
130.137
21
-115.445
0
LINE
8
BLACK
6
CONTINUOUS
10
130.137
20
-115.445
11
130.387
21
-115.445
0
LINE
8
BLACK
6
CONTINUOUS
10
130.387
20
-115.445
11
130.387
21
-116.145
0
LINE
8
BLACK
6
CONTINUOUS
10
125.387
20
-116.145
11
125.137
21
-116.145
0
LINE
8
BLACK
6
CONTINUOUS
10
125.137
20
-116.145
11
125.137
21
-115.445
0
LINE
8
BLACK
6
CONTINUOUS
10
125.137
20
-115.445
11
125.387
21
-115.445
0
LINE
8
BLACK
6
CONTINUOUS
10
125.387
20
-115.445
11
125.387
21
-116.145
0
LINE
8
BLACK
6
CONTINUOUS
10
125.887
20
-116.145
11
125.637
21
-116.145
0
LINE
8
BLACK
6
CONTINUOUS
10
125.637
20
-116.145
11
125.637
21
-115.445
0
LINE
8
BLACK
6
CONTINUOUS
10
125.637
20
-115.445
11
125.887
21
-115.445
0
LINE
8
BLACK
6
CONTINUOUS
10
125.887
20
-115.445
11
125.887
21
-116.145
0
LINE
8
BLACK
6
CONTINUOUS
10
126.387
20
-116.145
11
126.137
21
-116.145
0
LINE
8
BLACK
6
CONTINUOUS
10
126.137
20
-116.145
11
126.137
21
-115.445
0
LINE
8
BLACK
6
CONTINUOUS
10
126.137
20
-115.445
11
126.387
21
-115.445
0
LINE
8
BLACK
6
CONTINUOUS
10
126.387
20
-115.445
11
126.387
21
-116.145
0
LINE
8
BLACK
6
CONTINUOUS
10
127.387
20
-116.145
11
127.137
21
-116.145
0
LINE
8
BLACK
6
CONTINUOUS
10
127.137
20
-116.145
11
127.137
21
-115.445
0
LINE
8
BLACK
6
CONTINUOUS
10
127.137
20
-115.445
11
127.387
21
-115.445
0
LINE
8
BLACK
6
CONTINUOUS
10
127.387
20
-115.445
11
127.387
21
-116.145
0
LINE
8
BLACK
6
CONTINUOUS
10
129.887
20
-116.145
11
129.637
21
-116.145
0
LINE
8
BLACK
6
CONTINUOUS
10
129.637
20
-116.145
11
129.637
21
-115.445
0
LINE
8
BLACK
6
CONTINUOUS
10
129.637
20
-115.445
11
129.887
21
-115.445
0
LINE
8
BLACK
6
CONTINUOUS
10
129.887
20
-115.445
11
129.887
21
-116.145
0
LINE
8
BLACK
6
CONTINUOUS
10
129.387
20
-116.145
11
129.137
21
-116.145
0
LINE
8
BLACK
6
CONTINUOUS
10
129.137
20
-116.145
11
129.137
21
-115.445
0
LINE
8
BLACK
6
CONTINUOUS
10
129.137
20
-115.445
11
129.387
21
-115.445
0
LINE
8
BLACK
6
CONTINUOUS
10
129.387
20
-115.445
11
129.387
21
-116.145
0
LINE
8
BLACK
6
CONTINUOUS
10
128.887
20
-116.145
11
128.637
21
-116.145
0
LINE
8
BLACK
6
CONTINUOUS
10
128.637
20
-116.145
11
128.637
21
-115.445
0
LINE
8
BLACK
6
CONTINUOUS
10
128.637
20
-115.445
11
128.887
21
-115.445
0
LINE
8
BLACK
6
CONTINUOUS
10
128.887
20
-115.445
11
128.887
21
-116.145
0
LINE
8
BLACK
6
CONTINUOUS
10
128.387
20
-116.145
11
128.137
21
-116.145
0
LINE
8
BLACK
6
CONTINUOUS
10
128.137
20
-116.145
11
128.137
21
-115.445
0
LINE
8
BLACK
6
CONTINUOUS
10
128.137
20
-115.445
11
128.387
21
-115.445
0
LINE
8
BLACK
6
CONTINUOUS
10
128.387
20
-115.445
11
128.387
21
-116.145
0
LINE
8
BLACK
6
CONTINUOUS
10
127.887
20
-116.145
11
127.637
21
-116.145
0
LINE
8
BLACK
6
CONTINUOUS
10
127.637
20
-116.145
11
127.637
21
-115.445
0
LINE
8
BLACK
6
CONTINUOUS
10
127.637
20
-115.445
11
127.887
21
-115.445
0
LINE
8
BLACK
6
CONTINUOUS
10
127.887
20
-115.445
11
127.887
21
-116.145
0
LINE
8
BLACK
6
CONTINUOUS
10
126.887
20
-116.145
11
126.637
21
-116.145
0
LINE
8
BLACK
6
CONTINUOUS
10
126.637
20
-116.145
11
126.637
21
-115.445
0
LINE
8
BLACK
6
CONTINUOUS
10
126.637
20
-115.445
11
126.887
21
-115.445
0
LINE
8
BLACK
6
CONTINUOUS
10
126.887
20
-115.445
11
126.887
21
-116.145
0
LINE
8
BLACK
6
CONTINUOUS
10
230.907
20
-116.085
11
230.207
21
-116.085
0
LINE
8
BLACK
6
CONTINUOUS
10
230.207
20
-116.085
11
230.207
21
-115.835
0
LINE
8
BLACK
6
CONTINUOUS
10
230.207
20
-115.835
11
230.907
21
-115.835
0
LINE
8
BLACK
6
CONTINUOUS
10
230.907
20
-115.835
11
230.907
21
-116.085
0
LINE
8
BLACK
6
CONTINUOUS
10
237.707
20
-116.085
11
237.007
21
-116.085
0
LINE
8
BLACK
6
CONTINUOUS
10
237.007
20
-116.085
11
237.007
21
-115.835
0
LINE
8
BLACK
6
CONTINUOUS
10
237.007
20
-115.835
11
237.707
21
-115.835
0
LINE
8
BLACK
6
CONTINUOUS
10
237.707
20
-115.835
11
237.707
21
-116.085
0
LINE
8
BLACK
6
CONTINUOUS
10
233.7
20
-115.702
11
232.927
21
-115.702
0
LINE
8
BLACK
6
CONTINUOUS
10
232.927
20
-115.702
11
232.927
21
-114.93
0
LINE
8
BLACK
6
CONTINUOUS
10
232.927
20
-114.93
11
233.7
21
-114.93
0
LINE
8
BLACK
6
CONTINUOUS
10
233.7
20
-114.93
11
233.7
21
-115.702
0
LINE
8
BLACK
6
CONTINUOUS
10
234.987
20
-115.702
11
234.214
21
-115.702
0
LINE
8
BLACK
6
CONTINUOUS
10
234.214
20
-115.702
11
234.214
21
-114.93
0
LINE
8
BLACK
6
CONTINUOUS
10
234.214
20
-114.93
11
234.987
21
-114.93
0
LINE
8
BLACK
6
CONTINUOUS
10
234.987
20
-114.93
11
234.987
21
-115.702
0
LINE
8
BLACK
6
CONTINUOUS
10
232.412
20
-115.702
11
231.639
21
-115.702
0
LINE
8
BLACK
6
CONTINUOUS
10
231.639
20
-115.702
11
231.639
21
-114.93
0
LINE
8
BLACK
6
CONTINUOUS
10
231.639
20
-114.93
11
232.412
21
-114.93
0
LINE
8
BLACK
6
CONTINUOUS
10
232.412
20
-114.93
11
232.412
21
-115.702
0
LINE
8
BLACK
6
CONTINUOUS
10
236.274
20
-115.702
11
235.502
21
-115.702
0
LINE
8
BLACK
6
CONTINUOUS
10
235.502
20
-115.702
11
235.502
21
-114.93
0
LINE
8
BLACK
6
CONTINUOUS
10
235.502
20
-114.93
11
236.274
21
-114.93
0
LINE
8
BLACK
6
CONTINUOUS
10
236.274
20
-114.93
11
236.274
21
-115.702
0
LINE
8
BLACK
6
CONTINUOUS
10
316.562
20
-115.6
11
315.262
21
-115.6
0
LINE
8
BLACK
6
CONTINUOUS
10
315.262
20
-115.6
11
315.262
21
-114.9
0
LINE
8
BLACK
6
CONTINUOUS
10
315.262
20
-114.9
11
316.562
21
-114.9
0
LINE
8
BLACK
6
CONTINUOUS
10
316.562
20
-114.9
11
316.562
21
-115.6
0
LINE
8
BLACK
6
CONTINUOUS
10
48.275
20
-115.6
11
46.975
21
-115.6
0
LINE
8
BLACK
6
CONTINUOUS
10
46.975
20
-115.6
11
46.975
21
-114.9
0
LINE
8
BLACK
6
CONTINUOUS
10
46.975
20
-114.9
11
48.275
21
-114.9
0
LINE
8
BLACK
6
CONTINUOUS
10
48.275
20
-114.9
11
48.275
21
-115.6
0
LINE
8
BLACK
6
CONTINUOUS
10
237.707
20
-115.585
11
237.007
21
-115.585
0
LINE
8
BLACK
6
CONTINUOUS
10
237.007
20
-115.585
11
237.007
21
-115.335
0
LINE
8
BLACK
6
CONTINUOUS
10
237.007
20
-115.335
11
237.707
21
-115.335
0
LINE
8
BLACK
6
CONTINUOUS
10
237.707
20
-115.335
11
237.707
21
-115.585
0
LINE
8
BLACK
6
CONTINUOUS
10
230.907
20
-115.585
11
230.207
21
-115.585
0
LINE
8
BLACK
6
CONTINUOUS
10
230.207
20
-115.585
11
230.207
21
-115.335
0
LINE
8
BLACK
6
CONTINUOUS
10
230.207
20
-115.335
11
230.907
21
-115.335
0
LINE
8
BLACK
6
CONTINUOUS
10
230.907
20
-115.335
11
230.907
21
-115.585
0
LINE
8
BLACK
6
CONTINUOUS
10
104.581
20
-115.481
11
103.381
21
-115.481
0
LINE
8
BLACK
6
CONTINUOUS
10
103.381
20
-115.481
11
103.381
21
-114.581
0
LINE
8
BLACK
6
CONTINUOUS
10
103.381
20
-114.581
11
104.581
21
-114.581
0
LINE
8
BLACK
6
CONTINUOUS
10
104.581
20
-114.581
11
104.581
21
-115.481
0
LINE
8
BLACK
6
CONTINUOUS
10
274.444
20
-115.481
11
273.244
21
-115.481
0
LINE
8
BLACK
6
CONTINUOUS
10
273.244
20
-115.481
11
273.244
21
-114.581
0
LINE
8
BLACK
6
CONTINUOUS
10
273.244
20
-114.581
11
274.444
21
-114.581
0
LINE
8
BLACK
6
CONTINUOUS
10
274.444
20
-114.581
11
274.444
21
-115.481
0
LINE
8
BLACK
6
CONTINUOUS
10
227.464
20
-115.183
11
226.664
21
-115.183
0
LINE
8
BLACK
6
CONTINUOUS
10
226.664
20
-115.183
11
226.664
21
-114.433
0
LINE
8
BLACK
6
CONTINUOUS
10
226.664
20
-114.433
11
227.464
21
-114.433
0
LINE
8
BLACK
6
CONTINUOUS
10
227.464
20
-114.433
11
227.464
21
-115.183
0
LINE
8
BLACK
6
CONTINUOUS
10
225.964
20
-115.183
11
225.164
21
-115.183
0
LINE
8
BLACK
6
CONTINUOUS
10
225.164
20
-115.183
11
225.164
21
-114.433
0
LINE
8
BLACK
6
CONTINUOUS
10
225.164
20
-114.433
11
225.964
21
-114.433
0
LINE
8
BLACK
6
CONTINUOUS
10
225.964
20
-114.433
11
225.964
21
-115.183
0
LINE
8
BLACK
6
CONTINUOUS
10
230.907
20
-115.085
11
230.207
21
-115.085
0
LINE
8
BLACK
6
CONTINUOUS
10
230.207
20
-115.085
11
230.207
21
-114.835
0
LINE
8
BLACK
6
CONTINUOUS
10
230.207
20
-114.835
11
230.907
21
-114.835
0
LINE
8
BLACK
6
CONTINUOUS
10
230.907
20
-114.835
11
230.907
21
-115.085
0
LINE
8
BLACK
6
CONTINUOUS
10
237.707
20
-115.085
11
237.007
21
-115.085
0
LINE
8
BLACK
6
CONTINUOUS
10
237.007
20
-115.085
11
237.007
21
-114.835
0
LINE
8
BLACK
6
CONTINUOUS
10
237.007
20
-114.835
11
237.707
21
-114.835
0
LINE
8
BLACK
6
CONTINUOUS
10
237.707
20
-114.835
11
237.707
21
-115.085
0
LINE
8
BLACK
6
CONTINUOUS
10
124.712
20
-115.02
11
124.012
21
-115.02
0
LINE
8
BLACK
6
CONTINUOUS
10
124.012
20
-115.02
11
124.012
21
-114.77
0
LINE
8
BLACK
6
CONTINUOUS
10
124.012
20
-114.77
11
124.712
21
-114.77
0
LINE
8
BLACK
6
CONTINUOUS
10
124.712
20
-114.77
11
124.712
21
-115.02
0
LINE
8
BLACK
6
CONTINUOUS
10
131.512
20
-115.02
11
130.812
21
-115.02
0
LINE
8
BLACK
6
CONTINUOUS
10
130.812
20
-115.02
11
130.812
21
-114.77
0
LINE
8
BLACK
6
CONTINUOUS
10
130.812
20
-114.77
11
131.512
21
-114.77
0
LINE
8
BLACK
6
CONTINUOUS
10
131.512
20
-114.77
11
131.512
21
-115.02
0
LINE
8
BLACK
6
CONTINUOUS
10
126.217
20
-114.712
11
125.444
21
-114.712
0
LINE
8
BLACK
6
CONTINUOUS
10
125.444
20
-114.712
11
125.444
21
-113.94
0
LINE
8
BLACK
6
CONTINUOUS
10
125.444
20
-113.94
11
126.217
21
-113.94
0
LINE
8
BLACK
6
CONTINUOUS
10
126.217
20
-113.94
11
126.217
21
-114.712
0
LINE
8
BLACK
6
CONTINUOUS
10
127.504
20
-114.712
11
126.732
21
-114.712
0
LINE
8
BLACK
6
CONTINUOUS
10
126.732
20
-114.712
11
126.732
21
-113.94
0
LINE
8
BLACK
6
CONTINUOUS
10
126.732
20
-113.94
11
127.504
21
-113.94
0
LINE
8
BLACK
6
CONTINUOUS
10
127.504
20
-113.94
11
127.504
21
-114.712
0
LINE
8
BLACK
6
CONTINUOUS
10
128.792
20
-114.712
11
128.019
21
-114.712
0
LINE
8
BLACK
6
CONTINUOUS
10
128.019
20
-114.712
11
128.019
21
-113.94
0
LINE
8
BLACK
6
CONTINUOUS
10
128.019
20
-113.94
11
128.792
21
-113.94
0
LINE
8
BLACK
6
CONTINUOUS
10
128.792
20
-113.94
11
128.792
21
-114.712
0
LINE
8
BLACK
6
CONTINUOUS
10
130.079
20
-114.712
11
129.307
21
-114.712
0
LINE
8
BLACK
6
CONTINUOUS
10
129.307
20
-114.712
11
129.307
21
-113.94
0
LINE
8
BLACK
6
CONTINUOUS
10
129.307
20
-113.94
11
130.079
21
-113.94
0
LINE
8
BLACK
6
CONTINUOUS
10
130.079
20
-113.94
11
130.079
21
-114.712
0
LINE
8
BLACK
6
CONTINUOUS
10
230.907
20
-114.585
11
230.207
21
-114.585
0
LINE
8
BLACK
6
CONTINUOUS
10
230.207
20
-114.585
11
230.207
21
-114.335
0
LINE
8
BLACK
6
CONTINUOUS
10
230.207
20
-114.335
11
230.907
21
-114.335
0
LINE
8
BLACK
6
CONTINUOUS
10
230.907
20
-114.335
11
230.907
21
-114.585
0
LINE
8
BLACK
6
CONTINUOUS
10
237.707
20
-114.585
11
237.007
21
-114.585
0
LINE
8
BLACK
6
CONTINUOUS
10
237.007
20
-114.585
11
237.007
21
-114.335
0
LINE
8
BLACK
6
CONTINUOUS
10
237.007
20
-114.335
11
237.707
21
-114.335
0
LINE
8
BLACK
6
CONTINUOUS
10
237.707
20
-114.335
11
237.707
21
-114.585
0
LINE
8
BLACK
6
CONTINUOUS
10
124.712
20
-114.52
11
124.012
21
-114.52
0
LINE
8
BLACK
6
CONTINUOUS
10
124.012
20
-114.52
11
124.012
21
-114.27
0
LINE
8
BLACK
6
CONTINUOUS
10
124.012
20
-114.27
11
124.712
21
-114.27
0
LINE
8
BLACK
6
CONTINUOUS
10
124.712
20
-114.27
11
124.712
21
-114.52
0
LINE
8
BLACK
6
CONTINUOUS
10
131.512
20
-114.52
11
130.812
21
-114.52
0
LINE
8
BLACK
6
CONTINUOUS
10
130.812
20
-114.52
11
130.812
21
-114.27
0
LINE
8
BLACK
6
CONTINUOUS
10
130.812
20
-114.27
11
131.512
21
-114.27
0
LINE
8
BLACK
6
CONTINUOUS
10
131.512
20
-114.27
11
131.512
21
-114.52
0
LINE
8
BLACK
6
CONTINUOUS
10
236.274
20
-114.415
11
235.502
21
-114.415
0
LINE
8
BLACK
6
CONTINUOUS
10
235.502
20
-114.415
11
235.502
21
-113.642
0
LINE
8
BLACK
6
CONTINUOUS
10
235.502
20
-113.642
11
236.274
21
-113.642
0
LINE
8
BLACK
6
CONTINUOUS
10
236.274
20
-113.642
11
236.274
21
-114.415
0
LINE
8
BLACK
6
CONTINUOUS
10
234.987
20
-114.415
11
234.214
21
-114.415
0
LINE
8
BLACK
6
CONTINUOUS
10
234.214
20
-114.415
11
234.214
21
-113.642
0
LINE
8
BLACK
6
CONTINUOUS
10
234.214
20
-113.642
11
234.987
21
-113.642
0
LINE
8
BLACK
6
CONTINUOUS
10
234.987
20
-113.642
11
234.987
21
-114.415
0
LINE
8
BLACK
6
CONTINUOUS
10
232.412
20
-114.415
11
231.639
21
-114.415
0
LINE
8
BLACK
6
CONTINUOUS
10
231.639
20
-114.415
11
231.639
21
-113.642
0
LINE
8
BLACK
6
CONTINUOUS
10
231.639
20
-113.642
11
232.412
21
-113.642
0
LINE
8
BLACK
6
CONTINUOUS
10
232.412
20
-113.642
11
232.412
21
-114.415
0
LINE
8
BLACK
6
CONTINUOUS
10
233.7
20
-114.415
11
232.927
21
-114.415
0
LINE
8
BLACK
6
CONTINUOUS
10
232.927
20
-114.415
11
232.927
21
-113.642
0
LINE
8
BLACK
6
CONTINUOUS
10
232.927
20
-113.642
11
233.7
21
-113.642
0
LINE
8
BLACK
6
CONTINUOUS
10
233.7
20
-113.642
11
233.7
21
-114.415
0
LINE
8
BLACK
6
CONTINUOUS
10
230.907
20
-114.085
11
230.207
21
-114.085
0
LINE
8
BLACK
6
CONTINUOUS
10
230.207
20
-114.085
11
230.207
21
-113.835
0
LINE
8
BLACK
6
CONTINUOUS
10
230.207
20
-113.835
11
230.907
21
-113.835
0
LINE
8
BLACK
6
CONTINUOUS
10
230.907
20
-113.835
11
230.907
21
-114.085
0
LINE
8
BLACK
6
CONTINUOUS
10
237.707
20
-114.085
11
237.007
21
-114.085
0
LINE
8
BLACK
6
CONTINUOUS
10
237.007
20
-114.085
11
237.007
21
-113.835
0
LINE
8
BLACK
6
CONTINUOUS
10
237.007
20
-113.835
11
237.707
21
-113.835
0
LINE
8
BLACK
6
CONTINUOUS
10
237.707
20
-113.835
11
237.707
21
-114.085
0
LINE
8
BLACK
6
CONTINUOUS
10
124.712
20
-114.02
11
124.012
21
-114.02
0
LINE
8
BLACK
6
CONTINUOUS
10
124.012
20
-114.02
11
124.012
21
-113.77
0
LINE
8
BLACK
6
CONTINUOUS
10
124.012
20
-113.77
11
124.712
21
-113.77
0
LINE
8
BLACK
6
CONTINUOUS
10
124.712
20
-113.77
11
124.712
21
-114.02
0
LINE
8
BLACK
6
CONTINUOUS
10
131.512
20
-114.02
11
130.812
21
-114.02
0
LINE
8
BLACK
6
CONTINUOUS
10
130.812
20
-114.02
11
130.812
21
-113.77
0
LINE
8
BLACK
6
CONTINUOUS
10
130.812
20
-113.77
11
131.512
21
-113.77
0
LINE
8
BLACK
6
CONTINUOUS
10
131.512
20
-113.77
11
131.512
21
-114.02
0
LINE
8
BLACK
6
CONTINUOUS
10
48.275
20
-113.7
11
46.975
21
-113.7
0
LINE
8
BLACK
6
CONTINUOUS
10
46.975
20
-113.7
11
46.975
21
-113
0
LINE
8
BLACK
6
CONTINUOUS
10
46.975
20
-113
11
48.275
21
-113
0
LINE
8
BLACK
6
CONTINUOUS
10
48.275
20
-113
11
48.275
21
-113.7
0
LINE
8
BLACK
6
CONTINUOUS
10
316.562
20
-113.7
11
315.262
21
-113.7
0
LINE
8
BLACK
6
CONTINUOUS
10
315.262
20
-113.7
11
315.262
21
-113
0
LINE
8
BLACK
6
CONTINUOUS
10
315.262
20
-113
11
316.562
21
-113
0
LINE
8
BLACK
6
CONTINUOUS
10
316.562
20
-113
11
316.562
21
-113.7
0
LINE
8
BLACK
6
CONTINUOUS
10
237.707
20
-113.585
11
237.007
21
-113.585
0
LINE
8
BLACK
6
CONTINUOUS
10
237.007
20
-113.585
11
237.007
21
-113.335
0
LINE
8
BLACK
6
CONTINUOUS
10
237.007
20
-113.335
11
237.707
21
-113.335
0
LINE
8
BLACK
6
CONTINUOUS
10
237.707
20
-113.335
11
237.707
21
-113.585
0
LINE
8
BLACK
6
CONTINUOUS
10
230.907
20
-113.585
11
230.207
21
-113.585
0
LINE
8
BLACK
6
CONTINUOUS
10
230.207
20
-113.585
11
230.207
21
-113.335
0
LINE
8
BLACK
6
CONTINUOUS
10
230.207
20
-113.335
11
230.907
21
-113.335
0
LINE
8
BLACK
6
CONTINUOUS
10
230.907
20
-113.335
11
230.907
21
-113.585
0
LINE
8
BLACK
6
CONTINUOUS
10
131.512
20
-113.52
11
130.812
21
-113.52
0
LINE
8
BLACK
6
CONTINUOUS
10
130.812
20
-113.52
11
130.812
21
-113.27
0
LINE
8
BLACK
6
CONTINUOUS
10
130.812
20
-113.27
11
131.512
21
-113.27
0
LINE
8
BLACK
6
CONTINUOUS
10
131.512
20
-113.27
11
131.512
21
-113.52
0
LINE
8
BLACK
6
CONTINUOUS
10
124.712
20
-113.52
11
124.012
21
-113.52
0
LINE
8
BLACK
6
CONTINUOUS
10
124.012
20
-113.52
11
124.012
21
-113.27
0
LINE
8
BLACK
6
CONTINUOUS
10
124.012
20
-113.27
11
124.712
21
-113.27
0
LINE
8
BLACK
6
CONTINUOUS
10
124.712
20
-113.27
11
124.712
21
-113.52
0
LINE
8
BLACK
6
CONTINUOUS
10
130.079
20
-113.425
11
129.307
21
-113.425
0
LINE
8
BLACK
6
CONTINUOUS
10
129.307
20
-113.425
11
129.307
21
-112.652
0
LINE
8
BLACK
6
CONTINUOUS
10
129.307
20
-112.652
11
130.079
21
-112.652
0
LINE
8
BLACK
6
CONTINUOUS
10
130.079
20
-112.652
11
130.079
21
-113.425
0
LINE
8
BLACK
6
CONTINUOUS
10
126.217
20
-113.425
11
125.444
21
-113.425
0
LINE
8
BLACK
6
CONTINUOUS
10
125.444
20
-113.425
11
125.444
21
-112.652
0
LINE
8
BLACK
6
CONTINUOUS
10
125.444
20
-112.652
11
126.217
21
-112.652
0
LINE
8
BLACK
6
CONTINUOUS
10
126.217
20
-112.652
11
126.217
21
-113.425
0
LINE
8
BLACK
6
CONTINUOUS
10
127.504
20
-113.425
11
126.732
21
-113.425
0
LINE
8
BLACK
6
CONTINUOUS
10
126.732
20
-113.425
11
126.732
21
-112.652
0
LINE
8
BLACK
6
CONTINUOUS
10
126.732
20
-112.652
11
127.504
21
-112.652
0
LINE
8
BLACK
6
CONTINUOUS
10
127.504
20
-112.652
11
127.504
21
-113.425
0
LINE
8
BLACK
6
CONTINUOUS
10
128.792
20
-113.425
11
128.019
21
-113.425
0
LINE
8
BLACK
6
CONTINUOUS
10
128.019
20
-113.425
11
128.019
21
-112.652
0
LINE
8
BLACK
6
CONTINUOUS
10
128.019
20
-112.652
11
128.792
21
-112.652
0
LINE
8
BLACK
6
CONTINUOUS
10
128.792
20
-112.652
11
128.792
21
-113.425
0
LINE
8
BLACK
6
CONTINUOUS
10
240.5
20
-113.291
11
239.75
21
-113.291
0
LINE
8
BLACK
6
CONTINUOUS
10
239.75
20
-113.291
11
239.75
21
-112.491
0
LINE
8
BLACK
6
CONTINUOUS
10
239.75
20
-112.491
11
240.5
21
-112.491
0
LINE
8
BLACK
6
CONTINUOUS
10
240.5
20
-112.491
11
240.5
21
-113.291
0
LINE
8
BLACK
6
CONTINUOUS
10
255.394
20
-113.1
11
254.194
21
-113.1
0
LINE
8
BLACK
6
CONTINUOUS
10
254.194
20
-113.1
11
254.194
21
-112.2
0
LINE
8
BLACK
6
CONTINUOUS
10
254.194
20
-112.2
11
255.394
21
-112.2
0
LINE
8
BLACK
6
CONTINUOUS
10
255.394
20
-112.2
11
255.394
21
-113.1
0
LINE
8
BLACK
6
CONTINUOUS
10
108.55
20
-113.1
11
107.35
21
-113.1
0
LINE
8
BLACK
6
CONTINUOUS
10
107.35
20
-113.1
11
107.35
21
-112.2
0
LINE
8
BLACK
6
CONTINUOUS
10
107.35
20
-112.2
11
108.55
21
-112.2
0
LINE
8
BLACK
6
CONTINUOUS
10
108.55
20
-112.2
11
108.55
21
-113.1
0
LINE
8
BLACK
6
CONTINUOUS
10
124.712
20
-113.02
11
124.012
21
-113.02
0
LINE
8
BLACK
6
CONTINUOUS
10
124.012
20
-113.02
11
124.012
21
-112.77
0
LINE
8
BLACK
6
CONTINUOUS
10
124.012
20
-112.77
11
124.712
21
-112.77
0
LINE
8
BLACK
6
CONTINUOUS
10
124.712
20
-112.77
11
124.712
21
-113.02
0
LINE
8
BLACK
6
CONTINUOUS
10
131.512
20
-113.02
11
130.812
21
-113.02
0
LINE
8
BLACK
6
CONTINUOUS
10
130.812
20
-113.02
11
130.812
21
-112.77
0
LINE
8
BLACK
6
CONTINUOUS
10
130.812
20
-112.77
11
131.512
21
-112.77
0
LINE
8
BLACK
6
CONTINUOUS
10
131.512
20
-112.77
11
131.512
21
-113.02
0
LINE
8
BLACK
6
CONTINUOUS
10
232.082
20
-112.91
11
231.832
21
-112.91
0
LINE
8
BLACK
6
CONTINUOUS
10
231.832
20
-112.91
11
231.832
21
-112.21
0
LINE
8
BLACK
6
CONTINUOUS
10
231.832
20
-112.21
11
232.082
21
-112.21
0
LINE
8
BLACK
6
CONTINUOUS
10
232.082
20
-112.21
11
232.082
21
-112.91
0
LINE
8
BLACK
6
CONTINUOUS
10
232.582
20
-112.91
11
232.332
21
-112.91
0
LINE
8
BLACK
6
CONTINUOUS
10
232.332
20
-112.91
11
232.332
21
-112.21
0
LINE
8
BLACK
6
CONTINUOUS
10
232.332
20
-112.21
11
232.582
21
-112.21
0
LINE
8
BLACK
6
CONTINUOUS
10
232.582
20
-112.21
11
232.582
21
-112.91
0
LINE
8
BLACK
6
CONTINUOUS
10
233.082
20
-112.91
11
232.832
21
-112.91
0
LINE
8
BLACK
6
CONTINUOUS
10
232.832
20
-112.91
11
232.832
21
-112.21
0
LINE
8
BLACK
6
CONTINUOUS
10
232.832
20
-112.21
11
233.082
21
-112.21
0
LINE
8
BLACK
6
CONTINUOUS
10
233.082
20
-112.21
11
233.082
21
-112.91
0
LINE
8
BLACK
6
CONTINUOUS
10
233.582
20
-112.91
11
233.332
21
-112.91
0
LINE
8
BLACK
6
CONTINUOUS
10
233.332
20
-112.91
11
233.332
21
-112.21
0
LINE
8
BLACK
6
CONTINUOUS
10
233.332
20
-112.21
11
233.582
21
-112.21
0
LINE
8
BLACK
6
CONTINUOUS
10
233.582
20
-112.21
11
233.582
21
-112.91
0
LINE
8
BLACK
6
CONTINUOUS
10
234.082
20
-112.91
11
233.832
21
-112.91
0
LINE
8
BLACK
6
CONTINUOUS
10
233.832
20
-112.91
11
233.832
21
-112.21
0
LINE
8
BLACK
6
CONTINUOUS
10
233.832
20
-112.21
11
234.082
21
-112.21
0
LINE
8
BLACK
6
CONTINUOUS
10
234.082
20
-112.21
11
234.082
21
-112.91
0
LINE
8
BLACK
6
CONTINUOUS
10
234.582
20
-112.91
11
234.332
21
-112.91
0
LINE
8
BLACK
6
CONTINUOUS
10
234.332
20
-112.91
11
234.332
21
-112.21
0
LINE
8
BLACK
6
CONTINUOUS
10
234.332
20
-112.21
11
234.582
21
-112.21
0
LINE
8
BLACK
6
CONTINUOUS
10
234.582
20
-112.21
11
234.582
21
-112.91
0
LINE
8
BLACK
6
CONTINUOUS
10
235.082
20
-112.91
11
234.832
21
-112.91
0
LINE
8
BLACK
6
CONTINUOUS
10
234.832
20
-112.91
11
234.832
21
-112.21
0
LINE
8
BLACK
6
CONTINUOUS
10
234.832
20
-112.21
11
235.082
21
-112.21
0
LINE
8
BLACK
6
CONTINUOUS
10
235.082
20
-112.21
11
235.082
21
-112.91
0
LINE
8
BLACK
6
CONTINUOUS
10
235.582
20
-112.91
11
235.332
21
-112.91
0
LINE
8
BLACK
6
CONTINUOUS
10
235.332
20
-112.91
11
235.332
21
-112.21
0
LINE
8
BLACK
6
CONTINUOUS
10
235.332
20
-112.21
11
235.582
21
-112.21
0
LINE
8
BLACK
6
CONTINUOUS
10
235.582
20
-112.21
11
235.582
21
-112.91
0
LINE
8
BLACK
6
CONTINUOUS
10
236.082
20
-112.91
11
235.832
21
-112.91
0
LINE
8
BLACK
6
CONTINUOUS
10
235.832
20
-112.91
11
235.832
21
-112.21
0
LINE
8
BLACK
6
CONTINUOUS
10
235.832
20
-112.21
11
236.082
21
-112.21
0
LINE
8
BLACK
6
CONTINUOUS
10
236.082
20
-112.21
11
236.082
21
-112.91
0
LINE
8
BLACK
6
CONTINUOUS
10
236.582
20
-112.91
11
236.332
21
-112.91
0
LINE
8
BLACK
6
CONTINUOUS
10
236.332
20
-112.91
11
236.332
21
-112.21
0
LINE
8
BLACK
6
CONTINUOUS
10
236.332
20
-112.21
11
236.582
21
-112.21
0
LINE
8
BLACK
6
CONTINUOUS
10
236.582
20
-112.21
11
236.582
21
-112.91
0
LINE
8
BLACK
6
CONTINUOUS
10
231.582
20
-112.91
11
231.332
21
-112.91
0
LINE
8
BLACK
6
CONTINUOUS
10
231.332
20
-112.91
11
231.332
21
-112.21
0
LINE
8
BLACK
6
CONTINUOUS
10
231.332
20
-112.21
11
231.582
21
-112.21
0
LINE
8
BLACK
6
CONTINUOUS
10
231.582
20
-112.21
11
231.582
21
-112.91
0
LINE
8
BLACK
6
CONTINUOUS
10
124.712
20
-112.52
11
124.012
21
-112.52
0
LINE
8
BLACK
6
CONTINUOUS
10
124.012
20
-112.52
11
124.012
21
-112.27
0
LINE
8
BLACK
6
CONTINUOUS
10
124.012
20
-112.27
11
124.712
21
-112.27
0
LINE
8
BLACK
6
CONTINUOUS
10
124.712
20
-112.27
11
124.712
21
-112.52
0
LINE
8
BLACK
6
CONTINUOUS
10
131.512
20
-112.52
11
130.812
21
-112.52
0
LINE
8
BLACK
6
CONTINUOUS
10
130.812
20
-112.52
11
130.812
21
-112.27
0
LINE
8
BLACK
6
CONTINUOUS
10
130.812
20
-112.27
11
131.512
21
-112.27
0
LINE
8
BLACK
6
CONTINUOUS
10
131.512
20
-112.27
11
131.512
21
-112.52
0
LINE
8
BLACK
6
CONTINUOUS
10
128.792
20
-112.137
11
128.019
21
-112.137
0
LINE
8
BLACK
6
CONTINUOUS
10
128.019
20
-112.137
11
128.019
21
-111.365
0
LINE
8
BLACK
6
CONTINUOUS
10
128.019
20
-111.365
11
128.792
21
-111.365
0
LINE
8
BLACK
6
CONTINUOUS
10
128.792
20
-111.365
11
128.792
21
-112.137
0
LINE
8
BLACK
6
CONTINUOUS
10
127.504
20
-112.137
11
126.732
21
-112.137
0
LINE
8
BLACK
6
CONTINUOUS
10
126.732
20
-112.137
11
126.732
21
-111.365
0
LINE
8
BLACK
6
CONTINUOUS
10
126.732
20
-111.365
11
127.504
21
-111.365
0
LINE
8
BLACK
6
CONTINUOUS
10
127.504
20
-111.365
11
127.504
21
-112.137
0
LINE
8
BLACK
6
CONTINUOUS
10
130.079
20
-112.137
11
129.307
21
-112.137
0
LINE
8
BLACK
6
CONTINUOUS
10
129.307
20
-112.137
11
129.307
21
-111.365
0
LINE
8
BLACK
6
CONTINUOUS
10
129.307
20
-111.365
11
130.079
21
-111.365
0
LINE
8
BLACK
6
CONTINUOUS
10
130.079
20
-111.365
11
130.079
21
-112.137
0
LINE
8
BLACK
6
CONTINUOUS
10
126.217
20
-112.137
11
125.444
21
-112.137
0
LINE
8
BLACK
6
CONTINUOUS
10
125.444
20
-112.137
11
125.444
21
-111.365
0
LINE
8
BLACK
6
CONTINUOUS
10
125.444
20
-111.365
11
126.217
21
-111.365
0
LINE
8
BLACK
6
CONTINUOUS
10
126.217
20
-111.365
11
126.217
21
-112.137
0
LINE
8
BLACK
6
CONTINUOUS
10
124.712
20
-112.02
11
124.012
21
-112.02
0
LINE
8
BLACK
6
CONTINUOUS
10
124.012
20
-112.02
11
124.012
21
-111.77
0
LINE
8
BLACK
6
CONTINUOUS
10
124.012
20
-111.77
11
124.712
21
-111.77
0
LINE
8
BLACK
6
CONTINUOUS
10
124.712
20
-111.77
11
124.712
21
-112.02
0
LINE
8
BLACK
6
CONTINUOUS
10
131.512
20
-112.02
11
130.812
21
-112.02
0
LINE
8
BLACK
6
CONTINUOUS
10
130.812
20
-112.02
11
130.812
21
-111.77
0
LINE
8
BLACK
6
CONTINUOUS
10
130.812
20
-111.77
11
131.512
21
-111.77
0
LINE
8
BLACK
6
CONTINUOUS
10
131.512
20
-111.77
11
131.512
21
-112.02
0
LINE
8
BLACK
6
CONTINUOUS
10
224.9
20
-111.853
11
223.6
21
-111.853
0
LINE
8
BLACK
6
CONTINUOUS
10
223.6
20
-111.853
11
223.6
21
-111.153
0
LINE
8
BLACK
6
CONTINUOUS
10
223.6
20
-111.153
11
224.9
21
-111.153
0
LINE
8
BLACK
6
CONTINUOUS
10
224.9
20
-111.153
11
224.9
21
-111.853
0
LINE
8
BLACK
6
CONTINUOUS
10
240.5
20
-111.791
11
239.75
21
-111.791
0
LINE
8
BLACK
6
CONTINUOUS
10
239.75
20
-111.791
11
239.75
21
-110.991
0
LINE
8
BLACK
6
CONTINUOUS
10
239.75
20
-110.991
11
240.5
21
-110.991
0
LINE
8
BLACK
6
CONTINUOUS
10
240.5
20
-110.991
11
240.5
21
-111.791
0
LINE
8
BLACK
6
CONTINUOUS
10
227.26
20
-111.703
11
226.51
21
-111.703
0
LINE
8
BLACK
6
CONTINUOUS
10
226.51
20
-111.703
11
226.51
21
-110.903
0
LINE
8
BLACK
6
CONTINUOUS
10
226.51
20
-110.903
11
227.26
21
-110.903
0
LINE
8
BLACK
6
CONTINUOUS
10
227.26
20
-110.903
11
227.26
21
-111.703
0
LINE
8
BLACK
6
CONTINUOUS
10
207.412
20
-111.559
11
206.612
21
-111.559
0
LINE
8
BLACK
6
CONTINUOUS
10
206.612
20
-111.559
11
206.612
21
-110.659
0
LINE
8
BLACK
6
CONTINUOUS
10
206.612
20
-110.659
11
207.412
21
-110.659
0
LINE
8
BLACK
6
CONTINUOUS
10
207.412
20
-110.659
11
207.412
21
-111.559
0
LINE
8
BLACK
6
CONTINUOUS
10
209.312
20
-111.559
11
208.512
21
-111.559
0
LINE
8
BLACK
6
CONTINUOUS
10
208.512
20
-111.559
11
208.512
21
-110.659
0
LINE
8
BLACK
6
CONTINUOUS
10
208.512
20
-110.659
11
209.312
21
-110.659
0
LINE
8
BLACK
6
CONTINUOUS
10
209.312
20
-110.659
11
209.312
21
-111.559
0
LINE
8
BLACK
6
CONTINUOUS
10
124.712
20
-111.52
11
124.012
21
-111.52
0
LINE
8
BLACK
6
CONTINUOUS
10
124.012
20
-111.52
11
124.012
21
-111.27
0
LINE
8
BLACK
6
CONTINUOUS
10
124.012
20
-111.27
11
124.712
21
-111.27
0
LINE
8
BLACK
6
CONTINUOUS
10
124.712
20
-111.27
11
124.712
21
-111.52
0
LINE
8
BLACK
6
CONTINUOUS
10
131.512
20
-111.52
11
130.812
21
-111.52
0
LINE
8
BLACK
6
CONTINUOUS
10
130.812
20
-111.52
11
130.812
21
-111.27
0
LINE
8
BLACK
6
CONTINUOUS
10
130.812
20
-111.27
11
131.512
21
-111.27
0
LINE
8
BLACK
6
CONTINUOUS
10
131.512
20
-111.27
11
131.512
21
-111.52
0
LINE
8
BLACK
6
CONTINUOUS
10
212.677
20
-111.409
11
211.376
21
-111.409
0
LINE
8
BLACK
6
CONTINUOUS
10
211.376
20
-111.409
11
211.376
21
-110.709
0
LINE
8
BLACK
6
CONTINUOUS
10
211.376
20
-110.709
11
212.677
21
-110.709
0
LINE
8
BLACK
6
CONTINUOUS
10
212.677
20
-110.709
11
212.677
21
-111.409
0
LINE
8
BLACK
6
CONTINUOUS
10
155.59
20
-111.282
11
154.29
21
-111.282
0
LINE
8
BLACK
6
CONTINUOUS
10
154.29
20
-111.282
11
154.29
21
-110.582
0
LINE
8
BLACK
6
CONTINUOUS
10
154.29
20
-110.582
11
155.59
21
-110.582
0
LINE
8
BLACK
6
CONTINUOUS
10
155.59
20
-110.582
11
155.59
21
-111.282
0
LINE
8
BLACK
6
CONTINUOUS
10
152.288
20
-111.282
11
150.988
21
-111.282
0
LINE
8
BLACK
6
CONTINUOUS
10
150.988
20
-111.282
11
150.988
21
-110.582
0
LINE
8
BLACK
6
CONTINUOUS
10
150.988
20
-110.582
11
152.288
21
-110.582
0
LINE
8
BLACK
6
CONTINUOUS
10
152.288
20
-110.582
11
152.288
21
-111.282
0
LINE
8
BLACK
6
CONTINUOUS
10
131.512
20
-111.02
11
130.812
21
-111.02
0
LINE
8
BLACK
6
CONTINUOUS
10
130.812
20
-111.02
11
130.812
21
-110.77
0
LINE
8
BLACK
6
CONTINUOUS
10
130.812
20
-110.77
11
131.512
21
-110.77
0
LINE
8
BLACK
6
CONTINUOUS
10
131.512
20
-110.77
11
131.512
21
-111.02
0
LINE
8
BLACK
6
CONTINUOUS
10
124.712
20
-111.02
11
124.012
21
-111.02
0
LINE
8
BLACK
6
CONTINUOUS
10
124.012
20
-111.02
11
124.012
21
-110.77
0
LINE
8
BLACK
6
CONTINUOUS
10
124.012
20
-110.77
11
124.712
21
-110.77
0
LINE
8
BLACK
6
CONTINUOUS
10
124.712
20
-110.77
11
124.712
21
-111.02
0
LINE
8
BLACK
6
CONTINUOUS
10
130.079
20
-110.85
11
129.307
21
-110.85
0
LINE
8
BLACK
6
CONTINUOUS
10
129.307
20
-110.85
11
129.307
21
-110.078
0
LINE
8
BLACK
6
CONTINUOUS
10
129.307
20
-110.078
11
130.079
21
-110.078
0
LINE
8
BLACK
6
CONTINUOUS
10
130.079
20
-110.078
11
130.079
21
-110.85
0
LINE
8
BLACK
6
CONTINUOUS
10
128.792
20
-110.85
11
128.019
21
-110.85
0
LINE
8
BLACK
6
CONTINUOUS
10
128.019
20
-110.85
11
128.019
21
-110.078
0
LINE
8
BLACK
6
CONTINUOUS
10
128.019
20
-110.078
11
128.792
21
-110.078
0
LINE
8
BLACK
6
CONTINUOUS
10
128.792
20
-110.078
11
128.792
21
-110.85
0
LINE
8
BLACK
6
CONTINUOUS
10
127.504
20
-110.85
11
126.732
21
-110.85
0
LINE
8
BLACK
6
CONTINUOUS
10
126.732
20
-110.85
11
126.732
21
-110.078
0
LINE
8
BLACK
6
CONTINUOUS
10
126.732
20
-110.078
11
127.504
21
-110.078
0
LINE
8
BLACK
6
CONTINUOUS
10
127.504
20
-110.078
11
127.504
21
-110.85
0
LINE
8
BLACK
6
CONTINUOUS
10
126.217
20
-110.85
11
125.444
21
-110.85
0
LINE
8
BLACK
6
CONTINUOUS
10
125.444
20
-110.85
11
125.444
21
-110.078
0
LINE
8
BLACK
6
CONTINUOUS
10
125.444
20
-110.078
11
126.217
21
-110.078
0
LINE
8
BLACK
6
CONTINUOUS
10
126.217
20
-110.078
11
126.217
21
-110.85
0
LINE
8
BLACK
6
CONTINUOUS
10
124.712
20
-110.52
11
124.012
21
-110.52
0
LINE
8
BLACK
6
CONTINUOUS
10
124.012
20
-110.52
11
124.012
21
-110.27
0
LINE
8
BLACK
6
CONTINUOUS
10
124.012
20
-110.27
11
124.712
21
-110.27
0
LINE
8
BLACK
6
CONTINUOUS
10
124.712
20
-110.27
11
124.712
21
-110.52
0
LINE
8
BLACK
6
CONTINUOUS
10
131.512
20
-110.52
11
130.812
21
-110.52
0
LINE
8
BLACK
6
CONTINUOUS
10
130.812
20
-110.52
11
130.812
21
-110.27
0
LINE
8
BLACK
6
CONTINUOUS
10
130.812
20
-110.27
11
131.512
21
-110.27
0
LINE
8
BLACK
6
CONTINUOUS
10
131.512
20
-110.27
11
131.512
21
-110.52
0
LINE
8
BLACK
6
CONTINUOUS
10
137.064
20
-110.357
11
136.264
21
-110.357
0
LINE
8
BLACK
6
CONTINUOUS
10
136.264
20
-110.357
11
136.264
21
-109.607
0
LINE
8
BLACK
6
CONTINUOUS
10
136.264
20
-109.607
11
137.064
21
-109.607
0
LINE
8
BLACK
6
CONTINUOUS
10
137.064
20
-109.607
11
137.064
21
-110.357
0
LINE
8
BLACK
6
CONTINUOUS
10
138.564
20
-110.357
11
137.764
21
-110.357
0
LINE
8
BLACK
6
CONTINUOUS
10
137.764
20
-110.357
11
137.764
21
-109.607
0
LINE
8
BLACK
6
CONTINUOUS
10
137.764
20
-109.607
11
138.564
21
-109.607
0
LINE
8
BLACK
6
CONTINUOUS
10
138.564
20
-109.607
11
138.564
21
-110.357
0
LINE
8
BLACK
6
CONTINUOUS
10
227.26
20
-110.203
11
226.51
21
-110.203
0
LINE
8
BLACK
6
CONTINUOUS
10
226.51
20
-110.203
11
226.51
21
-109.403
0
LINE
8
BLACK
6
CONTINUOUS
10
226.51
20
-109.403
11
227.26
21
-109.403
0
LINE
8
BLACK
6
CONTINUOUS
10
227.26
20
-109.403
11
227.26
21
-110.203
0
LINE
8
BLACK
6
CONTINUOUS
10
131.512
20
-110.02
11
130.812
21
-110.02
0
LINE
8
BLACK
6
CONTINUOUS
10
130.812
20
-110.02
11
130.812
21
-109.77
0
LINE
8
BLACK
6
CONTINUOUS
10
130.812
20
-109.77
11
131.512
21
-109.77
0
LINE
8
BLACK
6
CONTINUOUS
10
131.512
20
-109.77
11
131.512
21
-110.02
0
LINE
8
BLACK
6
CONTINUOUS
10
124.712
20
-110.02
11
124.012
21
-110.02
0
LINE
8
BLACK
6
CONTINUOUS
10
124.012
20
-110.02
11
124.012
21
-109.77
0
LINE
8
BLACK
6
CONTINUOUS
10
124.012
20
-109.77
11
124.712
21
-109.77
0
LINE
8
BLACK
6
CONTINUOUS
10
124.712
20
-109.77
11
124.712
21
-110.02
0
LINE
8
BLACK
6
CONTINUOUS
10
224.9
20
-109.953
11
223.6
21
-109.953
0
LINE
8
BLACK
6
CONTINUOUS
10
223.6
20
-109.953
11
223.6
21
-109.253
0
LINE
8
BLACK
6
CONTINUOUS
10
223.6
20
-109.253
11
224.9
21
-109.253
0
LINE
8
BLACK
6
CONTINUOUS
10
224.9
20
-109.253
11
224.9
21
-109.953
0
LINE
8
BLACK
6
CONTINUOUS
10
208.362
20
-109.559
11
207.562
21
-109.559
0
LINE
8
BLACK
6
CONTINUOUS
10
207.562
20
-109.559
11
207.562
21
-108.659
0
LINE
8
BLACK
6
CONTINUOUS
10
207.562
20
-108.659
11
208.362
21
-108.659
0
LINE
8
BLACK
6
CONTINUOUS
10
208.362
20
-108.659
11
208.362
21
-109.559
0
LINE
8
BLACK
6
CONTINUOUS
10
212.677
20
-109.509
11
211.376
21
-109.509
0
LINE
8
BLACK
6
CONTINUOUS
10
211.376
20
-109.509
11
211.376
21
-108.809
0
LINE
8
BLACK
6
CONTINUOUS
10
211.376
20
-108.809
11
212.677
21
-108.809
0
LINE
8
BLACK
6
CONTINUOUS
10
212.677
20
-108.809
11
212.677
21
-109.509
0
LINE
8
BLACK
6
CONTINUOUS
10
152.288
20
-109.382
11
150.988
21
-109.382
0
LINE
8
BLACK
6
CONTINUOUS
10
150.988
20
-109.382
11
150.988
21
-108.682
0
LINE
8
BLACK
6
CONTINUOUS
10
150.988
20
-108.682
11
152.288
21
-108.682
0
LINE
8
BLACK
6
CONTINUOUS
10
152.288
20
-108.682
11
152.288
21
-109.382
0
LINE
8
BLACK
6
CONTINUOUS
10
155.59
20
-109.382
11
154.29
21
-109.382
0
LINE
8
BLACK
6
CONTINUOUS
10
154.29
20
-109.382
11
154.29
21
-108.682
0
LINE
8
BLACK
6
CONTINUOUS
10
154.29
20
-108.682
11
155.59
21
-108.682
0
LINE
8
BLACK
6
CONTINUOUS
10
155.59
20
-108.682
11
155.59
21
-109.382
0
LINE
8
BLACK
6
CONTINUOUS
10
127.887
20
-109.345
11
127.637
21
-109.345
0
LINE
8
BLACK
6
CONTINUOUS
10
127.637
20
-109.345
11
127.637
21
-108.645
0
LINE
8
BLACK
6
CONTINUOUS
10
127.637
20
-108.645
11
127.887
21
-108.645
0
LINE
8
BLACK
6
CONTINUOUS
10
127.887
20
-108.645
11
127.887
21
-109.345
0
LINE
8
BLACK
6
CONTINUOUS
10
125.387
20
-109.345
11
125.137
21
-109.345
0
LINE
8
BLACK
6
CONTINUOUS
10
125.137
20
-109.345
11
125.137
21
-108.645
0
LINE
8
BLACK
6
CONTINUOUS
10
125.137
20
-108.645
11
125.387
21
-108.645
0
LINE
8
BLACK
6
CONTINUOUS
10
125.387
20
-108.645
11
125.387
21
-109.345
0
LINE
8
BLACK
6
CONTINUOUS
10
125.887
20
-109.345
11
125.637
21
-109.345
0
LINE
8
BLACK
6
CONTINUOUS
10
125.637
20
-109.345
11
125.637
21
-108.645
0
LINE
8
BLACK
6
CONTINUOUS
10
125.637
20
-108.645
11
125.887
21
-108.645
0
LINE
8
BLACK
6
CONTINUOUS
10
125.887
20
-108.645
11
125.887
21
-109.345
0
LINE
8
BLACK
6
CONTINUOUS
10
126.387
20
-109.345
11
126.137
21
-109.345
0
LINE
8
BLACK
6
CONTINUOUS
10
126.137
20
-109.345
11
126.137
21
-108.645
0
LINE
8
BLACK
6
CONTINUOUS
10
126.137
20
-108.645
11
126.387
21
-108.645
0
LINE
8
BLACK
6
CONTINUOUS
10
126.387
20
-108.645
11
126.387
21
-109.345
0
LINE
8
BLACK
6
CONTINUOUS
10
126.887
20
-109.345
11
126.637
21
-109.345
0
LINE
8
BLACK
6
CONTINUOUS
10
126.637
20
-109.345
11
126.637
21
-108.645
0
LINE
8
BLACK
6
CONTINUOUS
10
126.637
20
-108.645
11
126.887
21
-108.645
0
LINE
8
BLACK
6
CONTINUOUS
10
126.887
20
-108.645
11
126.887
21
-109.345
0
LINE
8
BLACK
6
CONTINUOUS
10
130.387
20
-109.345
11
130.137
21
-109.345
0
LINE
8
BLACK
6
CONTINUOUS
10
130.137
20
-109.345
11
130.137
21
-108.645
0
LINE
8
BLACK
6
CONTINUOUS
10
130.137
20
-108.645
11
130.387
21
-108.645
0
LINE
8
BLACK
6
CONTINUOUS
10
130.387
20
-108.645
11
130.387
21
-109.345
0
LINE
8
BLACK
6
CONTINUOUS
10
129.887
20
-109.345
11
129.637
21
-109.345
0
LINE
8
BLACK
6
CONTINUOUS
10
129.637
20
-109.345
11
129.637
21
-108.645
0
LINE
8
BLACK
6
CONTINUOUS
10
129.637
20
-108.645
11
129.887
21
-108.645
0
LINE
8
BLACK
6
CONTINUOUS
10
129.887
20
-108.645
11
129.887
21
-109.345
0
LINE
8
BLACK
6
CONTINUOUS
10
129.387
20
-109.345
11
129.137
21
-109.345
0
LINE
8
BLACK
6
CONTINUOUS
10
129.137
20
-109.345
11
129.137
21
-108.645
0
LINE
8
BLACK
6
CONTINUOUS
10
129.137
20
-108.645
11
129.387
21
-108.645
0
LINE
8
BLACK
6
CONTINUOUS
10
129.387
20
-108.645
11
129.387
21
-109.345
0
LINE
8
BLACK
6
CONTINUOUS
10
128.887
20
-109.345
11
128.637
21
-109.345
0
LINE
8
BLACK
6
CONTINUOUS
10
128.637
20
-109.345
11
128.637
21
-108.645
0
LINE
8
BLACK
6
CONTINUOUS
10
128.637
20
-108.645
11
128.887
21
-108.645
0
LINE
8
BLACK
6
CONTINUOUS
10
128.887
20
-108.645
11
128.887
21
-109.345
0
LINE
8
BLACK
6
CONTINUOUS
10
128.387
20
-109.345
11
128.137
21
-109.345
0
LINE
8
BLACK
6
CONTINUOUS
10
128.137
20
-109.345
11
128.137
21
-108.645
0
LINE
8
BLACK
6
CONTINUOUS
10
128.137
20
-108.645
11
128.387
21
-108.645
0
LINE
8
BLACK
6
CONTINUOUS
10
128.387
20
-108.645
11
128.387
21
-109.345
0
LINE
8
BLACK
6
CONTINUOUS
10
127.387
20
-109.345
11
127.137
21
-109.345
0
LINE
8
BLACK
6
CONTINUOUS
10
127.137
20
-109.345
11
127.137
21
-108.645
0
LINE
8
BLACK
6
CONTINUOUS
10
127.137
20
-108.645
11
127.387
21
-108.645
0
LINE
8
BLACK
6
CONTINUOUS
10
127.387
20
-108.645
11
127.387
21
-109.345
0
LINE
8
BLACK
6
CONTINUOUS
10
293.544
20
-109.25
11
292.244
21
-109.25
0
LINE
8
BLACK
6
CONTINUOUS
10
292.244
20
-109.25
11
292.244
21
-108.55
0
LINE
8
BLACK
6
CONTINUOUS
10
292.244
20
-108.55
11
293.544
21
-108.55
0
LINE
8
BLACK
6
CONTINUOUS
10
293.544
20
-108.55
11
293.544
21
-109.25
0
LINE
8
BLACK
6
CONTINUOUS
10
66.5312
20
-109.25
11
65.2313
21
-109.25
0
LINE
8
BLACK
6
CONTINUOUS
10
65.2313
20
-109.25
11
65.2313
21
-108.55
0
LINE
8
BLACK
6
CONTINUOUS
10
65.2313
20
-108.55
11
66.5312
21
-108.55
0
LINE
8
BLACK
6
CONTINUOUS
10
66.5312
20
-108.55
11
66.5312
21
-109.25
0
LINE
8
BLACK
6
CONTINUOUS
10
85.5812
20
-109.25
11
84.2812
21
-109.25
0
LINE
8
BLACK
6
CONTINUOUS
10
84.2812
20
-109.25
11
84.2812
21
-108.55
0
LINE
8
BLACK
6
CONTINUOUS
10
84.2812
20
-108.55
11
85.5812
21
-108.55
0
LINE
8
BLACK
6
CONTINUOUS
10
85.5812
20
-108.55
11
85.5812
21
-109.25
0
LINE
8
BLACK
6
CONTINUOUS
10
233.412
20
-109.15
11
232.262
21
-109.15
0
LINE
8
BLACK
6
CONTINUOUS
10
232.262
20
-109.15
11
232.262
21
-108.15
0
LINE
8
BLACK
6
CONTINUOUS
10
232.262
20
-108.15
11
233.412
21
-108.15
0
LINE
8
BLACK
6
CONTINUOUS
10
233.412
20
-108.15
11
233.412
21
-109.15
0
LINE
8
BLACK
6
CONTINUOUS
10
235.162
20
-109.15
11
234.012
21
-109.15
0
LINE
8
BLACK
6
CONTINUOUS
10
234.012
20
-109.15
11
234.012
21
-108.15
0
LINE
8
BLACK
6
CONTINUOUS
10
234.012
20
-108.15
11
235.162
21
-108.15
0
LINE
8
BLACK
6
CONTINUOUS
10
235.162
20
-108.15
11
235.162
21
-109.15
0
LINE
8
BLACK
6
CONTINUOUS
10
237.547
20
-109.1
11
236.797
21
-109.1
0
LINE
8
BLACK
6
CONTINUOUS
10
236.797
20
-109.1
11
236.797
21
-108.3
0
LINE
8
BLACK
6
CONTINUOUS
10
236.797
20
-108.3
11
237.547
21
-108.3
0
LINE
8
BLACK
6
CONTINUOUS
10
237.547
20
-108.3
11
237.547
21
-109.1
0
LINE
8
BLACK
6
CONTINUOUS
10
230.689
20
-109.1
11
229.939
21
-109.1
0
LINE
8
BLACK
6
CONTINUOUS
10
229.939
20
-109.1
11
229.939
21
-108.3
0
LINE
8
BLACK
6
CONTINUOUS
10
229.939
20
-108.3
11
230.689
21
-108.3
0
LINE
8
BLACK
6
CONTINUOUS
10
230.689
20
-108.3
11
230.689
21
-109.1
0
LINE
8
BLACK
6
CONTINUOUS
10
242.394
20
-108.107
11
241.094
21
-108.107
0
LINE
8
BLACK
6
CONTINUOUS
10
241.094
20
-108.107
11
241.094
21
-107.407
0
LINE
8
BLACK
6
CONTINUOUS
10
241.094
20
-107.407
11
242.394
21
-107.407
0
LINE
8
BLACK
6
CONTINUOUS
10
242.394
20
-107.407
11
242.394
21
-108.107
0
LINE
8
BLACK
6
CONTINUOUS
10
235.162
20
-107.75
11
234.012
21
-107.75
0
LINE
8
BLACK
6
CONTINUOUS
10
234.012
20
-107.75
11
234.012
21
-106.75
0
LINE
8
BLACK
6
CONTINUOUS
10
234.012
20
-106.75
11
235.162
21
-106.75
0
LINE
8
BLACK
6
CONTINUOUS
10
235.162
20
-106.75
11
235.162
21
-107.75
0
LINE
8
BLACK
6
CONTINUOUS
10
233.412
20
-107.75
11
232.262
21
-107.75
0
LINE
8
BLACK
6
CONTINUOUS
10
232.262
20
-107.75
11
232.262
21
-106.75
0
LINE
8
BLACK
6
CONTINUOUS
10
232.262
20
-106.75
11
233.412
21
-106.75
0
LINE
8
BLACK
6
CONTINUOUS
10
233.412
20
-106.75
11
233.412
21
-107.75
0
LINE
8
BLACK
6
CONTINUOUS
10
237.547
20
-107.6
11
236.797
21
-107.6
0
LINE
8
BLACK
6
CONTINUOUS
10
236.797
20
-107.6
11
236.797
21
-106.8
0
LINE
8
BLACK
6
CONTINUOUS
10
236.797
20
-106.8
11
237.547
21
-106.8
0
LINE
8
BLACK
6
CONTINUOUS
10
237.547
20
-106.8
11
237.547
21
-107.6
0
LINE
8
BLACK
6
CONTINUOUS
10
230.689
20
-107.6
11
229.939
21
-107.6
0
LINE
8
BLACK
6
CONTINUOUS
10
229.939
20
-107.6
11
229.939
21
-106.8
0
LINE
8
BLACK
6
CONTINUOUS
10
229.939
20
-106.8
11
230.689
21
-106.8
0
LINE
8
BLACK
6
CONTINUOUS
10
230.689
20
-106.8
11
230.689
21
-107.6
0
LINE
8
BLACK
6
CONTINUOUS
10
293.544
20
-107.35
11
292.244
21
-107.35
0
LINE
8
BLACK
6
CONTINUOUS
10
292.244
20
-107.35
11
292.244
21
-106.65
0
LINE
8
BLACK
6
CONTINUOUS
10
292.244
20
-106.65
11
293.544
21
-106.65
0
LINE
8
BLACK
6
CONTINUOUS
10
293.544
20
-106.65
11
293.544
21
-107.35
0
LINE
8
BLACK
6
CONTINUOUS
10
85.5812
20
-107.35
11
84.2812
21
-107.35
0
LINE
8
BLACK
6
CONTINUOUS
10
84.2812
20
-107.35
11
84.2812
21
-106.65
0
LINE
8
BLACK
6
CONTINUOUS
10
84.2812
20
-106.65
11
85.5812
21
-106.65
0
LINE
8
BLACK
6
CONTINUOUS
10
85.5812
20
-106.65
11
85.5812
21
-107.35
0
LINE
8
BLACK
6
CONTINUOUS
10
66.5312
20
-107.35
11
65.2313
21
-107.35
0
LINE
8
BLACK
6
CONTINUOUS
10
65.2313
20
-107.35
11
65.2313
21
-106.65
0
LINE
8
BLACK
6
CONTINUOUS
10
65.2313
20
-106.65
11
66.5312
21
-106.65
0
LINE
8
BLACK
6
CONTINUOUS
10
66.5312
20
-106.65
11
66.5312
21
-107.35
0
LINE
8
BLACK
6
CONTINUOUS
10
131.603
20
-107.055
11
130.803
21
-107.055
0
LINE
8
BLACK
6
CONTINUOUS
10
130.803
20
-107.055
11
130.803
21
-106.305
0
LINE
8
BLACK
6
CONTINUOUS
10
130.803
20
-106.305
11
131.603
21
-106.305
0
LINE
8
BLACK
6
CONTINUOUS
10
131.603
20
-106.305
11
131.603
21
-107.055
0
LINE
8
BLACK
6
CONTINUOUS
10
133.103
20
-107.055
11
132.303
21
-107.055
0
LINE
8
BLACK
6
CONTINUOUS
10
132.303
20
-107.055
11
132.303
21
-106.305
0
LINE
8
BLACK
6
CONTINUOUS
10
132.303
20
-106.305
11
133.103
21
-106.305
0
LINE
8
BLACK
6
CONTINUOUS
10
133.103
20
-106.305
11
133.103
21
-107.055
0
LINE
8
BLACK
6
CONTINUOUS
10
161.781
20
-106.869
11
160.481
21
-106.869
0
LINE
8
BLACK
6
CONTINUOUS
10
160.481
20
-106.869
11
160.481
21
-106.169
0
LINE
8
BLACK
6
CONTINUOUS
10
160.481
20
-106.169
11
161.781
21
-106.169
0
LINE
8
BLACK
6
CONTINUOUS
10
161.781
20
-106.169
11
161.781
21
-106.869
0
LINE
8
BLACK
6
CONTINUOUS
10
217.344
20
-106.869
11
216.044
21
-106.869
0
LINE
8
BLACK
6
CONTINUOUS
10
216.044
20
-106.869
11
216.044
21
-106.169
0
LINE
8
BLACK
6
CONTINUOUS
10
216.044
20
-106.169
11
217.344
21
-106.169
0
LINE
8
BLACK
6
CONTINUOUS
10
217.344
20
-106.169
11
217.344
21
-106.869
0
LINE
8
BLACK
6
CONTINUOUS
10
124.237
20
-106.547
11
123.437
21
-106.547
0
LINE
8
BLACK
6
CONTINUOUS
10
123.437
20
-106.547
11
123.437
21
-105.797
0
LINE
8
BLACK
6
CONTINUOUS
10
123.437
20
-105.797
11
124.237
21
-105.797
0
LINE
8
BLACK
6
CONTINUOUS
10
124.237
20
-105.797
11
124.237
21
-106.547
0
LINE
8
BLACK
6
CONTINUOUS
10
125.737
20
-106.547
11
124.937
21
-106.547
0
LINE
8
BLACK
6
CONTINUOUS
10
124.937
20
-106.547
11
124.937
21
-105.797
0
LINE
8
BLACK
6
CONTINUOUS
10
124.937
20
-105.797
11
125.737
21
-105.797
0
LINE
8
BLACK
6
CONTINUOUS
10
125.737
20
-105.797
11
125.737
21
-106.547
0
LINE
8
BLACK
6
CONTINUOUS
10
242.394
20
-106.207
11
241.094
21
-106.207
0
LINE
8
BLACK
6
CONTINUOUS
10
241.094
20
-106.207
11
241.094
21
-105.507
0
LINE
8
BLACK
6
CONTINUOUS
10
241.094
20
-105.507
11
242.394
21
-105.507
0
LINE
8
BLACK
6
CONTINUOUS
10
242.394
20
-105.507
11
242.394
21
-106.207
0
LINE
8
BLACK
6
CONTINUOUS
10
48.225
20
-106.081
11
47.025
21
-106.081
0
LINE
8
BLACK
6
CONTINUOUS
10
47.025
20
-106.081
11
47.025
21
-105.181
0
LINE
8
BLACK
6
CONTINUOUS
10
47.025
20
-105.181
11
48.225
21
-105.181
0
LINE
8
BLACK
6
CONTINUOUS
10
48.225
20
-105.181
11
48.225
21
-106.081
0
LINE
8
BLACK
6
CONTINUOUS
10
315.769
20
-106.075
11
314.469
21
-106.075
0
LINE
8
BLACK
6
CONTINUOUS
10
314.469
20
-106.075
11
314.469
21
-105.375
0
LINE
8
BLACK
6
CONTINUOUS
10
314.469
20
-105.375
11
315.769
21
-105.375
0
LINE
8
BLACK
6
CONTINUOUS
10
315.769
20
-105.375
11
315.769
21
-106.075
0
LINE
8
BLACK
6
CONTINUOUS
10
217.344
20
-104.969
11
216.044
21
-104.969
0
LINE
8
BLACK
6
CONTINUOUS
10
216.044
20
-104.969
11
216.044
21
-104.269
0
LINE
8
BLACK
6
CONTINUOUS
10
216.044
20
-104.269
11
217.344
21
-104.269
0
LINE
8
BLACK
6
CONTINUOUS
10
217.344
20
-104.269
11
217.344
21
-104.969
0
LINE
8
BLACK
6
CONTINUOUS
10
161.781
20
-104.969
11
160.481
21
-104.969
0
LINE
8
BLACK
6
CONTINUOUS
10
160.481
20
-104.969
11
160.481
21
-104.269
0
LINE
8
BLACK
6
CONTINUOUS
10
160.481
20
-104.269
11
161.781
21
-104.269
0
LINE
8
BLACK
6
CONTINUOUS
10
161.781
20
-104.269
11
161.781
21
-104.969
0
LINE
8
BLACK
6
CONTINUOUS
10
293.494
20
-104.494
11
292.294
21
-104.494
0
LINE
8
BLACK
6
CONTINUOUS
10
292.294
20
-104.494
11
292.294
21
-103.594
0
LINE
8
BLACK
6
CONTINUOUS
10
292.294
20
-103.594
11
293.494
21
-103.594
0
LINE
8
BLACK
6
CONTINUOUS
10
293.494
20
-103.594
11
293.494
21
-104.494
0
LINE
8
BLACK
6
CONTINUOUS
10
312.544
20
-104.494
11
311.344
21
-104.494
0
LINE
8
BLACK
6
CONTINUOUS
10
311.344
20
-104.494
11
311.344
21
-103.594
0
LINE
8
BLACK
6
CONTINUOUS
10
311.344
20
-103.594
11
312.544
21
-103.594
0
LINE
8
BLACK
6
CONTINUOUS
10
312.544
20
-103.594
11
312.544
21
-104.494
0
LINE
8
BLACK
6
CONTINUOUS
10
66.4813
20
-104.494
11
65.2812
21
-104.494
0
LINE
8
BLACK
6
CONTINUOUS
10
65.2812
20
-104.494
11
65.2812
21
-103.594
0
LINE
8
BLACK
6
CONTINUOUS
10
65.2812
20
-103.594
11
66.4813
21
-103.594
0
LINE
8
BLACK
6
CONTINUOUS
10
66.4813
20
-103.594
11
66.4813
21
-104.494
0
LINE
8
BLACK
6
CONTINUOUS
10
85.5312
20
-104.494
11
84.3312
21
-104.494
0
LINE
8
BLACK
6
CONTINUOUS
10
84.3312
20
-104.494
11
84.3312
21
-103.594
0
LINE
8
BLACK
6
CONTINUOUS
10
84.3312
20
-103.594
11
85.5312
21
-103.594
0
LINE
8
BLACK
6
CONTINUOUS
10
85.5312
20
-103.594
11
85.5312
21
-104.494
0
LINE
8
BLACK
6
CONTINUOUS
10
236.521
20
-104.487
11
235.221
21
-104.487
0
LINE
8
BLACK
6
CONTINUOUS
10
235.221
20
-104.487
11
235.221
21
-103.787
0
LINE
8
BLACK
6
CONTINUOUS
10
235.221
20
-103.787
11
236.521
21
-103.787
0
LINE
8
BLACK
6
CONTINUOUS
10
236.521
20
-103.787
11
236.521
21
-104.487
0
LINE
8
BLACK
6
CONTINUOUS
10
142.731
20
-104.487
11
141.431
21
-104.487
0
LINE
8
BLACK
6
CONTINUOUS
10
141.431
20
-104.487
11
141.431
21
-103.787
0
LINE
8
BLACK
6
CONTINUOUS
10
141.431
20
-103.787
11
142.731
21
-103.787
0
LINE
8
BLACK
6
CONTINUOUS
10
142.731
20
-103.787
11
142.731
21
-104.487
0
LINE
8
BLACK
6
CONTINUOUS
10
274.494
20
-104.487
11
273.194
21
-104.487
0
LINE
8
BLACK
6
CONTINUOUS
10
273.194
20
-104.487
11
273.194
21
-103.787
0
LINE
8
BLACK
6
CONTINUOUS
10
273.194
20
-103.787
11
274.494
21
-103.787
0
LINE
8
BLACK
6
CONTINUOUS
10
274.494
20
-103.787
11
274.494
21
-104.487
0
LINE
8
BLACK
6
CONTINUOUS
10
104.631
20
-104.487
11
103.331
21
-104.487
0
LINE
8
BLACK
6
CONTINUOUS
10
103.331
20
-104.487
11
103.331
21
-103.787
0
LINE
8
BLACK
6
CONTINUOUS
10
103.331
20
-103.787
11
104.631
21
-103.787
0
LINE
8
BLACK
6
CONTINUOUS
10
104.631
20
-103.787
11
104.631
21
-104.487
0
LINE
8
BLACK
6
CONTINUOUS
10
315.769
20
-104.175
11
314.469
21
-104.175
0
LINE
8
BLACK
6
CONTINUOUS
10
314.469
20
-104.175
11
314.469
21
-103.475
0
LINE
8
BLACK
6
CONTINUOUS
10
314.469
20
-103.475
11
315.769
21
-103.475
0
LINE
8
BLACK
6
CONTINUOUS
10
315.769
20
-103.475
11
315.769
21
-104.175
0
LINE
8
BLACK
6
CONTINUOUS
10
125.887
20
-103.52
11
125.187
21
-103.52
0
LINE
8
BLACK
6
CONTINUOUS
10
125.187
20
-103.52
11
125.187
21
-102.22
0
LINE
8
BLACK
6
CONTINUOUS
10
125.187
20
-102.22
11
125.887
21
-102.22
0
LINE
8
BLACK
6
CONTINUOUS
10
125.887
20
-102.22
11
125.887
21
-103.52
0
LINE
8
BLACK
6
CONTINUOUS
10
123.987
20
-103.52
11
123.287
21
-103.52
0
LINE
8
BLACK
6
CONTINUOUS
10
123.287
20
-103.52
11
123.287
21
-102.22
0
LINE
8
BLACK
6
CONTINUOUS
10
123.287
20
-102.22
11
123.987
21
-102.22
0
LINE
8
BLACK
6
CONTINUOUS
10
123.987
20
-102.22
11
123.987
21
-103.52
0
LINE
8
BLACK
6
CONTINUOUS
10
48.225
20
-102.781
11
47.025
21
-102.781
0
LINE
8
BLACK
6
CONTINUOUS
10
47.025
20
-102.781
11
47.025
21
-101.881
0
LINE
8
BLACK
6
CONTINUOUS
10
47.025
20
-101.881
11
48.225
21
-101.881
0
LINE
8
BLACK
6
CONTINUOUS
10
48.225
20
-101.881
11
48.225
21
-102.781
0
LINE
8
BLACK
6
CONTINUOUS
10
274.494
20
-102.587
11
273.194
21
-102.587
0
LINE
8
BLACK
6
CONTINUOUS
10
273.194
20
-102.587
11
273.194
21
-101.887
0
LINE
8
BLACK
6
CONTINUOUS
10
273.194
20
-101.887
11
274.494
21
-101.887
0
LINE
8
BLACK
6
CONTINUOUS
10
274.494
20
-101.887
11
274.494
21
-102.587
0
LINE
8
BLACK
6
CONTINUOUS
10
142.731
20
-102.587
11
141.431
21
-102.587
0
LINE
8
BLACK
6
CONTINUOUS
10
141.431
20
-102.587
11
141.431
21
-101.887
0
LINE
8
BLACK
6
CONTINUOUS
10
141.431
20
-101.887
11
142.731
21
-101.887
0
LINE
8
BLACK
6
CONTINUOUS
10
142.731
20
-101.887
11
142.731
21
-102.587
0
LINE
8
BLACK
6
CONTINUOUS
10
104.631
20
-102.587
11
103.331
21
-102.587
0
LINE
8
BLACK
6
CONTINUOUS
10
103.331
20
-102.587
11
103.331
21
-101.887
0
LINE
8
BLACK
6
CONTINUOUS
10
103.331
20
-101.887
11
104.631
21
-101.887
0
LINE
8
BLACK
6
CONTINUOUS
10
104.631
20
-101.887
11
104.631
21
-102.587
0
LINE
8
BLACK
6
CONTINUOUS
10
236.521
20
-102.587
11
235.221
21
-102.587
0
LINE
8
BLACK
6
CONTINUOUS
10
235.221
20
-102.587
11
235.221
21
-101.887
0
LINE
8
BLACK
6
CONTINUOUS
10
235.221
20
-101.887
11
236.521
21
-101.887
0
LINE
8
BLACK
6
CONTINUOUS
10
236.521
20
-101.887
11
236.521
21
-102.587
0
LINE
8
BLACK
6
CONTINUOUS
10
161.731
20
-102.112
11
160.531
21
-102.112
0
LINE
8
BLACK
6
CONTINUOUS
10
160.531
20
-102.112
11
160.531
21
-101.212
0
LINE
8
BLACK
6
CONTINUOUS
10
160.531
20
-101.212
11
161.731
21
-101.212
0
LINE
8
BLACK
6
CONTINUOUS
10
161.731
20
-101.212
11
161.731
21
-102.112
0
LINE
8
BLACK
6
CONTINUOUS
10
217.294
20
-102.112
11
216.094
21
-102.112
0
LINE
8
BLACK
6
CONTINUOUS
10
216.094
20
-102.112
11
216.094
21
-101.212
0
LINE
8
BLACK
6
CONTINUOUS
10
216.094
20
-101.212
11
217.294
21
-101.212
0
LINE
8
BLACK
6
CONTINUOUS
10
217.294
20
-101.212
11
217.294
21
-102.112
0
LINE
8
BLACK
6
CONTINUOUS
10
255.444
20
-102.106
11
254.144
21
-102.106
0
LINE
8
BLACK
6
CONTINUOUS
10
254.144
20
-102.106
11
254.144
21
-101.406
0
LINE
8
BLACK
6
CONTINUOUS
10
254.144
20
-101.406
11
255.444
21
-101.406
0
LINE
8
BLACK
6
CONTINUOUS
10
255.444
20
-101.406
11
255.444
21
-102.106
0
LINE
8
BLACK
6
CONTINUOUS
10
108.6
20
-102.106
11
107.3
21
-102.106
0
LINE
8
BLACK
6
CONTINUOUS
10
107.3
20
-102.106
11
107.3
21
-101.406
0
LINE
8
BLACK
6
CONTINUOUS
10
107.3
20
-101.406
11
108.6
21
-101.406
0
LINE
8
BLACK
6
CONTINUOUS
10
108.6
20
-101.406
11
108.6
21
-102.106
0
LINE
8
BLACK
6
CONTINUOUS
10
66.4813
20
-101.194
11
65.2812
21
-101.194
0
LINE
8
BLACK
6
CONTINUOUS
10
65.2812
20
-101.194
11
65.2812
21
-100.294
0
LINE
8
BLACK
6
CONTINUOUS
10
65.2812
20
-100.294
11
66.4813
21
-100.294
0
LINE
8
BLACK
6
CONTINUOUS
10
66.4813
20
-100.294
11
66.4813
21
-101.194
0
LINE
8
BLACK
6
CONTINUOUS
10
85.5312
20
-101.194
11
84.3312
21
-101.194
0
LINE
8
BLACK
6
CONTINUOUS
10
84.3312
20
-101.194
11
84.3312
21
-100.294
0
LINE
8
BLACK
6
CONTINUOUS
10
84.3312
20
-100.294
11
85.5312
21
-100.294
0
LINE
8
BLACK
6
CONTINUOUS
10
85.5312
20
-100.294
11
85.5312
21
-101.194
0
LINE
8
BLACK
6
CONTINUOUS
10
312.544
20
-101.194
11
311.344
21
-101.194
0
LINE
8
BLACK
6
CONTINUOUS
10
311.344
20
-101.194
11
311.344
21
-100.294
0
LINE
8
BLACK
6
CONTINUOUS
10
311.344
20
-100.294
11
312.544
21
-100.294
0
LINE
8
BLACK
6
CONTINUOUS
10
312.544
20
-100.294
11
312.544
21
-101.194
0
LINE
8
BLACK
6
CONTINUOUS
10
293.494
20
-101.194
11
292.294
21
-101.194
0
LINE
8
BLACK
6
CONTINUOUS
10
292.294
20
-101.194
11
292.294
21
-100.294
0
LINE
8
BLACK
6
CONTINUOUS
10
292.294
20
-100.294
11
293.494
21
-100.294
0
LINE
8
BLACK
6
CONTINUOUS
10
293.494
20
-100.294
11
293.494
21
-101.194
0
LINE
8
BLACK
6
CONTINUOUS
10
108.6
20
-100.206
11
107.3
21
-100.206
0
LINE
8
BLACK
6
CONTINUOUS
10
107.3
20
-100.206
11
107.3
21
-99.5062
0
LINE
8
BLACK
6
CONTINUOUS
10
107.3
20
-99.5062
11
108.6
21
-99.5062
0
LINE
8
BLACK
6
CONTINUOUS
10
108.6
20
-99.5062
11
108.6
21
-100.206
0
LINE
8
BLACK
6
CONTINUOUS
10
255.444
20
-100.206
11
254.144
21
-100.206
0
LINE
8
BLACK
6
CONTINUOUS
10
254.144
20
-100.206
11
254.144
21
-99.5062
0
LINE
8
BLACK
6
CONTINUOUS
10
254.144
20
-99.5062
11
255.444
21
-99.5062
0
LINE
8
BLACK
6
CONTINUOUS
10
255.444
20
-99.5062
11
255.444
21
-100.206
0
LINE
8
BLACK
6
CONTINUOUS
10
104.581
20
-99.7312
11
103.381
21
-99.7312
0
LINE
8
BLACK
6
CONTINUOUS
10
103.381
20
-99.7312
11
103.381
21
-98.8312
0
LINE
8
BLACK
6
CONTINUOUS
10
103.381
20
-98.8312
11
104.581
21
-98.8312
0
LINE
8
BLACK
6
CONTINUOUS
10
104.581
20
-98.8312
11
104.581
21
-99.7312
0
LINE
8
BLACK
6
CONTINUOUS
10
142.681
20
-99.7312
11
141.481
21
-99.7312
0
LINE
8
BLACK
6
CONTINUOUS
10
141.481
20
-99.7312
11
141.481
21
-98.8312
0
LINE
8
BLACK
6
CONTINUOUS
10
141.481
20
-98.8312
11
142.681
21
-98.8312
0
LINE
8
BLACK
6
CONTINUOUS
10
142.681
20
-98.8312
11
142.681
21
-99.7312
0
LINE
8
BLACK
6
CONTINUOUS
10
274.444
20
-99.7312
11
273.244
21
-99.7312
0
LINE
8
BLACK
6
CONTINUOUS
10
273.244
20
-99.7312
11
273.244
21
-98.8312
0
LINE
8
BLACK
6
CONTINUOUS
10
273.244
20
-98.8312
11
274.444
21
-98.8312
0
LINE
8
BLACK
6
CONTINUOUS
10
274.444
20
-98.8312
11
274.444
21
-99.7312
0
LINE
8
BLACK
6
CONTINUOUS
10
236.471
20
-99.7312
11
235.271
21
-99.7312
0
LINE
8
BLACK
6
CONTINUOUS
10
235.271
20
-99.7312
11
235.271
21
-98.8312
0
LINE
8
BLACK
6
CONTINUOUS
10
235.271
20
-98.8312
11
236.471
21
-98.8312
0
LINE
8
BLACK
6
CONTINUOUS
10
236.471
20
-98.8312
11
236.471
21
-99.7312
0
LINE
8
BLACK
6
CONTINUOUS
10
161.731
20
-98.8125
11
160.531
21
-98.8125
0
LINE
8
BLACK
6
CONTINUOUS
10
160.531
20
-98.8125
11
160.531
21
-97.9125
0
LINE
8
BLACK
6
CONTINUOUS
10
160.531
20
-97.9125
11
161.731
21
-97.9125
0
LINE
8
BLACK
6
CONTINUOUS
10
161.731
20
-97.9125
11
161.731
21
-98.8125
0
LINE
8
BLACK
6
CONTINUOUS
10
217.294
20
-98.8125
11
216.094
21
-98.8125
0
LINE
8
BLACK
6
CONTINUOUS
10
216.094
20
-98.8125
11
216.094
21
-97.9125
0
LINE
8
BLACK
6
CONTINUOUS
10
216.094
20
-97.9125
11
217.294
21
-97.9125
0
LINE
8
BLACK
6
CONTINUOUS
10
217.294
20
-97.9125
11
217.294
21
-98.8125
0
LINE
8
BLACK
6
CONTINUOUS
10
314.925
20
-98.1437
11
313.725
21
-98.1437
0
LINE
8
BLACK
6
CONTINUOUS
10
313.725
20
-98.1437
11
313.725
21
-97.2437
0
LINE
8
BLACK
6
CONTINUOUS
10
313.725
20
-97.2437
11
314.925
21
-97.2437
0
LINE
8
BLACK
6
CONTINUOUS
10
314.925
20
-97.2437
11
314.925
21
-98.1437
0
LINE
8
BLACK
6
CONTINUOUS
10
108.55
20
-97.35
11
107.35
21
-97.35
0
LINE
8
BLACK
6
CONTINUOUS
10
107.35
20
-97.35
11
107.35
21
-96.45
0
LINE
8
BLACK
6
CONTINUOUS
10
107.35
20
-96.45
11
108.55
21
-96.45
0
LINE
8
BLACK
6
CONTINUOUS
10
108.55
20
-96.45
11
108.55
21
-97.35
0
LINE
8
BLACK
6
CONTINUOUS
10
255.394
20
-97.35
11
254.194
21
-97.35
0
LINE
8
BLACK
6
CONTINUOUS
10
254.194
20
-97.35
11
254.194
21
-96.45
0
LINE
8
BLACK
6
CONTINUOUS
10
254.194
20
-96.45
11
255.394
21
-96.45
0
LINE
8
BLACK
6
CONTINUOUS
10
255.394
20
-96.45
11
255.394
21
-97.35
0
LINE
8
BLACK
6
CONTINUOUS
10
142.681
20
-96.4312
11
141.481
21
-96.4312
0
LINE
8
BLACK
6
CONTINUOUS
10
141.481
20
-96.4312
11
141.481
21
-95.5312
0
LINE
8
BLACK
6
CONTINUOUS
10
141.481
20
-95.5312
11
142.681
21
-95.5312
0
LINE
8
BLACK
6
CONTINUOUS
10
142.681
20
-95.5312
11
142.681
21
-96.4312
0
LINE
8
BLACK
6
CONTINUOUS
10
274.444
20
-96.4312
11
273.244
21
-96.4312
0
LINE
8
BLACK
6
CONTINUOUS
10
273.244
20
-96.4312
11
273.244
21
-95.5312
0
LINE
8
BLACK
6
CONTINUOUS
10
273.244
20
-95.5312
11
274.444
21
-95.5312
0
LINE
8
BLACK
6
CONTINUOUS
10
274.444
20
-95.5312
11
274.444
21
-96.4312
0
LINE
8
BLACK
6
CONTINUOUS
10
104.581
20
-96.4312
11
103.381
21
-96.4312
0
LINE
8
BLACK
6
CONTINUOUS
10
103.381
20
-96.4312
11
103.381
21
-95.5312
0
LINE
8
BLACK
6
CONTINUOUS
10
103.381
20
-95.5312
11
104.581
21
-95.5312
0
LINE
8
BLACK
6
CONTINUOUS
10
104.581
20
-95.5312
11
104.581
21
-96.4312
0
LINE
8
BLACK
6
CONTINUOUS
10
236.471
20
-96.4312
11
235.271
21
-96.4312
0
LINE
8
BLACK
6
CONTINUOUS
10
235.271
20
-96.4312
11
235.271
21
-95.5312
0
LINE
8
BLACK
6
CONTINUOUS
10
235.271
20
-95.5312
11
236.471
21
-95.5312
0
LINE
8
BLACK
6
CONTINUOUS
10
236.471
20
-95.5312
11
236.471
21
-96.4312
0
LINE
8
BLACK
6
CONTINUOUS
10
314.925
20
-94.8438
11
313.725
21
-94.8438
0
LINE
8
BLACK
6
CONTINUOUS
10
313.725
20
-94.8438
11
313.725
21
-93.9437
0
LINE
8
BLACK
6
CONTINUOUS
10
313.725
20
-93.9437
11
314.925
21
-93.9437
0
LINE
8
BLACK
6
CONTINUOUS
10
314.925
20
-93.9437
11
314.925
21
-94.8438
0
LINE
8
BLACK
6
CONTINUOUS
10
108.55
20
-94.05
11
107.35
21
-94.05
0
LINE
8
BLACK
6
CONTINUOUS
10
107.35
20
-94.05
11
107.35
21
-93.15
0
LINE
8
BLACK
6
CONTINUOUS
10
107.35
20
-93.15
11
108.55
21
-93.15
0
LINE
8
BLACK
6
CONTINUOUS
10
108.55
20
-93.15
11
108.55
21
-94.05
0
LINE
8
BLACK
6
CONTINUOUS
10
255.394
20
-94.05
11
254.194
21
-94.05
0
LINE
8
BLACK
6
CONTINUOUS
10
254.194
20
-94.05
11
254.194
21
-93.15
0
LINE
8
BLACK
6
CONTINUOUS
10
254.194
20
-93.15
11
255.394
21
-93.15
0
LINE
8
BLACK
6
CONTINUOUS
10
255.394
20
-93.15
11
255.394
21
-94.05
0
LINE
8
BLACK
6
CONTINUOUS
10
48.275
20
-91.7875
11
46.975
21
-91.7875
0
LINE
8
BLACK
6
CONTINUOUS
10
46.975
20
-91.7875
11
46.975
21
-91.0875
0
LINE
8
BLACK
6
CONTINUOUS
10
46.975
20
-91.0875
11
48.275
21
-91.0875
0
LINE
8
BLACK
6
CONTINUOUS
10
48.275
20
-91.0875
11
48.275
21
-91.7875
0
LINE
8
BLACK
6
CONTINUOUS
10
315.769
20
-91.7875
11
314.469
21
-91.7875
0
LINE
8
BLACK
6
CONTINUOUS
10
314.469
20
-91.7875
11
314.469
21
-91.0875
0
LINE
8
BLACK
6
CONTINUOUS
10
314.469
20
-91.0875
11
315.769
21
-91.0875
0
LINE
8
BLACK
6
CONTINUOUS
10
315.769
20
-91.0875
11
315.769
21
-91.7875
0
LINE
8
BLACK
6
CONTINUOUS
10
312.594
20
-91.7875
11
311.294
21
-91.7875
0
LINE
8
BLACK
6
CONTINUOUS
10
311.294
20
-91.7875
11
311.294
21
-91.0875
0
LINE
8
BLACK
6
CONTINUOUS
10
311.294
20
-91.0875
11
312.594
21
-91.0875
0
LINE
8
BLACK
6
CONTINUOUS
10
312.594
20
-91.0875
11
312.594
21
-91.7875
0
LINE
8
BLACK
6
CONTINUOUS
10
293.544
20
-90.2
11
292.244
21
-90.2
0
LINE
8
BLACK
6
CONTINUOUS
10
292.244
20
-90.2
11
292.244
21
-89.5
0
LINE
8
BLACK
6
CONTINUOUS
10
292.244
20
-89.5
11
293.544
21
-89.5
0
LINE
8
BLACK
6
CONTINUOUS
10
293.544
20
-89.5
11
293.544
21
-90.2
0
LINE
8
BLACK
6
CONTINUOUS
10
66.5312
20
-90.2
11
65.2313
21
-90.2
0
LINE
8
BLACK
6
CONTINUOUS
10
65.2313
20
-90.2
11
65.2313
21
-89.5
0
LINE
8
BLACK
6
CONTINUOUS
10
65.2313
20
-89.5
11
66.5312
21
-89.5
0
LINE
8
BLACK
6
CONTINUOUS
10
66.5312
20
-89.5
11
66.5312
21
-90.2
0
LINE
8
BLACK
6
CONTINUOUS
10
85.5812
20
-90.2
11
84.2812
21
-90.2
0
LINE
8
BLACK
6
CONTINUOUS
10
84.2812
20
-90.2
11
84.2812
21
-89.5
0
LINE
8
BLACK
6
CONTINUOUS
10
84.2812
20
-89.5
11
85.5812
21
-89.5
0
LINE
8
BLACK
6
CONTINUOUS
10
85.5812
20
-89.5
11
85.5812
21
-90.2
0
LINE
8
BLACK
6
CONTINUOUS
10
48.275
20
-89.8875
11
46.975
21
-89.8875
0
LINE
8
BLACK
6
CONTINUOUS
10
46.975
20
-89.8875
11
46.975
21
-89.1875
0
LINE
8
BLACK
6
CONTINUOUS
10
46.975
20
-89.1875
11
48.275
21
-89.1875
0
LINE
8
BLACK
6
CONTINUOUS
10
48.275
20
-89.1875
11
48.275
21
-89.8875
0
LINE
8
BLACK
6
CONTINUOUS
10
312.594
20
-89.8875
11
311.294
21
-89.8875
0
LINE
8
BLACK
6
CONTINUOUS
10
311.294
20
-89.8875
11
311.294
21
-89.1875
0
LINE
8
BLACK
6
CONTINUOUS
10
311.294
20
-89.1875
11
312.594
21
-89.1875
0
LINE
8
BLACK
6
CONTINUOUS
10
312.594
20
-89.1875
11
312.594
21
-89.8875
0
LINE
8
BLACK
6
CONTINUOUS
10
315.769
20
-89.8875
11
314.469
21
-89.8875
0
LINE
8
BLACK
6
CONTINUOUS
10
314.469
20
-89.8875
11
314.469
21
-89.1875
0
LINE
8
BLACK
6
CONTINUOUS
10
314.469
20
-89.1875
11
315.769
21
-89.1875
0
LINE
8
BLACK
6
CONTINUOUS
10
315.769
20
-89.1875
11
315.769
21
-89.8875
0
LINE
8
BLACK
6
CONTINUOUS
10
66.5312
20
-88.3
11
65.2313
21
-88.3
0
LINE
8
BLACK
6
CONTINUOUS
10
65.2313
20
-88.3
11
65.2313
21
-87.6
0
LINE
8
BLACK
6
CONTINUOUS
10
65.2313
20
-87.6
11
66.5312
21
-87.6
0
LINE
8
BLACK
6
CONTINUOUS
10
66.5312
20
-87.6
11
66.5312
21
-88.3
0
LINE
8
BLACK
6
CONTINUOUS
10
85.5812
20
-88.3
11
84.2812
21
-88.3
0
LINE
8
BLACK
6
CONTINUOUS
10
84.2812
20
-88.3
11
84.2812
21
-87.6
0
LINE
8
BLACK
6
CONTINUOUS
10
84.2812
20
-87.6
11
85.5812
21
-87.6
0
LINE
8
BLACK
6
CONTINUOUS
10
85.5812
20
-87.6
11
85.5812
21
-88.3
0
LINE
8
BLACK
6
CONTINUOUS
10
293.544
20
-88.3
11
292.244
21
-88.3
0
LINE
8
BLACK
6
CONTINUOUS
10
292.244
20
-88.3
11
292.244
21
-87.6
0
LINE
8
BLACK
6
CONTINUOUS
10
292.244
20
-87.6
11
293.544
21
-87.6
0
LINE
8
BLACK
6
CONTINUOUS
10
293.544
20
-87.6
11
293.544
21
-88.3
0
LINE
8
BLACK
6
CONTINUOUS
10
217.344
20
-87.8187
11
216.044
21
-87.8187
0
LINE
8
BLACK
6
CONTINUOUS
10
216.044
20
-87.8187
11
216.044
21
-87.1187
0
LINE
8
BLACK
6
CONTINUOUS
10
216.044
20
-87.1187
11
217.344
21
-87.1187
0
LINE
8
BLACK
6
CONTINUOUS
10
217.344
20
-87.1187
11
217.344
21
-87.8187
0
LINE
8
BLACK
6
CONTINUOUS
10
161.781
20
-87.8187
11
160.481
21
-87.8187
0
LINE
8
BLACK
6
CONTINUOUS
10
160.481
20
-87.8187
11
160.481
21
-87.1187
0
LINE
8
BLACK
6
CONTINUOUS
10
160.481
20
-87.1187
11
161.781
21
-87.1187
0
LINE
8
BLACK
6
CONTINUOUS
10
161.781
20
-87.1187
11
161.781
21
-87.8187
0
LINE
8
BLACK
6
CONTINUOUS
10
217.344
20
-85.9188
11
216.044
21
-85.9188
0
LINE
8
BLACK
6
CONTINUOUS
10
216.044
20
-85.9188
11
216.044
21
-85.2188
0
LINE
8
BLACK
6
CONTINUOUS
10
216.044
20
-85.2188
11
217.344
21
-85.2188
0
LINE
8
BLACK
6
CONTINUOUS
10
217.344
20
-85.2188
11
217.344
21
-85.9188
0
LINE
8
BLACK
6
CONTINUOUS
10
161.781
20
-85.9188
11
160.481
21
-85.9188
0
LINE
8
BLACK
6
CONTINUOUS
10
160.481
20
-85.9188
11
160.481
21
-85.2188
0
LINE
8
BLACK
6
CONTINUOUS
10
160.481
20
-85.2188
11
161.781
21
-85.2188
0
LINE
8
BLACK
6
CONTINUOUS
10
161.781
20
-85.2188
11
161.781
21
-85.9188
0
LINE
8
BLACK
6
CONTINUOUS
10
85.5312
20
-85.4437
11
84.3312
21
-85.4437
0
LINE
8
BLACK
6
CONTINUOUS
10
84.3312
20
-85.4437
11
84.3312
21
-84.5438
0
LINE
8
BLACK
6
CONTINUOUS
10
84.3312
20
-84.5438
11
85.5312
21
-84.5438
0
LINE
8
BLACK
6
CONTINUOUS
10
85.5312
20
-84.5438
11
85.5312
21
-85.4437
0
LINE
8
BLACK
6
CONTINUOUS
10
293.494
20
-85.4437
11
292.294
21
-85.4437
0
LINE
8
BLACK
6
CONTINUOUS
10
292.294
20
-85.4437
11
292.294
21
-84.5438
0
LINE
8
BLACK
6
CONTINUOUS
10
292.294
20
-84.5438
11
293.494
21
-84.5438
0
LINE
8
BLACK
6
CONTINUOUS
10
293.494
20
-84.5438
11
293.494
21
-85.4437
0
LINE
8
BLACK
6
CONTINUOUS
10
66.4813
20
-85.4437
11
65.2812
21
-85.4437
0
LINE
8
BLACK
6
CONTINUOUS
10
65.2812
20
-85.4437
11
65.2812
21
-84.5438
0
LINE
8
BLACK
6
CONTINUOUS
10
65.2812
20
-84.5438
11
66.4813
21
-84.5438
0
LINE
8
BLACK
6
CONTINUOUS
10
66.4813
20
-84.5438
11
66.4813
21
-85.4437
0
LINE
8
BLACK
6
CONTINUOUS
10
104.631
20
-85.4375
11
103.331
21
-85.4375
0
LINE
8
BLACK
6
CONTINUOUS
10
103.331
20
-85.4375
11
103.331
21
-84.7375
0
LINE
8
BLACK
6
CONTINUOUS
10
103.331
20
-84.7375
11
104.631
21
-84.7375
0
LINE
8
BLACK
6
CONTINUOUS
10
104.631
20
-84.7375
11
104.631
21
-85.4375
0
LINE
8
BLACK
6
CONTINUOUS
10
274.494
20
-85.4375
11
273.194
21
-85.4375
0
LINE
8
BLACK
6
CONTINUOUS
10
273.194
20
-85.4375
11
273.194
21
-84.7375
0
LINE
8
BLACK
6
CONTINUOUS
10
273.194
20
-84.7375
11
274.494
21
-84.7375
0
LINE
8
BLACK
6
CONTINUOUS
10
274.494
20
-84.7375
11
274.494
21
-85.4375
0
LINE
8
BLACK
6
CONTINUOUS
10
142.731
20
-85.4375
11
141.431
21
-85.4375
0
LINE
8
BLACK
6
CONTINUOUS
10
141.431
20
-85.4375
11
141.431
21
-84.7375
0
LINE
8
BLACK
6
CONTINUOUS
10
141.431
20
-84.7375
11
142.731
21
-84.7375
0
LINE
8
BLACK
6
CONTINUOUS
10
142.731
20
-84.7375
11
142.731
21
-85.4375
0
LINE
8
BLACK
6
CONTINUOUS
10
236.394
20
-85.4375
11
235.094
21
-85.4375
0
LINE
8
BLACK
6
CONTINUOUS
10
235.094
20
-85.4375
11
235.094
21
-84.7375
0
LINE
8
BLACK
6
CONTINUOUS
10
235.094
20
-84.7375
11
236.394
21
-84.7375
0
LINE
8
BLACK
6
CONTINUOUS
10
236.394
20
-84.7375
11
236.394
21
-85.4375
0
LINE
8
BLACK
6
CONTINUOUS
10
274.494
20
-83.5375
11
273.194
21
-83.5375
0
LINE
8
BLACK
6
CONTINUOUS
10
273.194
20
-83.5375
11
273.194
21
-82.8375
0
LINE
8
BLACK
6
CONTINUOUS
10
273.194
20
-82.8375
11
274.494
21
-82.8375
0
LINE
8
BLACK
6
CONTINUOUS
10
274.494
20
-82.8375
11
274.494
21
-83.5375
0
LINE
8
BLACK
6
CONTINUOUS
10
104.631
20
-83.5375
11
103.331
21
-83.5375
0
LINE
8
BLACK
6
CONTINUOUS
10
103.331
20
-83.5375
11
103.331
21
-82.8375
0
LINE
8
BLACK
6
CONTINUOUS
10
103.331
20
-82.8375
11
104.631
21
-82.8375
0
LINE
8
BLACK
6
CONTINUOUS
10
104.631
20
-82.8375
11
104.631
21
-83.5375
0
LINE
8
BLACK
6
CONTINUOUS
10
236.394
20
-83.5375
11
235.094
21
-83.5375
0
LINE
8
BLACK
6
CONTINUOUS
10
235.094
20
-83.5375
11
235.094
21
-82.8375
0
LINE
8
BLACK
6
CONTINUOUS
10
235.094
20
-82.8375
11
236.394
21
-82.8375
0
LINE
8
BLACK
6
CONTINUOUS
10
236.394
20
-82.8375
11
236.394
21
-83.5375
0
LINE
8
BLACK
6
CONTINUOUS
10
142.731
20
-83.5375
11
141.431
21
-83.5375
0
LINE
8
BLACK
6
CONTINUOUS
10
141.431
20
-83.5375
11
141.431
21
-82.8375
0
LINE
8
BLACK
6
CONTINUOUS
10
141.431
20
-82.8375
11
142.731
21
-82.8375
0
LINE
8
BLACK
6
CONTINUOUS
10
142.731
20
-82.8375
11
142.731
21
-83.5375
0
LINE
8
BLACK
6
CONTINUOUS
10
217.294
20
-83.0625
11
216.094
21
-83.0625
0
LINE
8
BLACK
6
CONTINUOUS
10
216.094
20
-83.0625
11
216.094
21
-82.1625
0
LINE
8
BLACK
6
CONTINUOUS
10
216.094
20
-82.1625
11
217.294
21
-82.1625
0
LINE
8
BLACK
6
CONTINUOUS
10
217.294
20
-82.1625
11
217.294
21
-83.0625
0
LINE
8
BLACK
6
CONTINUOUS
10
161.731
20
-83.0625
11
160.531
21
-83.0625
0
LINE
8
BLACK
6
CONTINUOUS
10
160.531
20
-83.0625
11
160.531
21
-82.1625
0
LINE
8
BLACK
6
CONTINUOUS
10
160.531
20
-82.1625
11
161.731
21
-82.1625
0
LINE
8
BLACK
6
CONTINUOUS
10
161.731
20
-82.1625
11
161.731
21
-83.0625
0
LINE
8
BLACK
6
CONTINUOUS
10
255.444
20
-83.0562
11
254.144
21
-83.0562
0
LINE
8
BLACK
6
CONTINUOUS
10
254.144
20
-83.0562
11
254.144
21
-82.3563
0
LINE
8
BLACK
6
CONTINUOUS
10
254.144
20
-82.3563
11
255.444
21
-82.3563
0
LINE
8
BLACK
6
CONTINUOUS
10
255.444
20
-82.3563
11
255.444
21
-83.0562
0
LINE
8
BLACK
6
CONTINUOUS
10
123.681
20
-83.0562
11
122.381
21
-83.0562
0
LINE
8
BLACK
6
CONTINUOUS
10
122.381
20
-83.0562
11
122.381
21
-82.3563
0
LINE
8
BLACK
6
CONTINUOUS
10
122.381
20
-82.3563
11
123.681
21
-82.3563
0
LINE
8
BLACK
6
CONTINUOUS
10
123.681
20
-82.3563
11
123.681
21
-83.0562
0
LINE
8
BLACK
6
CONTINUOUS
10
312.544
20
-82.2687
11
311.344
21
-82.2687
0
LINE
8
BLACK
6
CONTINUOUS
10
311.344
20
-82.2687
11
311.344
21
-81.3687
0
LINE
8
BLACK
6
CONTINUOUS
10
311.344
20
-81.3687
11
312.544
21
-81.3687
0
LINE
8
BLACK
6
CONTINUOUS
10
312.544
20
-81.3687
11
312.544
21
-82.2687
0
LINE
8
BLACK
6
CONTINUOUS
10
48.225
20
-82.2687
11
47.025
21
-82.2687
0
LINE
8
BLACK
6
CONTINUOUS
10
47.025
20
-82.2687
11
47.025
21
-81.3687
0
LINE
8
BLACK
6
CONTINUOUS
10
47.025
20
-81.3687
11
48.225
21
-81.3687
0
LINE
8
BLACK
6
CONTINUOUS
10
48.225
20
-81.3687
11
48.225
21
-82.2687
0
LINE
8
BLACK
6
CONTINUOUS
10
316.131
20
-82.237
11
314.931
21
-82.237
0
LINE
8
BLACK
6
CONTINUOUS
10
314.931
20
-82.237
11
314.931
21
-81.337
0
LINE
8
BLACK
6
CONTINUOUS
10
314.931
20
-81.337
11
316.131
21
-81.337
0
LINE
8
BLACK
6
CONTINUOUS
10
316.131
20
-81.337
11
316.131
21
-82.237
0
LINE
8
BLACK
6
CONTINUOUS
10
66.4813
20
-82.1437
11
65.2812
21
-82.1437
0
LINE
8
BLACK
6
CONTINUOUS
10
65.2812
20
-82.1437
11
65.2812
21
-81.2437
0
LINE
8
BLACK
6
CONTINUOUS
10
65.2812
20
-81.2437
11
66.4813
21
-81.2437
0
LINE
8
BLACK
6
CONTINUOUS
10
66.4813
20
-81.2437
11
66.4813
21
-82.1437
0
LINE
8
BLACK
6
CONTINUOUS
10
85.5312
20
-82.1437
11
84.3312
21
-82.1437
0
LINE
8
BLACK
6
CONTINUOUS
10
84.3312
20
-82.1437
11
84.3312
21
-81.2437
0
LINE
8
BLACK
6
CONTINUOUS
10
84.3312
20
-81.2437
11
85.5312
21
-81.2437
0
LINE
8
BLACK
6
CONTINUOUS
10
85.5312
20
-81.2437
11
85.5312
21
-82.1437
0
LINE
8
BLACK
6
CONTINUOUS
10
293.494
20
-82.1437
11
292.294
21
-82.1437
0
LINE
8
BLACK
6
CONTINUOUS
10
292.294
20
-82.1437
11
292.294
21
-81.2437
0
LINE
8
BLACK
6
CONTINUOUS
10
292.294
20
-81.2437
11
293.494
21
-81.2437
0
LINE
8
BLACK
6
CONTINUOUS
10
293.494
20
-81.2437
11
293.494
21
-82.1437
0
LINE
8
BLACK
6
CONTINUOUS
10
255.444
20
-81.1562
11
254.144
21
-81.1562
0
LINE
8
BLACK
6
CONTINUOUS
10
254.144
20
-81.1562
11
254.144
21
-80.4562
0
LINE
8
BLACK
6
CONTINUOUS
10
254.144
20
-80.4562
11
255.444
21
-80.4562
0
LINE
8
BLACK
6
CONTINUOUS
10
255.444
20
-80.4562
11
255.444
21
-81.1562
0
LINE
8
BLACK
6
CONTINUOUS
10
123.681
20
-81.1562
11
122.381
21
-81.1562
0
LINE
8
BLACK
6
CONTINUOUS
10
122.381
20
-81.1562
11
122.381
21
-80.4562
0
LINE
8
BLACK
6
CONTINUOUS
10
122.381
20
-80.4562
11
123.681
21
-80.4562
0
LINE
8
BLACK
6
CONTINUOUS
10
123.681
20
-80.4562
11
123.681
21
-81.1562
0
LINE
8
BLACK
6
CONTINUOUS
10
142.681
20
-80.6812
11
141.481
21
-80.6812
0
LINE
8
BLACK
6
CONTINUOUS
10
141.481
20
-80.6812
11
141.481
21
-79.7812
0
LINE
8
BLACK
6
CONTINUOUS
10
141.481
20
-79.7812
11
142.681
21
-79.7812
0
LINE
8
BLACK
6
CONTINUOUS
10
142.681
20
-79.7812
11
142.681
21
-80.6812
0
LINE
8
BLACK
6
CONTINUOUS
10
104.581
20
-80.6812
11
103.381
21
-80.6812
0
LINE
8
BLACK
6
CONTINUOUS
10
103.381
20
-80.6812
11
103.381
21
-79.7812
0
LINE
8
BLACK
6
CONTINUOUS
10
103.381
20
-79.7812
11
104.581
21
-79.7812
0
LINE
8
BLACK
6
CONTINUOUS
10
104.581
20
-79.7812
11
104.581
21
-80.6812
0
LINE
8
BLACK
6
CONTINUOUS
10
236.344
20
-80.6812
11
235.144
21
-80.6812
0
LINE
8
BLACK
6
CONTINUOUS
10
235.144
20
-80.6812
11
235.144
21
-79.7812
0
LINE
8
BLACK
6
CONTINUOUS
10
235.144
20
-79.7812
11
236.344
21
-79.7812
0
LINE
8
BLACK
6
CONTINUOUS
10
236.344
20
-79.7812
11
236.344
21
-80.6812
0
LINE
8
BLACK
6
CONTINUOUS
10
274.444
20
-80.6812
11
273.244
21
-80.6812
0
LINE
8
BLACK
6
CONTINUOUS
10
273.244
20
-80.6812
11
273.244
21
-79.7812
0
LINE
8
BLACK
6
CONTINUOUS
10
273.244
20
-79.7812
11
274.444
21
-79.7812
0
LINE
8
BLACK
6
CONTINUOUS
10
274.444
20
-79.7812
11
274.444
21
-80.6812
0
LINE
8
BLACK
6
CONTINUOUS
10
161.731
20
-79.7625
11
160.531
21
-79.7625
0
LINE
8
BLACK
6
CONTINUOUS
10
160.531
20
-79.7625
11
160.531
21
-78.8625
0
LINE
8
BLACK
6
CONTINUOUS
10
160.531
20
-78.8625
11
161.731
21
-78.8625
0
LINE
8
BLACK
6
CONTINUOUS
10
161.731
20
-78.8625
11
161.731
21
-79.7625
0
LINE
8
BLACK
6
CONTINUOUS
10
217.294
20
-79.7625
11
216.094
21
-79.7625
0
LINE
8
BLACK
6
CONTINUOUS
10
216.094
20
-79.7625
11
216.094
21
-78.8625
0
LINE
8
BLACK
6
CONTINUOUS
10
216.094
20
-78.8625
11
217.294
21
-78.8625
0
LINE
8
BLACK
6
CONTINUOUS
10
217.294
20
-78.8625
11
217.294
21
-79.7625
0
LINE
8
BLACK
6
CONTINUOUS
10
312.544
20
-78.9688
11
311.344
21
-78.9688
0
LINE
8
BLACK
6
CONTINUOUS
10
311.344
20
-78.9688
11
311.344
21
-78.0687
0
LINE
8
BLACK
6
CONTINUOUS
10
311.344
20
-78.0687
11
312.544
21
-78.0687
0
LINE
8
BLACK
6
CONTINUOUS
10
312.544
20
-78.0687
11
312.544
21
-78.9688
0
LINE
8
BLACK
6
CONTINUOUS
10
48.225
20
-78.9688
11
47.025
21
-78.9688
0
LINE
8
BLACK
6
CONTINUOUS
10
47.025
20
-78.9688
11
47.025
21
-78.0687
0
LINE
8
BLACK
6
CONTINUOUS
10
47.025
20
-78.0687
11
48.225
21
-78.0687
0
LINE
8
BLACK
6
CONTINUOUS
10
48.225
20
-78.0687
11
48.225
21
-78.9688
0
LINE
8
BLACK
6
CONTINUOUS
10
316.131
20
-78.937
11
314.931
21
-78.937
0
LINE
8
BLACK
6
CONTINUOUS
10
314.931
20
-78.937
11
314.931
21
-78.037
0
LINE
8
BLACK
6
CONTINUOUS
10
314.931
20
-78.037
11
316.131
21
-78.037
0
LINE
8
BLACK
6
CONTINUOUS
10
316.131
20
-78.037
11
316.131
21
-78.937
0
LINE
8
BLACK
6
CONTINUOUS
10
255.394
20
-78.3
11
254.194
21
-78.3
0
LINE
8
BLACK
6
CONTINUOUS
10
254.194
20
-78.3
11
254.194
21
-77.4
0
LINE
8
BLACK
6
CONTINUOUS
10
254.194
20
-77.4
11
255.394
21
-77.4
0
LINE
8
BLACK
6
CONTINUOUS
10
255.394
20
-77.4
11
255.394
21
-78.3
0
LINE
8
BLACK
6
CONTINUOUS
10
123.631
20
-78.3
11
122.431
21
-78.3
0
LINE
8
BLACK
6
CONTINUOUS
10
122.431
20
-78.3
11
122.431
21
-77.4
0
LINE
8
BLACK
6
CONTINUOUS
10
122.431
20
-77.4
11
123.631
21
-77.4
0
LINE
8
BLACK
6
CONTINUOUS
10
123.631
20
-77.4
11
123.631
21
-78.3
0
LINE
8
BLACK
6
CONTINUOUS
10
51.45
20
-77.5
11
50.15
21
-77.5
0
LINE
8
BLACK
6
CONTINUOUS
10
50.15
20
-77.5
11
50.15
21
-76.8
0
LINE
8
BLACK
6
CONTINUOUS
10
50.15
20
-76.8
11
51.45
21
-76.8
0
LINE
8
BLACK
6
CONTINUOUS
10
51.45
20
-76.8
11
51.45
21
-77.5
0
LINE
8
BLACK
6
CONTINUOUS
10
104.581
20
-77.3812
11
103.381
21
-77.3812
0
LINE
8
BLACK
6
CONTINUOUS
10
103.381
20
-77.3812
11
103.381
21
-76.4813
0
LINE
8
BLACK
6
CONTINUOUS
10
103.381
20
-76.4813
11
104.581
21
-76.4813
0
LINE
8
BLACK
6
CONTINUOUS
10
104.581
20
-76.4813
11
104.581
21
-77.3812
0
LINE
8
BLACK
6
CONTINUOUS
10
274.444
20
-77.3812
11
273.244
21
-77.3812
0
LINE
8
BLACK
6
CONTINUOUS
10
273.244
20
-77.3812
11
273.244
21
-76.4813
0
LINE
8
BLACK
6
CONTINUOUS
10
273.244
20
-76.4813
11
274.444
21
-76.4813
0
LINE
8
BLACK
6
CONTINUOUS
10
274.444
20
-76.4813
11
274.444
21
-77.3812
0
LINE
8
BLACK
6
CONTINUOUS
10
236.344
20
-77.3812
11
235.144
21
-77.3812
0
LINE
8
BLACK
6
CONTINUOUS
10
235.144
20
-77.3812
11
235.144
21
-76.4813
0
LINE
8
BLACK
6
CONTINUOUS
10
235.144
20
-76.4813
11
236.344
21
-76.4813
0
LINE
8
BLACK
6
CONTINUOUS
10
236.344
20
-76.4813
11
236.344
21
-77.3812
0
LINE
8
BLACK
6
CONTINUOUS
10
142.681
20
-77.3812
11
141.481
21
-77.3812
0
LINE
8
BLACK
6
CONTINUOUS
10
141.481
20
-77.3812
11
141.481
21
-76.4813
0
LINE
8
BLACK
6
CONTINUOUS
10
141.481
20
-76.4813
11
142.681
21
-76.4813
0
LINE
8
BLACK
6
CONTINUOUS
10
142.681
20
-76.4813
11
142.681
21
-77.3812
0
LINE
8
BLACK
6
CONTINUOUS
10
51.45
20
-75.6
11
50.15
21
-75.6
0
LINE
8
BLACK
6
CONTINUOUS
10
50.15
20
-75.6
11
50.15
21
-74.9
0
LINE
8
BLACK
6
CONTINUOUS
10
50.15
20
-74.9
11
51.45
21
-74.9
0
LINE
8
BLACK
6
CONTINUOUS
10
51.45
20
-74.9
11
51.45
21
-75.6
0
LINE
8
BLACK
6
CONTINUOUS
10
310.723
20
-75.1187
11
309.423
21
-75.1187
0
LINE
8
BLACK
6
CONTINUOUS
10
309.423
20
-75.1187
11
309.423
21
-74.4188
0
LINE
8
BLACK
6
CONTINUOUS
10
309.423
20
-74.4188
11
310.723
21
-74.4188
0
LINE
8
BLACK
6
CONTINUOUS
10
310.723
20
-74.4188
11
310.723
21
-75.1187
0
LINE
8
BLACK
6
CONTINUOUS
10
304.656
20
-75.1187
11
303.356
21
-75.1187
0
LINE
8
BLACK
6
CONTINUOUS
10
303.356
20
-75.1187
11
303.356
21
-74.4188
0
LINE
8
BLACK
6
CONTINUOUS
10
303.356
20
-74.4188
11
304.656
21
-74.4188
0
LINE
8
BLACK
6
CONTINUOUS
10
304.656
20
-74.4188
11
304.656
21
-75.1187
0
LINE
8
BLACK
6
CONTINUOUS
10
255.394
20
-75
11
254.194
21
-75
0
LINE
8
BLACK
6
CONTINUOUS
10
254.194
20
-75
11
254.194
21
-74.1
0
LINE
8
BLACK
6
CONTINUOUS
10
254.194
20
-74.1
11
255.394
21
-74.1
0
LINE
8
BLACK
6
CONTINUOUS
10
255.394
20
-74.1
11
255.394
21
-75
0
LINE
8
BLACK
6
CONTINUOUS
10
123.631
20
-75
11
122.431
21
-75
0
LINE
8
BLACK
6
CONTINUOUS
10
122.431
20
-75
11
122.431
21
-74.1
0
LINE
8
BLACK
6
CONTINUOUS
10
122.431
20
-74.1
11
123.631
21
-74.1
0
LINE
8
BLACK
6
CONTINUOUS
10
123.631
20
-74.1
11
123.631
21
-75
0
LINE
8
BLACK
6
CONTINUOUS
10
310.723
20
-73.2188
11
309.423
21
-73.2188
0
LINE
8
BLACK
6
CONTINUOUS
10
309.423
20
-73.2188
11
309.423
21
-72.5187
0
LINE
8
BLACK
6
CONTINUOUS
10
309.423
20
-72.5187
11
310.723
21
-72.5187
0
LINE
8
BLACK
6
CONTINUOUS
10
310.723
20
-72.5187
11
310.723
21
-73.2188
0
LINE
8
BLACK
6
CONTINUOUS
10
304.656
20
-73.2188
11
303.356
21
-73.2188
0
LINE
8
BLACK
6
CONTINUOUS
10
303.356
20
-73.2188
11
303.356
21
-72.5187
0
LINE
8
BLACK
6
CONTINUOUS
10
303.356
20
-72.5187
11
304.656
21
-72.5187
0
LINE
8
BLACK
6
CONTINUOUS
10
304.656
20
-72.5187
11
304.656
21
-73.2188
0
LINE
8
BLACK
6
CONTINUOUS
10
66.5312
20
-71.15
11
65.2313
21
-71.15
0
LINE
8
BLACK
6
CONTINUOUS
10
65.2313
20
-71.15
11
65.2313
21
-70.45
0
LINE
8
BLACK
6
CONTINUOUS
10
65.2313
20
-70.45
11
66.5312
21
-70.45
0
LINE
8
BLACK
6
CONTINUOUS
10
66.5312
20
-70.45
11
66.5312
21
-71.15
0
LINE
8
BLACK
6
CONTINUOUS
10
293.544
20
-71.15
11
292.244
21
-71.15
0
LINE
8
BLACK
6
CONTINUOUS
10
292.244
20
-71.15
11
292.244
21
-70.45
0
LINE
8
BLACK
6
CONTINUOUS
10
292.244
20
-70.45
11
293.544
21
-70.45
0
LINE
8
BLACK
6
CONTINUOUS
10
293.544
20
-70.45
11
293.544
21
-71.15
0
LINE
8
BLACK
6
CONTINUOUS
10
85.5812
20
-71.15
11
84.2812
21
-71.15
0
LINE
8
BLACK
6
CONTINUOUS
10
84.2812
20
-71.15
11
84.2812
21
-70.45
0
LINE
8
BLACK
6
CONTINUOUS
10
84.2812
20
-70.45
11
85.5812
21
-70.45
0
LINE
8
BLACK
6
CONTINUOUS
10
85.5812
20
-70.45
11
85.5812
21
-71.15
0
LINE
8
BLACK
6
CONTINUOUS
10
293.544
20
-69.25
11
292.244
21
-69.25
0
LINE
8
BLACK
6
CONTINUOUS
10
292.244
20
-69.25
11
292.244
21
-68.55
0
LINE
8
BLACK
6
CONTINUOUS
10
292.244
20
-68.55
11
293.544
21
-68.55
0
LINE
8
BLACK
6
CONTINUOUS
10
293.544
20
-68.55
11
293.544
21
-69.25
0
LINE
8
BLACK
6
CONTINUOUS
10
85.5812
20
-69.25
11
84.2812
21
-69.25
0
LINE
8
BLACK
6
CONTINUOUS
10
84.2812
20
-69.25
11
84.2812
21
-68.55
0
LINE
8
BLACK
6
CONTINUOUS
10
84.2812
20
-68.55
11
85.5812
21
-68.55
0
LINE
8
BLACK
6
CONTINUOUS
10
85.5812
20
-68.55
11
85.5812
21
-69.25
0
LINE
8
BLACK
6
CONTINUOUS
10
66.5312
20
-69.25
11
65.2313
21
-69.25
0
LINE
8
BLACK
6
CONTINUOUS
10
65.2313
20
-69.25
11
65.2313
21
-68.55
0
LINE
8
BLACK
6
CONTINUOUS
10
65.2313
20
-68.55
11
66.5312
21
-68.55
0
LINE
8
BLACK
6
CONTINUOUS
10
66.5312
20
-68.55
11
66.5312
21
-69.25
0
LINE
8
BLACK
6
CONTINUOUS
10
161.781
20
-68.7687
11
160.481
21
-68.7687
0
LINE
8
BLACK
6
CONTINUOUS
10
160.481
20
-68.7687
11
160.481
21
-68.0687
0
LINE
8
BLACK
6
CONTINUOUS
10
160.481
20
-68.0687
11
161.781
21
-68.0687
0
LINE
8
BLACK
6
CONTINUOUS
10
161.781
20
-68.0687
11
161.781
21
-68.7687
0
LINE
8
BLACK
6
CONTINUOUS
10
217.344
20
-68.7687
11
216.044
21
-68.7687
0
LINE
8
BLACK
6
CONTINUOUS
10
216.044
20
-68.7687
11
216.044
21
-68.0687
0
LINE
8
BLACK
6
CONTINUOUS
10
216.044
20
-68.0687
11
217.344
21
-68.0687
0
LINE
8
BLACK
6
CONTINUOUS
10
217.344
20
-68.0687
11
217.344
21
-68.7687
0
LINE
8
BLACK
6
CONTINUOUS
10
48.225
20
-67.9813
11
47.025
21
-67.9813
0
LINE
8
BLACK
6
CONTINUOUS
10
47.025
20
-67.9813
11
47.025
21
-67.0812
0
LINE
8
BLACK
6
CONTINUOUS
10
47.025
20
-67.0812
11
48.225
21
-67.0812
0
LINE
8
BLACK
6
CONTINUOUS
10
48.225
20
-67.0812
11
48.225
21
-67.9813
0
LINE
8
BLACK
6
CONTINUOUS
10
161.781
20
-66.8687
11
160.481
21
-66.8687
0
LINE
8
BLACK
6
CONTINUOUS
10
160.481
20
-66.8687
11
160.481
21
-66.1688
0
LINE
8
BLACK
6
CONTINUOUS
10
160.481
20
-66.1688
11
161.781
21
-66.1688
0
LINE
8
BLACK
6
CONTINUOUS
10
161.781
20
-66.1688
11
161.781
21
-66.8687
0
LINE
8
BLACK
6
CONTINUOUS
10
217.344
20
-66.8687
11
216.044
21
-66.8687
0
LINE
8
BLACK
6
CONTINUOUS
10
216.044
20
-66.8687
11
216.044
21
-66.1688
0
LINE
8
BLACK
6
CONTINUOUS
10
216.044
20
-66.1688
11
217.344
21
-66.1688
0
LINE
8
BLACK
6
CONTINUOUS
10
217.344
20
-66.1688
11
217.344
21
-66.8687
0
LINE
8
BLACK
6
CONTINUOUS
10
316.131
20
-66.3937
11
314.931
21
-66.3937
0
LINE
8
BLACK
6
CONTINUOUS
10
314.931
20
-66.3937
11
314.931
21
-65.4937
0
LINE
8
BLACK
6
CONTINUOUS
10
314.931
20
-65.4937
11
316.131
21
-65.4937
0
LINE
8
BLACK
6
CONTINUOUS
10
316.131
20
-65.4937
11
316.131
21
-66.3937
0
LINE
8
BLACK
6
CONTINUOUS
10
293.494
20
-66.3937
11
292.294
21
-66.3937
0
LINE
8
BLACK
6
CONTINUOUS
10
292.294
20
-66.3937
11
292.294
21
-65.4937
0
LINE
8
BLACK
6
CONTINUOUS
10
292.294
20
-65.4937
11
293.494
21
-65.4937
0
LINE
8
BLACK
6
CONTINUOUS
10
293.494
20
-65.4937
11
293.494
21
-66.3937
0
LINE
8
BLACK
6
CONTINUOUS
10
312.544
20
-66.3937
11
311.344
21
-66.3937
0
LINE
8
BLACK
6
CONTINUOUS
10
311.344
20
-66.3937
11
311.344
21
-65.4937
0
LINE
8
BLACK
6
CONTINUOUS
10
311.344
20
-65.4937
11
312.544
21
-65.4937
0
LINE
8
BLACK
6
CONTINUOUS
10
312.544
20
-65.4937
11
312.544
21
-66.3937
0
LINE
8
BLACK
6
CONTINUOUS
10
85.5312
20
-66.3937
11
84.3312
21
-66.3937
0
LINE
8
BLACK
6
CONTINUOUS
10
84.3312
20
-66.3937
11
84.3312
21
-65.4937
0
LINE
8
BLACK
6
CONTINUOUS
10
84.3312
20
-65.4937
11
85.5312
21
-65.4937
0
LINE
8
BLACK
6
CONTINUOUS
10
85.5312
20
-65.4937
11
85.5312
21
-66.3937
0
LINE
8
BLACK
6
CONTINUOUS
10
66.4813
20
-66.3937
11
65.2812
21
-66.3937
0
LINE
8
BLACK
6
CONTINUOUS
10
65.2812
20
-66.3937
11
65.2812
21
-65.4937
0
LINE
8
BLACK
6
CONTINUOUS
10
65.2812
20
-65.4937
11
66.4813
21
-65.4937
0
LINE
8
BLACK
6
CONTINUOUS
10
66.4813
20
-65.4937
11
66.4813
21
-66.3937
0
LINE
8
BLACK
6
CONTINUOUS
10
103.837
20
-66.3875
11
102.537
21
-66.3875
0
LINE
8
BLACK
6
CONTINUOUS
10
102.537
20
-66.3875
11
102.537
21
-65.6875
0
LINE
8
BLACK
6
CONTINUOUS
10
102.537
20
-65.6875
11
103.837
21
-65.6875
0
LINE
8
BLACK
6
CONTINUOUS
10
103.837
20
-65.6875
11
103.837
21
-66.3875
0
LINE
8
BLACK
6
CONTINUOUS
10
274.494
20
-66.3875
11
273.194
21
-66.3875
0
LINE
8
BLACK
6
CONTINUOUS
10
273.194
20
-66.3875
11
273.194
21
-65.6875
0
LINE
8
BLACK
6
CONTINUOUS
10
273.194
20
-65.6875
11
274.494
21
-65.6875
0
LINE
8
BLACK
6
CONTINUOUS
10
274.494
20
-65.6875
11
274.494
21
-66.3875
0
LINE
8
BLACK
6
CONTINUOUS
10
236.394
20
-66.3875
11
235.094
21
-66.3875
0
LINE
8
BLACK
6
CONTINUOUS
10
235.094
20
-66.3875
11
235.094
21
-65.6875
0
LINE
8
BLACK
6
CONTINUOUS
10
235.094
20
-65.6875
11
236.394
21
-65.6875
0
LINE
8
BLACK
6
CONTINUOUS
10
236.394
20
-65.6875
11
236.394
21
-66.3875
0
LINE
8
BLACK
6
CONTINUOUS
10
142.731
20
-66.3875
11
141.431
21
-66.3875
0
LINE
8
BLACK
6
CONTINUOUS
10
141.431
20
-66.3875
11
141.431
21
-65.6875
0
LINE
8
BLACK
6
CONTINUOUS
10
141.431
20
-65.6875
11
142.731
21
-65.6875
0
LINE
8
BLACK
6
CONTINUOUS
10
142.731
20
-65.6875
11
142.731
21
-66.3875
0
LINE
8
BLACK
6
CONTINUOUS
10
48.225
20
-64.6812
11
47.025
21
-64.6812
0
LINE
8
BLACK
6
CONTINUOUS
10
47.025
20
-64.6812
11
47.025
21
-63.7812
0
LINE
8
BLACK
6
CONTINUOUS
10
47.025
20
-63.7812
11
48.225
21
-63.7812
0
LINE
8
BLACK
6
CONTINUOUS
10
48.225
20
-63.7812
11
48.225
21
-64.6812
0
LINE
8
BLACK
6
CONTINUOUS
10
103.837
20
-64.4875
11
102.537
21
-64.4875
0
LINE
8
BLACK
6
CONTINUOUS
10
102.537
20
-64.4875
11
102.537
21
-63.7875
0
LINE
8
BLACK
6
CONTINUOUS
10
102.537
20
-63.7875
11
103.837
21
-63.7875
0
LINE
8
BLACK
6
CONTINUOUS
10
103.837
20
-63.7875
11
103.837
21
-64.4875
0
LINE
8
BLACK
6
CONTINUOUS
10
274.494
20
-64.4875
11
273.194
21
-64.4875
0
LINE
8
BLACK
6
CONTINUOUS
10
273.194
20
-64.4875
11
273.194
21
-63.7875
0
LINE
8
BLACK
6
CONTINUOUS
10
273.194
20
-63.7875
11
274.494
21
-63.7875
0
LINE
8
BLACK
6
CONTINUOUS
10
274.494
20
-63.7875
11
274.494
21
-64.4875
0
LINE
8
BLACK
6
CONTINUOUS
10
142.731
20
-64.4875
11
141.431
21
-64.4875
0
LINE
8
BLACK
6
CONTINUOUS
10
141.431
20
-64.4875
11
141.431
21
-63.7875
0
LINE
8
BLACK
6
CONTINUOUS
10
141.431
20
-63.7875
11
142.731
21
-63.7875
0
LINE
8
BLACK
6
CONTINUOUS
10
142.731
20
-63.7875
11
142.731
21
-64.4875
0
LINE
8
BLACK
6
CONTINUOUS
10
236.394
20
-64.4875
11
235.094
21
-64.4875
0
LINE
8
BLACK
6
CONTINUOUS
10
235.094
20
-64.4875
11
235.094
21
-63.7875
0
LINE
8
BLACK
6
CONTINUOUS
10
235.094
20
-63.7875
11
236.394
21
-63.7875
0
LINE
8
BLACK
6
CONTINUOUS
10
236.394
20
-63.7875
11
236.394
21
-64.4875
0
LINE
8
BLACK
6
CONTINUOUS
10
217.294
20
-64.0125
11
216.094
21
-64.0125
0
LINE
8
BLACK
6
CONTINUOUS
10
216.094
20
-64.0125
11
216.094
21
-63.1125
0
LINE
8
BLACK
6
CONTINUOUS
10
216.094
20
-63.1125
11
217.294
21
-63.1125
0
LINE
8
BLACK
6
CONTINUOUS
10
217.294
20
-63.1125
11
217.294
21
-64.0125
0
LINE
8
BLACK
6
CONTINUOUS
10
161.731
20
-64.0125
11
160.531
21
-64.0125
0
LINE
8
BLACK
6
CONTINUOUS
10
160.531
20
-64.0125
11
160.531
21
-63.1125
0
LINE
8
BLACK
6
CONTINUOUS
10
160.531
20
-63.1125
11
161.731
21
-63.1125
0
LINE
8
BLACK
6
CONTINUOUS
10
161.731
20
-63.1125
11
161.731
21
-64.0125
0
LINE
8
BLACK
6
CONTINUOUS
10
123.681
20
-64.0062
11
122.381
21
-64.0062
0
LINE
8
BLACK
6
CONTINUOUS
10
122.381
20
-64.0062
11
122.381
21
-63.3062
0
LINE
8
BLACK
6
CONTINUOUS
10
122.381
20
-63.3062
11
123.681
21
-63.3062
0
LINE
8
BLACK
6
CONTINUOUS
10
123.681
20
-63.3062
11
123.681
21
-64.0062
0
LINE
8
BLACK
6
CONTINUOUS
10
255.444
20
-64.0062
11
254.144
21
-64.0062
0
LINE
8
BLACK
6
CONTINUOUS
10
254.144
20
-64.0062
11
254.144
21
-63.3062
0
LINE
8
BLACK
6
CONTINUOUS
10
254.144
20
-63.3062
11
255.444
21
-63.3062
0
LINE
8
BLACK
6
CONTINUOUS
10
255.444
20
-63.3062
11
255.444
21
-64.0062
0
LINE
8
BLACK
6
CONTINUOUS
10
66.4813
20
-63.0938
11
65.2812
21
-63.0938
0
LINE
8
BLACK
6
CONTINUOUS
10
65.2812
20
-63.0938
11
65.2812
21
-62.1937
0
LINE
8
BLACK
6
CONTINUOUS
10
65.2812
20
-62.1937
11
66.4813
21
-62.1937
0
LINE
8
BLACK
6
CONTINUOUS
10
66.4813
20
-62.1937
11
66.4813
21
-63.0938
0
LINE
8
BLACK
6
CONTINUOUS
10
85.5312
20
-63.0938
11
84.3312
21
-63.0938
0
LINE
8
BLACK
6
CONTINUOUS
10
84.3312
20
-63.0938
11
84.3312
21
-62.1937
0
LINE
8
BLACK
6
CONTINUOUS
10
84.3312
20
-62.1937
11
85.5312
21
-62.1937
0
LINE
8
BLACK
6
CONTINUOUS
10
85.5312
20
-62.1937
11
85.5312
21
-63.0938
0
LINE
8
BLACK
6
CONTINUOUS
10
316.131
20
-63.0938
11
314.931
21
-63.0938
0
LINE
8
BLACK
6
CONTINUOUS
10
314.931
20
-63.0938
11
314.931
21
-62.1937
0
LINE
8
BLACK
6
CONTINUOUS
10
314.931
20
-62.1937
11
316.131
21
-62.1937
0
LINE
8
BLACK
6
CONTINUOUS
10
316.131
20
-62.1937
11
316.131
21
-63.0938
0
LINE
8
BLACK
6
CONTINUOUS
10
312.544
20
-63.0938
11
311.344
21
-63.0938
0
LINE
8
BLACK
6
CONTINUOUS
10
311.344
20
-63.0938
11
311.344
21
-62.1937
0
LINE
8
BLACK
6
CONTINUOUS
10
311.344
20
-62.1937
11
312.544
21
-62.1937
0
LINE
8
BLACK
6
CONTINUOUS
10
312.544
20
-62.1937
11
312.544
21
-63.0938
0
LINE
8
BLACK
6
CONTINUOUS
10
293.494
20
-63.0938
11
292.294
21
-63.0938
0
LINE
8
BLACK
6
CONTINUOUS
10
292.294
20
-63.0938
11
292.294
21
-62.1937
0
LINE
8
BLACK
6
CONTINUOUS
10
292.294
20
-62.1937
11
293.494
21
-62.1937
0
LINE
8
BLACK
6
CONTINUOUS
10
293.494
20
-62.1937
11
293.494
21
-63.0938
0
LINE
8
BLACK
6
CONTINUOUS
10
255.444
20
-62.1062
11
254.144
21
-62.1062
0
LINE
8
BLACK
6
CONTINUOUS
10
254.144
20
-62.1062
11
254.144
21
-61.4062
0
LINE
8
BLACK
6
CONTINUOUS
10
254.144
20
-61.4062
11
255.444
21
-61.4062
0
LINE
8
BLACK
6
CONTINUOUS
10
255.444
20
-61.4062
11
255.444
21
-62.1062
0
LINE
8
BLACK
6
CONTINUOUS
10
123.681
20
-62.1062
11
122.381
21
-62.1062
0
LINE
8
BLACK
6
CONTINUOUS
10
122.381
20
-62.1062
11
122.381
21
-61.4062
0
LINE
8
BLACK
6
CONTINUOUS
10
122.381
20
-61.4062
11
123.681
21
-61.4062
0
LINE
8
BLACK
6
CONTINUOUS
10
123.681
20
-61.4062
11
123.681
21
-62.1062
0
LINE
8
BLACK
6
CONTINUOUS
10
104.581
20
-61.6312
11
103.381
21
-61.6312
0
LINE
8
BLACK
6
CONTINUOUS
10
103.381
20
-61.6312
11
103.381
21
-60.7312
0
LINE
8
BLACK
6
CONTINUOUS
10
103.381
20
-60.7312
11
104.581
21
-60.7312
0
LINE
8
BLACK
6
CONTINUOUS
10
104.581
20
-60.7312
11
104.581
21
-61.6312
0
LINE
8
BLACK
6
CONTINUOUS
10
142.681
20
-61.6312
11
141.481
21
-61.6312
0
LINE
8
BLACK
6
CONTINUOUS
10
141.481
20
-61.6312
11
141.481
21
-60.7312
0
LINE
8
BLACK
6
CONTINUOUS
10
141.481
20
-60.7312
11
142.681
21
-60.7312
0
LINE
8
BLACK
6
CONTINUOUS
10
142.681
20
-60.7312
11
142.681
21
-61.6312
0
LINE
8
BLACK
6
CONTINUOUS
10
274.444
20
-61.6312
11
273.244
21
-61.6312
0
LINE
8
BLACK
6
CONTINUOUS
10
273.244
20
-61.6312
11
273.244
21
-60.7312
0
LINE
8
BLACK
6
CONTINUOUS
10
273.244
20
-60.7312
11
274.444
21
-60.7312
0
LINE
8
BLACK
6
CONTINUOUS
10
274.444
20
-60.7312
11
274.444
21
-61.6312
0
LINE
8
BLACK
6
CONTINUOUS
10
236.344
20
-61.6312
11
235.144
21
-61.6312
0
LINE
8
BLACK
6
CONTINUOUS
10
235.144
20
-61.6312
11
235.144
21
-60.7312
0
LINE
8
BLACK
6
CONTINUOUS
10
235.144
20
-60.7312
11
236.344
21
-60.7312
0
LINE
8
BLACK
6
CONTINUOUS
10
236.344
20
-60.7312
11
236.344
21
-61.6312
0
LINE
8
BLACK
6
CONTINUOUS
10
161.731
20
-60.7125
11
160.531
21
-60.7125
0
LINE
8
BLACK
6
CONTINUOUS
10
160.531
20
-60.7125
11
160.531
21
-59.8125
0
LINE
8
BLACK
6
CONTINUOUS
10
160.531
20
-59.8125
11
161.731
21
-59.8125
0
LINE
8
BLACK
6
CONTINUOUS
10
161.731
20
-59.8125
11
161.731
21
-60.7125
0
LINE
8
BLACK
6
CONTINUOUS
10
217.294
20
-60.7125
11
216.094
21
-60.7125
0
LINE
8
BLACK
6
CONTINUOUS
10
216.094
20
-60.7125
11
216.094
21
-59.8125
0
LINE
8
BLACK
6
CONTINUOUS
10
216.094
20
-59.8125
11
217.294
21
-59.8125
0
LINE
8
BLACK
6
CONTINUOUS
10
217.294
20
-59.8125
11
217.294
21
-60.7125
0
LINE
8
BLACK
6
CONTINUOUS
10
312.594
20
-60.0375
11
311.294
21
-60.0375
0
LINE
8
BLACK
6
CONTINUOUS
10
311.294
20
-60.0375
11
311.294
21
-59.3375
0
LINE
8
BLACK
6
CONTINUOUS
10
311.294
20
-59.3375
11
312.594
21
-59.3375
0
LINE
8
BLACK
6
CONTINUOUS
10
312.594
20
-59.3375
11
312.594
21
-60.0375
0
LINE
8
BLACK
6
CONTINUOUS
10
123.631
20
-59.25
11
122.431
21
-59.25
0
LINE
8
BLACK
6
CONTINUOUS
10
122.431
20
-59.25
11
122.431
21
-58.35
0
LINE
8
BLACK
6
CONTINUOUS
10
122.431
20
-58.35
11
123.631
21
-58.35
0
LINE
8
BLACK
6
CONTINUOUS
10
123.631
20
-58.35
11
123.631
21
-59.25
0
LINE
8
BLACK
6
CONTINUOUS
10
255.394
20
-59.25
11
254.194
21
-59.25
0
LINE
8
BLACK
6
CONTINUOUS
10
254.194
20
-59.25
11
254.194
21
-58.35
0
LINE
8
BLACK
6
CONTINUOUS
10
254.194
20
-58.35
11
255.394
21
-58.35
0
LINE
8
BLACK
6
CONTINUOUS
10
255.394
20
-58.35
11
255.394
21
-59.25
0
LINE
8
BLACK
6
CONTINUOUS
10
236.344
20
-58.3312
11
235.144
21
-58.3312
0
LINE
8
BLACK
6
CONTINUOUS
10
235.144
20
-58.3312
11
235.144
21
-57.4312
0
LINE
8
BLACK
6
CONTINUOUS
10
235.144
20
-57.4312
11
236.344
21
-57.4312
0
LINE
8
BLACK
6
CONTINUOUS
10
236.344
20
-57.4312
11
236.344
21
-58.3312
0
LINE
8
BLACK
6
CONTINUOUS
10
274.444
20
-58.3312
11
273.244
21
-58.3312
0
LINE
8
BLACK
6
CONTINUOUS
10
273.244
20
-58.3312
11
273.244
21
-57.4312
0
LINE
8
BLACK
6
CONTINUOUS
10
273.244
20
-57.4312
11
274.444
21
-57.4312
0
LINE
8
BLACK
6
CONTINUOUS
10
274.444
20
-57.4312
11
274.444
21
-58.3312
0
LINE
8
BLACK
6
CONTINUOUS
10
142.681
20
-58.3312
11
141.481
21
-58.3312
0
LINE
8
BLACK
6
CONTINUOUS
10
141.481
20
-58.3312
11
141.481
21
-57.4312
0
LINE
8
BLACK
6
CONTINUOUS
10
141.481
20
-57.4312
11
142.681
21
-57.4312
0
LINE
8
BLACK
6
CONTINUOUS
10
142.681
20
-57.4312
11
142.681
21
-58.3312
0
LINE
8
BLACK
6
CONTINUOUS
10
104.581
20
-58.3312
11
103.381
21
-58.3312
0
LINE
8
BLACK
6
CONTINUOUS
10
103.381
20
-58.3312
11
103.381
21
-57.4312
0
LINE
8
BLACK
6
CONTINUOUS
10
103.381
20
-57.4312
11
104.581
21
-57.4312
0
LINE
8
BLACK
6
CONTINUOUS
10
104.581
20
-57.4312
11
104.581
21
-58.3312
0
LINE
8
BLACK
6
CONTINUOUS
10
312.594
20
-58.1375
11
311.294
21
-58.1375
0
LINE
8
BLACK
6
CONTINUOUS
10
311.294
20
-58.1375
11
311.294
21
-57.4375
0
LINE
8
BLACK
6
CONTINUOUS
10
311.294
20
-57.4375
11
312.594
21
-57.4375
0
LINE
8
BLACK
6
CONTINUOUS
10
312.594
20
-57.4375
11
312.594
21
-58.1375
0
LINE
8
BLACK
6
CONTINUOUS
10
255.394
20
-55.95
11
254.194
21
-55.95
0
LINE
8
BLACK
6
CONTINUOUS
10
254.194
20
-55.95
11
254.194
21
-55.05
0
LINE
8
BLACK
6
CONTINUOUS
10
254.194
20
-55.05
11
255.394
21
-55.05
0
LINE
8
BLACK
6
CONTINUOUS
10
255.394
20
-55.05
11
255.394
21
-55.95
0
LINE
8
BLACK
6
CONTINUOUS
10
123.631
20
-55.95
11
122.431
21
-55.95
0
LINE
8
BLACK
6
CONTINUOUS
10
122.431
20
-55.95
11
122.431
21
-55.05
0
LINE
8
BLACK
6
CONTINUOUS
10
122.431
20
-55.05
11
123.631
21
-55.05
0
LINE
8
BLACK
6
CONTINUOUS
10
123.631
20
-55.05
11
123.631
21
-55.95
0
LINE
8
BLACK
6
CONTINUOUS
10
48.225
20
-55.2812
11
47.025
21
-55.2812
0
LINE
8
BLACK
6
CONTINUOUS
10
47.025
20
-55.2812
11
47.025
21
-54.3812
0
LINE
8
BLACK
6
CONTINUOUS
10
47.025
20
-54.3812
11
48.225
21
-54.3812
0
LINE
8
BLACK
6
CONTINUOUS
10
48.225
20
-54.3812
11
48.225
21
-55.2812
0
LINE
8
BLACK
6
CONTINUOUS
10
316.131
20
-55.2812
11
314.931
21
-55.2812
0
LINE
8
BLACK
6
CONTINUOUS
10
314.931
20
-55.2812
11
314.931
21
-54.3812
0
LINE
8
BLACK
6
CONTINUOUS
10
314.931
20
-54.3812
11
316.131
21
-54.3812
0
LINE
8
BLACK
6
CONTINUOUS
10
316.131
20
-54.3812
11
316.131
21
-55.2812
0
LINE
8
BLACK
6
CONTINUOUS
10
51.958
20
-55.275
11
50.658
21
-55.275
0
LINE
8
BLACK
6
CONTINUOUS
10
50.658
20
-55.275
11
50.658
21
-54.575
0
LINE
8
BLACK
6
CONTINUOUS
10
50.658
20
-54.575
11
51.958
21
-54.575
0
LINE
8
BLACK
6
CONTINUOUS
10
51.958
20
-54.575
11
51.958
21
-55.275
0
LINE
8
BLACK
6
CONTINUOUS
10
310.974
20
-53.624
11
309.674
21
-53.624
0
LINE
8
BLACK
6
CONTINUOUS
10
309.674
20
-53.624
11
309.674
21
-52.924
0
LINE
8
BLACK
6
CONTINUOUS
10
309.674
20
-52.924
11
310.974
21
-52.924
0
LINE
8
BLACK
6
CONTINUOUS
10
310.974
20
-52.924
11
310.974
21
-53.624
0
LINE
8
BLACK
6
CONTINUOUS
10
51.958
20
-53.375
11
50.658
21
-53.375
0
LINE
8
BLACK
6
CONTINUOUS
10
50.658
20
-53.375
11
50.658
21
-52.675
0
LINE
8
BLACK
6
CONTINUOUS
10
50.658
20
-52.675
11
51.958
21
-52.675
0
LINE
8
BLACK
6
CONTINUOUS
10
51.958
20
-52.675
11
51.958
21
-53.375
0
LINE
8
BLACK
6
CONTINUOUS
10
293.544
20
-52.1
11
292.244
21
-52.1
0
LINE
8
BLACK
6
CONTINUOUS
10
292.244
20
-52.1
11
292.244
21
-51.4
0
LINE
8
BLACK
6
CONTINUOUS
10
292.244
20
-51.4
11
293.544
21
-51.4
0
LINE
8
BLACK
6
CONTINUOUS
10
293.544
20
-51.4
11
293.544
21
-52.1
0
LINE
8
BLACK
6
CONTINUOUS
10
66.5312
20
-52.1
11
65.2313
21
-52.1
0
LINE
8
BLACK
6
CONTINUOUS
10
65.2313
20
-52.1
11
65.2313
21
-51.4
0
LINE
8
BLACK
6
CONTINUOUS
10
65.2313
20
-51.4
11
66.5312
21
-51.4
0
LINE
8
BLACK
6
CONTINUOUS
10
66.5312
20
-51.4
11
66.5312
21
-52.1
0
LINE
8
BLACK
6
CONTINUOUS
10
85.5812
20
-52.1
11
84.2812
21
-52.1
0
LINE
8
BLACK
6
CONTINUOUS
10
84.2812
20
-52.1
11
84.2812
21
-51.4
0
LINE
8
BLACK
6
CONTINUOUS
10
84.2812
20
-51.4
11
85.5812
21
-51.4
0
LINE
8
BLACK
6
CONTINUOUS
10
85.5812
20
-51.4
11
85.5812
21
-52.1
0
LINE
8
BLACK
6
CONTINUOUS
10
48.225
20
-51.9812
11
47.025
21
-51.9812
0
LINE
8
BLACK
6
CONTINUOUS
10
47.025
20
-51.9812
11
47.025
21
-51.0812
0
LINE
8
BLACK
6
CONTINUOUS
10
47.025
20
-51.0812
11
48.225
21
-51.0812
0
LINE
8
BLACK
6
CONTINUOUS
10
48.225
20
-51.0812
11
48.225
21
-51.9812
0
LINE
8
BLACK
6
CONTINUOUS
10
316.131
20
-51.9812
11
314.931
21
-51.9812
0
LINE
8
BLACK
6
CONTINUOUS
10
314.931
20
-51.9812
11
314.931
21
-51.0812
0
LINE
8
BLACK
6
CONTINUOUS
10
314.931
20
-51.0812
11
316.131
21
-51.0812
0
LINE
8
BLACK
6
CONTINUOUS
10
316.131
20
-51.0812
11
316.131
21
-51.9812
0
LINE
8
BLACK
6
CONTINUOUS
10
310.974
20
-51.724
11
309.674
21
-51.724
0
LINE
8
BLACK
6
CONTINUOUS
10
309.674
20
-51.724
11
309.674
21
-51.024
0
LINE
8
BLACK
6
CONTINUOUS
10
309.674
20
-51.024
11
310.974
21
-51.024
0
LINE
8
BLACK
6
CONTINUOUS
10
310.974
20
-51.024
11
310.974
21
-51.724
0
LINE
8
BLACK
6
CONTINUOUS
10
142.302
20
-50.9825
11
140.272
21
-50.9825
0
LINE
8
BLACK
6
CONTINUOUS
10
140.272
20
-50.9825
11
140.272
21
-49.8425
0
LINE
8
BLACK
6
CONTINUOUS
10
140.272
20
-49.8425
11
142.302
21
-49.8425
0
LINE
8
BLACK
6
CONTINUOUS
10
142.302
20
-49.8425
11
142.302
21
-50.9825
0
LINE
8
BLACK
6
CONTINUOUS
10
216.915
20
-50.9825
11
214.885
21
-50.9825
0
LINE
8
BLACK
6
CONTINUOUS
10
214.885
20
-50.9825
11
214.885
21
-49.8425
0
LINE
8
BLACK
6
CONTINUOUS
10
214.885
20
-49.8425
11
216.915
21
-49.8425
0
LINE
8
BLACK
6
CONTINUOUS
10
216.915
20
-49.8425
11
216.915
21
-50.9825
0
LINE
8
BLACK
6
CONTINUOUS
10
293.544
20
-50.2
11
292.244
21
-50.2
0
LINE
8
BLACK
6
CONTINUOUS
10
292.244
20
-50.2
11
292.244
21
-49.5
0
LINE
8
BLACK
6
CONTINUOUS
10
292.244
20
-49.5
11
293.544
21
-49.5
0
LINE
8
BLACK
6
CONTINUOUS
10
293.544
20
-49.5
11
293.544
21
-50.2
0
LINE
8
BLACK
6
CONTINUOUS
10
85.5812
20
-50.2
11
84.2812
21
-50.2
0
LINE
8
BLACK
6
CONTINUOUS
10
84.2812
20
-50.2
11
84.2812
21
-49.5
0
LINE
8
BLACK
6
CONTINUOUS
10
84.2812
20
-49.5
11
85.5812
21
-49.5
0
LINE
8
BLACK
6
CONTINUOUS
10
85.5812
20
-49.5
11
85.5812
21
-50.2
0
LINE
8
BLACK
6
CONTINUOUS
10
66.5312
20
-50.2
11
65.2313
21
-50.2
0
LINE
8
BLACK
6
CONTINUOUS
10
65.2313
20
-50.2
11
65.2313
21
-49.5
0
LINE
8
BLACK
6
CONTINUOUS
10
65.2313
20
-49.5
11
66.5312
21
-49.5
0
LINE
8
BLACK
6
CONTINUOUS
10
66.5312
20
-49.5
11
66.5312
21
-50.2
0
LINE
8
BLACK
6
CONTINUOUS
10
203.056
20
-49.7188
11
201.756
21
-49.7188
0
LINE
8
BLACK
6
CONTINUOUS
10
201.756
20
-49.7188
11
201.756
21
-49.0187
0
LINE
8
BLACK
6
CONTINUOUS
10
201.756
20
-49.0187
11
203.056
21
-49.0187
0
LINE
8
BLACK
6
CONTINUOUS
10
203.056
20
-49.0187
11
203.056
21
-49.7188
0
LINE
8
BLACK
6
CONTINUOUS
10
161.781
20
-49.7188
11
160.481
21
-49.7188
0
LINE
8
BLACK
6
CONTINUOUS
10
160.481
20
-49.7188
11
160.481
21
-49.0187
0
LINE
8
BLACK
6
CONTINUOUS
10
160.481
20
-49.0187
11
161.781
21
-49.0187
0
LINE
8
BLACK
6
CONTINUOUS
10
161.781
20
-49.0187
11
161.781
21
-49.7188
0
LINE
8
BLACK
6
CONTINUOUS
10
216.915
20
-48.5825
11
214.885
21
-48.5825
0
LINE
8
BLACK
6
CONTINUOUS
10
214.885
20
-48.5825
11
214.885
21
-47.4425
0
LINE
8
BLACK
6
CONTINUOUS
10
214.885
20
-47.4425
11
216.915
21
-47.4425
0
LINE
8
BLACK
6
CONTINUOUS
10
216.915
20
-47.4425
11
216.915
21
-48.5825
0
LINE
8
BLACK
6
CONTINUOUS
10
142.302
20
-48.5825
11
140.272
21
-48.5825
0
LINE
8
BLACK
6
CONTINUOUS
10
140.272
20
-48.5825
11
140.272
21
-47.4425
0
LINE
8
BLACK
6
CONTINUOUS
10
140.272
20
-47.4425
11
142.302
21
-47.4425
0
LINE
8
BLACK
6
CONTINUOUS
10
142.302
20
-47.4425
11
142.302
21
-48.5825
0
LINE
8
BLACK
6
CONTINUOUS
10
161.781
20
-47.8187
11
160.481
21
-47.8187
0
LINE
8
BLACK
6
CONTINUOUS
10
160.481
20
-47.8187
11
160.481
21
-47.1187
0
LINE
8
BLACK
6
CONTINUOUS
10
160.481
20
-47.1187
11
161.781
21
-47.1187
0
LINE
8
BLACK
6
CONTINUOUS
10
161.781
20
-47.1187
11
161.781
21
-47.8187
0
LINE
8
BLACK
6
CONTINUOUS
10
203.056
20
-47.8187
11
201.756
21
-47.8187
0
LINE
8
BLACK
6
CONTINUOUS
10
201.756
20
-47.8187
11
201.756
21
-47.1187
0
LINE
8
BLACK
6
CONTINUOUS
10
201.756
20
-47.1187
11
203.056
21
-47.1187
0
LINE
8
BLACK
6
CONTINUOUS
10
203.056
20
-47.1187
11
203.056
21
-47.8187
0
LINE
8
BLACK
6
CONTINUOUS
10
293.494
20
-47.3438
11
292.294
21
-47.3438
0
LINE
8
BLACK
6
CONTINUOUS
10
292.294
20
-47.3438
11
292.294
21
-46.4438
0
LINE
8
BLACK
6
CONTINUOUS
10
292.294
20
-46.4438
11
293.494
21
-46.4438
0
LINE
8
BLACK
6
CONTINUOUS
10
293.494
20
-46.4438
11
293.494
21
-47.3438
0
LINE
8
BLACK
6
CONTINUOUS
10
85.5312
20
-47.3438
11
84.3312
21
-47.3438
0
LINE
8
BLACK
6
CONTINUOUS
10
84.3312
20
-47.3438
11
84.3312
21
-46.4438
0
LINE
8
BLACK
6
CONTINUOUS
10
84.3312
20
-46.4438
11
85.5312
21
-46.4438
0
LINE
8
BLACK
6
CONTINUOUS
10
85.5312
20
-46.4438
11
85.5312
21
-47.3438
0
LINE
8
BLACK
6
CONTINUOUS
10
66.4813
20
-47.3438
11
65.2812
21
-47.3438
0
LINE
8
BLACK
6
CONTINUOUS
10
65.2812
20
-47.3438
11
65.2812
21
-46.4438
0
LINE
8
BLACK
6
CONTINUOUS
10
65.2812
20
-46.4438
11
66.4813
21
-46.4438
0
LINE
8
BLACK
6
CONTINUOUS
10
66.4813
20
-46.4438
11
66.4813
21
-47.3438
0
LINE
8
BLACK
6
CONTINUOUS
10
127.65
20
-47.3375
11
126.35
21
-47.3375
0
LINE
8
BLACK
6
CONTINUOUS
10
126.35
20
-47.3375
11
126.35
21
-46.6375
0
LINE
8
BLACK
6
CONTINUOUS
10
126.35
20
-46.6375
11
127.65
21
-46.6375
0
LINE
8
BLACK
6
CONTINUOUS
10
127.65
20
-46.6375
11
127.65
21
-47.3375
0
LINE
8
BLACK
6
CONTINUOUS
10
104.631
20
-47.3375
11
103.331
21
-47.3375
0
LINE
8
BLACK
6
CONTINUOUS
10
103.331
20
-47.3375
11
103.331
21
-46.6375
0
LINE
8
BLACK
6
CONTINUOUS
10
103.331
20
-46.6375
11
104.631
21
-46.6375
0
LINE
8
BLACK
6
CONTINUOUS
10
104.631
20
-46.6375
11
104.631
21
-47.3375
0
LINE
8
BLACK
6
CONTINUOUS
10
236.394
20
-47.3375
11
235.094
21
-47.3375
0
LINE
8
BLACK
6
CONTINUOUS
10
235.094
20
-47.3375
11
235.094
21
-46.6375
0
LINE
8
BLACK
6
CONTINUOUS
10
235.094
20
-46.6375
11
236.394
21
-46.6375
0
LINE
8
BLACK
6
CONTINUOUS
10
236.394
20
-46.6375
11
236.394
21
-47.3375
0
LINE
8
BLACK
6
CONTINUOUS
10
274.494
20
-47.3375
11
273.194
21
-47.3375
0
LINE
8
BLACK
6
CONTINUOUS
10
273.194
20
-47.3375
11
273.194
21
-46.6375
0
LINE
8
BLACK
6
CONTINUOUS
10
273.194
20
-46.6375
11
274.494
21
-46.6375
0
LINE
8
BLACK
6
CONTINUOUS
10
274.494
20
-46.6375
11
274.494
21
-47.3375
0
LINE
8
BLACK
6
CONTINUOUS
10
127.65
20
-45.4375
11
126.35
21
-45.4375
0
LINE
8
BLACK
6
CONTINUOUS
10
126.35
20
-45.4375
11
126.35
21
-44.7375
0
LINE
8
BLACK
6
CONTINUOUS
10
126.35
20
-44.7375
11
127.65
21
-44.7375
0
LINE
8
BLACK
6
CONTINUOUS
10
127.65
20
-44.7375
11
127.65
21
-45.4375
0
LINE
8
BLACK
6
CONTINUOUS
10
104.631
20
-45.4375
11
103.331
21
-45.4375
0
LINE
8
BLACK
6
CONTINUOUS
10
103.331
20
-45.4375
11
103.331
21
-44.7375
0
LINE
8
BLACK
6
CONTINUOUS
10
103.331
20
-44.7375
11
104.631
21
-44.7375
0
LINE
8
BLACK
6
CONTINUOUS
10
104.631
20
-44.7375
11
104.631
21
-45.4375
0
LINE
8
BLACK
6
CONTINUOUS
10
274.494
20
-45.4375
11
273.194
21
-45.4375
0
LINE
8
BLACK
6
CONTINUOUS
10
273.194
20
-45.4375
11
273.194
21
-44.7375
0
LINE
8
BLACK
6
CONTINUOUS
10
273.194
20
-44.7375
11
274.494
21
-44.7375
0
LINE
8
BLACK
6
CONTINUOUS
10
274.494
20
-44.7375
11
274.494
21
-45.4375
0
LINE
8
BLACK
6
CONTINUOUS
10
236.394
20
-45.4375
11
235.094
21
-45.4375
0
LINE
8
BLACK
6
CONTINUOUS
10
235.094
20
-45.4375
11
235.094
21
-44.7375
0
LINE
8
BLACK
6
CONTINUOUS
10
235.094
20
-44.7375
11
236.394
21
-44.7375
0
LINE
8
BLACK
6
CONTINUOUS
10
236.394
20
-44.7375
11
236.394
21
-45.4375
0
LINE
8
BLACK
6
CONTINUOUS
10
312.544
20
-44.9625
11
311.344
21
-44.9625
0
LINE
8
BLACK
6
CONTINUOUS
10
311.344
20
-44.9625
11
311.344
21
-44.0625
0
LINE
8
BLACK
6
CONTINUOUS
10
311.344
20
-44.0625
11
312.544
21
-44.0625
0
LINE
8
BLACK
6
CONTINUOUS
10
312.544
20
-44.0625
11
312.544
21
-44.9625
0
LINE
8
BLACK
6
CONTINUOUS
10
161.731
20
-44.9625
11
160.531
21
-44.9625
0
LINE
8
BLACK
6
CONTINUOUS
10
160.531
20
-44.9625
11
160.531
21
-44.0625
0
LINE
8
BLACK
6
CONTINUOUS
10
160.531
20
-44.0625
11
161.731
21
-44.0625
0
LINE
8
BLACK
6
CONTINUOUS
10
161.731
20
-44.0625
11
161.731
21
-44.9625
0
LINE
8
BLACK
6
CONTINUOUS
10
203.006
20
-44.9625
11
201.806
21
-44.9625
0
LINE
8
BLACK
6
CONTINUOUS
10
201.806
20
-44.9625
11
201.806
21
-44.0625
0
LINE
8
BLACK
6
CONTINUOUS
10
201.806
20
-44.0625
11
203.006
21
-44.0625
0
LINE
8
BLACK
6
CONTINUOUS
10
203.006
20
-44.0625
11
203.006
21
-44.9625
0
LINE
8
BLACK
6
CONTINUOUS
10
143.525
20
-44.9562
11
142.225
21
-44.9562
0
LINE
8
BLACK
6
CONTINUOUS
10
142.225
20
-44.9562
11
142.225
21
-44.2563
0
LINE
8
BLACK
6
CONTINUOUS
10
142.225
20
-44.2563
11
143.525
21
-44.2563
0
LINE
8
BLACK
6
CONTINUOUS
10
143.525
20
-44.2563
11
143.525
21
-44.9562
0
LINE
8
BLACK
6
CONTINUOUS
10
218.137
20
-44.9562
11
216.837
21
-44.9562
0
LINE
8
BLACK
6
CONTINUOUS
10
216.837
20
-44.9562
11
216.837
21
-44.2563
0
LINE
8
BLACK
6
CONTINUOUS
10
216.837
20
-44.2563
11
218.137
21
-44.2563
0
LINE
8
BLACK
6
CONTINUOUS
10
218.137
20
-44.2563
11
218.137
21
-44.9562
0
LINE
8
BLACK
6
CONTINUOUS
10
146.7
20
-44.9562
11
145.4
21
-44.9562
0
LINE
8
BLACK
6
CONTINUOUS
10
145.4
20
-44.9562
11
145.4
21
-44.2563
0
LINE
8
BLACK
6
CONTINUOUS
10
145.4
20
-44.2563
11
146.7
21
-44.2563
0
LINE
8
BLACK
6
CONTINUOUS
10
146.7
20
-44.2563
11
146.7
21
-44.9562
0
LINE
8
BLACK
6
CONTINUOUS
10
221.312
20
-44.9562
11
220.012
21
-44.9562
0
LINE
8
BLACK
6
CONTINUOUS
10
220.012
20
-44.9562
11
220.012
21
-44.2563
0
LINE
8
BLACK
6
CONTINUOUS
10
220.012
20
-44.2563
11
221.312
21
-44.2563
0
LINE
8
BLACK
6
CONTINUOUS
10
221.312
20
-44.2563
11
221.312
21
-44.9562
0
LINE
8
BLACK
6
CONTINUOUS
10
255.444
20
-44.9562
11
254.144
21
-44.9562
0
LINE
8
BLACK
6
CONTINUOUS
10
254.144
20
-44.9562
11
254.144
21
-44.2563
0
LINE
8
BLACK
6
CONTINUOUS
10
254.144
20
-44.2563
11
255.444
21
-44.2563
0
LINE
8
BLACK
6
CONTINUOUS
10
255.444
20
-44.2563
11
255.444
21
-44.9562
0
LINE
8
BLACK
6
CONTINUOUS
10
123.681
20
-44.9562
11
122.381
21
-44.9562
0
LINE
8
BLACK
6
CONTINUOUS
10
122.381
20
-44.9562
11
122.381
21
-44.2563
0
LINE
8
BLACK
6
CONTINUOUS
10
122.381
20
-44.2563
11
123.681
21
-44.2563
0
LINE
8
BLACK
6
CONTINUOUS
10
123.681
20
-44.2563
11
123.681
21
-44.9562
0
LINE
8
BLACK
6
CONTINUOUS
10
293.494
20
-44.0437
11
292.294
21
-44.0437
0
LINE
8
BLACK
6
CONTINUOUS
10
292.294
20
-44.0437
11
292.294
21
-43.1437
0
LINE
8
BLACK
6
CONTINUOUS
10
292.294
20
-43.1437
11
293.494
21
-43.1437
0
LINE
8
BLACK
6
CONTINUOUS
10
293.494
20
-43.1437
11
293.494
21
-44.0437
0
LINE
8
BLACK
6
CONTINUOUS
10
85.5312
20
-44.0437
11
84.3312
21
-44.0437
0
LINE
8
BLACK
6
CONTINUOUS
10
84.3312
20
-44.0437
11
84.3312
21
-43.1437
0
LINE
8
BLACK
6
CONTINUOUS
10
84.3312
20
-43.1437
11
85.5312
21
-43.1437
0
LINE
8
BLACK
6
CONTINUOUS
10
85.5312
20
-43.1437
11
85.5312
21
-44.0437
0
LINE
8
BLACK
6
CONTINUOUS
10
66.4813
20
-44.0437
11
65.2812
21
-44.0437
0
LINE
8
BLACK
6
CONTINUOUS
10
65.2812
20
-44.0437
11
65.2812
21
-43.1437
0
LINE
8
BLACK
6
CONTINUOUS
10
65.2812
20
-43.1437
11
66.4813
21
-43.1437
0
LINE
8
BLACK
6
CONTINUOUS
10
66.4813
20
-43.1437
11
66.4813
21
-44.0437
0
LINE
8
BLACK
6
CONTINUOUS
10
146.7
20
-43.0562
11
145.4
21
-43.0562
0
LINE
8
BLACK
6
CONTINUOUS
10
145.4
20
-43.0562
11
145.4
21
-42.3562
0
LINE
8
BLACK
6
CONTINUOUS
10
145.4
20
-42.3562
11
146.7
21
-42.3562
0
LINE
8
BLACK
6
CONTINUOUS
10
146.7
20
-42.3562
11
146.7
21
-43.0562
0
LINE
8
BLACK
6
CONTINUOUS
10
143.525
20
-43.0562
11
142.225
21
-43.0562
0
LINE
8
BLACK
6
CONTINUOUS
10
142.225
20
-43.0562
11
142.225
21
-42.3562
0
LINE
8
BLACK
6
CONTINUOUS
10
142.225
20
-42.3562
11
143.525
21
-42.3562
0
LINE
8
BLACK
6
CONTINUOUS
10
143.525
20
-42.3562
11
143.525
21
-43.0562
0
LINE
8
BLACK
6
CONTINUOUS
10
123.681
20
-43.0562
11
122.381
21
-43.0562
0
LINE
8
BLACK
6
CONTINUOUS
10
122.381
20
-43.0562
11
122.381
21
-42.3562
0
LINE
8
BLACK
6
CONTINUOUS
10
122.381
20
-42.3562
11
123.681
21
-42.3562
0
LINE
8
BLACK
6
CONTINUOUS
10
123.681
20
-42.3562
11
123.681
21
-43.0562
0
LINE
8
BLACK
6
CONTINUOUS
10
221.312
20
-43.0562
11
220.012
21
-43.0562
0
LINE
8
BLACK
6
CONTINUOUS
10
220.012
20
-43.0562
11
220.012
21
-42.3562
0
LINE
8
BLACK
6
CONTINUOUS
10
220.012
20
-42.3562
11
221.312
21
-42.3562
0
LINE
8
BLACK
6
CONTINUOUS
10
221.312
20
-42.3562
11
221.312
21
-43.0562
0
LINE
8
BLACK
6
CONTINUOUS
10
255.444
20
-43.0562
11
254.144
21
-43.0562
0
LINE
8
BLACK
6
CONTINUOUS
10
254.144
20
-43.0562
11
254.144
21
-42.3562
0
LINE
8
BLACK
6
CONTINUOUS
10
254.144
20
-42.3562
11
255.444
21
-42.3562
0
LINE
8
BLACK
6
CONTINUOUS
10
255.444
20
-42.3562
11
255.444
21
-43.0562
0
LINE
8
BLACK
6
CONTINUOUS
10
218.137
20
-43.0562
11
216.837
21
-43.0562
0
LINE
8
BLACK
6
CONTINUOUS
10
216.837
20
-43.0562
11
216.837
21
-42.3562
0
LINE
8
BLACK
6
CONTINUOUS
10
216.837
20
-42.3562
11
218.137
21
-42.3562
0
LINE
8
BLACK
6
CONTINUOUS
10
218.137
20
-42.3562
11
218.137
21
-43.0562
0
LINE
8
BLACK
6
CONTINUOUS
10
127.6
20
-42.5812
11
126.4
21
-42.5812
0
LINE
8
BLACK
6
CONTINUOUS
10
126.4
20
-42.5812
11
126.4
21
-41.6812
0
LINE
8
BLACK
6
CONTINUOUS
10
126.4
20
-41.6812
11
127.6
21
-41.6812
0
LINE
8
BLACK
6
CONTINUOUS
10
127.6
20
-41.6812
11
127.6
21
-42.5812
0
LINE
8
BLACK
6
CONTINUOUS
10
104.581
20
-42.5812
11
103.381
21
-42.5812
0
LINE
8
BLACK
6
CONTINUOUS
10
103.381
20
-42.5812
11
103.381
21
-41.6812
0
LINE
8
BLACK
6
CONTINUOUS
10
103.381
20
-41.6812
11
104.581
21
-41.6812
0
LINE
8
BLACK
6
CONTINUOUS
10
104.581
20
-41.6812
11
104.581
21
-42.5812
0
LINE
8
BLACK
6
CONTINUOUS
10
274.444
20
-42.5812
11
273.244
21
-42.5812
0
LINE
8
BLACK
6
CONTINUOUS
10
273.244
20
-42.5812
11
273.244
21
-41.6812
0
LINE
8
BLACK
6
CONTINUOUS
10
273.244
20
-41.6812
11
274.444
21
-41.6812
0
LINE
8
BLACK
6
CONTINUOUS
10
274.444
20
-41.6812
11
274.444
21
-42.5812
0
LINE
8
BLACK
6
CONTINUOUS
10
236.344
20
-42.5812
11
235.144
21
-42.5812
0
LINE
8
BLACK
6
CONTINUOUS
10
235.144
20
-42.5812
11
235.144
21
-41.6812
0
LINE
8
BLACK
6
CONTINUOUS
10
235.144
20
-41.6812
11
236.344
21
-41.6812
0
LINE
8
BLACK
6
CONTINUOUS
10
236.344
20
-41.6812
11
236.344
21
-42.5812
0
LINE
8
BLACK
6
CONTINUOUS
10
161.731
20
-41.6625
11
160.531
21
-41.6625
0
LINE
8
BLACK
6
CONTINUOUS
10
160.531
20
-41.6625
11
160.531
21
-40.7625
0
LINE
8
BLACK
6
CONTINUOUS
10
160.531
20
-40.7625
11
161.731
21
-40.7625
0
LINE
8
BLACK
6
CONTINUOUS
10
161.731
20
-40.7625
11
161.731
21
-41.6625
0
LINE
8
BLACK
6
CONTINUOUS
10
312.544
20
-41.6625
11
311.344
21
-41.6625
0
LINE
8
BLACK
6
CONTINUOUS
10
311.344
20
-41.6625
11
311.344
21
-40.7625
0
LINE
8
BLACK
6
CONTINUOUS
10
311.344
20
-40.7625
11
312.544
21
-40.7625
0
LINE
8
BLACK
6
CONTINUOUS
10
312.544
20
-40.7625
11
312.544
21
-41.6625
0
LINE
8
BLACK
6
CONTINUOUS
10
203.006
20
-41.6625
11
201.806
21
-41.6625
0
LINE
8
BLACK
6
CONTINUOUS
10
201.806
20
-41.6625
11
201.806
21
-40.7625
0
LINE
8
BLACK
6
CONTINUOUS
10
201.806
20
-40.7625
11
203.006
21
-40.7625
0
LINE
8
BLACK
6
CONTINUOUS
10
203.006
20
-40.7625
11
203.006
21
-41.6625
0
LINE
8
BLACK
6
CONTINUOUS
10
123.631
20
-40.2
11
122.431
21
-40.2
0
LINE
8
BLACK
6
CONTINUOUS
10
122.431
20
-40.2
11
122.431
21
-39.3
0
LINE
8
BLACK
6
CONTINUOUS
10
122.431
20
-39.3
11
123.631
21
-39.3
0
LINE
8
BLACK
6
CONTINUOUS
10
123.631
20
-39.3
11
123.631
21
-40.2
0
LINE
8
BLACK
6
CONTINUOUS
10
255.394
20
-40.2
11
254.194
21
-40.2
0
LINE
8
BLACK
6
CONTINUOUS
10
254.194
20
-40.2
11
254.194
21
-39.3
0
LINE
8
BLACK
6
CONTINUOUS
10
254.194
20
-39.3
11
255.394
21
-39.3
0
LINE
8
BLACK
6
CONTINUOUS
10
255.394
20
-39.3
11
255.394
21
-40.2
0
LINE
8
BLACK
6
CONTINUOUS
10
220.488
20
-40.1437
11
219.788
21
-40.1437
0
LINE
8
BLACK
6
CONTINUOUS
10
219.788
20
-40.1437
11
219.788
21
-39.5437
0
LINE
8
BLACK
6
CONTINUOUS
10
219.788
20
-39.5437
11
220.488
21
-39.5437
0
LINE
8
BLACK
6
CONTINUOUS
10
220.488
20
-39.5437
11
220.488
21
-40.1437
0
LINE
8
BLACK
6
CONTINUOUS
10
145.749
20
-40.1437
11
145.049
21
-40.1437
0
LINE
8
BLACK
6
CONTINUOUS
10
145.049
20
-40.1437
11
145.049
21
-39.5437
0
LINE
8
BLACK
6
CONTINUOUS
10
145.049
20
-39.5437
11
145.749
21
-39.5437
0
LINE
8
BLACK
6
CONTINUOUS
10
145.749
20
-39.5437
11
145.749
21
-40.1437
0
LINE
8
BLACK
6
CONTINUOUS
10
143.749
20
-40.1437
11
143.049
21
-40.1437
0
LINE
8
BLACK
6
CONTINUOUS
10
143.049
20
-40.1437
11
143.049
21
-39.5437
0
LINE
8
BLACK
6
CONTINUOUS
10
143.049
20
-39.5437
11
143.749
21
-39.5437
0
LINE
8
BLACK
6
CONTINUOUS
10
143.749
20
-39.5437
11
143.749
21
-40.1437
0
LINE
8
BLACK
6
CONTINUOUS
10
218.488
20
-40.1437
11
217.788
21
-40.1437
0
LINE
8
BLACK
6
CONTINUOUS
10
217.788
20
-40.1437
11
217.788
21
-39.5437
0
LINE
8
BLACK
6
CONTINUOUS
10
217.788
20
-39.5437
11
218.488
21
-39.5437
0
LINE
8
BLACK
6
CONTINUOUS
10
218.488
20
-39.5437
11
218.488
21
-40.1437
0
LINE
8
BLACK
6
CONTINUOUS
10
236.344
20
-39.2812
11
235.144
21
-39.2812
0
LINE
8
BLACK
6
CONTINUOUS
10
235.144
20
-39.2812
11
235.144
21
-38.3813
0
LINE
8
BLACK
6
CONTINUOUS
10
235.144
20
-38.3813
11
236.344
21
-38.3813
0
LINE
8
BLACK
6
CONTINUOUS
10
236.344
20
-38.3813
11
236.344
21
-39.2812
0
LINE
8
BLACK
6
CONTINUOUS
10
104.581
20
-39.2812
11
103.381
21
-39.2812
0
LINE
8
BLACK
6
CONTINUOUS
10
103.381
20
-39.2812
11
103.381
21
-38.3813
0
LINE
8
BLACK
6
CONTINUOUS
10
103.381
20
-38.3813
11
104.581
21
-38.3813
0
LINE
8
BLACK
6
CONTINUOUS
10
104.581
20
-38.3813
11
104.581
21
-39.2812
0
LINE
8
BLACK
6
CONTINUOUS
10
127.6
20
-39.2812
11
126.4
21
-39.2812
0
LINE
8
BLACK
6
CONTINUOUS
10
126.4
20
-39.2812
11
126.4
21
-38.3813
0
LINE
8
BLACK
6
CONTINUOUS
10
126.4
20
-38.3813
11
127.6
21
-38.3813
0
LINE
8
BLACK
6
CONTINUOUS
10
127.6
20
-38.3813
11
127.6
21
-39.2812
0
LINE
8
BLACK
6
CONTINUOUS
10
274.444
20
-39.2812
11
273.244
21
-39.2812
0
LINE
8
BLACK
6
CONTINUOUS
10
273.244
20
-39.2812
11
273.244
21
-38.3813
0
LINE
8
BLACK
6
CONTINUOUS
10
273.244
20
-38.3813
11
274.444
21
-38.3813
0
LINE
8
BLACK
6
CONTINUOUS
10
274.444
20
-38.3813
11
274.444
21
-39.2812
0
LINE
8
BLACK
6
CONTINUOUS
10
220.488
20
-38.6437
11
219.788
21
-38.6437
0
LINE
8
BLACK
6
CONTINUOUS
10
219.788
20
-38.6437
11
219.788
21
-37.6437
0
LINE
8
BLACK
6
CONTINUOUS
10
219.788
20
-37.6437
11
220.488
21
-37.6437
0
LINE
8
BLACK
6
CONTINUOUS
10
220.488
20
-37.6437
11
220.488
21
-38.6437
0
LINE
8
BLACK
6
CONTINUOUS
10
145.749
20
-38.6437
11
145.049
21
-38.6437
0
LINE
8
BLACK
6
CONTINUOUS
10
145.049
20
-38.6437
11
145.049
21
-37.6437
0
LINE
8
BLACK
6
CONTINUOUS
10
145.049
20
-37.6437
11
145.749
21
-37.6437
0
LINE
8
BLACK
6
CONTINUOUS
10
145.749
20
-37.6437
11
145.749
21
-38.6437
0
LINE
8
BLACK
6
CONTINUOUS
10
143.749
20
-38.2437
11
143.049
21
-38.2437
0
LINE
8
BLACK
6
CONTINUOUS
10
143.049
20
-38.2437
11
143.049
21
-37.6437
0
LINE
8
BLACK
6
CONTINUOUS
10
143.049
20
-37.6437
11
143.749
21
-37.6437
0
LINE
8
BLACK
6
CONTINUOUS
10
143.749
20
-37.6437
11
143.749
21
-38.2437
0
LINE
8
BLACK
6
CONTINUOUS
10
218.488
20
-38.2437
11
217.788
21
-38.2437
0
LINE
8
BLACK
6
CONTINUOUS
10
217.788
20
-38.2437
11
217.788
21
-37.6437
0
LINE
8
BLACK
6
CONTINUOUS
10
217.788
20
-37.6437
11
218.488
21
-37.6437
0
LINE
8
BLACK
6
CONTINUOUS
10
218.488
20
-37.6437
11
218.488
21
-38.2437
0
LINE
8
BLACK
6
CONTINUOUS
10
255.394
20
-36.9
11
254.194
21
-36.9
0
LINE
8
BLACK
6
CONTINUOUS
10
254.194
20
-36.9
11
254.194
21
-36
0
LINE
8
BLACK
6
CONTINUOUS
10
254.194
20
-36
11
255.394
21
-36
0
LINE
8
BLACK
6
CONTINUOUS
10
255.394
20
-36
11
255.394
21
-36.9
0
LINE
8
BLACK
6
CONTINUOUS
10
123.631
20
-36.9
11
122.431
21
-36.9
0
LINE
8
BLACK
6
CONTINUOUS
10
122.431
20
-36.9
11
122.431
21
-36
0
LINE
8
BLACK
6
CONTINUOUS
10
122.431
20
-36
11
123.631
21
-36
0
LINE
8
BLACK
6
CONTINUOUS
10
123.631
20
-36
11
123.631
21
-36.9
0
LINE
8
BLACK
6
CONTINUOUS
10
236.394
20
-36.225
11
235.094
21
-36.225
0
LINE
8
BLACK
6
CONTINUOUS
10
235.094
20
-36.225
11
235.094
21
-35.525
0
LINE
8
BLACK
6
CONTINUOUS
10
235.094
20
-35.525
11
236.394
21
-35.525
0
LINE
8
BLACK
6
CONTINUOUS
10
236.394
20
-35.525
11
236.394
21
-36.225
0
LINE
8
BLACK
6
CONTINUOUS
10
209.262
20
-35.575
11
208.562
21
-35.575
0
LINE
8
BLACK
6
CONTINUOUS
10
208.562
20
-35.575
11
208.562
21
-34.275
0
LINE
8
BLACK
6
CONTINUOUS
10
208.562
20
-34.275
11
209.262
21
-34.275
0
LINE
8
BLACK
6
CONTINUOUS
10
209.262
20
-34.275
11
209.262
21
-35.575
0
LINE
8
BLACK
6
CONTINUOUS
10
207.362
20
-35.575
11
206.662
21
-35.575
0
LINE
8
BLACK
6
CONTINUOUS
10
206.662
20
-35.575
11
206.662
21
-34.275
0
LINE
8
BLACK
6
CONTINUOUS
10
206.662
20
-34.275
11
207.362
21
-34.275
0
LINE
8
BLACK
6
CONTINUOUS
10
207.362
20
-34.275
11
207.362
21
-35.575
0
LINE
8
BLACK
6
CONTINUOUS
10
153.7
20
-35.575
11
153
21
-35.575
0
LINE
8
BLACK
6
CONTINUOUS
10
153
20
-35.575
11
153
21
-34.275
0
LINE
8
BLACK
6
CONTINUOUS
10
153
20
-34.275
11
153.7
21
-34.275
0
LINE
8
BLACK
6
CONTINUOUS
10
153.7
20
-34.275
11
153.7
21
-35.575
0
LINE
8
BLACK
6
CONTINUOUS
10
151.8
20
-35.575
11
151.1
21
-35.575
0
LINE
8
BLACK
6
CONTINUOUS
10
151.1
20
-35.575
11
151.1
21
-34.275
0
LINE
8
BLACK
6
CONTINUOUS
10
151.1
20
-34.275
11
151.8
21
-34.275
0
LINE
8
BLACK
6
CONTINUOUS
10
151.8
20
-34.275
11
151.8
21
-35.575
0
LINE
8
BLACK
6
CONTINUOUS
10
127.65
20
-35.4312
11
126.35
21
-35.4312
0
LINE
8
BLACK
6
CONTINUOUS
10
126.35
20
-35.4312
11
126.35
21
-34.7312
0
LINE
8
BLACK
6
CONTINUOUS
10
126.35
20
-34.7312
11
127.65
21
-34.7312
0
LINE
8
BLACK
6
CONTINUOUS
10
127.65
20
-34.7312
11
127.65
21
-35.4312
0
LINE
8
BLACK
6
CONTINUOUS
10
217.975
20
-35.4075
11
217.675
21
-35.4075
0
LINE
8
BLACK
6
CONTINUOUS
10
217.675
20
-35.4075
11
217.675
21
-33.9575
0
LINE
8
BLACK
6
CONTINUOUS
10
217.675
20
-33.9575
11
217.975
21
-33.9575
0
LINE
8
BLACK
6
CONTINUOUS
10
217.975
20
-33.9575
11
217.975
21
-35.4075
0
LINE
8
BLACK
6
CONTINUOUS
10
222.6
20
-35.4075
11
222
21
-35.4075
0
LINE
8
BLACK
6
CONTINUOUS
10
222
20
-35.4075
11
222
21
-33.9575
0
LINE
8
BLACK
6
CONTINUOUS
10
222
20
-33.9575
11
222.6
21
-33.9575
0
LINE
8
BLACK
6
CONTINUOUS
10
222.6
20
-33.9575
11
222.6
21
-35.4075
0
LINE
8
BLACK
6
CONTINUOUS
10
219.975
20
-35.4075
11
219.675
21
-35.4075
0
LINE
8
BLACK
6
CONTINUOUS
10
219.675
20
-35.4075
11
219.675
21
-33.9575
0
LINE
8
BLACK
6
CONTINUOUS
10
219.675
20
-33.9575
11
219.975
21
-33.9575
0
LINE
8
BLACK
6
CONTINUOUS
10
219.975
20
-33.9575
11
219.975
21
-35.4075
0
LINE
8
BLACK
6
CONTINUOUS
10
147.987
20
-35.4075
11
147.387
21
-35.4075
0
LINE
8
BLACK
6
CONTINUOUS
10
147.387
20
-35.4075
11
147.387
21
-33.9575
0
LINE
8
BLACK
6
CONTINUOUS
10
147.387
20
-33.9575
11
147.987
21
-33.9575
0
LINE
8
BLACK
6
CONTINUOUS
10
147.987
20
-33.9575
11
147.987
21
-35.4075
0
LINE
8
BLACK
6
CONTINUOUS
10
141.537
20
-35.4075
11
140.938
21
-35.4075
0
LINE
8
BLACK
6
CONTINUOUS
10
140.938
20
-35.4075
11
140.938
21
-33.9575
0
LINE
8
BLACK
6
CONTINUOUS
10
140.938
20
-33.9575
11
141.537
21
-33.9575
0
LINE
8
BLACK
6
CONTINUOUS
10
141.537
20
-33.9575
11
141.537
21
-35.4075
0
LINE
8
BLACK
6
CONTINUOUS
10
147.213
20
-35.4075
11
146.612
21
-35.4075
0
LINE
8
BLACK
6
CONTINUOUS
10
146.612
20
-35.4075
11
146.612
21
-33.9575
0
LINE
8
BLACK
6
CONTINUOUS
10
146.612
20
-33.9575
11
147.213
21
-33.9575
0
LINE
8
BLACK
6
CONTINUOUS
10
147.213
20
-33.9575
11
147.213
21
-35.4075
0
LINE
8
BLACK
6
CONTINUOUS
10
143.862
20
-35.4075
11
143.562
21
-35.4075
0
LINE
8
BLACK
6
CONTINUOUS
10
143.562
20
-35.4075
11
143.562
21
-33.9575
0
LINE
8
BLACK
6
CONTINUOUS
10
143.562
20
-33.9575
11
143.862
21
-33.9575
0
LINE
8
BLACK
6
CONTINUOUS
10
143.862
20
-33.9575
11
143.862
21
-35.4075
0
LINE
8
BLACK
6
CONTINUOUS
10
145.362
20
-35.4075
11
145.062
21
-35.4075
0
LINE
8
BLACK
6
CONTINUOUS
10
145.062
20
-35.4075
11
145.062
21
-33.9575
0
LINE
8
BLACK
6
CONTINUOUS
10
145.062
20
-33.9575
11
145.362
21
-33.9575
0
LINE
8
BLACK
6
CONTINUOUS
10
145.362
20
-33.9575
11
145.362
21
-35.4075
0
LINE
8
BLACK
6
CONTINUOUS
10
144.862
20
-35.4075
11
144.562
21
-35.4075
0
LINE
8
BLACK
6
CONTINUOUS
10
144.562
20
-35.4075
11
144.562
21
-33.9575
0
LINE
8
BLACK
6
CONTINUOUS
10
144.562
20
-33.9575
11
144.862
21
-33.9575
0
LINE
8
BLACK
6
CONTINUOUS
10
144.862
20
-33.9575
11
144.862
21
-35.4075
0
LINE
8
BLACK
6
CONTINUOUS
10
143.362
20
-35.4075
11
143.062
21
-35.4075
0
LINE
8
BLACK
6
CONTINUOUS
10
143.062
20
-35.4075
11
143.062
21
-33.9575
0
LINE
8
BLACK
6
CONTINUOUS
10
143.062
20
-33.9575
11
143.362
21
-33.9575
0
LINE
8
BLACK
6
CONTINUOUS
10
143.362
20
-33.9575
11
143.362
21
-35.4075
0
LINE
8
BLACK
6
CONTINUOUS
10
218.975
20
-35.4075
11
218.675
21
-35.4075
0
LINE
8
BLACK
6
CONTINUOUS
10
218.675
20
-35.4075
11
218.675
21
-33.9575
0
LINE
8
BLACK
6
CONTINUOUS
10
218.675
20
-33.9575
11
218.975
21
-33.9575
0
LINE
8
BLACK
6
CONTINUOUS
10
218.975
20
-33.9575
11
218.975
21
-35.4075
0
LINE
8
BLACK
6
CONTINUOUS
10
219.475
20
-35.4075
11
219.175
21
-35.4075
0
LINE
8
BLACK
6
CONTINUOUS
10
219.175
20
-35.4075
11
219.175
21
-33.9575
0
LINE
8
BLACK
6
CONTINUOUS
10
219.175
20
-33.9575
11
219.475
21
-33.9575
0
LINE
8
BLACK
6
CONTINUOUS
10
219.475
20
-33.9575
11
219.475
21
-35.4075
0
LINE
8
BLACK
6
CONTINUOUS
10
218.475
20
-35.4075
11
218.175
21
-35.4075
0
LINE
8
BLACK
6
CONTINUOUS
10
218.175
20
-35.4075
11
218.175
21
-33.9575
0
LINE
8
BLACK
6
CONTINUOUS
10
218.175
20
-33.9575
11
218.475
21
-33.9575
0
LINE
8
BLACK
6
CONTINUOUS
10
218.475
20
-33.9575
11
218.475
21
-35.4075
0
LINE
8
BLACK
6
CONTINUOUS
10
220.475
20
-35.4075
11
220.175
21
-35.4075
0
LINE
8
BLACK
6
CONTINUOUS
10
220.175
20
-35.4075
11
220.175
21
-33.9575
0
LINE
8
BLACK
6
CONTINUOUS
10
220.175
20
-33.9575
11
220.475
21
-33.9575
0
LINE
8
BLACK
6
CONTINUOUS
10
220.475
20
-33.9575
11
220.475
21
-35.4075
0
LINE
8
BLACK
6
CONTINUOUS
10
146.362
20
-35.4075
11
146.062
21
-35.4075
0
LINE
8
BLACK
6
CONTINUOUS
10
146.062
20
-35.4075
11
146.062
21
-33.9575
0
LINE
8
BLACK
6
CONTINUOUS
10
146.062
20
-33.9575
11
146.362
21
-33.9575
0
LINE
8
BLACK
6
CONTINUOUS
10
146.362
20
-33.9575
11
146.362
21
-35.4075
0
LINE
8
BLACK
6
CONTINUOUS
10
216.15
20
-35.4075
11
215.55
21
-35.4075
0
LINE
8
BLACK
6
CONTINUOUS
10
215.55
20
-35.4075
11
215.55
21
-33.9575
0
LINE
8
BLACK
6
CONTINUOUS
10
215.55
20
-33.9575
11
216.15
21
-33.9575
0
LINE
8
BLACK
6
CONTINUOUS
10
216.15
20
-33.9575
11
216.15
21
-35.4075
0
LINE
8
BLACK
6
CONTINUOUS
10
220.975
20
-35.4075
11
220.675
21
-35.4075
0
LINE
8
BLACK
6
CONTINUOUS
10
220.675
20
-35.4075
11
220.675
21
-33.9575
0
LINE
8
BLACK
6
CONTINUOUS
10
220.675
20
-33.9575
11
220.975
21
-33.9575
0
LINE
8
BLACK
6
CONTINUOUS
10
220.975
20
-33.9575
11
220.975
21
-35.4075
0
LINE
8
BLACK
6
CONTINUOUS
10
217.475
20
-35.4075
11
217.175
21
-35.4075
0
LINE
8
BLACK
6
CONTINUOUS
10
217.175
20
-35.4075
11
217.175
21
-33.9575
0
LINE
8
BLACK
6
CONTINUOUS
10
217.175
20
-33.9575
11
217.475
21
-33.9575
0
LINE
8
BLACK
6
CONTINUOUS
10
217.475
20
-33.9575
11
217.475
21
-35.4075
0
LINE
8
BLACK
6
CONTINUOUS
10
216.925
20
-35.4075
11
216.325
21
-35.4075
0
LINE
8
BLACK
6
CONTINUOUS
10
216.325
20
-35.4075
11
216.325
21
-33.9575
0
LINE
8
BLACK
6
CONTINUOUS
10
216.325
20
-33.9575
11
216.925
21
-33.9575
0
LINE
8
BLACK
6
CONTINUOUS
10
216.925
20
-33.9575
11
216.925
21
-35.4075
0
LINE
8
BLACK
6
CONTINUOUS
10
221.825
20
-35.4075
11
221.225
21
-35.4075
0
LINE
8
BLACK
6
CONTINUOUS
10
221.225
20
-35.4075
11
221.225
21
-33.9575
0
LINE
8
BLACK
6
CONTINUOUS
10
221.225
20
-33.9575
11
221.825
21
-33.9575
0
LINE
8
BLACK
6
CONTINUOUS
10
221.825
20
-33.9575
11
221.825
21
-35.4075
0
LINE
8
BLACK
6
CONTINUOUS
10
142.862
20
-35.4075
11
142.562
21
-35.4075
0
LINE
8
BLACK
6
CONTINUOUS
10
142.562
20
-35.4075
11
142.562
21
-33.9575
0
LINE
8
BLACK
6
CONTINUOUS
10
142.562
20
-33.9575
11
142.862
21
-33.9575
0
LINE
8
BLACK
6
CONTINUOUS
10
142.862
20
-33.9575
11
142.862
21
-35.4075
0
LINE
8
BLACK
6
CONTINUOUS
10
145.862
20
-35.4075
11
145.562
21
-35.4075
0
LINE
8
BLACK
6
CONTINUOUS
10
145.562
20
-35.4075
11
145.562
21
-33.9575
0
LINE
8
BLACK
6
CONTINUOUS
10
145.562
20
-33.9575
11
145.862
21
-33.9575
0
LINE
8
BLACK
6
CONTINUOUS
10
145.862
20
-33.9575
11
145.862
21
-35.4075
0
LINE
8
BLACK
6
CONTINUOUS
10
144.362
20
-35.4075
11
144.062
21
-35.4075
0
LINE
8
BLACK
6
CONTINUOUS
10
144.062
20
-35.4075
11
144.062
21
-33.9575
0
LINE
8
BLACK
6
CONTINUOUS
10
144.062
20
-33.9575
11
144.362
21
-33.9575
0
LINE
8
BLACK
6
CONTINUOUS
10
144.362
20
-33.9575
11
144.362
21
-35.4075
0
LINE
8
BLACK
6
CONTINUOUS
10
142.312
20
-35.4075
11
141.713
21
-35.4075
0
LINE
8
BLACK
6
CONTINUOUS
10
141.713
20
-35.4075
11
141.713
21
-33.9575
0
LINE
8
BLACK
6
CONTINUOUS
10
141.713
20
-33.9575
11
142.312
21
-33.9575
0
LINE
8
BLACK
6
CONTINUOUS
10
142.312
20
-33.9575
11
142.312
21
-35.4075
0
LINE
8
BLACK
6
CONTINUOUS
10
236.394
20
-34.325
11
235.094
21
-34.325
0
LINE
8
BLACK
6
CONTINUOUS
10
235.094
20
-34.325
11
235.094
21
-33.625
0
LINE
8
BLACK
6
CONTINUOUS
10
235.094
20
-33.625
11
236.394
21
-33.625
0
LINE
8
BLACK
6
CONTINUOUS
10
236.394
20
-33.625
11
236.394
21
-34.325
0
LINE
8
BLACK
6
CONTINUOUS
10
127.65
20
-33.5312
11
126.35
21
-33.5312
0
LINE
8
BLACK
6
CONTINUOUS
10
126.35
20
-33.5312
11
126.35
21
-32.8312
0
LINE
8
BLACK
6
CONTINUOUS
10
126.35
20
-32.8312
11
127.65
21
-32.8312
0
LINE
8
BLACK
6
CONTINUOUS
10
127.65
20
-32.8312
11
127.65
21
-33.5312
  0
ENDSEC
  0
EOF
