  0
SECTION
  2
HEADER
  9
$ANGBASE
  50
0.0
  9
$ANGDIR
  70
  1
  9
$MEASUREMENT
  70
0
  0
ENDSEC
  0
SECTION
  2
TABLES
  0
TABLE
  2
LTYPE
  70
4
  0
LTYPE
  5
40F
  2
CONTINUOUS
  70
0
  3
Solid line
  72
65
  73
0
  40
0.0
  0
LTYPE
  5
410
  2
DASHDOT
 70
0
  3
Dash Dot ____ _ ____ _
 72
65
 73
4
 40
2.0
 49
1.25
 49
-0.25
 49
0.25
 49
-0.25
  0
LTYPE
  5
411
  2
DASHED
 70
0
  3
Dashed __ __ __ __ __
 72
65
 73
2
 40
0.75
 49
0.5
 49
-0.25
  0
LTYPE
  5
43B
  2
DOTTED
 70
0
  3
Dotted .  .  .  .
 72
65
 73
2
 40
0.2
 49
0.0
 49
-0.2
  0
ENDTAB
  0
TABLE
  2
STYLE
  70
4
  0
STYLE
  2
KICAD
  70
0
  40
0
  41
1
  42
1
  50
0
  71
0
  3
isocp.shx
  0
STYLE
  2
KICADB
  70
0
  40
0
  41
1
  42
1
  50
0
  71
0
  3
isocp.shx
  0
STYLE
  2
KICADI
  70
0
  40
0
  41
1
  42
1
  50
15
  71
0
  3
isocp.shx
  0
STYLE
  2
KICADBI
  70
0
  40
0
  41
1
  42
1
  50
15
  71
0
  3
isocp.shx
  0
ENDTAB
  0
TABLE
  2
LAYER
  70
30
  0
LAYER
  2
BLACK
  70
0
  62
7
  6
CONTINUOUS
  0
LAYER
  2
GRAY1
  70
0
  62
251
  6
CONTINUOUS
  0
LAYER
  2
GRAY2
  70
0
  62
8
  6
CONTINUOUS
  0
LAYER
  2
GRAY3
  70
0
  62
9
  6
CONTINUOUS
  0
LAYER
  2
WHITE
  70
0
  62
7
  6
CONTINUOUS
  0
LAYER
  2
LYELLOW
  70
0
  62
51
  6
CONTINUOUS
  0
LAYER
  2
BLUE1
  70
0
  62
178
  6
CONTINUOUS
  0
LAYER
  2
GREEN1
  70
0
  62
98
  6
CONTINUOUS
  0
LAYER
  2
CYAN1
  70
0
  62
138
  6
CONTINUOUS
  0
LAYER
  2
RED1
  70
0
  62
18
  6
CONTINUOUS
  0
LAYER
  2
MAGENTA1
  70
0
  62
228
  6
CONTINUOUS
  0
LAYER
  2
BROWN1
  70
0
  62
58
  6
CONTINUOUS
  0
LAYER
  2
BLUE2
  70
0
  62
5
  6
CONTINUOUS
  0
LAYER
  2
GREEN2
  70
0
  62
3
  6
CONTINUOUS
  0
LAYER
  2
CYAN2
  70
0
  62
4
  6
CONTINUOUS
  0
LAYER
  2
RED2
  70
0
  62
1
  6
CONTINUOUS
  0
LAYER
  2
MAGENTA2
  70
0
  62
6
  6
CONTINUOUS
  0
LAYER
  2
BROWN2
  70
0
  62
54
  6
CONTINUOUS
  0
LAYER
  2
BLUE3
  70
0
  62
171
  6
CONTINUOUS
  0
LAYER
  2
GREEN3
  70
0
  62
91
  6
CONTINUOUS
  0
LAYER
  2
CYAN3
  70
0
  62
131
  6
CONTINUOUS
  0
LAYER
  2
RED3
  70
0
  62
11
  6
CONTINUOUS
  0
LAYER
  2
MAGENTA3
  70
0
  62
221
  6
CONTINUOUS
  0
LAYER
  2
YELLOW3
  70
0
  62
2
  6
CONTINUOUS
  0
LAYER
  2
BLUE4
  70
0
  62
5
  6
CONTINUOUS
  0
LAYER
  2
GREEN4
  70
0
  62
3
  6
CONTINUOUS
  0
LAYER
  2
CYAN4
  70
0
  62
4
  6
CONTINUOUS
  0
LAYER
  2
RED4
  70
0
  62
1
  6
CONTINUOUS
  0
LAYER
  2
MAGENTA4
  70
0
  62
6
  6
CONTINUOUS
  0
LAYER
  2
YELLOW4
  70
0
  62
2
  6
CONTINUOUS
  0
ENDTAB
  0
ENDSEC
  0
SECTION
  2
ENTITIES
0
LINE
8
BLACK
6
CONTINUOUS
10
333.382
20
-13.4188
11
333.388
21
-13.4188
0
LINE
8
BLACK
6
CONTINUOUS
10
333.388
20
-13.4188
11
333.394
21
-13.421
0
LINE
8
BLACK
6
CONTINUOUS
10
333.394
20
-13.421
11
333.401
21
-13.4222
0
LINE
8
BLACK
6
CONTINUOUS
10
333.401
20
-13.4222
11
333.407
21
-13.4255
0
LINE
8
BLACK
6
CONTINUOUS
10
333.407
20
-13.4255
11
333.413
21
-13.4278
0
LINE
8
BLACK
6
CONTINUOUS
10
333.413
20
-13.4278
11
333.418
21
-13.4321
0
LINE
8
BLACK
6
CONTINUOUS
10
333.418
20
-13.4321
11
333.424
21
-13.4354
0
LINE
8
BLACK
6
CONTINUOUS
10
333.424
20
-13.4354
11
333.428
21
-13.4405
0
LINE
8
BLACK
6
CONTINUOUS
10
333.428
20
-13.4405
11
333.433
21
-13.4448
0
LINE
8
BLACK
6
CONTINUOUS
10
333.433
20
-13.4448
11
333.437
21
-13.4506
0
LINE
8
BLACK
6
CONTINUOUS
10
333.437
20
-13.4506
11
333.441
21
-13.4557
0
LINE
8
BLACK
6
CONTINUOUS
10
333.441
20
-13.4557
11
333.443
21
-13.4619
0
LINE
8
BLACK
6
CONTINUOUS
10
333.443
20
-13.4619
11
333.447
21
-13.4677
0
LINE
8
BLACK
6
CONTINUOUS
10
333.447
20
-13.4677
11
333.448
21
-13.4743
0
LINE
8
BLACK
6
CONTINUOUS
10
333.448
20
-13.4743
11
333.45
21
-13.4805
0
LINE
8
BLACK
6
CONTINUOUS
10
333.45
20
-13.4805
11
333.45
21
-13.4872
0
LINE
8
BLACK
6
CONTINUOUS
10
333.45
20
-13.4872
11
333.45
21
-13.4872
0
LINE
8
BLACK
6
CONTINUOUS
10
333.45
20
-13.4872
11
333.45
21
-30.9628
0
LINE
8
BLACK
6
CONTINUOUS
10
333.45
20
-30.9628
11
333.45
21
-30.9628
0
LINE
8
BLACK
6
CONTINUOUS
10
333.45
20
-30.9628
11
333.45
21
-30.9695
0
LINE
8
BLACK
6
CONTINUOUS
10
333.45
20
-30.9695
11
333.448
21
-30.9757
0
LINE
8
BLACK
6
CONTINUOUS
10
333.448
20
-30.9757
11
333.447
21
-30.9823
0
LINE
8
BLACK
6
CONTINUOUS
10
333.447
20
-30.9823
11
333.443
21
-30.9881
0
LINE
8
BLACK
6
CONTINUOUS
10
333.443
20
-30.9881
11
333.441
21
-30.9943
0
LINE
8
BLACK
6
CONTINUOUS
10
333.441
20
-30.9943
11
333.437
21
-30.9994
0
LINE
8
BLACK
6
CONTINUOUS
10
333.437
20
-30.9994
11
333.433
21
-31.0052
0
LINE
8
BLACK
6
CONTINUOUS
10
333.433
20
-31.0052
11
333.428
21
-31.0095
0
LINE
8
BLACK
6
CONTINUOUS
10
333.428
20
-31.0095
11
333.424
21
-31.0146
0
LINE
8
BLACK
6
CONTINUOUS
10
333.424
20
-31.0146
11
333.418
21
-31.0179
0
LINE
8
BLACK
6
CONTINUOUS
10
333.418
20
-31.0179
11
333.413
21
-31.0222
0
LINE
8
BLACK
6
CONTINUOUS
10
333.413
20
-31.0222
11
333.407
21
-31.0245
0
LINE
8
BLACK
6
CONTINUOUS
10
333.407
20
-31.0245
11
333.401
21
-31.0278
0
LINE
8
BLACK
6
CONTINUOUS
10
333.401
20
-31.0278
11
333.394
21
-31.029
0
LINE
8
BLACK
6
CONTINUOUS
10
333.394
20
-31.029
11
333.388
21
-31.0312
0
LINE
8
BLACK
6
CONTINUOUS
10
333.388
20
-31.0312
11
333.382
21
-31.0312
0
LINE
8
BLACK
6
CONTINUOUS
10
333.382
20
-31.0312
11
333.382
21
-31.0312
0
LINE
8
BLACK
6
CONTINUOUS
10
333.382
20
-31.0312
11
327.822
21
-31.0312
0
LINE
8
BLACK
6
CONTINUOUS
10
327.822
20
-31.0312
11
327.628
21
-31.0482
0
LINE
8
BLACK
6
CONTINUOUS
10
327.628
20
-31.0482
11
327.262
21
-31.1817
0
LINE
8
BLACK
6
CONTINUOUS
10
327.262
20
-31.1817
11
326.965
21
-31.4305
0
LINE
8
BLACK
6
CONTINUOUS
10
326.965
20
-31.4305
11
326.771
21
-31.7657
0
LINE
8
BLACK
6
CONTINUOUS
10
326.771
20
-31.7657
11
326.703
21
-32.1534
0
LINE
8
BLACK
6
CONTINUOUS
10
326.703
20
-32.1534
11
326.703
21
-39.2873
0
LINE
8
BLACK
6
CONTINUOUS
10
326.703
20
-39.2873
11
326.72
21
-39.481
0
LINE
8
BLACK
6
CONTINUOUS
10
326.72
20
-39.481
11
326.854
21
-39.8479
0
LINE
8
BLACK
6
CONTINUOUS
10
326.854
20
-39.8479
11
327.102
21
-40.1444
0
LINE
8
BLACK
6
CONTINUOUS
10
327.102
20
-40.1444
11
327.438
21
-40.3379
0
LINE
8
BLACK
6
CONTINUOUS
10
327.438
20
-40.3379
11
327.825
21
-40.4062
0
LINE
8
BLACK
6
CONTINUOUS
10
327.825
20
-40.4062
11
332.191
21
-40.4062
0
LINE
8
BLACK
6
CONTINUOUS
10
332.191
20
-40.4062
11
332.197
21
-40.4074
0
LINE
8
BLACK
6
CONTINUOUS
10
332.197
20
-40.4074
11
332.197
21
-40.4074
0
LINE
8
BLACK
6
CONTINUOUS
10
332.197
20
-40.4074
11
332.605
21
-40.4792
0
LINE
8
BLACK
6
CONTINUOUS
10
332.605
20
-40.4792
11
332.629
21
-40.4881
0
LINE
8
BLACK
6
CONTINUOUS
10
332.629
20
-40.4881
11
332.629
21
-40.4881
0
LINE
8
BLACK
6
CONTINUOUS
10
332.629
20
-40.4881
11
332.987
21
-40.6949
0
LINE
8
BLACK
6
CONTINUOUS
10
332.987
20
-40.6949
11
333.007
21
-40.7116
0
LINE
8
BLACK
6
CONTINUOUS
10
333.007
20
-40.7116
11
333.007
21
-40.7116
0
LINE
8
BLACK
6
CONTINUOUS
10
333.007
20
-40.7116
11
333.273
21
-41.0283
0
LINE
8
BLACK
6
CONTINUOUS
10
333.273
20
-41.0283
11
333.273
21
-41.0284
0
LINE
8
BLACK
6
CONTINUOUS
10
333.273
20
-41.0284
11
333.286
21
-41.0509
0
LINE
8
BLACK
6
CONTINUOUS
10
333.286
20
-41.0509
11
333.427
21
-41.4395
0
LINE
8
BLACK
6
CONTINUOUS
10
333.427
20
-41.4395
11
333.429
21
-41.4491
0
LINE
8
BLACK
6
CONTINUOUS
10
333.429
20
-41.4491
11
333.432
21
-41.4586
0
LINE
8
BLACK
6
CONTINUOUS
10
333.432
20
-41.4586
11
333.449
21
-41.6621
0
LINE
8
BLACK
6
CONTINUOUS
10
333.449
20
-41.6621
11
333.45
21
-41.6653
0
LINE
8
BLACK
6
CONTINUOUS
10
333.45
20
-41.6653
11
333.45
21
-124.228
0
LINE
8
BLACK
6
CONTINUOUS
10
333.45
20
-124.228
11
333.449
21
-124.235
0
LINE
8
BLACK
6
CONTINUOUS
10
333.449
20
-124.235
11
333.449
21
-124.235
0
LINE
8
BLACK
6
CONTINUOUS
10
333.449
20
-124.235
11
333.377
21
-124.642
0
LINE
8
BLACK
6
CONTINUOUS
10
333.377
20
-124.642
11
333.368
21
-124.667
0
LINE
8
BLACK
6
CONTINUOUS
10
333.368
20
-124.667
11
333.161
21
-125.025
0
LINE
8
BLACK
6
CONTINUOUS
10
333.161
20
-125.025
11
333.145
21
-125.045
0
LINE
8
BLACK
6
CONTINUOUS
10
333.145
20
-125.045
11
332.828
21
-125.31
0
LINE
8
BLACK
6
CONTINUOUS
10
332.828
20
-125.31
11
332.805
21
-125.323
0
LINE
8
BLACK
6
CONTINUOUS
10
332.805
20
-125.323
11
332.417
21
-125.465
0
LINE
8
BLACK
6
CONTINUOUS
10
332.417
20
-125.465
11
332.407
21
-125.467
0
LINE
8
BLACK
6
CONTINUOUS
10
332.407
20
-125.467
11
332.398
21
-125.469
0
LINE
8
BLACK
6
CONTINUOUS
10
332.398
20
-125.469
11
332.194
21
-125.487
0
LINE
8
BLACK
6
CONTINUOUS
10
332.194
20
-125.487
11
332.191
21
-125.487
0
LINE
8
BLACK
6
CONTINUOUS
10
332.191
20
-125.487
11
327.822
21
-125.487
0
LINE
8
BLACK
6
CONTINUOUS
10
327.822
20
-125.487
11
327.628
21
-125.504
0
LINE
8
BLACK
6
CONTINUOUS
10
327.628
20
-125.504
11
327.262
21
-125.638
0
LINE
8
BLACK
6
CONTINUOUS
10
327.262
20
-125.638
11
326.965
21
-125.887
0
LINE
8
BLACK
6
CONTINUOUS
10
326.965
20
-125.887
11
326.771
21
-126.222
0
LINE
8
BLACK
6
CONTINUOUS
10
326.771
20
-126.222
11
326.703
21
-126.61
0
LINE
8
BLACK
6
CONTINUOUS
10
326.703
20
-126.61
11
326.703
21
-133.344
0
LINE
8
BLACK
6
CONTINUOUS
10
326.703
20
-133.344
11
326.778
21
-133.817
0
LINE
8
BLACK
6
CONTINUOUS
10
326.778
20
-133.817
11
326.993
21
-134.238
0
LINE
8
BLACK
6
CONTINUOUS
10
326.993
20
-134.238
11
327.327
21
-134.573
0
LINE
8
BLACK
6
CONTINUOUS
10
327.327
20
-134.573
11
327.749
21
-134.788
0
LINE
8
BLACK
6
CONTINUOUS
10
327.749
20
-134.788
11
328.222
21
-134.862
0
LINE
8
BLACK
6
CONTINUOUS
10
328.222
20
-134.862
11
333.309
21
-134.862
0
LINE
8
BLACK
6
CONTINUOUS
10
333.309
20
-134.862
11
333.324
21
-134.85
0
LINE
8
BLACK
6
CONTINUOUS
10
333.324
20
-134.85
11
333.357
21
-134.838
0
LINE
8
BLACK
6
CONTINUOUS
10
333.357
20
-134.838
11
333.393
21
-134.838
0
LINE
8
BLACK
6
CONTINUOUS
10
333.393
20
-134.838
11
333.426
21
-134.85
0
LINE
8
BLACK
6
CONTINUOUS
10
333.426
20
-134.85
11
333.453
21
-134.872
0
LINE
8
BLACK
6
CONTINUOUS
10
333.453
20
-134.872
11
333.47
21
-134.903
0
LINE
8
BLACK
6
CONTINUOUS
10
333.47
20
-134.903
11
333.475
21
-134.929
0
LINE
8
BLACK
6
CONTINUOUS
10
333.475
20
-134.929
11
333.475
21
-158.759
0
LINE
8
BLACK
6
CONTINUOUS
10
333.475
20
-158.759
11
333.475
21
-158.759
0
LINE
8
BLACK
6
CONTINUOUS
10
333.475
20
-158.759
11
333.475
21
-158.768
0
LINE
8
BLACK
6
CONTINUOUS
10
333.475
20
-158.768
11
333.472
21
-158.776
0
LINE
8
BLACK
6
CONTINUOUS
10
333.472
20
-158.776
11
333.47
21
-158.785
0
LINE
8
BLACK
6
CONTINUOUS
10
333.47
20
-158.785
11
333.466
21
-158.792
0
LINE
8
BLACK
6
CONTINUOUS
10
333.466
20
-158.792
11
333.463
21
-158.801
0
LINE
8
BLACK
6
CONTINUOUS
10
333.463
20
-158.801
11
333.457
21
-158.808
0
LINE
8
BLACK
6
CONTINUOUS
10
333.457
20
-158.808
11
333.453
21
-158.815
0
LINE
8
BLACK
6
CONTINUOUS
10
333.453
20
-158.815
11
333.446
21
-158.821
0
LINE
8
BLACK
6
CONTINUOUS
10
333.446
20
-158.821
11
333.44
21
-158.828
0
LINE
8
BLACK
6
CONTINUOUS
10
333.44
20
-158.828
11
333.433
21
-158.832
0
LINE
8
BLACK
6
CONTINUOUS
10
333.433
20
-158.832
11
333.426
21
-158.838
0
LINE
8
BLACK
6
CONTINUOUS
10
333.426
20
-158.838
11
333.417
21
-158.841
0
LINE
8
BLACK
6
CONTINUOUS
10
333.417
20
-158.841
11
333.41
21
-158.845
0
LINE
8
BLACK
6
CONTINUOUS
10
333.41
20
-158.845
11
333.401
21
-158.847
0
LINE
8
BLACK
6
CONTINUOUS
10
333.401
20
-158.847
11
333.393
21
-158.85
0
LINE
8
BLACK
6
CONTINUOUS
10
333.393
20
-158.85
11
333.384
21
-158.85
0
LINE
8
BLACK
6
CONTINUOUS
10
333.384
20
-158.85
11
333.384
21
-158.85
0
LINE
8
BLACK
6
CONTINUOUS
10
333.384
20
-158.85
11
30.1538
21
-158.85
0
LINE
8
BLACK
6
CONTINUOUS
10
30.1538
20
-158.85
11
30.1537
21
-158.85
0
LINE
8
BLACK
6
CONTINUOUS
10
30.1537
20
-158.85
11
30.1449
21
-158.85
0
LINE
8
BLACK
6
CONTINUOUS
10
30.1449
20
-158.85
11
30.1365
21
-158.847
0
LINE
8
BLACK
6
CONTINUOUS
10
30.1365
20
-158.847
11
30.1278
21
-158.845
0
LINE
8
BLACK
6
CONTINUOUS
10
30.1278
20
-158.845
11
30.1201
21
-158.841
0
LINE
8
BLACK
6
CONTINUOUS
10
30.1201
20
-158.841
11
30.1117
21
-158.838
0
LINE
8
BLACK
6
CONTINUOUS
10
30.1117
20
-158.838
11
30.1049
21
-158.832
0
LINE
8
BLACK
6
CONTINUOUS
10
30.1049
20
-158.832
11
30.0972
21
-158.828
0
LINE
8
BLACK
6
CONTINUOUS
10
30.0972
20
-158.828
11
30.0915
21
-158.821
0
LINE
8
BLACK
6
CONTINUOUS
10
30.0915
20
-158.821
11
30.0847
21
-158.815
0
LINE
8
BLACK
6
CONTINUOUS
10
30.0847
20
-158.815
11
30.0803
21
-158.808
0
LINE
8
BLACK
6
CONTINUOUS
10
30.0803
20
-158.808
11
30.0746
21
-158.801
0
LINE
8
BLACK
6
CONTINUOUS
10
30.0746
20
-158.801
11
30.0715
21
-158.792
0
LINE
8
BLACK
6
CONTINUOUS
10
30.0715
20
-158.792
11
30.0671
21
-158.785
0
LINE
8
BLACK
6
CONTINUOUS
10
30.0671
20
-158.785
11
30.0655
21
-158.776
0
LINE
8
BLACK
6
CONTINUOUS
10
30.0655
20
-158.776
11
30.0625
21
-158.768
0
LINE
8
BLACK
6
CONTINUOUS
10
30.0625
20
-158.768
11
30.0625
21
-158.732
0
LINE
8
BLACK
6
CONTINUOUS
10
30.0625
20
-158.732
11
30.0625
21
-134.929
0
LINE
8
BLACK
6
CONTINUOUS
10
30.0625
20
-134.929
11
30.0671
21
-134.903
0
LINE
8
BLACK
6
CONTINUOUS
10
30.0671
20
-134.903
11
30.0847
21
-134.872
0
LINE
8
BLACK
6
CONTINUOUS
10
30.0847
20
-134.872
11
30.1117
21
-134.85
0
LINE
8
BLACK
6
CONTINUOUS
10
30.1117
20
-134.85
11
30.1449
21
-134.838
0
LINE
8
BLACK
6
CONTINUOUS
10
30.1449
20
-134.838
11
30.1801
21
-134.838
0
LINE
8
BLACK
6
CONTINUOUS
10
30.1801
20
-134.838
11
30.2133
21
-134.85
0
LINE
8
BLACK
6
CONTINUOUS
10
30.2133
20
-134.85
11
30.2287
21
-134.862
0
LINE
8
BLACK
6
CONTINUOUS
10
30.2287
20
-134.862
11
35.316
21
-134.862
0
LINE
8
BLACK
6
CONTINUOUS
10
35.316
20
-134.862
11
35.789
21
-134.788
0
LINE
8
BLACK
6
CONTINUOUS
10
35.789
20
-134.788
11
36.2104
21
-134.573
0
LINE
8
BLACK
6
CONTINUOUS
10
36.2104
20
-134.573
11
36.5448
21
-134.238
0
LINE
8
BLACK
6
CONTINUOUS
10
36.5448
20
-134.238
11
36.7595
21
-133.817
0
LINE
8
BLACK
6
CONTINUOUS
10
36.7595
20
-133.817
11
36.8344
21
-133.344
0
LINE
8
BLACK
6
CONTINUOUS
10
36.8344
20
-133.344
11
36.8344
21
-126.606
0
LINE
8
BLACK
6
CONTINUOUS
10
36.8344
20
-126.606
11
36.8174
21
-126.413
0
LINE
8
BLACK
6
CONTINUOUS
10
36.8174
20
-126.413
11
36.6839
21
-126.046
0
LINE
8
BLACK
6
CONTINUOUS
10
36.6839
20
-126.046
11
36.4351
21
-125.749
0
LINE
8
BLACK
6
CONTINUOUS
10
36.4351
20
-125.749
11
36.0999
21
-125.556
0
LINE
8
BLACK
6
CONTINUOUS
10
36.0999
20
-125.556
11
35.7122
21
-125.487
0
LINE
8
BLACK
6
CONTINUOUS
10
35.7122
20
-125.487
11
31.3466
21
-125.487
0
LINE
8
BLACK
6
CONTINUOUS
10
31.3466
20
-125.487
11
31.3401
21
-125.486
0
LINE
8
BLACK
6
CONTINUOUS
10
31.3401
20
-125.486
11
31.3401
21
-125.486
0
LINE
8
BLACK
6
CONTINUOUS
10
31.3401
20
-125.486
11
30.9329
21
-125.415
0
LINE
8
BLACK
6
CONTINUOUS
10
30.9329
20
-125.415
11
30.9084
21
-125.406
0
LINE
8
BLACK
6
CONTINUOUS
10
30.9084
20
-125.406
11
30.5503
21
-125.199
0
LINE
8
BLACK
6
CONTINUOUS
10
30.5503
20
-125.199
11
30.5304
21
-125.182
0
LINE
8
BLACK
6
CONTINUOUS
10
30.5304
20
-125.182
11
30.2646
21
-124.865
0
LINE
8
BLACK
6
CONTINUOUS
10
30.2646
20
-124.865
11
30.2515
21
-124.843
0
LINE
8
BLACK
6
CONTINUOUS
10
30.2515
20
-124.843
11
30.1101
21
-124.454
0
LINE
8
BLACK
6
CONTINUOUS
10
30.1101
20
-124.454
11
30.1084
21
-124.445
0
LINE
8
BLACK
6
CONTINUOUS
10
30.1084
20
-124.445
11
30.1059
21
-124.435
0
LINE
8
BLACK
6
CONTINUOUS
10
30.1059
20
-124.435
11
30.0881
21
-124.232
0
LINE
8
BLACK
6
CONTINUOUS
10
30.0881
20
-124.232
11
30.0875
21
-124.228
0
LINE
8
BLACK
6
CONTINUOUS
10
30.0875
20
-124.228
11
30.0875
21
-41.6653
0
LINE
8
BLACK
6
CONTINUOUS
10
30.0875
20
-41.6653
11
30.0886
21
-41.6589
0
LINE
8
BLACK
6
CONTINUOUS
10
30.0886
20
-41.6589
11
30.0886
21
-41.6589
0
LINE
8
BLACK
6
CONTINUOUS
10
30.0886
20
-41.6589
11
30.1604
21
-41.2516
0
LINE
8
BLACK
6
CONTINUOUS
10
30.1604
20
-41.2516
11
30.1694
21
-41.2272
0
LINE
8
BLACK
6
CONTINUOUS
10
30.1694
20
-41.2272
11
30.1694
21
-41.2272
0
LINE
8
BLACK
6
CONTINUOUS
10
30.1694
20
-41.2272
11
30.3761
21
-40.8691
0
LINE
8
BLACK
6
CONTINUOUS
10
30.3761
20
-40.8691
11
30.3928
21
-40.8491
0
LINE
8
BLACK
6
CONTINUOUS
10
30.3928
20
-40.8491
11
30.3928
21
-40.8491
0
LINE
8
BLACK
6
CONTINUOUS
10
30.3928
20
-40.8491
11
30.7096
21
-40.5833
0
LINE
8
BLACK
6
CONTINUOUS
10
30.7096
20
-40.5833
11
30.7096
21
-40.5833
0
LINE
8
BLACK
6
CONTINUOUS
10
30.7096
20
-40.5833
11
30.7322
21
-40.5703
0
LINE
8
BLACK
6
CONTINUOUS
10
30.7322
20
-40.5703
11
31.1207
21
-40.4289
0
LINE
8
BLACK
6
CONTINUOUS
10
31.1207
20
-40.4289
11
31.1304
21
-40.4272
0
LINE
8
BLACK
6
CONTINUOUS
10
31.1304
20
-40.4272
11
31.1398
21
-40.4246
0
LINE
8
BLACK
6
CONTINUOUS
10
31.1398
20
-40.4246
11
31.3433
21
-40.4068
0
LINE
8
BLACK
6
CONTINUOUS
10
31.3433
20
-40.4068
11
31.3466
21
-40.4062
0
LINE
8
BLACK
6
CONTINUOUS
10
31.3466
20
-40.4062
11
35.7155
21
-40.4062
0
LINE
8
BLACK
6
CONTINUOUS
10
35.7155
20
-40.4062
11
35.9091
21
-40.3893
0
LINE
8
BLACK
6
CONTINUOUS
10
35.9091
20
-40.3893
11
36.276
21
-40.2558
0
LINE
8
BLACK
6
CONTINUOUS
10
36.276
20
-40.2558
11
36.5725
21
-40.007
0
LINE
8
BLACK
6
CONTINUOUS
10
36.5725
20
-40.007
11
36.766
21
-39.6718
0
LINE
8
BLACK
6
CONTINUOUS
10
36.766
20
-39.6718
11
36.8344
21
-39.2841
0
LINE
8
BLACK
6
CONTINUOUS
10
36.8344
20
-39.2841
11
36.8344
21
-32.1502
0
LINE
8
BLACK
6
CONTINUOUS
10
36.8344
20
-32.1502
11
36.8174
21
-31.9565
0
LINE
8
BLACK
6
CONTINUOUS
10
36.8174
20
-31.9565
11
36.6839
21
-31.5896
0
LINE
8
BLACK
6
CONTINUOUS
10
36.6839
20
-31.5896
11
36.4351
21
-31.2931
0
LINE
8
BLACK
6
CONTINUOUS
10
36.4351
20
-31.2931
11
36.0999
21
-31.0996
0
LINE
8
BLACK
6
CONTINUOUS
10
36.0999
20
-31.0996
11
35.7122
21
-31.0312
0
LINE
8
BLACK
6
CONTINUOUS
10
35.7122
20
-31.0312
11
30.1559
21
-31.0312
0
LINE
8
BLACK
6
CONTINUOUS
10
30.1559
20
-31.0312
11
30.1559
21
-31.0312
0
LINE
8
BLACK
6
CONTINUOUS
10
30.1559
20
-31.0312
11
30.1493
21
-31.0312
0
LINE
8
BLACK
6
CONTINUOUS
10
30.1493
20
-31.0312
11
30.143
21
-31.029
0
LINE
8
BLACK
6
CONTINUOUS
10
30.143
20
-31.029
11
30.1365
21
-31.0278
0
LINE
8
BLACK
6
CONTINUOUS
10
30.1365
20
-31.0278
11
30.1307
21
-31.0245
0
LINE
8
BLACK
6
CONTINUOUS
10
30.1307
20
-31.0245
11
30.1244
21
-31.0222
0
LINE
8
BLACK
6
CONTINUOUS
10
30.1244
20
-31.0222
11
30.1193
21
-31.0179
0
LINE
8
BLACK
6
CONTINUOUS
10
30.1193
20
-31.0179
11
30.1135
21
-31.0146
0
LINE
8
BLACK
6
CONTINUOUS
10
30.1135
20
-31.0146
11
30.1093
21
-31.0095
0
LINE
8
BLACK
6
CONTINUOUS
10
30.1093
20
-31.0095
11
30.1042
21
-31.0052
0
LINE
8
BLACK
6
CONTINUOUS
10
30.1042
20
-31.0052
11
30.1008
21
-30.9994
0
LINE
8
BLACK
6
CONTINUOUS
10
30.1008
20
-30.9994
11
30.0965
21
-30.9943
0
LINE
8
BLACK
6
CONTINUOUS
10
30.0965
20
-30.9943
11
30.0943
21
-30.9881
0
LINE
8
BLACK
6
CONTINUOUS
10
30.0943
20
-30.9881
11
30.0909
21
-30.9823
0
LINE
8
BLACK
6
CONTINUOUS
10
30.0909
20
-30.9823
11
30.0898
21
-30.9757
0
LINE
8
BLACK
6
CONTINUOUS
10
30.0898
20
-30.9757
11
30.0875
21
-30.9695
0
LINE
8
BLACK
6
CONTINUOUS
10
30.0875
20
-30.9695
11
30.0875
21
-30.9628
0
LINE
8
BLACK
6
CONTINUOUS
10
30.0875
20
-30.9628
11
30.0875
21
-30.9628
0
LINE
8
BLACK
6
CONTINUOUS
10
30.0875
20
-30.9628
11
30.0875
21
-13.4872
0
LINE
8
BLACK
6
CONTINUOUS
10
30.0875
20
-13.4872
11
30.0875
21
-13.4805
0
LINE
8
BLACK
6
CONTINUOUS
10
30.0875
20
-13.4805
11
30.0898
21
-13.4743
0
LINE
8
BLACK
6
CONTINUOUS
10
30.0898
20
-13.4743
11
30.0909
21
-13.4677
0
LINE
8
BLACK
6
CONTINUOUS
10
30.0909
20
-13.4677
11
30.0943
21
-13.4619
0
LINE
8
BLACK
6
CONTINUOUS
10
30.0943
20
-13.4619
11
30.0965
21
-13.4557
0
LINE
8
BLACK
6
CONTINUOUS
10
30.0965
20
-13.4557
11
30.1008
21
-13.4506
0
LINE
8
BLACK
6
CONTINUOUS
10
30.1008
20
-13.4506
11
30.1042
21
-13.4448
0
LINE
8
BLACK
6
CONTINUOUS
10
30.1042
20
-13.4448
11
30.1093
21
-13.4405
0
LINE
8
BLACK
6
CONTINUOUS
10
30.1093
20
-13.4405
11
30.1135
21
-13.4354
0
LINE
8
BLACK
6
CONTINUOUS
10
30.1135
20
-13.4354
11
30.1193
21
-13.4321
0
LINE
8
BLACK
6
CONTINUOUS
10
30.1193
20
-13.4321
11
30.1244
21
-13.4278
0
LINE
8
BLACK
6
CONTINUOUS
10
30.1244
20
-13.4278
11
30.1307
21
-13.4255
0
LINE
8
BLACK
6
CONTINUOUS
10
30.1307
20
-13.4255
11
30.1365
21
-13.4222
0
LINE
8
BLACK
6
CONTINUOUS
10
30.1365
20
-13.4222
11
30.143
21
-13.421
0
LINE
8
BLACK
6
CONTINUOUS
10
30.143
20
-13.421
11
30.1493
21
-13.4188
0
LINE
8
BLACK
6
CONTINUOUS
10
30.1493
20
-13.4188
11
30.1559
21
-13.4188
0
LINE
8
BLACK
6
CONTINUOUS
10
30.1559
20
-13.4188
11
30.1559
21
-13.4187
0
LINE
8
BLACK
6
CONTINUOUS
10
30.1559
20
-13.4187
11
333.382
21
-13.4187
0
LINE
8
BLACK
6
CONTINUOUS
10
333.382
20
-13.4187
11
333.382
21
-13.4188
0
LINE
8
BLACK
6
CONTINUOUS
10
30.2375
20
-13.5687
11
30.2375
21
-30.8812
0
LINE
8
BLACK
6
CONTINUOUS
10
30.2375
20
-30.8812
11
35.7253
21
-30.8812
0
LINE
8
BLACK
6
CONTINUOUS
10
35.7253
20
-30.8812
11
35.7318
21
-30.8824
0
LINE
8
BLACK
6
CONTINUOUS
10
35.7318
20
-30.8824
11
35.7318
21
-30.8824
0
LINE
8
BLACK
6
CONTINUOUS
10
35.7318
20
-30.8824
11
36.139
21
-30.9542
0
LINE
8
BLACK
6
CONTINUOUS
10
36.139
20
-30.9542
11
36.1635
21
-30.9631
0
LINE
8
BLACK
6
CONTINUOUS
10
36.1635
20
-30.9631
11
36.1635
21
-30.9631
0
LINE
8
BLACK
6
CONTINUOUS
10
36.1635
20
-30.9631
11
36.5216
21
-31.1699
0
LINE
8
BLACK
6
CONTINUOUS
10
36.5216
20
-31.1699
11
36.5415
21
-31.1866
0
LINE
8
BLACK
6
CONTINUOUS
10
36.5415
20
-31.1866
11
36.5415
21
-31.1866
0
LINE
8
BLACK
6
CONTINUOUS
10
36.5415
20
-31.1866
11
36.8073
21
-31.5033
0
LINE
8
BLACK
6
CONTINUOUS
10
36.8073
20
-31.5033
11
36.8073
21
-31.5034
0
LINE
8
BLACK
6
CONTINUOUS
10
36.8073
20
-31.5034
11
36.8203
21
-31.5259
0
LINE
8
BLACK
6
CONTINUOUS
10
36.8203
20
-31.5259
11
36.9618
21
-31.9145
0
LINE
8
BLACK
6
CONTINUOUS
10
36.9618
20
-31.9145
11
36.9635
21
-31.9241
0
LINE
8
BLACK
6
CONTINUOUS
10
36.9635
20
-31.9241
11
36.966
21
-31.9336
0
LINE
8
BLACK
6
CONTINUOUS
10
36.966
20
-31.9336
11
36.9838
21
-32.1371
0
LINE
8
BLACK
6
CONTINUOUS
10
36.9838
20
-32.1371
11
36.9844
21
-32.1403
0
LINE
8
BLACK
6
CONTINUOUS
10
36.9844
20
-32.1403
11
36.9844
21
-39.2972
0
LINE
8
BLACK
6
CONTINUOUS
10
36.9844
20
-39.2972
11
36.9832
21
-39.3036
0
LINE
8
BLACK
6
CONTINUOUS
10
36.9832
20
-39.3036
11
36.9832
21
-39.3036
0
LINE
8
BLACK
6
CONTINUOUS
10
36.9832
20
-39.3036
11
36.9114
21
-39.7109
0
LINE
8
BLACK
6
CONTINUOUS
10
36.9114
20
-39.7109
11
36.9025
21
-39.7353
0
LINE
8
BLACK
6
CONTINUOUS
10
36.9025
20
-39.7353
11
36.6958
21
-40.0934
0
LINE
8
BLACK
6
CONTINUOUS
10
36.6958
20
-40.0934
11
36.679
21
-40.1134
0
LINE
8
BLACK
6
CONTINUOUS
10
36.679
20
-40.1134
11
36.3623
21
-40.3792
0
LINE
8
BLACK
6
CONTINUOUS
10
36.3623
20
-40.3792
11
36.3397
21
-40.3922
0
LINE
8
BLACK
6
CONTINUOUS
10
36.3397
20
-40.3922
11
35.9512
21
-40.5336
0
LINE
8
BLACK
6
CONTINUOUS
10
35.9512
20
-40.5336
11
35.9415
21
-40.5353
0
LINE
8
BLACK
6
CONTINUOUS
10
35.9415
20
-40.5353
11
35.932
21
-40.5379
0
LINE
8
BLACK
6
CONTINUOUS
10
35.932
20
-40.5379
11
35.7285
21
-40.5557
0
LINE
8
BLACK
6
CONTINUOUS
10
35.7285
20
-40.5557
11
35.7253
21
-40.5562
0
LINE
8
BLACK
6
CONTINUOUS
10
35.7253
20
-40.5562
11
31.3564
21
-40.5562
0
LINE
8
BLACK
6
CONTINUOUS
10
31.3564
20
-40.5562
11
31.1627
21
-40.5732
0
LINE
8
BLACK
6
CONTINUOUS
10
31.1627
20
-40.5732
11
30.7959
21
-40.7067
0
LINE
8
BLACK
6
CONTINUOUS
10
30.7959
20
-40.7067
11
30.4994
21
-40.9555
0
LINE
8
BLACK
6
CONTINUOUS
10
30.4994
20
-40.9555
11
30.3059
21
-41.2907
0
LINE
8
BLACK
6
CONTINUOUS
10
30.3059
20
-41.2907
11
30.2375
21
-41.6784
0
LINE
8
BLACK
6
CONTINUOUS
10
30.2375
20
-41.6784
11
30.2375
21
-124.219
0
LINE
8
BLACK
6
CONTINUOUS
10
30.2375
20
-124.219
11
30.2544
21
-124.412
0
LINE
8
BLACK
6
CONTINUOUS
10
30.2544
20
-124.412
11
30.388
21
-124.779
0
LINE
8
BLACK
6
CONTINUOUS
10
30.388
20
-124.779
11
30.6368
21
-125.076
0
LINE
8
BLACK
6
CONTINUOUS
10
30.6368
20
-125.076
11
30.972
21
-125.269
0
LINE
8
BLACK
6
CONTINUOUS
10
30.972
20
-125.269
11
31.3597
21
-125.337
0
LINE
8
BLACK
6
CONTINUOUS
10
31.3597
20
-125.337
11
35.7253
21
-125.337
0
LINE
8
BLACK
6
CONTINUOUS
10
35.7253
20
-125.337
11
35.7318
21
-125.339
0
LINE
8
BLACK
6
CONTINUOUS
10
35.7318
20
-125.339
11
35.7318
21
-125.339
0
LINE
8
BLACK
6
CONTINUOUS
10
35.7318
20
-125.339
11
36.139
21
-125.41
0
LINE
8
BLACK
6
CONTINUOUS
10
36.139
20
-125.41
11
36.1635
21
-125.419
0
LINE
8
BLACK
6
CONTINUOUS
10
36.1635
20
-125.419
11
36.1635
21
-125.419
0
LINE
8
BLACK
6
CONTINUOUS
10
36.1635
20
-125.419
11
36.5216
21
-125.626
0
LINE
8
BLACK
6
CONTINUOUS
10
36.5216
20
-125.626
11
36.5415
21
-125.643
0
LINE
8
BLACK
6
CONTINUOUS
10
36.5415
20
-125.643
11
36.5415
21
-125.643
0
LINE
8
BLACK
6
CONTINUOUS
10
36.5415
20
-125.643
11
36.8073
21
-125.96
0
LINE
8
BLACK
6
CONTINUOUS
10
36.8073
20
-125.96
11
36.8073
21
-125.96
0
LINE
8
BLACK
6
CONTINUOUS
10
36.8073
20
-125.96
11
36.8203
21
-125.982
0
LINE
8
BLACK
6
CONTINUOUS
10
36.8203
20
-125.982
11
36.9618
21
-126.371
0
LINE
8
BLACK
6
CONTINUOUS
10
36.9618
20
-126.371
11
36.9635
21
-126.38
0
LINE
8
BLACK
6
CONTINUOUS
10
36.9635
20
-126.38
11
36.966
21
-126.39
0
LINE
8
BLACK
6
CONTINUOUS
10
36.966
20
-126.39
11
36.9838
21
-126.593
0
LINE
8
BLACK
6
CONTINUOUS
10
36.9838
20
-126.593
11
36.9844
21
-126.597
0
LINE
8
BLACK
6
CONTINUOUS
10
36.9844
20
-126.597
11
36.9844
21
-133.357
0
LINE
8
BLACK
6
CONTINUOUS
10
36.9844
20
-133.357
11
36.9834
21
-133.362
0
LINE
8
BLACK
6
CONTINUOUS
10
36.9834
20
-133.362
11
36.9058
21
-133.852
0
LINE
8
BLACK
6
CONTINUOUS
10
36.9058
20
-133.852
11
36.9021
21
-133.863
0
LINE
8
BLACK
6
CONTINUOUS
10
36.9021
20
-133.863
11
36.8985
21
-133.875
0
LINE
8
BLACK
6
CONTINUOUS
10
36.8985
20
-133.875
11
36.673
21
-134.317
0
LINE
8
BLACK
6
CONTINUOUS
10
36.673
20
-134.317
11
36.6592
21
-134.336
0
LINE
8
BLACK
6
CONTINUOUS
10
36.6592
20
-134.336
11
36.308
21
-134.687
0
LINE
8
BLACK
6
CONTINUOUS
10
36.308
20
-134.687
11
36.289
21
-134.701
0
LINE
8
BLACK
6
CONTINUOUS
10
36.289
20
-134.701
11
35.8465
21
-134.927
0
LINE
8
BLACK
6
CONTINUOUS
10
35.8465
20
-134.927
11
35.8242
21
-134.934
0
LINE
8
BLACK
6
CONTINUOUS
10
35.8242
20
-134.934
11
35.3342
21
-135.011
0
LINE
8
BLACK
6
CONTINUOUS
10
35.3342
20
-135.011
11
35.3284
21
-135.012
0
LINE
8
BLACK
6
CONTINUOUS
10
35.3284
20
-135.012
11
30.2625
21
-135.012
0
LINE
8
BLACK
6
CONTINUOUS
10
30.2625
20
-135.012
11
30.2625
21
-158.65
0
LINE
8
BLACK
6
CONTINUOUS
10
30.2625
20
-158.65
11
333.275
21
-158.65
0
LINE
8
BLACK
6
CONTINUOUS
10
333.275
20
-158.65
11
333.275
21
-135.012
0
LINE
8
BLACK
6
CONTINUOUS
10
333.275
20
-135.012
11
328.209
21
-135.012
0
LINE
8
BLACK
6
CONTINUOUS
10
328.209
20
-135.012
11
328.203
21
-135.011
0
LINE
8
BLACK
6
CONTINUOUS
10
328.203
20
-135.011
11
327.713
21
-134.934
0
LINE
8
BLACK
6
CONTINUOUS
10
327.713
20
-134.934
11
327.702
21
-134.93
0
LINE
8
BLACK
6
CONTINUOUS
10
327.702
20
-134.93
11
327.691
21
-134.927
0
LINE
8
BLACK
6
CONTINUOUS
10
327.691
20
-134.927
11
327.248
21
-134.701
0
LINE
8
BLACK
6
CONTINUOUS
10
327.248
20
-134.701
11
327.229
21
-134.687
0
LINE
8
BLACK
6
CONTINUOUS
10
327.229
20
-134.687
11
326.878
21
-134.336
0
LINE
8
BLACK
6
CONTINUOUS
10
326.878
20
-134.336
11
326.864
21
-134.317
0
LINE
8
BLACK
6
CONTINUOUS
10
326.864
20
-134.317
11
326.639
21
-133.875
0
LINE
8
BLACK
6
CONTINUOUS
10
326.639
20
-133.875
11
326.632
21
-133.852
0
LINE
8
BLACK
6
CONTINUOUS
10
326.632
20
-133.852
11
326.554
21
-133.362
0
LINE
8
BLACK
6
CONTINUOUS
10
326.554
20
-133.362
11
326.553
21
-133.357
0
LINE
8
BLACK
6
CONTINUOUS
10
326.553
20
-133.357
11
326.553
21
-126.597
0
LINE
8
BLACK
6
CONTINUOUS
10
326.553
20
-126.597
11
326.554
21
-126.59
0
LINE
8
BLACK
6
CONTINUOUS
10
326.554
20
-126.59
11
326.554
21
-126.59
0
LINE
8
BLACK
6
CONTINUOUS
10
326.554
20
-126.59
11
326.626
21
-126.183
0
LINE
8
BLACK
6
CONTINUOUS
10
326.626
20
-126.183
11
326.635
21
-126.158
0
LINE
8
BLACK
6
CONTINUOUS
10
326.635
20
-126.158
11
326.635
21
-126.158
0
LINE
8
BLACK
6
CONTINUOUS
10
326.635
20
-126.158
11
326.842
21
-125.8
0
LINE
8
BLACK
6
CONTINUOUS
10
326.842
20
-125.8
11
326.858
21
-125.78
0
LINE
8
BLACK
6
CONTINUOUS
10
326.858
20
-125.78
11
326.858
21
-125.78
0
LINE
8
BLACK
6
CONTINUOUS
10
326.858
20
-125.78
11
327.175
21
-125.515
0
LINE
8
BLACK
6
CONTINUOUS
10
327.175
20
-125.515
11
327.175
21
-125.515
0
LINE
8
BLACK
6
CONTINUOUS
10
327.175
20
-125.515
11
327.198
21
-125.502
0
LINE
8
BLACK
6
CONTINUOUS
10
327.198
20
-125.502
11
327.586
21
-125.36
0
LINE
8
BLACK
6
CONTINUOUS
10
327.586
20
-125.36
11
327.596
21
-125.358
0
LINE
8
BLACK
6
CONTINUOUS
10
327.596
20
-125.358
11
327.605
21
-125.356
0
LINE
8
BLACK
6
CONTINUOUS
10
327.605
20
-125.356
11
327.809
21
-125.338
0
LINE
8
BLACK
6
CONTINUOUS
10
327.809
20
-125.338
11
327.812
21
-125.337
0
LINE
8
BLACK
6
CONTINUOUS
10
327.812
20
-125.337
11
332.181
21
-125.337
0
LINE
8
BLACK
6
CONTINUOUS
10
332.181
20
-125.337
11
332.375
21
-125.321
0
LINE
8
BLACK
6
CONTINUOUS
10
332.375
20
-125.321
11
332.742
21
-125.187
0
LINE
8
BLACK
6
CONTINUOUS
10
332.742
20
-125.187
11
333.038
21
-124.938
0
LINE
8
BLACK
6
CONTINUOUS
10
333.038
20
-124.938
11
333.232
21
-124.603
0
LINE
8
BLACK
6
CONTINUOUS
10
333.232
20
-124.603
11
333.3
21
-124.215
0
LINE
8
BLACK
6
CONTINUOUS
10
333.3
20
-124.215
11
333.3
21
-41.6752
0
LINE
8
BLACK
6
CONTINUOUS
10
333.3
20
-41.6752
11
333.283
21
-41.4815
0
LINE
8
BLACK
6
CONTINUOUS
10
333.283
20
-41.4815
11
333.15
21
-41.1146
0
LINE
8
BLACK
6
CONTINUOUS
10
333.15
20
-41.1146
11
332.901
21
-40.8181
0
LINE
8
BLACK
6
CONTINUOUS
10
332.901
20
-40.8181
11
332.566
21
-40.6246
0
LINE
8
BLACK
6
CONTINUOUS
10
332.566
20
-40.6246
11
332.178
21
-40.5562
0
LINE
8
BLACK
6
CONTINUOUS
10
332.178
20
-40.5562
11
327.812
21
-40.5562
0
LINE
8
BLACK
6
CONTINUOUS
10
327.812
20
-40.5562
11
327.806
21
-40.5551
0
LINE
8
BLACK
6
CONTINUOUS
10
327.806
20
-40.5551
11
327.806
21
-40.5551
0
LINE
8
BLACK
6
CONTINUOUS
10
327.806
20
-40.5551
11
327.399
21
-40.4833
0
LINE
8
BLACK
6
CONTINUOUS
10
327.399
20
-40.4833
11
327.374
21
-40.4744
0
LINE
8
BLACK
6
CONTINUOUS
10
327.374
20
-40.4744
11
327.016
21
-40.2676
0
LINE
8
BLACK
6
CONTINUOUS
10
327.016
20
-40.2676
11
326.996
21
-40.2509
0
LINE
8
BLACK
6
CONTINUOUS
10
326.996
20
-40.2509
11
326.73
21
-39.9341
0
LINE
8
BLACK
6
CONTINUOUS
10
326.73
20
-39.9341
11
326.717
21
-39.9116
0
LINE
8
BLACK
6
CONTINUOUS
10
326.717
20
-39.9116
11
326.576
21
-39.523
0
LINE
8
BLACK
6
CONTINUOUS
10
326.576
20
-39.523
11
326.574
21
-39.5134
0
LINE
8
BLACK
6
CONTINUOUS
10
326.574
20
-39.5134
11
326.571
21
-39.5039
0
LINE
8
BLACK
6
CONTINUOUS
10
326.571
20
-39.5039
11
326.554
21
-39.3004
0
LINE
8
BLACK
6
CONTINUOUS
10
326.554
20
-39.3004
11
326.553
21
-39.2972
0
LINE
8
BLACK
6
CONTINUOUS
10
326.553
20
-39.2972
11
326.553
21
-32.1403
0
LINE
8
BLACK
6
CONTINUOUS
10
326.553
20
-32.1403
11
326.554
21
-32.1339
0
LINE
8
BLACK
6
CONTINUOUS
10
326.554
20
-32.1339
11
326.554
21
-32.1339
0
LINE
8
BLACK
6
CONTINUOUS
10
326.554
20
-32.1339
11
326.626
21
-31.7266
0
LINE
8
BLACK
6
CONTINUOUS
10
326.626
20
-31.7266
11
326.635
21
-31.7022
0
LINE
8
BLACK
6
CONTINUOUS
10
326.635
20
-31.7022
11
326.635
21
-31.7022
0
LINE
8
BLACK
6
CONTINUOUS
10
326.635
20
-31.7022
11
326.842
21
-31.3441
0
LINE
8
BLACK
6
CONTINUOUS
10
326.842
20
-31.3441
11
326.858
21
-31.3241
0
LINE
8
BLACK
6
CONTINUOUS
10
326.858
20
-31.3241
11
326.858
21
-31.3241
0
LINE
8
BLACK
6
CONTINUOUS
10
326.858
20
-31.3241
11
327.175
21
-31.0583
0
LINE
8
BLACK
6
CONTINUOUS
10
327.175
20
-31.0583
11
327.175
21
-31.0583
0
LINE
8
BLACK
6
CONTINUOUS
10
327.175
20
-31.0583
11
327.198
21
-31.0453
0
LINE
8
BLACK
6
CONTINUOUS
10
327.198
20
-31.0453
11
327.586
21
-30.9039
0
LINE
8
BLACK
6
CONTINUOUS
10
327.586
20
-30.9039
11
327.596
21
-30.9022
0
LINE
8
BLACK
6
CONTINUOUS
10
327.596
20
-30.9022
11
327.605
21
-30.8996
0
LINE
8
BLACK
6
CONTINUOUS
10
327.605
20
-30.8996
11
327.809
21
-30.8818
0
LINE
8
BLACK
6
CONTINUOUS
10
327.809
20
-30.8818
11
327.812
21
-30.8812
0
LINE
8
BLACK
6
CONTINUOUS
10
327.812
20
-30.8812
11
333.3
21
-30.8812
0
LINE
8
BLACK
6
CONTINUOUS
10
333.3
20
-30.8812
11
333.3
21
-13.5687
0
LINE
8
BLACK
6
CONTINUOUS
10
333.3
20
-13.5687
11
30.2375
21
-13.5687
0
LINE
8
BLACK
6
CONTINUOUS
10
200.101
20
-101.607
11
200.098
21
-101.616
0
LINE
8
BLACK
6
CONTINUOUS
10
200.098
20
-101.616
11
200.097
21
-101.626
0
LINE
8
BLACK
6
CONTINUOUS
10
200.097
20
-101.626
11
200.095
21
-101.629
0
LINE
8
BLACK
6
CONTINUOUS
10
200.095
20
-101.629
11
200.094
21
-101.632
0
LINE
8
BLACK
6
CONTINUOUS
10
200.094
20
-101.632
11
200.088
21
-101.64
0
LINE
8
BLACK
6
CONTINUOUS
10
200.088
20
-101.64
11
200.083
21
-101.649
0
LINE
8
BLACK
6
CONTINUOUS
10
200.083
20
-101.649
11
200.076
21
-101.655
0
LINE
8
BLACK
6
CONTINUOUS
10
200.076
20
-101.655
11
194.544
21
-107.187
0
LINE
8
BLACK
6
CONTINUOUS
10
194.544
20
-107.187
11
194.544
21
-112.706
0
LINE
8
BLACK
6
CONTINUOUS
10
194.544
20
-112.706
11
194.545
21
-112.712
0
LINE
8
BLACK
6
CONTINUOUS
10
194.545
20
-112.712
11
194.544
21
-112.719
0
LINE
8
BLACK
6
CONTINUOUS
10
194.544
20
-112.719
11
194.544
21
-112.719
0
LINE
8
BLACK
6
CONTINUOUS
10
194.544
20
-112.719
11
194.543
21
-112.725
0
LINE
8
BLACK
6
CONTINUOUS
10
194.543
20
-112.725
11
194.54
21
-112.738
0
LINE
8
BLACK
6
CONTINUOUS
10
194.54
20
-112.738
11
194.54
21
-112.739
0
LINE
8
BLACK
6
CONTINUOUS
10
194.54
20
-112.739
11
194.54
21
-112.739
0
LINE
8
BLACK
6
CONTINUOUS
10
194.54
20
-112.739
11
194.534
21
-112.75
0
LINE
8
BLACK
6
CONTINUOUS
10
194.534
20
-112.75
11
194.527
21
-112.761
0
LINE
8
BLACK
6
CONTINUOUS
10
194.527
20
-112.761
11
194.527
21
-112.761
0
LINE
8
BLACK
6
CONTINUOUS
10
194.527
20
-112.761
11
194.527
21
-112.761
0
LINE
8
BLACK
6
CONTINUOUS
10
194.527
20
-112.761
11
194.517
21
-112.77
0
LINE
8
BLACK
6
CONTINUOUS
10
194.517
20
-112.77
11
194.512
21
-112.774
0
LINE
8
BLACK
6
CONTINUOUS
10
194.512
20
-112.774
11
194.512
21
-112.774
0
LINE
8
BLACK
6
CONTINUOUS
10
194.512
20
-112.774
11
194.507
21
-112.778
0
LINE
8
BLACK
6
CONTINUOUS
10
194.507
20
-112.778
11
194.501
21
-112.781
0
LINE
8
BLACK
6
CONTINUOUS
10
194.501
20
-112.781
11
184.652
21
-118.483
0
LINE
8
BLACK
6
CONTINUOUS
10
184.652
20
-118.483
11
184.647
21
-118.485
0
LINE
8
BLACK
6
CONTINUOUS
10
184.647
20
-118.485
11
184.455
21
-118.621
0
LINE
8
BLACK
6
CONTINUOUS
10
184.455
20
-118.621
11
184.213
21
-118.93
0
LINE
8
BLACK
6
CONTINUOUS
10
184.213
20
-118.93
11
184.093
21
-119.3
0
LINE
8
BLACK
6
CONTINUOUS
10
184.093
20
-119.3
11
184.107
21
-119.69
0
LINE
8
BLACK
6
CONTINUOUS
10
184.107
20
-119.69
11
184.256
21
-120.058
0
LINE
8
BLACK
6
CONTINUOUS
10
184.256
20
-120.058
11
197.325
21
-142.653
0
LINE
8
BLACK
6
CONTINUOUS
10
197.325
20
-142.653
11
197.33
21
-142.669
0
LINE
8
BLACK
6
CONTINUOUS
10
197.33
20
-142.669
11
197.369
21
-142.728
0
LINE
8
BLACK
6
CONTINUOUS
10
197.369
20
-142.728
11
197.648
21
-143.005
0
LINE
8
BLACK
6
CONTINUOUS
10
197.648
20
-143.005
11
198
21
-143.167
0
LINE
8
BLACK
6
CONTINUOUS
10
198
20
-143.167
11
198.386
21
-143.2
0
LINE
8
BLACK
6
CONTINUOUS
10
198.386
20
-143.2
11
198.764
21
-143.097
0
LINE
8
BLACK
6
CONTINUOUS
10
198.764
20
-143.097
11
226.584
21
-127.068
0
LINE
8
BLACK
6
CONTINUOUS
10
226.584
20
-127.068
11
226.585
21
-127.067
0
LINE
8
BLACK
6
CONTINUOUS
10
226.585
20
-127.067
11
226.595
21
-127.061
0
LINE
8
BLACK
6
CONTINUOUS
10
226.595
20
-127.061
11
226.6
21
-127.059
0
LINE
8
BLACK
6
CONTINUOUS
10
226.6
20
-127.059
11
226.601
21
-127.058
0
LINE
8
BLACK
6
CONTINUOUS
10
226.601
20
-127.058
11
226.602
21
-127.058
0
LINE
8
BLACK
6
CONTINUOUS
10
226.602
20
-127.058
11
226.607
21
-127.056
0
LINE
8
BLACK
6
CONTINUOUS
10
226.607
20
-127.056
11
226.618
21
-127.052
0
LINE
8
BLACK
6
CONTINUOUS
10
226.618
20
-127.052
11
226.62
21
-127.052
0
LINE
8
BLACK
6
CONTINUOUS
10
226.62
20
-127.052
11
236.761
21
-123.756
0
LINE
8
BLACK
6
CONTINUOUS
10
236.761
20
-123.756
11
236.765
21
-123.753
0
LINE
8
BLACK
6
CONTINUOUS
10
236.765
20
-123.753
11
236.773
21
-123.752
0
LINE
8
BLACK
6
CONTINUOUS
10
236.773
20
-123.752
11
236.775
21
-123.752
0
LINE
8
BLACK
6
CONTINUOUS
10
236.775
20
-123.752
11
236.78
21
-123.751
0
LINE
8
BLACK
6
CONTINUOUS
10
236.78
20
-123.751
11
236.785
21
-123.75
0
LINE
8
BLACK
6
CONTINUOUS
10
236.785
20
-123.75
11
236.786
21
-123.75
0
LINE
8
BLACK
6
CONTINUOUS
10
236.786
20
-123.75
11
236.794
21
-123.749
0
LINE
8
BLACK
6
CONTINUOUS
10
236.794
20
-123.749
11
236.799
21
-123.75
0
LINE
8
BLACK
6
CONTINUOUS
10
236.799
20
-123.75
11
243.688
21
-123.75
0
LINE
8
BLACK
6
CONTINUOUS
10
243.688
20
-123.75
11
243.694
21
-123.751
0
LINE
8
BLACK
6
CONTINUOUS
10
243.694
20
-123.751
11
243.694
21
-123.751
0
LINE
8
BLACK
6
CONTINUOUS
10
243.694
20
-123.751
11
244.101
21
-123.823
0
LINE
8
BLACK
6
CONTINUOUS
10
244.101
20
-123.823
11
244.126
21
-123.832
0
LINE
8
BLACK
6
CONTINUOUS
10
244.126
20
-123.832
11
244.126
21
-123.832
0
LINE
8
BLACK
6
CONTINUOUS
10
244.126
20
-123.832
11
244.484
21
-124.039
0
LINE
8
BLACK
6
CONTINUOUS
10
244.484
20
-124.039
11
244.504
21
-124.055
0
LINE
8
BLACK
6
CONTINUOUS
10
244.504
20
-124.055
11
244.504
21
-124.055
0
LINE
8
BLACK
6
CONTINUOUS
10
244.504
20
-124.055
11
244.77
21
-124.372
0
LINE
8
BLACK
6
CONTINUOUS
10
244.77
20
-124.372
11
244.77
21
-124.372
0
LINE
8
BLACK
6
CONTINUOUS
10
244.77
20
-124.372
11
244.783
21
-124.395
0
LINE
8
BLACK
6
CONTINUOUS
10
244.783
20
-124.395
11
244.924
21
-124.783
0
LINE
8
BLACK
6
CONTINUOUS
10
244.924
20
-124.783
11
244.926
21
-124.793
0
LINE
8
BLACK
6
CONTINUOUS
10
244.926
20
-124.793
11
244.929
21
-124.802
0
LINE
8
BLACK
6
CONTINUOUS
10
244.929
20
-124.802
11
244.946
21
-125.006
0
LINE
8
BLACK
6
CONTINUOUS
10
244.946
20
-125.006
11
244.947
21
-125.009
0
LINE
8
BLACK
6
CONTINUOUS
10
244.947
20
-125.009
11
244.947
21
-127.403
0
LINE
8
BLACK
6
CONTINUOUS
10
244.947
20
-127.403
11
244.946
21
-127.409
0
LINE
8
BLACK
6
CONTINUOUS
10
244.946
20
-127.409
11
244.868
21
-127.899
0
LINE
8
BLACK
6
CONTINUOUS
10
244.868
20
-127.899
11
244.865
21
-127.91
0
LINE
8
BLACK
6
CONTINUOUS
10
244.865
20
-127.91
11
244.861
21
-127.921
0
LINE
8
BLACK
6
CONTINUOUS
10
244.861
20
-127.921
11
244.636
21
-128.364
0
LINE
8
BLACK
6
CONTINUOUS
10
244.636
20
-128.364
11
244.622
21
-128.383
0
LINE
8
BLACK
6
CONTINUOUS
10
244.622
20
-128.383
11
244.271
21
-128.734
0
LINE
8
BLACK
6
CONTINUOUS
10
244.271
20
-128.734
11
244.252
21
-128.748
0
LINE
8
BLACK
6
CONTINUOUS
10
244.252
20
-128.748
11
243.809
21
-128.974
0
LINE
8
BLACK
6
CONTINUOUS
10
243.809
20
-128.974
11
243.787
21
-128.981
0
LINE
8
BLACK
6
CONTINUOUS
10
243.787
20
-128.981
11
243.297
21
-129.058
0
LINE
8
BLACK
6
CONTINUOUS
10
243.297
20
-129.058
11
243.291
21
-129.059
0
LINE
8
BLACK
6
CONTINUOUS
10
243.291
20
-129.059
11
229.794
21
-129.059
0
LINE
8
BLACK
6
CONTINUOUS
10
229.794
20
-129.059
11
229.6
21
-129.076
0
LINE
8
BLACK
6
CONTINUOUS
10
229.6
20
-129.076
11
229.233
21
-129.21
0
LINE
8
BLACK
6
CONTINUOUS
10
229.233
20
-129.21
11
228.937
21
-129.459
0
LINE
8
BLACK
6
CONTINUOUS
10
228.937
20
-129.459
11
228.743
21
-129.794
0
LINE
8
BLACK
6
CONTINUOUS
10
228.743
20
-129.794
11
228.675
21
-130.182
0
LINE
8
BLACK
6
CONTINUOUS
10
228.675
20
-130.182
11
228.675
21
-144.866
0
LINE
8
BLACK
6
CONTINUOUS
10
228.675
20
-144.866
11
228.674
21
-144.872
0
LINE
8
BLACK
6
CONTINUOUS
10
228.674
20
-144.872
11
228.674
21
-144.872
0
LINE
8
BLACK
6
CONTINUOUS
10
228.674
20
-144.872
11
228.602
21
-145.28
0
LINE
8
BLACK
6
CONTINUOUS
10
228.602
20
-145.28
11
228.593
21
-145.304
0
LINE
8
BLACK
6
CONTINUOUS
10
228.593
20
-145.304
11
228.386
21
-145.662
0
LINE
8
BLACK
6
CONTINUOUS
10
228.386
20
-145.662
11
228.37
21
-145.682
0
LINE
8
BLACK
6
CONTINUOUS
10
228.37
20
-145.682
11
228.053
21
-145.948
0
LINE
8
BLACK
6
CONTINUOUS
10
228.053
20
-145.948
11
228.03
21
-145.961
0
LINE
8
BLACK
6
CONTINUOUS
10
228.03
20
-145.961
11
227.642
21
-146.102
0
LINE
8
BLACK
6
CONTINUOUS
10
227.642
20
-146.102
11
227.632
21
-146.104
0
LINE
8
BLACK
6
CONTINUOUS
10
227.632
20
-146.104
11
227.623
21
-146.107
0
LINE
8
BLACK
6
CONTINUOUS
10
227.623
20
-146.107
11
227.419
21
-146.124
0
LINE
8
BLACK
6
CONTINUOUS
10
227.419
20
-146.124
11
227.416
21
-146.125
0
LINE
8
BLACK
6
CONTINUOUS
10
227.416
20
-146.125
11
136.122
21
-146.125
0
LINE
8
BLACK
6
CONTINUOUS
10
136.122
20
-146.125
11
136.115
21
-146.124
0
LINE
8
BLACK
6
CONTINUOUS
10
136.115
20
-146.124
11
136.115
21
-146.124
0
LINE
8
BLACK
6
CONTINUOUS
10
136.115
20
-146.124
11
135.708
21
-146.052
0
LINE
8
BLACK
6
CONTINUOUS
10
135.708
20
-146.052
11
135.683
21
-146.043
0
LINE
8
BLACK
6
CONTINUOUS
10
135.683
20
-146.043
11
135.325
21
-145.836
0
LINE
8
BLACK
6
CONTINUOUS
10
135.325
20
-145.836
11
135.305
21
-145.82
0
LINE
8
BLACK
6
CONTINUOUS
10
135.305
20
-145.82
11
135.04
21
-145.503
0
LINE
8
BLACK
6
CONTINUOUS
10
135.04
20
-145.503
11
135.027
21
-145.48
0
LINE
8
BLACK
6
CONTINUOUS
10
135.027
20
-145.48
11
134.885
21
-145.092
0
LINE
8
BLACK
6
CONTINUOUS
10
134.885
20
-145.092
11
134.883
21
-145.082
0
LINE
8
BLACK
6
CONTINUOUS
10
134.883
20
-145.082
11
134.881
21
-145.073
0
LINE
8
BLACK
6
CONTINUOUS
10
134.881
20
-145.073
11
134.863
21
-144.869
0
LINE
8
BLACK
6
CONTINUOUS
10
134.863
20
-144.869
11
134.863
21
-144.866
0
LINE
8
BLACK
6
CONTINUOUS
10
134.863
20
-144.866
11
134.862
21
-130.178
0
LINE
8
BLACK
6
CONTINUOUS
10
134.862
20
-130.178
11
134.846
21
-129.985
0
LINE
8
BLACK
6
CONTINUOUS
10
134.846
20
-129.985
11
134.712
21
-129.618
0
LINE
8
BLACK
6
CONTINUOUS
10
134.712
20
-129.618
11
134.463
21
-129.321
0
LINE
8
BLACK
6
CONTINUOUS
10
134.463
20
-129.321
11
134.128
21
-129.128
0
LINE
8
BLACK
6
CONTINUOUS
10
134.128
20
-129.128
11
133.74
21
-129.059
0
LINE
8
BLACK
6
CONTINUOUS
10
133.74
20
-129.059
11
120.247
21
-129.059
0
LINE
8
BLACK
6
CONTINUOUS
10
120.247
20
-129.059
11
120.241
21
-129.058
0
LINE
8
BLACK
6
CONTINUOUS
10
120.241
20
-129.058
11
119.751
21
-128.981
0
LINE
8
BLACK
6
CONTINUOUS
10
119.751
20
-128.981
11
119.74
21
-128.977
0
LINE
8
BLACK
6
CONTINUOUS
10
119.74
20
-128.977
11
119.729
21
-128.974
0
LINE
8
BLACK
6
CONTINUOUS
10
119.729
20
-128.974
11
119.286
21
-128.748
0
LINE
8
BLACK
6
CONTINUOUS
10
119.286
20
-128.748
11
119.267
21
-128.734
0
LINE
8
BLACK
6
CONTINUOUS
10
119.267
20
-128.734
11
118.916
21
-128.383
0
LINE
8
BLACK
6
CONTINUOUS
10
118.916
20
-128.383
11
118.902
21
-128.364
0
LINE
8
BLACK
6
CONTINUOUS
10
118.902
20
-128.364
11
118.676
21
-127.921
0
LINE
8
BLACK
6
CONTINUOUS
10
118.676
20
-127.921
11
118.669
21
-127.899
0
LINE
8
BLACK
6
CONTINUOUS
10
118.669
20
-127.899
11
118.592
21
-127.409
0
LINE
8
BLACK
6
CONTINUOUS
10
118.592
20
-127.409
11
118.591
21
-127.403
0
LINE
8
BLACK
6
CONTINUOUS
10
118.591
20
-127.403
11
118.591
21
-125.009
0
LINE
8
BLACK
6
CONTINUOUS
10
118.591
20
-125.009
11
118.592
21
-125.003
0
LINE
8
BLACK
6
CONTINUOUS
10
118.592
20
-125.003
11
118.592
21
-125.003
0
LINE
8
BLACK
6
CONTINUOUS
10
118.592
20
-125.003
11
118.664
21
-124.595
0
LINE
8
BLACK
6
CONTINUOUS
10
118.664
20
-124.595
11
118.672
21
-124.571
0
LINE
8
BLACK
6
CONTINUOUS
10
118.672
20
-124.571
11
118.672
21
-124.571
0
LINE
8
BLACK
6
CONTINUOUS
10
118.672
20
-124.571
11
118.879
21
-124.213
0
LINE
8
BLACK
6
CONTINUOUS
10
118.879
20
-124.213
11
118.896
21
-124.193
0
LINE
8
BLACK
6
CONTINUOUS
10
118.896
20
-124.193
11
118.896
21
-124.193
0
LINE
8
BLACK
6
CONTINUOUS
10
118.896
20
-124.193
11
119.213
21
-123.927
0
LINE
8
BLACK
6
CONTINUOUS
10
119.213
20
-123.927
11
119.213
21
-123.927
0
LINE
8
BLACK
6
CONTINUOUS
10
119.213
20
-123.927
11
119.235
21
-123.914
0
LINE
8
BLACK
6
CONTINUOUS
10
119.235
20
-123.914
11
119.624
21
-123.773
0
LINE
8
BLACK
6
CONTINUOUS
10
119.624
20
-123.773
11
119.633
21
-123.771
0
LINE
8
BLACK
6
CONTINUOUS
10
119.633
20
-123.771
11
119.643
21
-123.768
0
LINE
8
BLACK
6
CONTINUOUS
10
119.643
20
-123.768
11
119.846
21
-123.751
0
LINE
8
BLACK
6
CONTINUOUS
10
119.846
20
-123.751
11
119.85
21
-123.75
0
LINE
8
BLACK
6
CONTINUOUS
10
119.85
20
-123.75
11
126.738
21
-123.75
0
LINE
8
BLACK
6
CONTINUOUS
10
126.738
20
-123.75
11
126.743
21
-123.749
0
LINE
8
BLACK
6
CONTINUOUS
10
126.743
20
-123.749
11
126.751
21
-123.75
0
LINE
8
BLACK
6
CONTINUOUS
10
126.751
20
-123.75
11
126.753
21
-123.75
0
LINE
8
BLACK
6
CONTINUOUS
10
126.753
20
-123.75
11
126.758
21
-123.751
0
LINE
8
BLACK
6
CONTINUOUS
10
126.758
20
-123.751
11
126.763
21
-123.752
0
LINE
8
BLACK
6
CONTINUOUS
10
126.763
20
-123.752
11
126.764
21
-123.752
0
LINE
8
BLACK
6
CONTINUOUS
10
126.764
20
-123.752
11
126.772
21
-123.753
0
LINE
8
BLACK
6
CONTINUOUS
10
126.772
20
-123.753
11
126.777
21
-123.756
0
LINE
8
BLACK
6
CONTINUOUS
10
126.777
20
-123.756
11
136.918
21
-127.052
0
LINE
8
BLACK
6
CONTINUOUS
10
136.918
20
-127.052
11
136.919
21
-127.052
0
LINE
8
BLACK
6
CONTINUOUS
10
136.919
20
-127.052
11
136.93
21
-127.056
0
LINE
8
BLACK
6
CONTINUOUS
10
136.93
20
-127.056
11
136.935
21
-127.058
0
LINE
8
BLACK
6
CONTINUOUS
10
136.935
20
-127.058
11
136.937
21
-127.058
0
LINE
8
BLACK
6
CONTINUOUS
10
136.937
20
-127.058
11
136.938
21
-127.059
0
LINE
8
BLACK
6
CONTINUOUS
10
136.938
20
-127.059
11
136.942
21
-127.061
0
LINE
8
BLACK
6
CONTINUOUS
10
136.942
20
-127.061
11
136.953
21
-127.067
0
LINE
8
BLACK
6
CONTINUOUS
10
136.953
20
-127.067
11
136.954
21
-127.068
0
LINE
8
BLACK
6
CONTINUOUS
10
136.954
20
-127.068
11
164.778
21
-143.1
0
LINE
8
BLACK
6
CONTINUOUS
10
164.778
20
-143.1
11
164.853
21
-143.132
0
LINE
8
BLACK
6
CONTINUOUS
10
164.853
20
-143.132
11
165.24
21
-143.204
0
LINE
8
BLACK
6
CONTINUOUS
10
165.24
20
-143.204
11
165.622
21
-143.141
0
LINE
8
BLACK
6
CONTINUOUS
10
165.622
20
-143.141
11
165.961
21
-142.951
0
LINE
8
BLACK
6
CONTINUOUS
10
165.961
20
-142.951
11
166.21
21
-142.661
0
LINE
8
BLACK
6
CONTINUOUS
10
166.21
20
-142.661
11
166.213
21
-142.653
0
LINE
8
BLACK
6
CONTINUOUS
10
166.213
20
-142.653
11
179.283
21
-120.056
0
LINE
8
BLACK
6
CONTINUOUS
10
179.283
20
-120.056
11
179.397
21
-119.814
0
LINE
8
BLACK
6
CONTINUOUS
10
179.397
20
-119.814
11
179.455
21
-119.426
0
LINE
8
BLACK
6
CONTINUOUS
10
179.455
20
-119.426
11
179.377
21
-119.044
0
LINE
8
BLACK
6
CONTINUOUS
10
179.377
20
-119.044
11
179.173
21
-118.712
0
LINE
8
BLACK
6
CONTINUOUS
10
179.173
20
-118.712
11
178.882
21
-118.481
0
LINE
8
BLACK
6
CONTINUOUS
10
178.882
20
-118.481
11
169.037
21
-112.781
0
LINE
8
BLACK
6
CONTINUOUS
10
169.037
20
-112.781
11
169.031
21
-112.778
0
LINE
8
BLACK
6
CONTINUOUS
10
169.031
20
-112.778
11
169.026
21
-112.774
0
LINE
8
BLACK
6
CONTINUOUS
10
169.026
20
-112.774
11
169.025
21
-112.774
0
LINE
8
BLACK
6
CONTINUOUS
10
169.025
20
-112.774
11
169.021
21
-112.77
0
LINE
8
BLACK
6
CONTINUOUS
10
169.021
20
-112.77
11
169.01
21
-112.761
0
LINE
8
BLACK
6
CONTINUOUS
10
169.01
20
-112.761
11
169.01
21
-112.761
0
LINE
8
BLACK
6
CONTINUOUS
10
169.01
20
-112.761
11
169.01
21
-112.761
0
LINE
8
BLACK
6
CONTINUOUS
10
169.01
20
-112.761
11
169.004
21
-112.75
0
LINE
8
BLACK
6
CONTINUOUS
10
169.004
20
-112.75
11
168.997
21
-112.739
0
LINE
8
BLACK
6
CONTINUOUS
10
168.997
20
-112.739
11
168.997
21
-112.738
0
LINE
8
BLACK
6
CONTINUOUS
10
168.997
20
-112.738
11
168.997
21
-112.738
0
LINE
8
BLACK
6
CONTINUOUS
10
168.997
20
-112.738
11
168.995
21
-112.726
0
LINE
8
BLACK
6
CONTINUOUS
10
168.995
20
-112.726
11
168.994
21
-112.719
0
LINE
8
BLACK
6
CONTINUOUS
10
168.994
20
-112.719
11
168.994
21
-112.719
0
LINE
8
BLACK
6
CONTINUOUS
10
168.994
20
-112.719
11
168.993
21
-112.712
0
LINE
8
BLACK
6
CONTINUOUS
10
168.993
20
-112.712
11
168.994
21
-112.706
0
LINE
8
BLACK
6
CONTINUOUS
10
168.994
20
-112.706
11
168.994
21
-107.191
0
LINE
8
BLACK
6
CONTINUOUS
10
168.994
20
-107.191
11
163.464
21
-102.451
0
LINE
8
BLACK
6
CONTINUOUS
10
163.464
20
-102.451
11
163.454
21
-102.443
0
LINE
8
BLACK
6
CONTINUOUS
10
163.454
20
-102.443
11
163.451
21
-102.437
0
LINE
8
BLACK
6
CONTINUOUS
10
163.451
20
-102.437
11
163.446
21
-102.431
0
LINE
8
BLACK
6
CONTINUOUS
10
163.446
20
-102.431
11
163.444
21
-102.425
0
LINE
8
BLACK
6
CONTINUOUS
10
163.444
20
-102.425
11
163.441
21
-102.42
0
LINE
8
BLACK
6
CONTINUOUS
10
163.441
20
-102.42
11
163.44
21
-102.413
0
LINE
8
BLACK
6
CONTINUOUS
10
163.44
20
-102.413
11
163.437
21
-102.406
0
LINE
8
BLACK
6
CONTINUOUS
10
163.437
20
-102.406
11
163.438
21
-102.393
0
LINE
8
BLACK
6
CONTINUOUS
10
163.438
20
-102.393
11
163.438
21
-77.7809
0
LINE
8
BLACK
6
CONTINUOUS
10
163.438
20
-77.7809
11
163.438
21
-57.9372
0
LINE
8
BLACK
6
CONTINUOUS
10
163.438
20
-57.9372
11
163.438
21
-57.9372
0
LINE
8
BLACK
6
CONTINUOUS
10
163.438
20
-57.9372
11
163.438
21
-46.0441
0
LINE
8
BLACK
6
CONTINUOUS
10
163.438
20
-46.0441
11
163.438
21
-46.0441
0
LINE
8
BLACK
6
CONTINUOUS
10
163.438
20
-46.0441
11
163.438
21
-34.5314
0
LINE
8
BLACK
6
CONTINUOUS
10
163.438
20
-34.5314
11
163.421
21
-34.3377
0
LINE
8
BLACK
6
CONTINUOUS
10
163.421
20
-34.3377
11
163.287
21
-33.9709
0
LINE
8
BLACK
6
CONTINUOUS
10
163.287
20
-33.9709
11
163.038
21
-33.6744
0
LINE
8
BLACK
6
CONTINUOUS
10
163.038
20
-33.6744
11
162.703
21
-33.4809
0
LINE
8
BLACK
6
CONTINUOUS
10
162.703
20
-33.4809
11
162.315
21
-33.4125
0
LINE
8
BLACK
6
CONTINUOUS
10
162.315
20
-33.4125
11
150.806
21
-33.4125
0
LINE
8
BLACK
6
CONTINUOUS
10
150.806
20
-33.4125
11
150.799
21
-33.4114
0
LINE
8
BLACK
6
CONTINUOUS
10
150.799
20
-33.4114
11
150.799
21
-33.4114
0
LINE
8
BLACK
6
CONTINUOUS
10
150.799
20
-33.4114
11
150.392
21
-33.3396
0
LINE
8
BLACK
6
CONTINUOUS
10
150.392
20
-33.3396
11
150.368
21
-33.3306
0
LINE
8
BLACK
6
CONTINUOUS
10
150.368
20
-33.3306
11
150.01
21
-33.1239
0
LINE
8
BLACK
6
CONTINUOUS
10
150.01
20
-33.1239
11
149.99
21
-33.1072
0
LINE
8
BLACK
6
CONTINUOUS
10
149.99
20
-33.1072
11
149.724
21
-32.7904
0
LINE
8
BLACK
6
CONTINUOUS
10
149.724
20
-32.7904
11
149.711
21
-32.7678
0
LINE
8
BLACK
6
CONTINUOUS
10
149.711
20
-32.7678
11
149.569
21
-32.3793
0
LINE
8
BLACK
6
CONTINUOUS
10
149.569
20
-32.3793
11
149.568
21
-32.3696
0
LINE
8
BLACK
6
CONTINUOUS
10
149.568
20
-32.3696
11
149.565
21
-32.3602
0
LINE
8
BLACK
6
CONTINUOUS
10
149.565
20
-32.3602
11
149.547
21
-32.1567
0
LINE
8
BLACK
6
CONTINUOUS
10
149.547
20
-32.1567
11
149.547
21
-32.1534
0
LINE
8
BLACK
6
CONTINUOUS
10
149.547
20
-32.1534
11
149.547
21
-29.372
0
LINE
8
BLACK
6
CONTINUOUS
10
149.547
20
-29.372
11
149.536
21
-29.2473
0
LINE
8
BLACK
6
CONTINUOUS
10
149.536
20
-29.2473
11
149.45
21
-29.01
0
LINE
8
BLACK
6
CONTINUOUS
10
149.45
20
-29.01
11
149.289
21
-28.819
0
LINE
8
BLACK
6
CONTINUOUS
10
149.289
20
-28.819
11
149.074
21
-28.6944
0
LINE
8
BLACK
6
CONTINUOUS
10
149.074
20
-28.6944
11
148.822
21
-28.65
0
LINE
8
BLACK
6
CONTINUOUS
10
148.822
20
-28.65
11
140.1
21
-28.65
0
LINE
8
BLACK
6
CONTINUOUS
10
140.1
20
-28.65
11
139.975
21
-28.6609
0
LINE
8
BLACK
6
CONTINUOUS
10
139.975
20
-28.6609
11
139.738
21
-28.7473
0
LINE
8
BLACK
6
CONTINUOUS
10
139.738
20
-28.7473
11
139.547
21
-28.9075
0
LINE
8
BLACK
6
CONTINUOUS
10
139.547
20
-28.9075
11
139.423
21
-29.1233
0
LINE
8
BLACK
6
CONTINUOUS
10
139.423
20
-29.1233
11
139.378
21
-29.3753
0
LINE
8
BLACK
6
CONTINUOUS
10
139.378
20
-29.3753
11
139.378
21
-29.7722
0
LINE
8
BLACK
6
CONTINUOUS
10
139.378
20
-29.7722
11
139.377
21
-29.7786
0
LINE
8
BLACK
6
CONTINUOUS
10
139.377
20
-29.7786
11
139.377
21
-29.7786
0
LINE
8
BLACK
6
CONTINUOUS
10
139.377
20
-29.7786
11
139.305
21
-30.1859
0
LINE
8
BLACK
6
CONTINUOUS
10
139.305
20
-30.1859
11
139.296
21
-30.2103
0
LINE
8
BLACK
6
CONTINUOUS
10
139.296
20
-30.2103
11
139.09
21
-30.5684
0
LINE
8
BLACK
6
CONTINUOUS
10
139.09
20
-30.5684
11
139.073
21
-30.5884
0
LINE
8
BLACK
6
CONTINUOUS
10
139.073
20
-30.5884
11
138.756
21
-30.8542
0
LINE
8
BLACK
6
CONTINUOUS
10
138.756
20
-30.8542
11
138.733
21
-30.8672
0
LINE
8
BLACK
6
CONTINUOUS
10
138.733
20
-30.8672
11
138.345
21
-31.0086
0
LINE
8
BLACK
6
CONTINUOUS
10
138.345
20
-31.0086
11
138.335
21
-31.0103
0
LINE
8
BLACK
6
CONTINUOUS
10
138.335
20
-31.0103
11
138.326
21
-31.0129
0
LINE
8
BLACK
6
CONTINUOUS
10
138.326
20
-31.0129
11
138.122
21
-31.0307
0
LINE
8
BLACK
6
CONTINUOUS
10
138.122
20
-31.0307
11
138.119
21
-31.0312
0
LINE
8
BLACK
6
CONTINUOUS
10
138.119
20
-31.0312
11
136.518
21
-31.0312
0
LINE
8
BLACK
6
CONTINUOUS
10
136.518
20
-31.0312
11
136.512
21
-31.0301
0
LINE
8
BLACK
6
CONTINUOUS
10
136.512
20
-31.0301
11
136.512
21
-31.0301
0
LINE
8
BLACK
6
CONTINUOUS
10
136.512
20
-31.0301
11
136.105
21
-30.9583
0
LINE
8
BLACK
6
CONTINUOUS
10
136.105
20
-30.9583
11
136.08
21
-30.9494
0
LINE
8
BLACK
6
CONTINUOUS
10
136.08
20
-30.9494
11
135.722
21
-30.7426
0
LINE
8
BLACK
6
CONTINUOUS
10
135.722
20
-30.7426
11
135.702
21
-30.7259
0
LINE
8
BLACK
6
CONTINUOUS
10
135.702
20
-30.7259
11
135.436
21
-30.4091
0
LINE
8
BLACK
6
CONTINUOUS
10
135.436
20
-30.4091
11
135.423
21
-30.3866
0
LINE
8
BLACK
6
CONTINUOUS
10
135.423
20
-30.3866
11
135.282
21
-29.998
0
LINE
8
BLACK
6
CONTINUOUS
10
135.282
20
-29.998
11
135.28
21
-29.9884
0
LINE
8
BLACK
6
CONTINUOUS
10
135.28
20
-29.9884
11
135.278
21
-29.9789
0
LINE
8
BLACK
6
CONTINUOUS
10
135.278
20
-29.9789
11
135.26
21
-29.7754
0
LINE
8
BLACK
6
CONTINUOUS
10
135.26
20
-29.7754
11
135.259
21
-29.7722
0
LINE
8
BLACK
6
CONTINUOUS
10
135.259
20
-29.7722
11
135.259
21
-27.7747
0
LINE
8
BLACK
6
CONTINUOUS
10
135.259
20
-27.7747
11
135.26
21
-27.769
0
LINE
8
BLACK
6
CONTINUOUS
10
135.26
20
-27.769
11
135.338
21
-27.279
0
LINE
8
BLACK
6
CONTINUOUS
10
135.338
20
-27.279
11
135.345
21
-27.2566
0
LINE
8
BLACK
6
CONTINUOUS
10
135.345
20
-27.2566
11
135.571
21
-26.8141
0
LINE
8
BLACK
6
CONTINUOUS
10
135.571
20
-26.8141
11
135.585
21
-26.7951
0
LINE
8
BLACK
6
CONTINUOUS
10
135.585
20
-26.7951
11
135.936
21
-26.4439
0
LINE
8
BLACK
6
CONTINUOUS
10
135.936
20
-26.4439
11
135.955
21
-26.4301
0
LINE
8
BLACK
6
CONTINUOUS
10
135.955
20
-26.4301
11
136.397
21
-26.2046
0
LINE
8
BLACK
6
CONTINUOUS
10
136.397
20
-26.2046
11
136.411
21
-26.2003
0
LINE
8
BLACK
6
CONTINUOUS
10
136.411
20
-26.2003
11
136.42
21
-26.1974
0
LINE
8
BLACK
6
CONTINUOUS
10
136.42
20
-26.1974
11
136.91
21
-26.1198
0
LINE
8
BLACK
6
CONTINUOUS
10
136.91
20
-26.1198
11
136.915
21
-26.1187
0
LINE
8
BLACK
6
CONTINUOUS
10
136.915
20
-26.1187
11
227.416
21
-26.1187
0
LINE
8
BLACK
6
CONTINUOUS
10
227.416
20
-26.1187
11
227.422
21
-26.1198
0
LINE
8
BLACK
6
CONTINUOUS
10
227.422
20
-26.1198
11
227.912
21
-26.1974
0
LINE
8
BLACK
6
CONTINUOUS
10
227.912
20
-26.1974
11
227.934
21
-26.2046
0
LINE
8
BLACK
6
CONTINUOUS
10
227.934
20
-26.2046
11
227.934
21
-26.2046
0
LINE
8
BLACK
6
CONTINUOUS
10
227.934
20
-26.2046
11
228.377
21
-26.4301
0
LINE
8
BLACK
6
CONTINUOUS
10
228.377
20
-26.4301
11
228.396
21
-26.4439
0
LINE
8
BLACK
6
CONTINUOUS
10
228.396
20
-26.4439
11
228.747
21
-26.7951
0
LINE
8
BLACK
6
CONTINUOUS
10
228.747
20
-26.7951
11
228.761
21
-26.8141
0
LINE
8
BLACK
6
CONTINUOUS
10
228.761
20
-26.8141
11
228.986
21
-27.2566
0
LINE
8
BLACK
6
CONTINUOUS
10
228.986
20
-27.2566
11
228.99
21
-27.2678
0
LINE
8
BLACK
6
CONTINUOUS
10
228.99
20
-27.2678
11
228.993
21
-27.279
0
LINE
8
BLACK
6
CONTINUOUS
10
228.993
20
-27.279
11
229.071
21
-27.769
0
LINE
8
BLACK
6
CONTINUOUS
10
229.071
20
-27.769
11
229.072
21
-27.7747
0
LINE
8
BLACK
6
CONTINUOUS
10
229.072
20
-27.7747
11
229.072
21
-29.7722
0
LINE
8
BLACK
6
CONTINUOUS
10
229.072
20
-29.7722
11
229.071
21
-29.7786
0
LINE
8
BLACK
6
CONTINUOUS
10
229.071
20
-29.7786
11
229.071
21
-29.7786
0
LINE
8
BLACK
6
CONTINUOUS
10
229.071
20
-29.7786
11
228.999
21
-30.1859
0
LINE
8
BLACK
6
CONTINUOUS
10
228.999
20
-30.1859
11
228.99
21
-30.2103
0
LINE
8
BLACK
6
CONTINUOUS
10
228.99
20
-30.2103
11
228.783
21
-30.5684
0
LINE
8
BLACK
6
CONTINUOUS
10
228.783
20
-30.5684
11
228.767
21
-30.5884
0
LINE
8
BLACK
6
CONTINUOUS
10
228.767
20
-30.5884
11
228.45
21
-30.8542
0
LINE
8
BLACK
6
CONTINUOUS
10
228.45
20
-30.8542
11
228.427
21
-30.8672
0
LINE
8
BLACK
6
CONTINUOUS
10
228.427
20
-30.8672
11
228.039
21
-31.0086
0
LINE
8
BLACK
6
CONTINUOUS
10
228.039
20
-31.0086
11
228.029
21
-31.0103
0
LINE
8
BLACK
6
CONTINUOUS
10
228.029
20
-31.0103
11
228.02
21
-31.0129
0
LINE
8
BLACK
6
CONTINUOUS
10
228.02
20
-31.0129
11
227.816
21
-31.0307
0
LINE
8
BLACK
6
CONTINUOUS
10
227.816
20
-31.0307
11
227.813
21
-31.0312
0
LINE
8
BLACK
6
CONTINUOUS
10
227.813
20
-31.0312
11
225.418
21
-31.0312
0
LINE
8
BLACK
6
CONTINUOUS
10
225.418
20
-31.0312
11
225.412
21
-31.0301
0
LINE
8
BLACK
6
CONTINUOUS
10
225.412
20
-31.0301
11
225.412
21
-31.0301
0
LINE
8
BLACK
6
CONTINUOUS
10
225.412
20
-31.0301
11
225.005
21
-30.9583
0
LINE
8
BLACK
6
CONTINUOUS
10
225.005
20
-30.9583
11
224.98
21
-30.9494
0
LINE
8
BLACK
6
CONTINUOUS
10
224.98
20
-30.9494
11
224.622
21
-30.7426
0
LINE
8
BLACK
6
CONTINUOUS
10
224.622
20
-30.7426
11
224.602
21
-30.7259
0
LINE
8
BLACK
6
CONTINUOUS
10
224.602
20
-30.7259
11
224.336
21
-30.4091
0
LINE
8
BLACK
6
CONTINUOUS
10
224.336
20
-30.4091
11
224.323
21
-30.3866
0
LINE
8
BLACK
6
CONTINUOUS
10
224.323
20
-30.3866
11
224.182
21
-29.998
0
LINE
8
BLACK
6
CONTINUOUS
10
224.182
20
-29.998
11
224.18
21
-29.9884
0
LINE
8
BLACK
6
CONTINUOUS
10
224.18
20
-29.9884
11
224.178
21
-29.9789
0
LINE
8
BLACK
6
CONTINUOUS
10
224.178
20
-29.9789
11
224.16
21
-29.7754
0
LINE
8
BLACK
6
CONTINUOUS
10
224.16
20
-29.7754
11
224.159
21
-29.7722
0
LINE
8
BLACK
6
CONTINUOUS
10
224.159
20
-29.7722
11
224.159
21
-29.372
0
LINE
8
BLACK
6
CONTINUOUS
10
224.159
20
-29.372
11
224.148
21
-29.2473
0
LINE
8
BLACK
6
CONTINUOUS
10
224.148
20
-29.2473
11
224.062
21
-29.01
0
LINE
8
BLACK
6
CONTINUOUS
10
224.062
20
-29.01
11
223.902
21
-28.819
0
LINE
8
BLACK
6
CONTINUOUS
10
223.902
20
-28.819
11
223.686
21
-28.6944
0
LINE
8
BLACK
6
CONTINUOUS
10
223.686
20
-28.6944
11
223.434
21
-28.65
0
LINE
8
BLACK
6
CONTINUOUS
10
223.434
20
-28.65
11
214.713
21
-28.65
0
LINE
8
BLACK
6
CONTINUOUS
10
214.713
20
-28.65
11
214.588
21
-28.6609
0
LINE
8
BLACK
6
CONTINUOUS
10
214.588
20
-28.6609
11
214.351
21
-28.7473
0
LINE
8
BLACK
6
CONTINUOUS
10
214.351
20
-28.7473
11
214.16
21
-28.9075
0
LINE
8
BLACK
6
CONTINUOUS
10
214.16
20
-28.9075
11
214.035
21
-29.1233
0
LINE
8
BLACK
6
CONTINUOUS
10
214.035
20
-29.1233
11
213.991
21
-29.3753
0
LINE
8
BLACK
6
CONTINUOUS
10
213.991
20
-29.3753
11
213.991
21
-32.1534
0
LINE
8
BLACK
6
CONTINUOUS
10
213.991
20
-32.1534
11
213.989
21
-32.1599
0
LINE
8
BLACK
6
CONTINUOUS
10
213.989
20
-32.1599
11
213.989
21
-32.1599
0
LINE
8
BLACK
6
CONTINUOUS
10
213.989
20
-32.1599
11
213.918
21
-32.5671
0
LINE
8
BLACK
6
CONTINUOUS
10
213.918
20
-32.5671
11
213.909
21
-32.5916
0
LINE
8
BLACK
6
CONTINUOUS
10
213.909
20
-32.5916
11
213.702
21
-32.9497
0
LINE
8
BLACK
6
CONTINUOUS
10
213.702
20
-32.9497
11
213.685
21
-32.9696
0
LINE
8
BLACK
6
CONTINUOUS
10
213.685
20
-32.9696
11
213.369
21
-33.2354
0
LINE
8
BLACK
6
CONTINUOUS
10
213.369
20
-33.2354
11
213.346
21
-33.2485
0
LINE
8
BLACK
6
CONTINUOUS
10
213.346
20
-33.2485
11
212.957
21
-33.3899
0
LINE
8
BLACK
6
CONTINUOUS
10
212.957
20
-33.3899
11
212.948
21
-33.3916
0
LINE
8
BLACK
6
CONTINUOUS
10
212.948
20
-33.3916
11
212.938
21
-33.3941
0
LINE
8
BLACK
6
CONTINUOUS
10
212.938
20
-33.3941
11
212.735
21
-33.4119
0
LINE
8
BLACK
6
CONTINUOUS
10
212.735
20
-33.4119
11
212.732
21
-33.4125
0
LINE
8
BLACK
6
CONTINUOUS
10
212.732
20
-33.4125
11
201.219
21
-33.4125
0
LINE
8
BLACK
6
CONTINUOUS
10
201.219
20
-33.4125
11
201.025
21
-33.4294
0
LINE
8
BLACK
6
CONTINUOUS
10
201.025
20
-33.4294
11
200.658
21
-33.563
0
LINE
8
BLACK
6
CONTINUOUS
10
200.658
20
-33.563
11
200.362
21
-33.8118
0
LINE
8
BLACK
6
CONTINUOUS
10
200.362
20
-33.8118
11
200.168
21
-34.147
0
LINE
8
BLACK
6
CONTINUOUS
10
200.168
20
-34.147
11
200.1
21
-34.5347
0
LINE
8
BLACK
6
CONTINUOUS
10
200.1
20
-34.5347
11
200.1
21
-101.597
0
LINE
8
BLACK
6
CONTINUOUS
10
200.1
20
-101.597
11
200.101
21
-101.607
0
LINE
8
BLACK
6
CONTINUOUS
10
136.455
20
-26.3437
11
136.033
21
-26.5584
0
LINE
8
BLACK
6
CONTINUOUS
10
136.033
20
-26.5584
11
135.699
21
-26.8928
0
LINE
8
BLACK
6
CONTINUOUS
10
135.699
20
-26.8928
11
135.484
21
-27.3141
0
LINE
8
BLACK
6
CONTINUOUS
10
135.484
20
-27.3141
11
135.409
21
-27.7872
0
LINE
8
BLACK
6
CONTINUOUS
10
135.409
20
-27.7872
11
135.409
21
-29.7623
0
LINE
8
BLACK
6
CONTINUOUS
10
135.409
20
-29.7623
11
135.426
21
-29.956
0
LINE
8
BLACK
6
CONTINUOUS
10
135.426
20
-29.956
11
135.56
21
-30.3229
0
LINE
8
BLACK
6
CONTINUOUS
10
135.56
20
-30.3229
11
135.809
21
-30.6194
0
LINE
8
BLACK
6
CONTINUOUS
10
135.809
20
-30.6194
11
136.144
21
-30.8129
0
LINE
8
BLACK
6
CONTINUOUS
10
136.144
20
-30.8129
11
136.532
21
-30.8812
0
LINE
8
BLACK
6
CONTINUOUS
10
136.532
20
-30.8812
11
138.109
21
-30.8812
0
LINE
8
BLACK
6
CONTINUOUS
10
138.109
20
-30.8812
11
138.303
21
-30.8643
0
LINE
8
BLACK
6
CONTINUOUS
10
138.303
20
-30.8643
11
138.67
21
-30.7308
0
LINE
8
BLACK
6
CONTINUOUS
10
138.67
20
-30.7308
11
138.966
21
-30.482
0
LINE
8
BLACK
6
CONTINUOUS
10
138.966
20
-30.482
11
139.16
21
-30.1468
0
LINE
8
BLACK
6
CONTINUOUS
10
139.16
20
-30.1468
11
139.228
21
-29.7591
0
LINE
8
BLACK
6
CONTINUOUS
10
139.228
20
-29.7591
11
139.228
21
-29.3622
0
LINE
8
BLACK
6
CONTINUOUS
10
139.228
20
-29.3622
11
139.229
21
-29.3557
0
LINE
8
BLACK
6
CONTINUOUS
10
139.229
20
-29.3557
11
139.229
21
-29.3557
0
LINE
8
BLACK
6
CONTINUOUS
10
139.229
20
-29.3557
11
139.277
21
-29.0842
0
LINE
8
BLACK
6
CONTINUOUS
10
139.277
20
-29.0842
11
139.286
21
-29.0598
0
LINE
8
BLACK
6
CONTINUOUS
10
139.286
20
-29.0598
11
139.286
21
-29.0598
0
LINE
8
BLACK
6
CONTINUOUS
10
139.286
20
-29.0598
11
139.424
21
-28.821
0
LINE
8
BLACK
6
CONTINUOUS
10
139.424
20
-28.821
11
139.441
21
-28.8011
0
LINE
8
BLACK
6
CONTINUOUS
10
139.441
20
-28.8011
11
139.441
21
-28.8011
0
LINE
8
BLACK
6
CONTINUOUS
10
139.441
20
-28.8011
11
139.652
21
-28.6239
0
LINE
8
BLACK
6
CONTINUOUS
10
139.652
20
-28.6239
11
139.674
21
-28.6109
0
LINE
8
BLACK
6
CONTINUOUS
10
139.674
20
-28.6109
11
139.674
21
-28.6109
0
LINE
8
BLACK
6
CONTINUOUS
10
139.674
20
-28.6109
11
139.933
21
-28.5166
0
LINE
8
BLACK
6
CONTINUOUS
10
139.933
20
-28.5166
11
139.943
21
-28.5149
0
LINE
8
BLACK
6
CONTINUOUS
10
139.943
20
-28.5149
11
139.953
21
-28.5123
0
LINE
8
BLACK
6
CONTINUOUS
10
139.953
20
-28.5123
11
140.087
21
-28.5006
0
LINE
8
BLACK
6
CONTINUOUS
10
140.087
20
-28.5006
11
140.09
21
-28.5
0
LINE
8
BLACK
6
CONTINUOUS
10
140.09
20
-28.5
11
148.835
21
-28.5
0
LINE
8
BLACK
6
CONTINUOUS
10
148.835
20
-28.5
11
148.841
21
-28.5011
0
LINE
8
BLACK
6
CONTINUOUS
10
148.841
20
-28.5011
11
148.841
21
-28.5011
0
LINE
8
BLACK
6
CONTINUOUS
10
148.841
20
-28.5011
11
149.113
21
-28.549
0
LINE
8
BLACK
6
CONTINUOUS
10
149.113
20
-28.549
11
149.137
21
-28.5579
0
LINE
8
BLACK
6
CONTINUOUS
10
149.137
20
-28.5579
11
149.137
21
-28.5579
0
LINE
8
BLACK
6
CONTINUOUS
10
149.137
20
-28.5579
11
149.376
21
-28.6958
0
LINE
8
BLACK
6
CONTINUOUS
10
149.376
20
-28.6958
11
149.396
21
-28.7125
0
LINE
8
BLACK
6
CONTINUOUS
10
149.396
20
-28.7125
11
149.396
21
-28.7125
0
LINE
8
BLACK
6
CONTINUOUS
10
149.396
20
-28.7125
11
149.573
21
-28.9237
0
LINE
8
BLACK
6
CONTINUOUS
10
149.573
20
-28.9237
11
149.586
21
-28.9462
0
LINE
8
BLACK
6
CONTINUOUS
10
149.586
20
-28.9462
11
149.586
21
-28.9462
0
LINE
8
BLACK
6
CONTINUOUS
10
149.586
20
-28.9462
11
149.68
21
-29.2053
0
LINE
8
BLACK
6
CONTINUOUS
10
149.68
20
-29.2053
11
149.682
21
-29.2149
0
LINE
8
BLACK
6
CONTINUOUS
10
149.682
20
-29.2149
11
149.685
21
-29.2244
0
LINE
8
BLACK
6
CONTINUOUS
10
149.685
20
-29.2244
11
149.696
21
-29.359
0
LINE
8
BLACK
6
CONTINUOUS
10
149.696
20
-29.359
11
149.697
21
-29.3622
0
LINE
8
BLACK
6
CONTINUOUS
10
149.697
20
-29.3622
11
149.697
21
-32.1436
0
LINE
8
BLACK
6
CONTINUOUS
10
149.697
20
-32.1436
11
149.714
21
-32.3373
0
LINE
8
BLACK
6
CONTINUOUS
10
149.714
20
-32.3373
11
149.847
21
-32.7041
0
LINE
8
BLACK
6
CONTINUOUS
10
149.847
20
-32.7041
11
150.096
21
-33.0006
0
LINE
8
BLACK
6
CONTINUOUS
10
150.096
20
-33.0006
11
150.431
21
-33.1941
0
LINE
8
BLACK
6
CONTINUOUS
10
150.431
20
-33.1941
11
150.819
21
-33.2625
0
LINE
8
BLACK
6
CONTINUOUS
10
150.819
20
-33.2625
11
162.328
21
-33.2625
0
LINE
8
BLACK
6
CONTINUOUS
10
162.328
20
-33.2625
11
162.335
21
-33.2636
0
LINE
8
BLACK
6
CONTINUOUS
10
162.335
20
-33.2636
11
162.335
21
-33.2636
0
LINE
8
BLACK
6
CONTINUOUS
10
162.335
20
-33.2636
11
162.742
21
-33.3354
0
LINE
8
BLACK
6
CONTINUOUS
10
162.742
20
-33.3354
11
162.767
21
-33.3444
0
LINE
8
BLACK
6
CONTINUOUS
10
162.767
20
-33.3444
11
162.767
21
-33.3444
0
LINE
8
BLACK
6
CONTINUOUS
10
162.767
20
-33.3444
11
163.125
21
-33.5511
0
LINE
8
BLACK
6
CONTINUOUS
10
163.125
20
-33.5511
11
163.145
21
-33.5678
0
LINE
8
BLACK
6
CONTINUOUS
10
163.145
20
-33.5678
11
163.145
21
-33.5678
0
LINE
8
BLACK
6
CONTINUOUS
10
163.145
20
-33.5678
11
163.41
21
-33.8846
0
LINE
8
BLACK
6
CONTINUOUS
10
163.41
20
-33.8846
11
163.41
21
-33.8846
0
LINE
8
BLACK
6
CONTINUOUS
10
163.41
20
-33.8846
11
163.423
21
-33.9072
0
LINE
8
BLACK
6
CONTINUOUS
10
163.423
20
-33.9072
11
163.565
21
-34.2957
0
LINE
8
BLACK
6
CONTINUOUS
10
163.565
20
-34.2957
11
163.567
21
-34.3054
0
LINE
8
BLACK
6
CONTINUOUS
10
163.567
20
-34.3054
11
163.569
21
-34.3148
0
LINE
8
BLACK
6
CONTINUOUS
10
163.569
20
-34.3148
11
163.587
21
-34.5183
0
LINE
8
BLACK
6
CONTINUOUS
10
163.587
20
-34.5183
11
163.588
21
-34.5216
0
LINE
8
BLACK
6
CONTINUOUS
10
163.588
20
-34.5216
11
163.588
21
-102.359
0
LINE
8
BLACK
6
CONTINUOUS
10
163.588
20
-102.359
11
169.117
21
-107.099
0
LINE
8
BLACK
6
CONTINUOUS
10
169.117
20
-107.099
11
169.127
21
-107.107
0
LINE
8
BLACK
6
CONTINUOUS
10
169.127
20
-107.107
11
169.131
21
-107.113
0
LINE
8
BLACK
6
CONTINUOUS
10
169.131
20
-107.113
11
169.135
21
-107.119
0
LINE
8
BLACK
6
CONTINUOUS
10
169.135
20
-107.119
11
169.137
21
-107.125
0
LINE
8
BLACK
6
CONTINUOUS
10
169.137
20
-107.125
11
169.14
21
-107.13
0
LINE
8
BLACK
6
CONTINUOUS
10
169.14
20
-107.13
11
169.142
21
-107.137
0
LINE
8
BLACK
6
CONTINUOUS
10
169.142
20
-107.137
11
169.144
21
-107.144
0
LINE
8
BLACK
6
CONTINUOUS
10
169.144
20
-107.144
11
169.144
21
-107.156
0
LINE
8
BLACK
6
CONTINUOUS
10
169.144
20
-107.156
11
169.144
21
-112.669
0
LINE
8
BLACK
6
CONTINUOUS
10
169.144
20
-112.669
11
178.922
21
-118.331
0
LINE
8
BLACK
6
CONTINUOUS
10
178.922
20
-118.331
11
178.928
21
-118.332
0
LINE
8
BLACK
6
CONTINUOUS
10
178.928
20
-118.332
11
178.951
21
-118.344
0
LINE
8
BLACK
6
CONTINUOUS
10
178.951
20
-118.344
11
179.277
21
-118.603
0
LINE
8
BLACK
6
CONTINUOUS
10
179.277
20
-118.603
11
179.277
21
-118.603
0
LINE
8
BLACK
6
CONTINUOUS
10
179.277
20
-118.603
11
179.294
21
-118.623
0
LINE
8
BLACK
6
CONTINUOUS
10
179.294
20
-118.623
11
179.512
21
-118.977
0
LINE
8
BLACK
6
CONTINUOUS
10
179.512
20
-118.977
11
179.512
21
-118.977
0
LINE
8
BLACK
6
CONTINUOUS
10
179.512
20
-118.977
11
179.512
21
-118.977
0
LINE
8
BLACK
6
CONTINUOUS
10
179.512
20
-118.977
11
179.521
21
-119.001
0
LINE
8
BLACK
6
CONTINUOUS
10
179.521
20
-119.001
11
179.521
21
-119.001
0
LINE
8
BLACK
6
CONTINUOUS
10
179.521
20
-119.001
11
179.605
21
-119.409
0
LINE
8
BLACK
6
CONTINUOUS
10
179.605
20
-119.409
11
179.605
21
-119.435
0
LINE
8
BLACK
6
CONTINUOUS
10
179.605
20
-119.435
11
179.544
21
-119.847
0
LINE
8
BLACK
6
CONTINUOUS
10
179.544
20
-119.847
11
179.541
21
-119.857
0
LINE
8
BLACK
6
CONTINUOUS
10
179.541
20
-119.857
11
179.538
21
-119.868
0
LINE
8
BLACK
6
CONTINUOUS
10
179.538
20
-119.868
11
179.419
21
-120.12
0
LINE
8
BLACK
6
CONTINUOUS
10
179.419
20
-120.12
11
179.418
21
-120.123
0
LINE
8
BLACK
6
CONTINUOUS
10
179.418
20
-120.123
11
166.35
21
-142.714
0
LINE
8
BLACK
6
CONTINUOUS
10
166.35
20
-142.714
11
166.349
21
-142.722
0
LINE
8
BLACK
6
CONTINUOUS
10
166.349
20
-142.722
11
166.336
21
-142.745
0
LINE
8
BLACK
6
CONTINUOUS
10
166.336
20
-142.745
11
166.066
21
-143.059
0
LINE
8
BLACK
6
CONTINUOUS
10
166.066
20
-143.059
11
166.046
21
-143.076
0
LINE
8
BLACK
6
CONTINUOUS
10
166.046
20
-143.076
11
165.684
21
-143.279
0
LINE
8
BLACK
6
CONTINUOUS
10
165.684
20
-143.279
11
165.66
21
-143.287
0
LINE
8
BLACK
6
CONTINUOUS
10
165.66
20
-143.287
11
165.251
21
-143.355
0
LINE
8
BLACK
6
CONTINUOUS
10
165.251
20
-143.355
11
165.225
21
-143.354
0
LINE
8
BLACK
6
CONTINUOUS
10
165.225
20
-143.354
11
164.818
21
-143.278
0
LINE
8
BLACK
6
CONTINUOUS
10
164.818
20
-143.278
11
164.81
21
-143.275
0
LINE
8
BLACK
6
CONTINUOUS
10
164.81
20
-143.275
11
164.802
21
-143.273
0
LINE
8
BLACK
6
CONTINUOUS
10
164.802
20
-143.273
11
164.717
21
-143.237
0
LINE
8
BLACK
6
CONTINUOUS
10
164.717
20
-143.237
11
164.713
21
-143.235
0
LINE
8
BLACK
6
CONTINUOUS
10
164.713
20
-143.235
11
136.875
21
-127.196
0
LINE
8
BLACK
6
CONTINUOUS
10
136.875
20
-127.196
11
126.734
21
-123.9
0
LINE
8
BLACK
6
CONTINUOUS
10
126.734
20
-123.9
11
119.86
21
-123.9
0
LINE
8
BLACK
6
CONTINUOUS
10
119.86
20
-123.9
11
119.666
21
-123.917
0
LINE
8
BLACK
6
CONTINUOUS
10
119.666
20
-123.917
11
119.299
21
-124.05
0
LINE
8
BLACK
6
CONTINUOUS
10
119.299
20
-124.05
11
119.003
21
-124.299
0
LINE
8
BLACK
6
CONTINUOUS
10
119.003
20
-124.299
11
118.809
21
-124.634
0
LINE
8
BLACK
6
CONTINUOUS
10
118.809
20
-124.634
11
118.741
21
-125.022
0
LINE
8
BLACK
6
CONTINUOUS
10
118.741
20
-125.022
11
118.741
21
-127.391
0
LINE
8
BLACK
6
CONTINUOUS
10
118.741
20
-127.391
11
118.816
21
-127.864
0
LINE
8
BLACK
6
CONTINUOUS
10
118.816
20
-127.864
11
119.03
21
-128.285
0
LINE
8
BLACK
6
CONTINUOUS
10
119.03
20
-128.285
11
119.365
21
-128.62
0
LINE
8
BLACK
6
CONTINUOUS
10
119.365
20
-128.62
11
119.786
21
-128.834
0
LINE
8
BLACK
6
CONTINUOUS
10
119.786
20
-128.834
11
120.259
21
-128.909
0
LINE
8
BLACK
6
CONTINUOUS
10
120.259
20
-128.909
11
133.753
21
-128.909
0
LINE
8
BLACK
6
CONTINUOUS
10
133.753
20
-128.909
11
133.76
21
-128.911
0
LINE
8
BLACK
6
CONTINUOUS
10
133.76
20
-128.911
11
133.76
21
-128.911
0
LINE
8
BLACK
6
CONTINUOUS
10
133.76
20
-128.911
11
134.167
21
-128.982
0
LINE
8
BLACK
6
CONTINUOUS
10
134.167
20
-128.982
11
134.192
21
-128.991
0
LINE
8
BLACK
6
CONTINUOUS
10
134.192
20
-128.991
11
134.192
21
-128.991
0
LINE
8
BLACK
6
CONTINUOUS
10
134.192
20
-128.991
11
134.55
21
-129.198
0
LINE
8
BLACK
6
CONTINUOUS
10
134.55
20
-129.198
11
134.57
21
-129.215
0
LINE
8
BLACK
6
CONTINUOUS
10
134.57
20
-129.215
11
134.57
21
-129.215
0
LINE
8
BLACK
6
CONTINUOUS
10
134.57
20
-129.215
11
134.835
21
-129.531
0
LINE
8
BLACK
6
CONTINUOUS
10
134.835
20
-129.531
11
134.835
21
-129.531
0
LINE
8
BLACK
6
CONTINUOUS
10
134.835
20
-129.531
11
134.848
21
-129.554
0
LINE
8
BLACK
6
CONTINUOUS
10
134.848
20
-129.554
11
134.99
21
-129.943
0
LINE
8
BLACK
6
CONTINUOUS
10
134.99
20
-129.943
11
134.992
21
-129.952
0
LINE
8
BLACK
6
CONTINUOUS
10
134.992
20
-129.952
11
134.994
21
-129.962
0
LINE
8
BLACK
6
CONTINUOUS
10
134.994
20
-129.962
11
135.012
21
-130.165
0
LINE
8
BLACK
6
CONTINUOUS
10
135.012
20
-130.165
11
135.012
21
-130.168
0
LINE
8
BLACK
6
CONTINUOUS
10
135.012
20
-130.168
11
135.012
21
-144.856
0
LINE
8
BLACK
6
CONTINUOUS
10
135.012
20
-144.856
11
135.029
21
-145.05
0
LINE
8
BLACK
6
CONTINUOUS
10
135.029
20
-145.05
11
135.163
21
-145.417
0
LINE
8
BLACK
6
CONTINUOUS
10
135.163
20
-145.417
11
135.412
21
-145.713
0
LINE
8
BLACK
6
CONTINUOUS
10
135.412
20
-145.713
11
135.747
21
-145.907
0
LINE
8
BLACK
6
CONTINUOUS
10
135.747
20
-145.907
11
136.135
21
-145.975
0
LINE
8
BLACK
6
CONTINUOUS
10
136.135
20
-145.975
11
227.406
21
-145.975
0
LINE
8
BLACK
6
CONTINUOUS
10
227.406
20
-145.975
11
227.6
21
-145.958
0
LINE
8
BLACK
6
CONTINUOUS
10
227.6
20
-145.958
11
227.967
21
-145.825
0
LINE
8
BLACK
6
CONTINUOUS
10
227.967
20
-145.825
11
228.263
21
-145.576
0
LINE
8
BLACK
6
CONTINUOUS
10
228.263
20
-145.576
11
228.457
21
-145.241
0
LINE
8
BLACK
6
CONTINUOUS
10
228.457
20
-145.241
11
228.525
21
-144.853
0
LINE
8
BLACK
6
CONTINUOUS
10
228.525
20
-144.853
11
228.525
21
-130.168
0
LINE
8
BLACK
6
CONTINUOUS
10
228.525
20
-130.168
11
228.526
21
-130.162
0
LINE
8
BLACK
6
CONTINUOUS
10
228.526
20
-130.162
11
228.526
21
-130.162
0
LINE
8
BLACK
6
CONTINUOUS
10
228.526
20
-130.162
11
228.598
21
-129.755
0
LINE
8
BLACK
6
CONTINUOUS
10
228.598
20
-129.755
11
228.607
21
-129.73
0
LINE
8
BLACK
6
CONTINUOUS
10
228.607
20
-129.73
11
228.607
21
-129.73
0
LINE
8
BLACK
6
CONTINUOUS
10
228.607
20
-129.73
11
228.814
21
-129.372
0
LINE
8
BLACK
6
CONTINUOUS
10
228.814
20
-129.372
11
228.83
21
-129.352
0
LINE
8
BLACK
6
CONTINUOUS
10
228.83
20
-129.352
11
228.83
21
-129.352
0
LINE
8
BLACK
6
CONTINUOUS
10
228.83
20
-129.352
11
229.147
21
-129.086
0
LINE
8
BLACK
6
CONTINUOUS
10
229.147
20
-129.086
11
229.147
21
-129.086
0
LINE
8
BLACK
6
CONTINUOUS
10
229.147
20
-129.086
11
229.17
21
-129.073
0
LINE
8
BLACK
6
CONTINUOUS
10
229.17
20
-129.073
11
229.558
21
-128.932
0
LINE
8
BLACK
6
CONTINUOUS
10
229.558
20
-128.932
11
229.568
21
-128.93
0
LINE
8
BLACK
6
CONTINUOUS
10
229.568
20
-128.93
11
229.577
21
-128.928
0
LINE
8
BLACK
6
CONTINUOUS
10
229.577
20
-128.928
11
229.781
21
-128.91
0
LINE
8
BLACK
6
CONTINUOUS
10
229.781
20
-128.91
11
229.784
21
-128.909
0
LINE
8
BLACK
6
CONTINUOUS
10
229.784
20
-128.909
11
243.278
21
-128.909
0
LINE
8
BLACK
6
CONTINUOUS
10
243.278
20
-128.909
11
243.751
21
-128.834
0
LINE
8
BLACK
6
CONTINUOUS
10
243.751
20
-128.834
11
244.173
21
-128.62
0
LINE
8
BLACK
6
CONTINUOUS
10
244.173
20
-128.62
11
244.507
21
-128.285
0
LINE
8
BLACK
6
CONTINUOUS
10
244.507
20
-128.285
11
244.722
21
-127.864
0
LINE
8
BLACK
6
CONTINUOUS
10
244.722
20
-127.864
11
244.797
21
-127.391
0
LINE
8
BLACK
6
CONTINUOUS
10
244.797
20
-127.391
11
244.797
21
-125.019
0
LINE
8
BLACK
6
CONTINUOUS
10
244.797
20
-125.019
11
244.78
21
-124.825
0
LINE
8
BLACK
6
CONTINUOUS
10
244.78
20
-124.825
11
244.646
21
-124.458
0
LINE
8
BLACK
6
CONTINUOUS
10
244.646
20
-124.458
11
244.398
21
-124.162
0
LINE
8
BLACK
6
CONTINUOUS
10
244.398
20
-124.162
11
244.062
21
-123.968
0
LINE
8
BLACK
6
CONTINUOUS
10
244.062
20
-123.968
11
243.675
21
-123.9
0
LINE
8
BLACK
6
CONTINUOUS
10
243.675
20
-123.9
11
236.803
21
-123.9
0
LINE
8
BLACK
6
CONTINUOUS
10
236.803
20
-123.9
11
226.662
21
-127.196
0
LINE
8
BLACK
6
CONTINUOUS
10
226.662
20
-127.196
11
198.825
21
-143.235
0
LINE
8
BLACK
6
CONTINUOUS
10
198.825
20
-143.235
11
198.806
21
-143.242
0
LINE
8
BLACK
6
CONTINUOUS
10
198.806
20
-143.242
11
198.803
21
-143.242
0
LINE
8
BLACK
6
CONTINUOUS
10
198.803
20
-143.242
11
198.413
21
-143.348
0
LINE
8
BLACK
6
CONTINUOUS
10
198.413
20
-143.348
11
198.387
21
-143.35
0
LINE
8
BLACK
6
CONTINUOUS
10
198.387
20
-143.35
11
197.974
21
-143.316
0
LINE
8
BLACK
6
CONTINUOUS
10
197.974
20
-143.316
11
197.949
21
-143.309
0
LINE
8
BLACK
6
CONTINUOUS
10
197.949
20
-143.309
11
197.573
21
-143.135
0
LINE
8
BLACK
6
CONTINUOUS
10
197.573
20
-143.135
11
197.573
21
-143.135
0
LINE
8
BLACK
6
CONTINUOUS
10
197.573
20
-143.135
11
197.565
21
-143.13
0
LINE
8
BLACK
6
CONTINUOUS
10
197.565
20
-143.13
11
197.551
21
-143.121
0
LINE
8
BLACK
6
CONTINUOUS
10
197.551
20
-143.121
11
197.551
21
-143.121
0
LINE
8
BLACK
6
CONTINUOUS
10
197.551
20
-143.121
11
197.257
21
-142.829
0
LINE
8
BLACK
6
CONTINUOUS
10
197.257
20
-142.829
11
197.253
21
-142.822
0
LINE
8
BLACK
6
CONTINUOUS
10
197.253
20
-142.822
11
197.247
21
-142.816
0
LINE
8
BLACK
6
CONTINUOUS
10
197.247
20
-142.816
11
197.196
21
-142.737
0
LINE
8
BLACK
6
CONTINUOUS
10
197.196
20
-142.737
11
197.186
21
-142.713
0
LINE
8
BLACK
6
CONTINUOUS
10
197.186
20
-142.713
11
197.186
21
-142.712
0
LINE
8
BLACK
6
CONTINUOUS
10
197.186
20
-142.712
11
184.12
21
-120.123
0
LINE
8
BLACK
6
CONTINUOUS
10
184.12
20
-120.123
11
184.118
21
-120.118
0
LINE
8
BLACK
6
CONTINUOUS
10
184.118
20
-120.118
11
183.963
21
-119.734
0
LINE
8
BLACK
6
CONTINUOUS
10
183.963
20
-119.734
11
183.957
21
-119.708
0
LINE
8
BLACK
6
CONTINUOUS
10
183.957
20
-119.708
11
183.943
21
-119.292
0
LINE
8
BLACK
6
CONTINUOUS
10
183.943
20
-119.292
11
183.946
21
-119.266
0
LINE
8
BLACK
6
CONTINUOUS
10
183.946
20
-119.266
11
184.075
21
-118.871
0
LINE
8
BLACK
6
CONTINUOUS
10
184.075
20
-118.871
11
184.087
21
-118.848
0
LINE
8
BLACK
6
CONTINUOUS
10
184.087
20
-118.848
11
184.343
21
-118.52
0
LINE
8
BLACK
6
CONTINUOUS
10
184.343
20
-118.52
11
184.351
21
-118.512
0
LINE
8
BLACK
6
CONTINUOUS
10
184.351
20
-118.512
11
184.359
21
-118.505
0
LINE
8
BLACK
6
CONTINUOUS
10
184.359
20
-118.505
11
184.59
21
-118.342
0
LINE
8
BLACK
6
CONTINUOUS
10
184.59
20
-118.342
11
184.613
21
-118.331
0
LINE
8
BLACK
6
CONTINUOUS
10
184.613
20
-118.331
11
184.616
21
-118.33
0
LINE
8
BLACK
6
CONTINUOUS
10
184.616
20
-118.33
11
194.394
21
-112.669
0
LINE
8
BLACK
6
CONTINUOUS
10
194.394
20
-112.669
11
194.394
21
-107.16
0
LINE
8
BLACK
6
CONTINUOUS
10
194.394
20
-107.16
11
194.393
21
-107.15
0
LINE
8
BLACK
6
CONTINUOUS
10
194.393
20
-107.15
11
194.395
21
-107.14
0
LINE
8
BLACK
6
CONTINUOUS
10
194.395
20
-107.14
11
194.397
21
-107.13
0
LINE
8
BLACK
6
CONTINUOUS
10
194.397
20
-107.13
11
194.399
21
-107.127
0
LINE
8
BLACK
6
CONTINUOUS
10
194.399
20
-107.127
11
194.4
21
-107.124
0
LINE
8
BLACK
6
CONTINUOUS
10
194.4
20
-107.124
11
194.405
21
-107.116
0
LINE
8
BLACK
6
CONTINUOUS
10
194.405
20
-107.116
11
194.41
21
-107.107
0
LINE
8
BLACK
6
CONTINUOUS
10
194.41
20
-107.107
11
194.418
21
-107.101
0
LINE
8
BLACK
6
CONTINUOUS
10
194.418
20
-107.101
11
199.95
21
-101.569
0
LINE
8
BLACK
6
CONTINUOUS
10
199.95
20
-101.569
11
199.95
21
-75.3997
0
LINE
8
BLACK
6
CONTINUOUS
10
199.95
20
-75.3997
11
199.95
21
-34.5216
0
LINE
8
BLACK
6
CONTINUOUS
10
199.95
20
-34.5216
11
199.951
21
-34.5151
0
LINE
8
BLACK
6
CONTINUOUS
10
199.951
20
-34.5151
11
199.951
21
-34.5151
0
LINE
8
BLACK
6
CONTINUOUS
10
199.951
20
-34.5151
11
200.023
21
-34.1079
0
LINE
8
BLACK
6
CONTINUOUS
10
200.023
20
-34.1079
11
200.032
21
-34.0834
0
LINE
8
BLACK
6
CONTINUOUS
10
200.032
20
-34.0834
11
200.032
21
-34.0834
0
LINE
8
BLACK
6
CONTINUOUS
10
200.032
20
-34.0834
11
200.239
21
-33.7253
0
LINE
8
BLACK
6
CONTINUOUS
10
200.239
20
-33.7253
11
200.255
21
-33.7054
0
LINE
8
BLACK
6
CONTINUOUS
10
200.255
20
-33.7054
11
200.255
21
-33.7053
0
LINE
8
BLACK
6
CONTINUOUS
10
200.255
20
-33.7053
11
200.572
21
-33.4396
0
LINE
8
BLACK
6
CONTINUOUS
10
200.572
20
-33.4396
11
200.572
21
-33.4396
0
LINE
8
BLACK
6
CONTINUOUS
10
200.572
20
-33.4396
11
200.595
21
-33.4265
0
LINE
8
BLACK
6
CONTINUOUS
10
200.595
20
-33.4265
11
200.983
21
-33.2851
0
LINE
8
BLACK
6
CONTINUOUS
10
200.983
20
-33.2851
11
200.993
21
-33.2834
0
LINE
8
BLACK
6
CONTINUOUS
10
200.993
20
-33.2834
11
201.002
21
-33.2809
0
LINE
8
BLACK
6
CONTINUOUS
10
201.002
20
-33.2809
11
201.206
21
-33.2631
0
LINE
8
BLACK
6
CONTINUOUS
10
201.206
20
-33.2631
11
201.209
21
-33.2625
0
LINE
8
BLACK
6
CONTINUOUS
10
201.209
20
-33.2625
11
212.722
21
-33.2625
0
LINE
8
BLACK
6
CONTINUOUS
10
212.722
20
-33.2625
11
212.915
21
-33.2456
0
LINE
8
BLACK
6
CONTINUOUS
10
212.915
20
-33.2456
11
213.282
21
-33.112
0
LINE
8
BLACK
6
CONTINUOUS
10
213.282
20
-33.112
11
213.579
21
-32.8632
0
LINE
8
BLACK
6
CONTINUOUS
10
213.579
20
-32.8632
11
213.772
21
-32.528
0
LINE
8
BLACK
6
CONTINUOUS
10
213.772
20
-32.528
11
213.841
21
-32.1403
0
LINE
8
BLACK
6
CONTINUOUS
10
213.841
20
-32.1403
11
213.841
21
-29.3622
0
LINE
8
BLACK
6
CONTINUOUS
10
213.841
20
-29.3622
11
213.842
21
-29.3557
0
LINE
8
BLACK
6
CONTINUOUS
10
213.842
20
-29.3557
11
213.842
21
-29.3557
0
LINE
8
BLACK
6
CONTINUOUS
10
213.842
20
-29.3557
11
213.89
21
-29.0842
0
LINE
8
BLACK
6
CONTINUOUS
10
213.89
20
-29.0842
11
213.899
21
-29.0598
0
LINE
8
BLACK
6
CONTINUOUS
10
213.899
20
-29.0598
11
213.899
21
-29.0598
0
LINE
8
BLACK
6
CONTINUOUS
10
213.899
20
-29.0598
11
214.036
21
-28.821
0
LINE
8
BLACK
6
CONTINUOUS
10
214.036
20
-28.821
11
214.053
21
-28.8011
0
LINE
8
BLACK
6
CONTINUOUS
10
214.053
20
-28.8011
11
214.053
21
-28.8011
0
LINE
8
BLACK
6
CONTINUOUS
10
214.053
20
-28.8011
11
214.264
21
-28.6239
0
LINE
8
BLACK
6
CONTINUOUS
10
214.264
20
-28.6239
11
214.287
21
-28.6109
0
LINE
8
BLACK
6
CONTINUOUS
10
214.287
20
-28.6109
11
214.287
21
-28.6109
0
LINE
8
BLACK
6
CONTINUOUS
10
214.287
20
-28.6109
11
214.546
21
-28.5166
0
LINE
8
BLACK
6
CONTINUOUS
10
214.546
20
-28.5166
11
214.556
21
-28.5149
0
LINE
8
BLACK
6
CONTINUOUS
10
214.556
20
-28.5149
11
214.565
21
-28.5123
0
LINE
8
BLACK
6
CONTINUOUS
10
214.565
20
-28.5123
11
214.7
21
-28.5006
0
LINE
8
BLACK
6
CONTINUOUS
10
214.7
20
-28.5006
11
214.703
21
-28.5
0
LINE
8
BLACK
6
CONTINUOUS
10
214.703
20
-28.5
11
223.447
21
-28.5
0
LINE
8
BLACK
6
CONTINUOUS
10
223.447
20
-28.5
11
223.454
21
-28.5011
0
LINE
8
BLACK
6
CONTINUOUS
10
223.454
20
-28.5011
11
223.454
21
-28.5011
0
LINE
8
BLACK
6
CONTINUOUS
10
223.454
20
-28.5011
11
223.725
21
-28.549
0
LINE
8
BLACK
6
CONTINUOUS
10
223.725
20
-28.549
11
223.75
21
-28.5579
0
LINE
8
BLACK
6
CONTINUOUS
10
223.75
20
-28.5579
11
223.75
21
-28.5579
0
LINE
8
BLACK
6
CONTINUOUS
10
223.75
20
-28.5579
11
223.988
21
-28.6958
0
LINE
8
BLACK
6
CONTINUOUS
10
223.988
20
-28.6958
11
224.008
21
-28.7125
0
LINE
8
BLACK
6
CONTINUOUS
10
224.008
20
-28.7125
11
224.008
21
-28.7125
0
LINE
8
BLACK
6
CONTINUOUS
10
224.008
20
-28.7125
11
224.185
21
-28.9237
0
LINE
8
BLACK
6
CONTINUOUS
10
224.185
20
-28.9237
11
224.199
21
-28.9462
0
LINE
8
BLACK
6
CONTINUOUS
10
224.199
20
-28.9462
11
224.199
21
-28.9462
0
LINE
8
BLACK
6
CONTINUOUS
10
224.199
20
-28.9462
11
224.293
21
-29.2053
0
LINE
8
BLACK
6
CONTINUOUS
10
224.293
20
-29.2053
11
224.294
21
-29.2149
0
LINE
8
BLACK
6
CONTINUOUS
10
224.294
20
-29.2149
11
224.297
21
-29.2244
0
LINE
8
BLACK
6
CONTINUOUS
10
224.297
20
-29.2244
11
224.309
21
-29.359
0
LINE
8
BLACK
6
CONTINUOUS
10
224.309
20
-29.359
11
224.309
21
-29.3622
0
LINE
8
BLACK
6
CONTINUOUS
10
224.309
20
-29.3622
11
224.309
21
-29.7623
0
LINE
8
BLACK
6
CONTINUOUS
10
224.309
20
-29.7623
11
224.326
21
-29.956
0
LINE
8
BLACK
6
CONTINUOUS
10
224.326
20
-29.956
11
224.46
21
-30.3229
0
LINE
8
BLACK
6
CONTINUOUS
10
224.46
20
-30.3229
11
224.709
21
-30.6194
0
LINE
8
BLACK
6
CONTINUOUS
10
224.709
20
-30.6194
11
225.044
21
-30.8129
0
LINE
8
BLACK
6
CONTINUOUS
10
225.044
20
-30.8129
11
225.432
21
-30.8812
0
LINE
8
BLACK
6
CONTINUOUS
10
225.432
20
-30.8812
11
227.803
21
-30.8812
0
LINE
8
BLACK
6
CONTINUOUS
10
227.803
20
-30.8812
11
227.997
21
-30.8643
0
LINE
8
BLACK
6
CONTINUOUS
10
227.997
20
-30.8643
11
228.363
21
-30.7308
0
LINE
8
BLACK
6
CONTINUOUS
10
228.363
20
-30.7308
11
228.66
21
-30.482
0
LINE
8
BLACK
6
CONTINUOUS
10
228.66
20
-30.482
11
228.854
21
-30.1468
0
LINE
8
BLACK
6
CONTINUOUS
10
228.854
20
-30.1468
11
228.922
21
-29.7591
0
LINE
8
BLACK
6
CONTINUOUS
10
228.922
20
-29.7591
11
228.922
21
-27.7872
0
LINE
8
BLACK
6
CONTINUOUS
10
228.922
20
-27.7872
11
228.847
21
-27.3141
0
LINE
8
BLACK
6
CONTINUOUS
10
228.847
20
-27.3141
11
228.632
21
-26.8928
0
LINE
8
BLACK
6
CONTINUOUS
10
228.632
20
-26.8928
11
228.298
21
-26.5584
0
LINE
8
BLACK
6
CONTINUOUS
10
228.298
20
-26.5584
11
227.876
21
-26.3437
0
LINE
8
BLACK
6
CONTINUOUS
10
227.876
20
-26.3437
11
227.403
21
-26.2687
0
LINE
8
BLACK
6
CONTINUOUS
10
227.403
20
-26.2687
11
136.928
21
-26.2687
0
LINE
8
BLACK
6
CONTINUOUS
10
136.928
20
-26.2687
11
136.455
21
-26.3437
0
LINE
8
BLACK
6
CONTINUOUS
10
255.997
20
-123.751
11
255.997
21
-123.751
0
LINE
8
BLACK
6
CONTINUOUS
10
255.997
20
-123.751
11
256.405
21
-123.823
0
LINE
8
BLACK
6
CONTINUOUS
10
256.405
20
-123.823
11
256.429
21
-123.832
0
LINE
8
BLACK
6
CONTINUOUS
10
256.429
20
-123.832
11
256.429
21
-123.832
0
LINE
8
BLACK
6
CONTINUOUS
10
256.429
20
-123.832
11
256.787
21
-124.039
0
LINE
8
BLACK
6
CONTINUOUS
10
256.787
20
-124.039
11
256.807
21
-124.055
0
LINE
8
BLACK
6
CONTINUOUS
10
256.807
20
-124.055
11
256.807
21
-124.055
0
LINE
8
BLACK
6
CONTINUOUS
10
256.807
20
-124.055
11
257.073
21
-124.372
0
LINE
8
BLACK
6
CONTINUOUS
10
257.073
20
-124.372
11
257.073
21
-124.372
0
LINE
8
BLACK
6
CONTINUOUS
10
257.073
20
-124.372
11
257.086
21
-124.395
0
LINE
8
BLACK
6
CONTINUOUS
10
257.086
20
-124.395
11
257.227
21
-124.783
0
LINE
8
BLACK
6
CONTINUOUS
10
257.227
20
-124.783
11
257.229
21
-124.793
0
LINE
8
BLACK
6
CONTINUOUS
10
257.229
20
-124.793
11
257.232
21
-124.802
0
LINE
8
BLACK
6
CONTINUOUS
10
257.232
20
-124.802
11
257.25
21
-125.009
0
LINE
8
BLACK
6
CONTINUOUS
10
257.25
20
-125.009
11
257.267
21
-125.206
0
LINE
8
BLACK
6
CONTINUOUS
10
257.267
20
-125.206
11
257.4
21
-125.573
0
LINE
8
BLACK
6
CONTINUOUS
10
257.4
20
-125.573
11
257.649
21
-125.869
0
LINE
8
BLACK
6
CONTINUOUS
10
257.649
20
-125.869
11
257.984
21
-126.063
0
LINE
8
BLACK
6
CONTINUOUS
10
257.984
20
-126.063
11
258.372
21
-126.131
0
LINE
8
BLACK
6
CONTINUOUS
10
258.372
20
-126.131
11
275.041
21
-126.131
0
LINE
8
BLACK
6
CONTINUOUS
10
275.041
20
-126.131
11
275.047
21
-126.132
0
LINE
8
BLACK
6
CONTINUOUS
10
275.047
20
-126.132
11
275.047
21
-126.132
0
LINE
8
BLACK
6
CONTINUOUS
10
275.047
20
-126.132
11
275.455
21
-126.204
0
LINE
8
BLACK
6
CONTINUOUS
10
275.455
20
-126.204
11
275.479
21
-126.213
0
LINE
8
BLACK
6
CONTINUOUS
10
275.479
20
-126.213
11
275.479
21
-126.213
0
LINE
8
BLACK
6
CONTINUOUS
10
275.479
20
-126.213
11
275.837
21
-126.42
0
LINE
8
BLACK
6
CONTINUOUS
10
275.837
20
-126.42
11
275.857
21
-126.437
0
LINE
8
BLACK
6
CONTINUOUS
10
275.857
20
-126.437
11
275.857
21
-126.437
0
LINE
8
BLACK
6
CONTINUOUS
10
275.857
20
-126.437
11
276.123
21
-126.753
0
LINE
8
BLACK
6
CONTINUOUS
10
276.123
20
-126.753
11
276.123
21
-126.753
0
LINE
8
BLACK
6
CONTINUOUS
10
276.123
20
-126.753
11
276.136
21
-126.776
0
LINE
8
BLACK
6
CONTINUOUS
10
276.136
20
-126.776
11
276.277
21
-127.164
0
LINE
8
BLACK
6
CONTINUOUS
10
276.277
20
-127.164
11
276.279
21
-127.174
0
LINE
8
BLACK
6
CONTINUOUS
10
276.279
20
-127.174
11
276.282
21
-127.184
0
LINE
8
BLACK
6
CONTINUOUS
10
276.282
20
-127.184
11
276.299
21
-127.387
0
LINE
8
BLACK
6
CONTINUOUS
10
276.299
20
-127.387
11
276.3
21
-127.39
0
LINE
8
BLACK
6
CONTINUOUS
10
276.3
20
-127.39
11
276.3
21
-129.775
0
LINE
8
BLACK
6
CONTINUOUS
10
276.3
20
-129.775
11
276.317
21
-129.969
0
LINE
8
BLACK
6
CONTINUOUS
10
276.317
20
-129.969
11
276.45
21
-130.335
0
LINE
8
BLACK
6
CONTINUOUS
10
276.45
20
-130.335
11
276.699
21
-130.632
0
LINE
8
BLACK
6
CONTINUOUS
10
276.699
20
-130.632
11
277.034
21
-130.825
0
LINE
8
BLACK
6
CONTINUOUS
10
277.034
20
-130.825
11
277.422
21
-130.894
0
LINE
8
BLACK
6
CONTINUOUS
10
277.422
20
-130.894
11
313.131
21
-130.894
0
LINE
8
BLACK
6
CONTINUOUS
10
313.131
20
-130.894
11
313.325
21
-130.877
0
LINE
8
BLACK
6
CONTINUOUS
10
313.325
20
-130.877
11
313.692
21
-130.743
0
LINE
8
BLACK
6
CONTINUOUS
10
313.692
20
-130.743
11
313.988
21
-130.494
0
LINE
8
BLACK
6
CONTINUOUS
10
313.988
20
-130.494
11
314.182
21
-130.159
0
LINE
8
BLACK
6
CONTINUOUS
10
314.182
20
-130.159
11
314.25
21
-129.772
0
LINE
8
BLACK
6
CONTINUOUS
10
314.25
20
-129.772
11
314.25
21
-126.597
0
LINE
8
BLACK
6
CONTINUOUS
10
314.25
20
-126.597
11
314.251
21
-126.59
0
LINE
8
BLACK
6
CONTINUOUS
10
314.251
20
-126.59
11
314.251
21
-126.59
0
LINE
8
BLACK
6
CONTINUOUS
10
314.251
20
-126.59
11
314.323
21
-126.183
0
LINE
8
BLACK
6
CONTINUOUS
10
314.323
20
-126.183
11
314.332
21
-126.158
0
LINE
8
BLACK
6
CONTINUOUS
10
314.332
20
-126.158
11
314.332
21
-126.158
0
LINE
8
BLACK
6
CONTINUOUS
10
314.332
20
-126.158
11
314.539
21
-125.8
0
LINE
8
BLACK
6
CONTINUOUS
10
314.539
20
-125.8
11
314.555
21
-125.78
0
LINE
8
BLACK
6
CONTINUOUS
10
314.555
20
-125.78
11
314.555
21
-125.78
0
LINE
8
BLACK
6
CONTINUOUS
10
314.555
20
-125.78
11
314.872
21
-125.515
0
LINE
8
BLACK
6
CONTINUOUS
10
314.872
20
-125.515
11
314.872
21
-125.515
0
LINE
8
BLACK
6
CONTINUOUS
10
314.872
20
-125.515
11
314.895
21
-125.502
0
LINE
8
BLACK
6
CONTINUOUS
10
314.895
20
-125.502
11
315.283
21
-125.36
0
LINE
8
BLACK
6
CONTINUOUS
10
315.283
20
-125.36
11
315.293
21
-125.358
0
LINE
8
BLACK
6
CONTINUOUS
10
315.293
20
-125.358
11
315.302
21
-125.356
0
LINE
8
BLACK
6
CONTINUOUS
10
315.302
20
-125.356
11
315.506
21
-125.338
0
LINE
8
BLACK
6
CONTINUOUS
10
315.506
20
-125.338
11
315.509
21
-125.337
0
LINE
8
BLACK
6
CONTINUOUS
10
315.509
20
-125.337
11
319.888
21
-125.337
0
LINE
8
BLACK
6
CONTINUOUS
10
319.888
20
-125.337
11
319.894
21
-125.339
0
LINE
8
BLACK
6
CONTINUOUS
10
319.894
20
-125.339
11
319.894
21
-125.339
0
LINE
8
BLACK
6
CONTINUOUS
10
319.894
20
-125.339
11
320.301
21
-125.41
0
LINE
8
BLACK
6
CONTINUOUS
10
320.301
20
-125.41
11
320.326
21
-125.419
0
LINE
8
BLACK
6
CONTINUOUS
10
320.326
20
-125.419
11
320.326
21
-125.419
0
LINE
8
BLACK
6
CONTINUOUS
10
320.326
20
-125.419
11
320.684
21
-125.626
0
LINE
8
BLACK
6
CONTINUOUS
10
320.684
20
-125.626
11
320.704
21
-125.643
0
LINE
8
BLACK
6
CONTINUOUS
10
320.704
20
-125.643
11
320.704
21
-125.643
0
LINE
8
BLACK
6
CONTINUOUS
10
320.704
20
-125.643
11
320.97
21
-125.96
0
LINE
8
BLACK
6
CONTINUOUS
10
320.97
20
-125.96
11
320.97
21
-125.96
0
LINE
8
BLACK
6
CONTINUOUS
10
320.97
20
-125.96
11
320.983
21
-125.982
0
LINE
8
BLACK
6
CONTINUOUS
10
320.983
20
-125.982
11
321.124
21
-126.371
0
LINE
8
BLACK
6
CONTINUOUS
10
321.124
20
-126.371
11
321.126
21
-126.38
0
LINE
8
BLACK
6
CONTINUOUS
10
321.126
20
-126.38
11
321.129
21
-126.39
0
LINE
8
BLACK
6
CONTINUOUS
10
321.129
20
-126.39
11
321.146
21
-126.593
0
LINE
8
BLACK
6
CONTINUOUS
10
321.146
20
-126.593
11
321.147
21
-126.597
0
LINE
8
BLACK
6
CONTINUOUS
10
321.147
20
-126.597
11
321.147
21
-133.357
0
LINE
8
BLACK
6
CONTINUOUS
10
321.147
20
-133.357
11
321.146
21
-133.362
0
LINE
8
BLACK
6
CONTINUOUS
10
321.146
20
-133.362
11
321.068
21
-133.852
0
LINE
8
BLACK
6
CONTINUOUS
10
321.068
20
-133.852
11
321.065
21
-133.863
0
LINE
8
BLACK
6
CONTINUOUS
10
321.065
20
-133.863
11
321.061
21
-133.875
0
LINE
8
BLACK
6
CONTINUOUS
10
321.061
20
-133.875
11
320.836
21
-134.317
0
LINE
8
BLACK
6
CONTINUOUS
10
320.836
20
-134.317
11
320.822
21
-134.336
0
LINE
8
BLACK
6
CONTINUOUS
10
320.822
20
-134.336
11
320.471
21
-134.687
0
LINE
8
BLACK
6
CONTINUOUS
10
320.471
20
-134.687
11
320.452
21
-134.701
0
LINE
8
BLACK
6
CONTINUOUS
10
320.452
20
-134.701
11
320.009
21
-134.927
0
LINE
8
BLACK
6
CONTINUOUS
10
320.009
20
-134.927
11
319.987
21
-134.934
0
LINE
8
BLACK
6
CONTINUOUS
10
319.987
20
-134.934
11
319.497
21
-135.011
0
LINE
8
BLACK
6
CONTINUOUS
10
319.497
20
-135.011
11
319.491
21
-135.012
0
LINE
8
BLACK
6
CONTINUOUS
10
319.491
20
-135.012
11
273.837
21
-135.012
0
LINE
8
BLACK
6
CONTINUOUS
10
273.837
20
-135.012
11
273.831
21
-135.011
0
LINE
8
BLACK
6
CONTINUOUS
10
273.831
20
-135.011
11
273.341
21
-134.934
0
LINE
8
BLACK
6
CONTINUOUS
10
273.341
20
-134.934
11
273.33
21
-134.93
0
LINE
8
BLACK
6
CONTINUOUS
10
273.33
20
-134.93
11
273.319
21
-134.927
0
LINE
8
BLACK
6
CONTINUOUS
10
273.319
20
-134.927
11
272.877
21
-134.701
0
LINE
8
BLACK
6
CONTINUOUS
10
272.877
20
-134.701
11
272.858
21
-134.687
0
LINE
8
BLACK
6
CONTINUOUS
10
272.858
20
-134.687
11
272.506
21
-134.336
0
LINE
8
BLACK
6
CONTINUOUS
10
272.506
20
-134.336
11
272.493
21
-134.317
0
LINE
8
BLACK
6
CONTINUOUS
10
272.493
20
-134.317
11
272.267
21
-133.875
0
LINE
8
BLACK
6
CONTINUOUS
10
272.267
20
-133.875
11
272.26
21
-133.852
0
LINE
8
BLACK
6
CONTINUOUS
10
272.26
20
-133.852
11
272.182
21
-133.362
0
LINE
8
BLACK
6
CONTINUOUS
10
272.182
20
-133.362
11
272.181
21
-133.357
0
LINE
8
BLACK
6
CONTINUOUS
10
272.181
20
-133.357
11
272.181
21
-130.178
0
LINE
8
BLACK
6
CONTINUOUS
10
272.181
20
-130.178
11
272.164
21
-129.985
0
LINE
8
BLACK
6
CONTINUOUS
10
272.164
20
-129.985
11
272.031
21
-129.618
0
LINE
8
BLACK
6
CONTINUOUS
10
272.031
20
-129.618
11
271.782
21
-129.321
0
LINE
8
BLACK
6
CONTINUOUS
10
271.782
20
-129.321
11
271.447
21
-129.128
0
LINE
8
BLACK
6
CONTINUOUS
10
271.447
20
-129.128
11
271.059
21
-129.059
0
LINE
8
BLACK
6
CONTINUOUS
10
271.059
20
-129.059
11
251.612
21
-129.059
0
LINE
8
BLACK
6
CONTINUOUS
10
251.612
20
-129.059
11
251.606
21
-129.058
0
LINE
8
BLACK
6
CONTINUOUS
10
251.606
20
-129.058
11
251.606
21
-129.058
0
LINE
8
BLACK
6
CONTINUOUS
10
251.606
20
-129.058
11
251.199
21
-128.986
0
LINE
8
BLACK
6
CONTINUOUS
10
251.199
20
-128.986
11
251.174
21
-128.978
0
LINE
8
BLACK
6
CONTINUOUS
10
251.174
20
-128.978
11
250.816
21
-128.771
0
LINE
8
BLACK
6
CONTINUOUS
10
250.816
20
-128.771
11
250.796
21
-128.754
0
LINE
8
BLACK
6
CONTINUOUS
10
250.796
20
-128.754
11
250.53
21
-128.437
0
LINE
8
BLACK
6
CONTINUOUS
10
250.53
20
-128.437
11
250.517
21
-128.415
0
LINE
8
BLACK
6
CONTINUOUS
10
250.517
20
-128.415
11
250.376
21
-128.026
0
LINE
8
BLACK
6
CONTINUOUS
10
250.376
20
-128.026
11
250.374
21
-128.017
0
LINE
8
BLACK
6
CONTINUOUS
10
250.374
20
-128.017
11
250.371
21
-128.007
0
LINE
8
BLACK
6
CONTINUOUS
10
250.371
20
-128.007
11
250.354
21
-127.804
0
LINE
8
BLACK
6
CONTINUOUS
10
250.354
20
-127.804
11
250.353
21
-127.8
0
LINE
8
BLACK
6
CONTINUOUS
10
250.353
20
-127.8
11
250.353
21
-125.009
0
LINE
8
BLACK
6
CONTINUOUS
10
250.353
20
-125.009
11
250.354
21
-125.003
0
LINE
8
BLACK
6
CONTINUOUS
10
250.354
20
-125.003
11
250.354
21
-125.003
0
LINE
8
BLACK
6
CONTINUOUS
10
250.354
20
-125.003
11
250.426
21
-124.595
0
LINE
8
BLACK
6
CONTINUOUS
10
250.426
20
-124.595
11
250.435
21
-124.571
0
LINE
8
BLACK
6
CONTINUOUS
10
250.435
20
-124.571
11
250.435
21
-124.571
0
LINE
8
BLACK
6
CONTINUOUS
10
250.435
20
-124.571
11
250.642
21
-124.213
0
LINE
8
BLACK
6
CONTINUOUS
10
250.642
20
-124.213
11
250.658
21
-124.193
0
LINE
8
BLACK
6
CONTINUOUS
10
250.658
20
-124.193
11
250.658
21
-124.193
0
LINE
8
BLACK
6
CONTINUOUS
10
250.658
20
-124.193
11
250.975
21
-123.927
0
LINE
8
BLACK
6
CONTINUOUS
10
250.975
20
-123.927
11
250.975
21
-123.927
0
LINE
8
BLACK
6
CONTINUOUS
10
250.975
20
-123.927
11
250.998
21
-123.914
0
LINE
8
BLACK
6
CONTINUOUS
10
250.998
20
-123.914
11
251.386
21
-123.773
0
LINE
8
BLACK
6
CONTINUOUS
10
251.386
20
-123.773
11
251.396
21
-123.771
0
LINE
8
BLACK
6
CONTINUOUS
10
251.396
20
-123.771
11
251.405
21
-123.768
0
LINE
8
BLACK
6
CONTINUOUS
10
251.405
20
-123.768
11
251.609
21
-123.751
0
LINE
8
BLACK
6
CONTINUOUS
10
251.609
20
-123.751
11
251.612
21
-123.75
0
LINE
8
BLACK
6
CONTINUOUS
10
251.612
20
-123.75
11
255.991
21
-123.75
0
LINE
8
BLACK
6
CONTINUOUS
10
255.991
20
-123.75
11
255.997
21
-123.751
0
LINE
8
BLACK
6
CONTINUOUS
10
251.622
20
-123.9
11
251.428
21
-123.917
0
LINE
8
BLACK
6
CONTINUOUS
10
251.428
20
-123.917
11
251.062
21
-124.05
0
LINE
8
BLACK
6
CONTINUOUS
10
251.062
20
-124.05
11
250.765
21
-124.299
0
LINE
8
BLACK
6
CONTINUOUS
10
250.765
20
-124.299
11
250.571
21
-124.634
0
LINE
8
BLACK
6
CONTINUOUS
10
250.571
20
-124.634
11
250.503
21
-125.022
0
LINE
8
BLACK
6
CONTINUOUS
10
250.503
20
-125.022
11
250.503
21
-127.79
0
LINE
8
BLACK
6
CONTINUOUS
10
250.503
20
-127.79
11
250.52
21
-127.984
0
LINE
8
BLACK
6
CONTINUOUS
10
250.52
20
-127.984
11
250.654
21
-128.351
0
LINE
8
BLACK
6
CONTINUOUS
10
250.654
20
-128.351
11
250.902
21
-128.647
0
LINE
8
BLACK
6
CONTINUOUS
10
250.902
20
-128.647
11
251.238
21
-128.841
0
LINE
8
BLACK
6
CONTINUOUS
10
251.238
20
-128.841
11
251.625
21
-128.909
0
LINE
8
BLACK
6
CONTINUOUS
10
251.625
20
-128.909
11
271.072
21
-128.909
0
LINE
8
BLACK
6
CONTINUOUS
10
271.072
20
-128.909
11
271.079
21
-128.911
0
LINE
8
BLACK
6
CONTINUOUS
10
271.079
20
-128.911
11
271.079
21
-128.911
0
LINE
8
BLACK
6
CONTINUOUS
10
271.079
20
-128.911
11
271.486
21
-128.982
0
LINE
8
BLACK
6
CONTINUOUS
10
271.486
20
-128.982
11
271.51
21
-128.991
0
LINE
8
BLACK
6
CONTINUOUS
10
271.51
20
-128.991
11
271.51
21
-128.991
0
LINE
8
BLACK
6
CONTINUOUS
10
271.51
20
-128.991
11
271.868
21
-129.198
0
LINE
8
BLACK
6
CONTINUOUS
10
271.868
20
-129.198
11
271.888
21
-129.215
0
LINE
8
BLACK
6
CONTINUOUS
10
271.888
20
-129.215
11
271.888
21
-129.215
0
LINE
8
BLACK
6
CONTINUOUS
10
271.888
20
-129.215
11
272.154
21
-129.531
0
LINE
8
BLACK
6
CONTINUOUS
10
272.154
20
-129.531
11
272.154
21
-129.531
0
LINE
8
BLACK
6
CONTINUOUS
10
272.154
20
-129.531
11
272.167
21
-129.554
0
LINE
8
BLACK
6
CONTINUOUS
10
272.167
20
-129.554
11
272.309
21
-129.943
0
LINE
8
BLACK
6
CONTINUOUS
10
272.309
20
-129.943
11
272.31
21
-129.952
0
LINE
8
BLACK
6
CONTINUOUS
10
272.31
20
-129.952
11
272.313
21
-129.962
0
LINE
8
BLACK
6
CONTINUOUS
10
272.313
20
-129.962
11
272.331
21
-130.165
0
LINE
8
BLACK
6
CONTINUOUS
10
272.331
20
-130.165
11
272.331
21
-130.168
0
LINE
8
BLACK
6
CONTINUOUS
10
272.331
20
-130.168
11
272.331
21
-133.344
0
LINE
8
BLACK
6
CONTINUOUS
10
272.331
20
-133.344
11
272.406
21
-133.817
0
LINE
8
BLACK
6
CONTINUOUS
10
272.406
20
-133.817
11
272.621
21
-134.238
0
LINE
8
BLACK
6
CONTINUOUS
10
272.621
20
-134.238
11
272.955
21
-134.573
0
LINE
8
BLACK
6
CONTINUOUS
10
272.955
20
-134.573
11
273.377
21
-134.788
0
LINE
8
BLACK
6
CONTINUOUS
10
273.377
20
-134.788
11
273.85
21
-134.862
0
LINE
8
BLACK
6
CONTINUOUS
10
273.85
20
-134.862
11
319.478
21
-134.862
0
LINE
8
BLACK
6
CONTINUOUS
10
319.478
20
-134.862
11
319.951
21
-134.788
0
LINE
8
BLACK
6
CONTINUOUS
10
319.951
20
-134.788
11
320.373
21
-134.573
0
LINE
8
BLACK
6
CONTINUOUS
10
320.373
20
-134.573
11
320.707
21
-134.238
0
LINE
8
BLACK
6
CONTINUOUS
10
320.707
20
-134.238
11
320.922
21
-133.817
0
LINE
8
BLACK
6
CONTINUOUS
10
320.922
20
-133.817
11
320.997
21
-133.344
0
LINE
8
BLACK
6
CONTINUOUS
10
320.997
20
-133.344
11
320.997
21
-126.606
0
LINE
8
BLACK
6
CONTINUOUS
10
320.997
20
-126.606
11
320.98
21
-126.413
0
LINE
8
BLACK
6
CONTINUOUS
10
320.98
20
-126.413
11
320.846
21
-126.046
0
LINE
8
BLACK
6
CONTINUOUS
10
320.846
20
-126.046
11
320.598
21
-125.749
0
LINE
8
BLACK
6
CONTINUOUS
10
320.598
20
-125.749
11
320.262
21
-125.556
0
LINE
8
BLACK
6
CONTINUOUS
10
320.262
20
-125.556
11
319.875
21
-125.487
0
LINE
8
BLACK
6
CONTINUOUS
10
319.875
20
-125.487
11
315.519
21
-125.487
0
LINE
8
BLACK
6
CONTINUOUS
10
315.519
20
-125.487
11
315.325
21
-125.504
0
LINE
8
BLACK
6
CONTINUOUS
10
315.325
20
-125.504
11
314.958
21
-125.638
0
LINE
8
BLACK
6
CONTINUOUS
10
314.958
20
-125.638
11
314.662
21
-125.887
0
LINE
8
BLACK
6
CONTINUOUS
10
314.662
20
-125.887
11
314.468
21
-126.222
0
LINE
8
BLACK
6
CONTINUOUS
10
314.468
20
-126.222
11
314.4
21
-126.61
0
LINE
8
BLACK
6
CONTINUOUS
10
314.4
20
-126.61
11
314.4
21
-129.785
0
LINE
8
BLACK
6
CONTINUOUS
10
314.4
20
-129.785
11
314.399
21
-129.791
0
LINE
8
BLACK
6
CONTINUOUS
10
314.399
20
-129.791
11
314.399
21
-129.791
0
LINE
8
BLACK
6
CONTINUOUS
10
314.399
20
-129.791
11
314.327
21
-130.198
0
LINE
8
BLACK
6
CONTINUOUS
10
314.327
20
-130.198
11
314.318
21
-130.223
0
LINE
8
BLACK
6
CONTINUOUS
10
314.318
20
-130.223
11
314.111
21
-130.581
0
LINE
8
BLACK
6
CONTINUOUS
10
314.111
20
-130.581
11
314.095
21
-130.601
0
LINE
8
BLACK
6
CONTINUOUS
10
314.095
20
-130.601
11
313.778
21
-130.867
0
LINE
8
BLACK
6
CONTINUOUS
10
313.778
20
-130.867
11
313.755
21
-130.88
0
LINE
8
BLACK
6
CONTINUOUS
10
313.755
20
-130.88
11
313.367
21
-131.021
0
LINE
8
BLACK
6
CONTINUOUS
10
313.367
20
-131.021
11
313.357
21
-131.023
0
LINE
8
BLACK
6
CONTINUOUS
10
313.357
20
-131.023
11
313.348
21
-131.025
0
LINE
8
BLACK
6
CONTINUOUS
10
313.348
20
-131.025
11
313.144
21
-131.043
0
LINE
8
BLACK
6
CONTINUOUS
10
313.144
20
-131.043
11
313.141
21
-131.044
0
LINE
8
BLACK
6
CONTINUOUS
10
313.141
20
-131.044
11
277.409
21
-131.044
0
LINE
8
BLACK
6
CONTINUOUS
10
277.409
20
-131.044
11
277.403
21
-131.043
0
LINE
8
BLACK
6
CONTINUOUS
10
277.403
20
-131.043
11
277.403
21
-131.043
0
LINE
8
BLACK
6
CONTINUOUS
10
277.403
20
-131.043
11
276.995
21
-130.971
0
LINE
8
BLACK
6
CONTINUOUS
10
276.995
20
-130.971
11
276.971
21
-130.962
0
LINE
8
BLACK
6
CONTINUOUS
10
276.971
20
-130.962
11
276.613
21
-130.755
0
LINE
8
BLACK
6
CONTINUOUS
10
276.613
20
-130.755
11
276.593
21
-130.738
0
LINE
8
BLACK
6
CONTINUOUS
10
276.593
20
-130.738
11
276.327
21
-130.422
0
LINE
8
BLACK
6
CONTINUOUS
10
276.327
20
-130.422
11
276.314
21
-130.399
0
LINE
8
BLACK
6
CONTINUOUS
10
276.314
20
-130.399
11
276.173
21
-130.011
0
LINE
8
BLACK
6
CONTINUOUS
10
276.173
20
-130.011
11
276.171
21
-130.001
0
LINE
8
BLACK
6
CONTINUOUS
10
276.171
20
-130.001
11
276.168
21
-129.991
0
LINE
8
BLACK
6
CONTINUOUS
10
276.168
20
-129.991
11
276.151
21
-129.788
0
LINE
8
BLACK
6
CONTINUOUS
10
276.151
20
-129.788
11
276.15
21
-129.785
0
LINE
8
BLACK
6
CONTINUOUS
10
276.15
20
-129.785
11
276.15
21
-127.4
0
LINE
8
BLACK
6
CONTINUOUS
10
276.15
20
-127.4
11
276.133
21
-127.206
0
LINE
8
BLACK
6
CONTINUOUS
10
276.133
20
-127.206
11
276
21
-126.84
0
LINE
8
BLACK
6
CONTINUOUS
10
276
20
-126.84
11
275.751
21
-126.543
0
LINE
8
BLACK
6
CONTINUOUS
10
275.751
20
-126.543
11
275.416
21
-126.35
0
LINE
8
BLACK
6
CONTINUOUS
10
275.416
20
-126.35
11
275.028
21
-126.281
0
LINE
8
BLACK
6
CONTINUOUS
10
275.028
20
-126.281
11
258.359
21
-126.281
0
LINE
8
BLACK
6
CONTINUOUS
10
258.359
20
-126.281
11
258.353
21
-126.28
0
LINE
8
BLACK
6
CONTINUOUS
10
258.353
20
-126.28
11
258.353
21
-126.28
0
LINE
8
BLACK
6
CONTINUOUS
10
258.353
20
-126.28
11
257.945
21
-126.208
0
LINE
8
BLACK
6
CONTINUOUS
10
257.945
20
-126.208
11
257.921
21
-126.199
0
LINE
8
BLACK
6
CONTINUOUS
10
257.921
20
-126.199
11
257.563
21
-125.993
0
LINE
8
BLACK
6
CONTINUOUS
10
257.563
20
-125.993
11
257.543
21
-125.976
0
LINE
8
BLACK
6
CONTINUOUS
10
257.543
20
-125.976
11
257.277
21
-125.659
0
LINE
8
BLACK
6
CONTINUOUS
10
257.277
20
-125.659
11
257.264
21
-125.637
0
LINE
8
BLACK
6
CONTINUOUS
10
257.264
20
-125.637
11
257.123
21
-125.248
0
LINE
8
BLACK
6
CONTINUOUS
10
257.123
20
-125.248
11
257.121
21
-125.238
0
LINE
8
BLACK
6
CONTINUOUS
10
257.121
20
-125.238
11
257.118
21
-125.229
0
LINE
8
BLACK
6
CONTINUOUS
10
257.118
20
-125.229
11
257.1
21
-125.022
0
LINE
8
BLACK
6
CONTINUOUS
10
257.1
20
-125.022
11
257.083
21
-124.825
0
LINE
8
BLACK
6
CONTINUOUS
10
257.083
20
-124.825
11
256.95
21
-124.458
0
LINE
8
BLACK
6
CONTINUOUS
10
256.95
20
-124.458
11
256.701
21
-124.162
0
LINE
8
BLACK
6
CONTINUOUS
10
256.701
20
-124.162
11
256.366
21
-123.968
0
LINE
8
BLACK
6
CONTINUOUS
10
256.366
20
-123.968
11
255.978
21
-123.9
0
LINE
8
BLACK
6
CONTINUOUS
10
255.978
20
-123.9
11
251.622
21
-123.9
0
LINE
8
BLACK
6
CONTINUOUS
10
111.932
20
-123.751
11
111.932
21
-123.751
0
LINE
8
BLACK
6
CONTINUOUS
10
111.932
20
-123.751
11
112.339
21
-123.823
0
LINE
8
BLACK
6
CONTINUOUS
10
112.339
20
-123.823
11
112.363
21
-123.832
0
LINE
8
BLACK
6
CONTINUOUS
10
112.363
20
-123.832
11
112.363
21
-123.832
0
LINE
8
BLACK
6
CONTINUOUS
10
112.363
20
-123.832
11
112.722
21
-124.039
0
LINE
8
BLACK
6
CONTINUOUS
10
112.722
20
-124.039
11
112.742
21
-124.055
0
LINE
8
BLACK
6
CONTINUOUS
10
112.742
20
-124.055
11
112.742
21
-124.055
0
LINE
8
BLACK
6
CONTINUOUS
10
112.742
20
-124.055
11
113.007
21
-124.372
0
LINE
8
BLACK
6
CONTINUOUS
10
113.007
20
-124.372
11
113.007
21
-124.372
0
LINE
8
BLACK
6
CONTINUOUS
10
113.007
20
-124.372
11
113.02
21
-124.395
0
LINE
8
BLACK
6
CONTINUOUS
10
113.02
20
-124.395
11
113.162
21
-124.783
0
LINE
8
BLACK
6
CONTINUOUS
10
113.162
20
-124.783
11
113.163
21
-124.793
0
LINE
8
BLACK
6
CONTINUOUS
10
113.163
20
-124.793
11
113.166
21
-124.802
0
LINE
8
BLACK
6
CONTINUOUS
10
113.166
20
-124.802
11
113.184
21
-125.006
0
LINE
8
BLACK
6
CONTINUOUS
10
113.184
20
-125.006
11
113.184
21
-125.009
0
LINE
8
BLACK
6
CONTINUOUS
10
113.184
20
-125.009
11
113.184
21
-127.403
0
LINE
8
BLACK
6
CONTINUOUS
10
113.184
20
-127.403
11
113.183
21
-127.409
0
LINE
8
BLACK
6
CONTINUOUS
10
113.183
20
-127.409
11
113.106
21
-127.899
0
LINE
8
BLACK
6
CONTINUOUS
10
113.106
20
-127.899
11
113.102
21
-127.91
0
LINE
8
BLACK
6
CONTINUOUS
10
113.102
20
-127.91
11
113.099
21
-127.921
0
LINE
8
BLACK
6
CONTINUOUS
10
113.099
20
-127.921
11
112.873
21
-128.364
0
LINE
8
BLACK
6
CONTINUOUS
10
112.873
20
-128.364
11
112.859
21
-128.383
0
LINE
8
BLACK
6
CONTINUOUS
10
112.859
20
-128.383
11
112.508
21
-128.734
0
LINE
8
BLACK
6
CONTINUOUS
10
112.508
20
-128.734
11
112.489
21
-128.748
0
LINE
8
BLACK
6
CONTINUOUS
10
112.489
20
-128.748
11
112.046
21
-128.974
0
LINE
8
BLACK
6
CONTINUOUS
10
112.046
20
-128.974
11
112.024
21
-128.981
0
LINE
8
BLACK
6
CONTINUOUS
10
112.024
20
-128.981
11
111.534
21
-129.058
0
LINE
8
BLACK
6
CONTINUOUS
10
111.534
20
-129.058
11
111.528
21
-129.059
0
LINE
8
BLACK
6
CONTINUOUS
10
111.528
20
-129.059
11
92.4752
21
-129.059
0
LINE
8
BLACK
6
CONTINUOUS
10
92.4752
20
-129.059
11
92.2815
21
-129.076
0
LINE
8
BLACK
6
CONTINUOUS
10
92.2815
20
-129.076
11
91.9146
21
-129.21
0
LINE
8
BLACK
6
CONTINUOUS
10
91.9146
20
-129.21
11
91.6181
21
-129.459
0
LINE
8
BLACK
6
CONTINUOUS
10
91.6181
20
-129.459
11
91.4246
21
-129.794
0
LINE
8
BLACK
6
CONTINUOUS
10
91.4246
20
-129.794
11
91.3563
21
-130.182
0
LINE
8
BLACK
6
CONTINUOUS
10
91.3563
20
-130.182
11
91.3563
21
-133.753
0
LINE
8
BLACK
6
CONTINUOUS
10
91.3563
20
-133.753
11
91.3551
21
-133.76
0
LINE
8
BLACK
6
CONTINUOUS
10
91.3551
20
-133.76
11
91.3551
21
-133.76
0
LINE
8
BLACK
6
CONTINUOUS
10
91.3551
20
-133.76
11
91.2833
21
-134.167
0
LINE
8
BLACK
6
CONTINUOUS
10
91.2833
20
-134.167
11
91.2744
21
-134.192
0
LINE
8
BLACK
6
CONTINUOUS
10
91.2744
20
-134.192
11
91.0676
21
-134.55
0
LINE
8
BLACK
6
CONTINUOUS
10
91.0676
20
-134.55
11
91.0509
21
-134.57
0
LINE
8
BLACK
6
CONTINUOUS
10
91.0509
20
-134.57
11
90.7341
21
-134.835
0
LINE
8
BLACK
6
CONTINUOUS
10
90.7341
20
-134.835
11
90.7116
21
-134.848
0
LINE
8
BLACK
6
CONTINUOUS
10
90.7116
20
-134.848
11
90.323
21
-134.99
0
LINE
8
BLACK
6
CONTINUOUS
10
90.323
20
-134.99
11
90.3134
21
-134.992
0
LINE
8
BLACK
6
CONTINUOUS
10
90.3134
20
-134.992
11
90.3039
21
-134.994
0
LINE
8
BLACK
6
CONTINUOUS
10
90.3039
20
-134.994
11
90.1004
21
-135.012
0
LINE
8
BLACK
6
CONTINUOUS
10
90.1004
20
-135.012
11
90.0972
21
-135.012
0
LINE
8
BLACK
6
CONTINUOUS
10
90.0972
20
-135.012
11
44.0466
21
-135.012
0
LINE
8
BLACK
6
CONTINUOUS
10
44.0466
20
-135.012
11
44.0408
21
-135.011
0
LINE
8
BLACK
6
CONTINUOUS
10
44.0408
20
-135.011
11
43.5508
21
-134.934
0
LINE
8
BLACK
6
CONTINUOUS
10
43.5508
20
-134.934
11
43.5397
21
-134.93
0
LINE
8
BLACK
6
CONTINUOUS
10
43.5397
20
-134.93
11
43.5285
21
-134.927
0
LINE
8
BLACK
6
CONTINUOUS
10
43.5285
20
-134.927
11
43.086
21
-134.701
0
LINE
8
BLACK
6
CONTINUOUS
10
43.086
20
-134.701
11
43.067
21
-134.687
0
LINE
8
BLACK
6
CONTINUOUS
10
43.067
20
-134.687
11
42.7158
21
-134.336
0
LINE
8
BLACK
6
CONTINUOUS
10
42.7158
20
-134.336
11
42.702
21
-134.317
0
LINE
8
BLACK
6
CONTINUOUS
10
42.702
20
-134.317
11
42.4765
21
-133.875
0
LINE
8
BLACK
6
CONTINUOUS
10
42.4765
20
-133.875
11
42.4692
21
-133.852
0
LINE
8
BLACK
6
CONTINUOUS
10
42.4692
20
-133.852
11
42.3916
21
-133.362
0
LINE
8
BLACK
6
CONTINUOUS
10
42.3916
20
-133.362
11
42.3906
21
-133.357
0
LINE
8
BLACK
6
CONTINUOUS
10
42.3906
20
-133.357
11
42.3906
21
-126.597
0
LINE
8
BLACK
6
CONTINUOUS
10
42.3906
20
-126.597
11
42.3918
21
-126.59
0
LINE
8
BLACK
6
CONTINUOUS
10
42.3918
20
-126.59
11
42.3918
21
-126.59
0
LINE
8
BLACK
6
CONTINUOUS
10
42.3918
20
-126.59
11
42.4636
21
-126.183
0
LINE
8
BLACK
6
CONTINUOUS
10
42.4636
20
-126.183
11
42.4725
21
-126.158
0
LINE
8
BLACK
6
CONTINUOUS
10
42.4725
20
-126.158
11
42.4725
21
-126.158
0
LINE
8
BLACK
6
CONTINUOUS
10
42.4725
20
-126.158
11
42.6792
21
-125.8
0
LINE
8
BLACK
6
CONTINUOUS
10
42.6792
20
-125.8
11
42.696
21
-125.78
0
LINE
8
BLACK
6
CONTINUOUS
10
42.696
20
-125.78
11
42.696
21
-125.78
0
LINE
8
BLACK
6
CONTINUOUS
10
42.696
20
-125.78
11
43.0127
21
-125.515
0
LINE
8
BLACK
6
CONTINUOUS
10
43.0127
20
-125.515
11
43.0127
21
-125.515
0
LINE
8
BLACK
6
CONTINUOUS
10
43.0127
20
-125.515
11
43.0353
21
-125.502
0
LINE
8
BLACK
6
CONTINUOUS
10
43.0353
20
-125.502
11
43.4238
21
-125.36
0
LINE
8
BLACK
6
CONTINUOUS
10
43.4238
20
-125.36
11
43.4335
21
-125.358
0
LINE
8
BLACK
6
CONTINUOUS
10
43.4335
20
-125.358
11
43.443
21
-125.356
0
LINE
8
BLACK
6
CONTINUOUS
10
43.443
20
-125.356
11
43.6465
21
-125.338
0
LINE
8
BLACK
6
CONTINUOUS
10
43.6465
20
-125.338
11
43.6497
21
-125.337
0
LINE
8
BLACK
6
CONTINUOUS
10
43.6497
20
-125.337
11
48.0284
21
-125.337
0
LINE
8
BLACK
6
CONTINUOUS
10
48.0284
20
-125.337
11
48.0349
21
-125.339
0
LINE
8
BLACK
6
CONTINUOUS
10
48.0349
20
-125.339
11
48.0349
21
-125.339
0
LINE
8
BLACK
6
CONTINUOUS
10
48.0349
20
-125.339
11
48.4421
21
-125.41
0
LINE
8
BLACK
6
CONTINUOUS
10
48.4421
20
-125.41
11
48.4666
21
-125.419
0
LINE
8
BLACK
6
CONTINUOUS
10
48.4666
20
-125.419
11
48.4666
21
-125.419
0
LINE
8
BLACK
6
CONTINUOUS
10
48.4666
20
-125.419
11
48.8247
21
-125.626
0
LINE
8
BLACK
6
CONTINUOUS
10
48.8247
20
-125.626
11
48.8446
21
-125.643
0
LINE
8
BLACK
6
CONTINUOUS
10
48.8446
20
-125.643
11
48.8446
21
-125.643
0
LINE
8
BLACK
6
CONTINUOUS
10
48.8446
20
-125.643
11
49.1104
21
-125.96
0
LINE
8
BLACK
6
CONTINUOUS
10
49.1104
20
-125.96
11
49.1104
21
-125.96
0
LINE
8
BLACK
6
CONTINUOUS
10
49.1104
20
-125.96
11
49.1235
21
-125.982
0
LINE
8
BLACK
6
CONTINUOUS
10
49.1235
20
-125.982
11
49.2649
21
-126.371
0
LINE
8
BLACK
6
CONTINUOUS
10
49.2649
20
-126.371
11
49.2666
21
-126.38
0
LINE
8
BLACK
6
CONTINUOUS
10
49.2666
20
-126.38
11
49.2691
21
-126.39
0
LINE
8
BLACK
6
CONTINUOUS
10
49.2691
20
-126.39
11
49.2869
21
-126.593
0
LINE
8
BLACK
6
CONTINUOUS
10
49.2869
20
-126.593
11
49.2875
21
-126.597
0
LINE
8
BLACK
6
CONTINUOUS
10
49.2875
20
-126.597
11
49.2875
21
-129.775
0
LINE
8
BLACK
6
CONTINUOUS
10
49.2875
20
-129.775
11
49.3044
21
-129.969
0
LINE
8
BLACK
6
CONTINUOUS
10
49.3044
20
-129.969
11
49.438
21
-130.335
0
LINE
8
BLACK
6
CONTINUOUS
10
49.438
20
-130.335
11
49.6868
21
-130.632
0
LINE
8
BLACK
6
CONTINUOUS
10
49.6868
20
-130.632
11
50.022
21
-130.825
0
LINE
8
BLACK
6
CONTINUOUS
10
50.022
20
-130.825
11
50.4097
21
-130.894
0
LINE
8
BLACK
6
CONTINUOUS
10
50.4097
20
-130.894
11
86.1186
21
-130.894
0
LINE
8
BLACK
6
CONTINUOUS
10
86.1186
20
-130.894
11
86.3123
21
-130.877
0
LINE
8
BLACK
6
CONTINUOUS
10
86.3123
20
-130.877
11
86.6791
21
-130.743
0
LINE
8
BLACK
6
CONTINUOUS
10
86.6791
20
-130.743
11
86.9756
21
-130.494
0
LINE
8
BLACK
6
CONTINUOUS
10
86.9756
20
-130.494
11
87.1691
21
-130.159
0
LINE
8
BLACK
6
CONTINUOUS
10
87.1691
20
-130.159
11
87.2375
21
-129.772
0
LINE
8
BLACK
6
CONTINUOUS
10
87.2375
20
-129.772
11
87.2375
21
-127.39
0
LINE
8
BLACK
6
CONTINUOUS
10
87.2375
20
-127.39
11
87.2386
21
-127.384
0
LINE
8
BLACK
6
CONTINUOUS
10
87.2386
20
-127.384
11
87.2386
21
-127.384
0
LINE
8
BLACK
6
CONTINUOUS
10
87.2386
20
-127.384
11
87.3104
21
-126.977
0
LINE
8
BLACK
6
CONTINUOUS
10
87.3104
20
-126.977
11
87.3194
21
-126.952
0
LINE
8
BLACK
6
CONTINUOUS
10
87.3194
20
-126.952
11
87.3194
21
-126.952
0
LINE
8
BLACK
6
CONTINUOUS
10
87.3194
20
-126.952
11
87.5261
21
-126.594
0
LINE
8
BLACK
6
CONTINUOUS
10
87.5261
20
-126.594
11
87.5428
21
-126.574
0
LINE
8
BLACK
6
CONTINUOUS
10
87.5428
20
-126.574
11
87.5428
21
-126.574
0
LINE
8
BLACK
6
CONTINUOUS
10
87.5428
20
-126.574
11
87.8596
21
-126.308
0
LINE
8
BLACK
6
CONTINUOUS
10
87.8596
20
-126.308
11
87.8596
21
-126.308
0
LINE
8
BLACK
6
CONTINUOUS
10
87.8596
20
-126.308
11
87.8822
21
-126.295
0
LINE
8
BLACK
6
CONTINUOUS
10
87.8822
20
-126.295
11
88.2707
21
-126.154
0
LINE
8
BLACK
6
CONTINUOUS
10
88.2707
20
-126.154
11
88.2804
21
-126.152
0
LINE
8
BLACK
6
CONTINUOUS
10
88.2804
20
-126.152
11
88.2898
21
-126.15
0
LINE
8
BLACK
6
CONTINUOUS
10
88.2898
20
-126.15
11
88.4933
21
-126.132
0
LINE
8
BLACK
6
CONTINUOUS
10
88.4933
20
-126.132
11
88.4966
21
-126.131
0
LINE
8
BLACK
6
CONTINUOUS
10
88.4966
20
-126.131
11
105.169
21
-126.131
0
LINE
8
BLACK
6
CONTINUOUS
10
105.169
20
-126.131
11
105.362
21
-126.114
0
LINE
8
BLACK
6
CONTINUOUS
10
105.362
20
-126.114
11
105.729
21
-125.981
0
LINE
8
BLACK
6
CONTINUOUS
10
105.729
20
-125.981
11
106.026
21
-125.732
0
LINE
8
BLACK
6
CONTINUOUS
10
106.026
20
-125.732
11
106.219
21
-125.397
0
LINE
8
BLACK
6
CONTINUOUS
10
106.219
20
-125.397
11
106.289
21
-125.003
0
LINE
8
BLACK
6
CONTINUOUS
10
106.289
20
-125.003
11
106.36
21
-124.595
0
LINE
8
BLACK
6
CONTINUOUS
10
106.36
20
-124.595
11
106.369
21
-124.571
0
LINE
8
BLACK
6
CONTINUOUS
10
106.369
20
-124.571
11
106.369
21
-124.571
0
LINE
8
BLACK
6
CONTINUOUS
10
106.369
20
-124.571
11
106.576
21
-124.213
0
LINE
8
BLACK
6
CONTINUOUS
10
106.576
20
-124.213
11
106.593
21
-124.193
0
LINE
8
BLACK
6
CONTINUOUS
10
106.593
20
-124.193
11
106.593
21
-124.193
0
LINE
8
BLACK
6
CONTINUOUS
10
106.593
20
-124.193
11
106.91
21
-123.927
0
LINE
8
BLACK
6
CONTINUOUS
10
106.91
20
-123.927
11
106.91
21
-123.927
0
LINE
8
BLACK
6
CONTINUOUS
10
106.91
20
-123.927
11
106.932
21
-123.914
0
LINE
8
BLACK
6
CONTINUOUS
10
106.932
20
-123.914
11
107.321
21
-123.773
0
LINE
8
BLACK
6
CONTINUOUS
10
107.321
20
-123.773
11
107.33
21
-123.771
0
LINE
8
BLACK
6
CONTINUOUS
10
107.33
20
-123.771
11
107.34
21
-123.768
0
LINE
8
BLACK
6
CONTINUOUS
10
107.34
20
-123.768
11
107.543
21
-123.751
0
LINE
8
BLACK
6
CONTINUOUS
10
107.543
20
-123.751
11
107.547
21
-123.75
0
LINE
8
BLACK
6
CONTINUOUS
10
107.547
20
-123.75
11
111.925
21
-123.75
0
LINE
8
BLACK
6
CONTINUOUS
10
111.925
20
-123.75
11
111.932
21
-123.751
0
LINE
8
BLACK
6
CONTINUOUS
10
107.556
20
-123.9
11
107.363
21
-123.917
0
LINE
8
BLACK
6
CONTINUOUS
10
107.363
20
-123.917
11
106.996
21
-124.05
0
LINE
8
BLACK
6
CONTINUOUS
10
106.996
20
-124.05
11
106.699
21
-124.299
0
LINE
8
BLACK
6
CONTINUOUS
10
106.699
20
-124.299
11
106.506
21
-124.634
0
LINE
8
BLACK
6
CONTINUOUS
10
106.506
20
-124.634
11
106.436
21
-125.029
0
LINE
8
BLACK
6
CONTINUOUS
10
106.436
20
-125.029
11
106.365
21
-125.436
0
LINE
8
BLACK
6
CONTINUOUS
10
106.365
20
-125.436
11
106.356
21
-125.46
0
LINE
8
BLACK
6
CONTINUOUS
10
106.356
20
-125.46
11
106.149
21
-125.818
0
LINE
8
BLACK
6
CONTINUOUS
10
106.149
20
-125.818
11
106.132
21
-125.838
0
LINE
8
BLACK
6
CONTINUOUS
10
106.132
20
-125.838
11
105.815
21
-126.104
0
LINE
8
BLACK
6
CONTINUOUS
10
105.815
20
-126.104
11
105.793
21
-126.117
0
LINE
8
BLACK
6
CONTINUOUS
10
105.793
20
-126.117
11
105.404
21
-126.259
0
LINE
8
BLACK
6
CONTINUOUS
10
105.404
20
-126.259
11
105.395
21
-126.26
0
LINE
8
BLACK
6
CONTINUOUS
10
105.395
20
-126.26
11
105.385
21
-126.263
0
LINE
8
BLACK
6
CONTINUOUS
10
105.385
20
-126.263
11
105.182
21
-126.281
0
LINE
8
BLACK
6
CONTINUOUS
10
105.182
20
-126.281
11
105.178
21
-126.281
0
LINE
8
BLACK
6
CONTINUOUS
10
105.178
20
-126.281
11
88.5064
21
-126.281
0
LINE
8
BLACK
6
CONTINUOUS
10
88.5064
20
-126.281
11
88.3127
21
-126.298
0
LINE
8
BLACK
6
CONTINUOUS
10
88.3127
20
-126.298
11
87.9459
21
-126.432
0
LINE
8
BLACK
6
CONTINUOUS
10
87.9459
20
-126.432
11
87.6494
21
-126.681
0
LINE
8
BLACK
6
CONTINUOUS
10
87.6494
20
-126.681
11
87.4559
21
-127.016
0
LINE
8
BLACK
6
CONTINUOUS
10
87.4559
20
-127.016
11
87.3875
21
-127.403
0
LINE
8
BLACK
6
CONTINUOUS
10
87.3875
20
-127.403
11
87.3875
21
-129.785
0
LINE
8
BLACK
6
CONTINUOUS
10
87.3875
20
-129.785
11
87.3864
21
-129.791
0
LINE
8
BLACK
6
CONTINUOUS
10
87.3864
20
-129.791
11
87.3864
21
-129.791
0
LINE
8
BLACK
6
CONTINUOUS
10
87.3864
20
-129.791
11
87.3146
21
-130.198
0
LINE
8
BLACK
6
CONTINUOUS
10
87.3146
20
-130.198
11
87.3056
21
-130.223
0
LINE
8
BLACK
6
CONTINUOUS
10
87.3056
20
-130.223
11
87.0989
21
-130.581
0
LINE
8
BLACK
6
CONTINUOUS
10
87.0989
20
-130.581
11
87.0822
21
-130.601
0
LINE
8
BLACK
6
CONTINUOUS
10
87.0822
20
-130.601
11
86.7654
21
-130.867
0
LINE
8
BLACK
6
CONTINUOUS
10
86.7654
20
-130.867
11
86.7428
21
-130.88
0
LINE
8
BLACK
6
CONTINUOUS
10
86.7428
20
-130.88
11
86.3543
21
-131.021
0
LINE
8
BLACK
6
CONTINUOUS
10
86.3543
20
-131.021
11
86.3446
21
-131.023
0
LINE
8
BLACK
6
CONTINUOUS
10
86.3446
20
-131.023
11
86.3352
21
-131.025
0
LINE
8
BLACK
6
CONTINUOUS
10
86.3352
20
-131.025
11
86.1317
21
-131.043
0
LINE
8
BLACK
6
CONTINUOUS
10
86.1317
20
-131.043
11
86.1284
21
-131.044
0
LINE
8
BLACK
6
CONTINUOUS
10
86.1284
20
-131.044
11
50.3966
21
-131.044
0
LINE
8
BLACK
6
CONTINUOUS
10
50.3966
20
-131.044
11
50.3901
21
-131.043
0
LINE
8
BLACK
6
CONTINUOUS
10
50.3901
20
-131.043
11
50.3901
21
-131.043
0
LINE
8
BLACK
6
CONTINUOUS
10
50.3901
20
-131.043
11
49.9829
21
-130.971
0
LINE
8
BLACK
6
CONTINUOUS
10
49.9829
20
-130.971
11
49.9584
21
-130.962
0
LINE
8
BLACK
6
CONTINUOUS
10
49.9584
20
-130.962
11
49.6003
21
-130.755
0
LINE
8
BLACK
6
CONTINUOUS
10
49.6003
20
-130.755
11
49.5804
21
-130.738
0
LINE
8
BLACK
6
CONTINUOUS
10
49.5804
20
-130.738
11
49.3146
21
-130.422
0
LINE
8
BLACK
6
CONTINUOUS
10
49.3146
20
-130.422
11
49.3015
21
-130.399
0
LINE
8
BLACK
6
CONTINUOUS
10
49.3015
20
-130.399
11
49.1601
21
-130.011
0
LINE
8
BLACK
6
CONTINUOUS
10
49.1601
20
-130.011
11
49.1584
21
-130.001
0
LINE
8
BLACK
6
CONTINUOUS
10
49.1584
20
-130.001
11
49.1559
21
-129.991
0
LINE
8
BLACK
6
CONTINUOUS
10
49.1559
20
-129.991
11
49.1381
21
-129.788
0
LINE
8
BLACK
6
CONTINUOUS
10
49.1381
20
-129.788
11
49.1375
21
-129.785
0
LINE
8
BLACK
6
CONTINUOUS
10
49.1375
20
-129.785
11
49.1375
21
-126.606
0
LINE
8
BLACK
6
CONTINUOUS
10
49.1375
20
-126.606
11
49.1206
21
-126.413
0
LINE
8
BLACK
6
CONTINUOUS
10
49.1206
20
-126.413
11
48.987
21
-126.046
0
LINE
8
BLACK
6
CONTINUOUS
10
48.987
20
-126.046
11
48.7382
21
-125.749
0
LINE
8
BLACK
6
CONTINUOUS
10
48.7382
20
-125.749
11
48.403
21
-125.556
0
LINE
8
BLACK
6
CONTINUOUS
10
48.403
20
-125.556
11
48.0153
21
-125.487
0
LINE
8
BLACK
6
CONTINUOUS
10
48.0153
20
-125.487
11
43.6595
21
-125.487
0
LINE
8
BLACK
6
CONTINUOUS
10
43.6595
20
-125.487
11
43.4659
21
-125.504
0
LINE
8
BLACK
6
CONTINUOUS
10
43.4659
20
-125.504
11
43.099
21
-125.638
0
LINE
8
BLACK
6
CONTINUOUS
10
43.099
20
-125.638
11
42.8025
21
-125.887
0
LINE
8
BLACK
6
CONTINUOUS
10
42.8025
20
-125.887
11
42.609
21
-126.222
0
LINE
8
BLACK
6
CONTINUOUS
10
42.609
20
-126.222
11
42.5406
21
-126.61
0
LINE
8
BLACK
6
CONTINUOUS
10
42.5406
20
-126.61
11
42.5406
21
-133.344
0
LINE
8
BLACK
6
CONTINUOUS
10
42.5406
20
-133.344
11
42.6155
21
-133.817
0
LINE
8
BLACK
6
CONTINUOUS
10
42.6155
20
-133.817
11
42.8302
21
-134.238
0
LINE
8
BLACK
6
CONTINUOUS
10
42.8302
20
-134.238
11
43.1647
21
-134.573
0
LINE
8
BLACK
6
CONTINUOUS
10
43.1647
20
-134.573
11
43.586
21
-134.788
0
LINE
8
BLACK
6
CONTINUOUS
10
43.586
20
-134.788
11
44.059
21
-134.862
0
LINE
8
BLACK
6
CONTINUOUS
10
44.059
20
-134.862
11
90.0873
21
-134.862
0
LINE
8
BLACK
6
CONTINUOUS
10
90.0873
20
-134.862
11
90.281
21
-134.846
0
LINE
8
BLACK
6
CONTINUOUS
10
90.281
20
-134.846
11
90.6479
21
-134.712
0
LINE
8
BLACK
6
CONTINUOUS
10
90.6479
20
-134.712
11
90.9444
21
-134.463
0
LINE
8
BLACK
6
CONTINUOUS
10
90.9444
20
-134.463
11
91.1379
21
-134.128
0
LINE
8
BLACK
6
CONTINUOUS
10
91.1379
20
-134.128
11
91.2063
21
-133.74
0
LINE
8
BLACK
6
CONTINUOUS
10
91.2063
20
-133.74
11
91.2062
21
-130.168
0
LINE
8
BLACK
6
CONTINUOUS
10
91.2062
20
-130.168
11
91.2074
21
-130.162
0
LINE
8
BLACK
6
CONTINUOUS
10
91.2074
20
-130.162
11
91.2074
21
-130.162
0
LINE
8
BLACK
6
CONTINUOUS
10
91.2074
20
-130.162
11
91.2792
21
-129.755
0
LINE
8
BLACK
6
CONTINUOUS
10
91.2792
20
-129.755
11
91.2881
21
-129.73
0
LINE
8
BLACK
6
CONTINUOUS
10
91.2881
20
-129.73
11
91.2881
21
-129.73
0
LINE
8
BLACK
6
CONTINUOUS
10
91.2881
20
-129.73
11
91.4949
21
-129.372
0
LINE
8
BLACK
6
CONTINUOUS
10
91.4949
20
-129.372
11
91.5116
21
-129.352
0
LINE
8
BLACK
6
CONTINUOUS
10
91.5116
20
-129.352
11
91.5116
21
-129.352
0
LINE
8
BLACK
6
CONTINUOUS
10
91.5116
20
-129.352
11
91.8284
21
-129.086
0
LINE
8
BLACK
6
CONTINUOUS
10
91.8284
20
-129.086
11
91.8284
21
-129.086
0
LINE
8
BLACK
6
CONTINUOUS
10
91.8284
20
-129.086
11
91.8509
21
-129.073
0
LINE
8
BLACK
6
CONTINUOUS
10
91.8509
20
-129.073
11
92.2395
21
-128.932
0
LINE
8
BLACK
6
CONTINUOUS
10
92.2395
20
-128.932
11
92.2491
21
-128.93
0
LINE
8
BLACK
6
CONTINUOUS
10
92.2491
20
-128.93
11
92.2586
21
-128.928
0
LINE
8
BLACK
6
CONTINUOUS
10
92.2586
20
-128.928
11
92.4621
21
-128.91
0
LINE
8
BLACK
6
CONTINUOUS
10
92.4621
20
-128.91
11
92.4653
21
-128.909
0
LINE
8
BLACK
6
CONTINUOUS
10
92.4653
20
-128.909
11
111.516
21
-128.909
0
LINE
8
BLACK
6
CONTINUOUS
10
111.516
20
-128.909
11
111.989
21
-128.834
0
LINE
8
BLACK
6
CONTINUOUS
10
111.989
20
-128.834
11
112.41
21
-128.62
0
LINE
8
BLACK
6
CONTINUOUS
10
112.41
20
-128.62
11
112.745
21
-128.285
0
LINE
8
BLACK
6
CONTINUOUS
10
112.745
20
-128.285
11
112.959
21
-127.864
0
LINE
8
BLACK
6
CONTINUOUS
10
112.959
20
-127.864
11
113.034
21
-127.391
0
LINE
8
BLACK
6
CONTINUOUS
10
113.034
20
-127.391
11
113.034
21
-125.019
0
LINE
8
BLACK
6
CONTINUOUS
10
113.034
20
-125.019
11
113.017
21
-124.825
0
LINE
8
BLACK
6
CONTINUOUS
10
113.017
20
-124.825
11
112.884
21
-124.458
0
LINE
8
BLACK
6
CONTINUOUS
10
112.884
20
-124.458
11
112.635
21
-124.162
0
LINE
8
BLACK
6
CONTINUOUS
10
112.635
20
-124.162
11
112.3
21
-123.968
0
LINE
8
BLACK
6
CONTINUOUS
10
112.3
20
-123.968
11
111.912
21
-123.9
0
LINE
8
BLACK
6
CONTINUOUS
10
111.912
20
-123.9
11
107.556
21
-123.9
0
LINE
8
BLACK
6
CONTINUOUS
10
92.4842
20
-26.1198
11
92.9742
21
-26.1974
0
LINE
8
BLACK
6
CONTINUOUS
10
92.9742
20
-26.1974
11
92.9965
21
-26.2046
0
LINE
8
BLACK
6
CONTINUOUS
10
92.9965
20
-26.2046
11
92.9965
21
-26.2046
0
LINE
8
BLACK
6
CONTINUOUS
10
92.9965
20
-26.2046
11
93.439
21
-26.4301
0
LINE
8
BLACK
6
CONTINUOUS
10
93.439
20
-26.4301
11
93.458
21
-26.4439
0
LINE
8
BLACK
6
CONTINUOUS
10
93.458
20
-26.4439
11
93.8092
21
-26.7951
0
LINE
8
BLACK
6
CONTINUOUS
10
93.8092
20
-26.7951
11
93.823
21
-26.8141
0
LINE
8
BLACK
6
CONTINUOUS
10
93.823
20
-26.8141
11
94.0485
21
-27.2566
0
LINE
8
BLACK
6
CONTINUOUS
10
94.0485
20
-27.2566
11
94.0521
21
-27.2678
0
LINE
8
BLACK
6
CONTINUOUS
10
94.0521
20
-27.2678
11
94.0558
21
-27.279
0
LINE
8
BLACK
6
CONTINUOUS
10
94.0558
20
-27.279
11
94.1334
21
-27.769
0
LINE
8
BLACK
6
CONTINUOUS
10
94.1334
20
-27.769
11
94.1344
21
-27.7747
0
LINE
8
BLACK
6
CONTINUOUS
10
94.1344
20
-27.7747
11
94.1344
21
-29.7722
0
LINE
8
BLACK
6
CONTINUOUS
10
94.1344
20
-29.7722
11
94.1332
21
-29.7786
0
LINE
8
BLACK
6
CONTINUOUS
10
94.1332
20
-29.7786
11
94.1332
21
-29.7786
0
LINE
8
BLACK
6
CONTINUOUS
10
94.1332
20
-29.7786
11
94.0614
21
-30.1859
0
LINE
8
BLACK
6
CONTINUOUS
10
94.0614
20
-30.1859
11
94.0525
21
-30.2103
0
LINE
8
BLACK
6
CONTINUOUS
10
94.0525
20
-30.2103
11
93.8458
21
-30.5684
0
LINE
8
BLACK
6
CONTINUOUS
10
93.8458
20
-30.5684
11
93.829
21
-30.5884
0
LINE
8
BLACK
6
CONTINUOUS
10
93.829
20
-30.5884
11
93.5123
21
-30.8542
0
LINE
8
BLACK
6
CONTINUOUS
10
93.5123
20
-30.8542
11
93.4897
21
-30.8672
0
LINE
8
BLACK
6
CONTINUOUS
10
93.4897
20
-30.8672
11
93.1012
21
-31.0086
0
LINE
8
BLACK
6
CONTINUOUS
10
93.1012
20
-31.0086
11
93.0915
21
-31.0103
0
LINE
8
BLACK
6
CONTINUOUS
10
93.0915
20
-31.0103
11
93.082
21
-31.0129
0
LINE
8
BLACK
6
CONTINUOUS
10
93.082
20
-31.0129
11
92.8785
21
-31.0307
0
LINE
8
BLACK
6
CONTINUOUS
10
92.8785
20
-31.0307
11
92.8753
21
-31.0312
0
LINE
8
BLACK
6
CONTINUOUS
10
92.8753
20
-31.0312
11
88.5064
21
-31.0312
0
LINE
8
BLACK
6
CONTINUOUS
10
88.5064
20
-31.0312
11
88.3127
21
-31.0482
0
LINE
8
BLACK
6
CONTINUOUS
10
88.3127
20
-31.0482
11
87.9459
21
-31.1817
0
LINE
8
BLACK
6
CONTINUOUS
10
87.9459
20
-31.1817
11
87.6494
21
-31.4305
0
LINE
8
BLACK
6
CONTINUOUS
10
87.6494
20
-31.4305
11
87.4559
21
-31.7657
0
LINE
8
BLACK
6
CONTINUOUS
10
87.4559
20
-31.7657
11
87.3875
21
-32.1534
0
LINE
8
BLACK
6
CONTINUOUS
10
87.3875
20
-32.1534
11
87.3875
21
-34.5347
0
LINE
8
BLACK
6
CONTINUOUS
10
87.3875
20
-34.5347
11
87.3864
21
-34.5411
0
LINE
8
BLACK
6
CONTINUOUS
10
87.3864
20
-34.5411
11
87.3864
21
-34.5411
0
LINE
8
BLACK
6
CONTINUOUS
10
87.3864
20
-34.5411
11
87.3146
21
-34.9484
0
LINE
8
BLACK
6
CONTINUOUS
10
87.3146
20
-34.9484
11
87.3056
21
-34.9728
0
LINE
8
BLACK
6
CONTINUOUS
10
87.3056
20
-34.9728
11
87.0989
21
-35.3309
0
LINE
8
BLACK
6
CONTINUOUS
10
87.0989
20
-35.3309
11
87.0822
21
-35.3509
0
LINE
8
BLACK
6
CONTINUOUS
10
87.0822
20
-35.3509
11
86.7654
21
-35.6167
0
LINE
8
BLACK
6
CONTINUOUS
10
86.7654
20
-35.6167
11
86.7428
21
-35.6297
0
LINE
8
BLACK
6
CONTINUOUS
10
86.7428
20
-35.6297
11
86.3543
21
-35.7711
0
LINE
8
BLACK
6
CONTINUOUS
10
86.3543
20
-35.7711
11
86.3446
21
-35.7728
0
LINE
8
BLACK
6
CONTINUOUS
10
86.3446
20
-35.7728
11
86.3352
21
-35.7754
0
LINE
8
BLACK
6
CONTINUOUS
10
86.3352
20
-35.7754
11
86.1317
21
-35.7932
0
LINE
8
BLACK
6
CONTINUOUS
10
86.1317
20
-35.7932
11
86.1284
21
-35.7937
0
LINE
8
BLACK
6
CONTINUOUS
10
86.1284
20
-35.7937
11
50.4064
21
-35.7937
0
LINE
8
BLACK
6
CONTINUOUS
10
50.4064
20
-35.7937
11
50.2127
21
-35.8107
0
LINE
8
BLACK
6
CONTINUOUS
10
50.2127
20
-35.8107
11
49.8459
21
-35.9442
0
LINE
8
BLACK
6
CONTINUOUS
10
49.8459
20
-35.9442
11
49.5494
21
-36.193
0
LINE
8
BLACK
6
CONTINUOUS
10
49.5494
20
-36.193
11
49.3559
21
-36.5282
0
LINE
8
BLACK
6
CONTINUOUS
10
49.3559
20
-36.5282
11
49.2875
21
-36.9159
0
LINE
8
BLACK
6
CONTINUOUS
10
49.2875
20
-36.9159
11
49.2875
21
-39.2972
0
LINE
8
BLACK
6
CONTINUOUS
10
49.2875
20
-39.2972
11
49.2864
21
-39.3036
0
LINE
8
BLACK
6
CONTINUOUS
10
49.2864
20
-39.3036
11
49.2864
21
-39.3036
0
LINE
8
BLACK
6
CONTINUOUS
10
49.2864
20
-39.3036
11
49.2146
21
-39.7109
0
LINE
8
BLACK
6
CONTINUOUS
10
49.2146
20
-39.7109
11
49.2056
21
-39.7353
0
LINE
8
BLACK
6
CONTINUOUS
10
49.2056
20
-39.7353
11
48.9989
21
-40.0934
0
LINE
8
BLACK
6
CONTINUOUS
10
48.9989
20
-40.0934
11
48.9822
21
-40.1134
0
LINE
8
BLACK
6
CONTINUOUS
10
48.9822
20
-40.1134
11
48.6654
21
-40.3792
0
LINE
8
BLACK
6
CONTINUOUS
10
48.6654
20
-40.3792
11
48.6428
21
-40.3922
0
LINE
8
BLACK
6
CONTINUOUS
10
48.6428
20
-40.3922
11
48.2543
21
-40.5336
0
LINE
8
BLACK
6
CONTINUOUS
10
48.2543
20
-40.5336
11
48.2446
21
-40.5353
0
LINE
8
BLACK
6
CONTINUOUS
10
48.2446
20
-40.5353
11
48.2352
21
-40.5379
0
LINE
8
BLACK
6
CONTINUOUS
10
48.2352
20
-40.5379
11
48.0317
21
-40.5557
0
LINE
8
BLACK
6
CONTINUOUS
10
48.0317
20
-40.5557
11
48.0284
21
-40.5562
0
LINE
8
BLACK
6
CONTINUOUS
10
48.0284
20
-40.5562
11
43.6497
21
-40.5562
0
LINE
8
BLACK
6
CONTINUOUS
10
43.6497
20
-40.5562
11
43.6432
21
-40.5551
0
LINE
8
BLACK
6
CONTINUOUS
10
43.6432
20
-40.5551
11
43.6432
21
-40.5551
0
LINE
8
BLACK
6
CONTINUOUS
10
43.6432
20
-40.5551
11
43.236
21
-40.4833
0
LINE
8
BLACK
6
CONTINUOUS
10
43.236
20
-40.4833
11
43.2115
21
-40.4744
0
LINE
8
BLACK
6
CONTINUOUS
10
43.2115
20
-40.4744
11
42.8534
21
-40.2676
0
LINE
8
BLACK
6
CONTINUOUS
10
42.8534
20
-40.2676
11
42.8335
21
-40.2509
0
LINE
8
BLACK
6
CONTINUOUS
10
42.8335
20
-40.2509
11
42.5677
21
-39.9341
0
LINE
8
BLACK
6
CONTINUOUS
10
42.5677
20
-39.9341
11
42.5547
21
-39.9116
0
LINE
8
BLACK
6
CONTINUOUS
10
42.5547
20
-39.9116
11
42.4132
21
-39.523
0
LINE
8
BLACK
6
CONTINUOUS
10
42.4132
20
-39.523
11
42.4115
21
-39.5134
0
LINE
8
BLACK
6
CONTINUOUS
10
42.4115
20
-39.5134
11
42.409
21
-39.5039
0
LINE
8
BLACK
6
CONTINUOUS
10
42.409
20
-39.5039
11
42.3912
21
-39.3004
0
LINE
8
BLACK
6
CONTINUOUS
10
42.3912
20
-39.3004
11
42.3906
21
-39.2972
0
LINE
8
BLACK
6
CONTINUOUS
10
42.3906
20
-39.2972
11
42.3906
21
-32.1403
0
LINE
8
BLACK
6
CONTINUOUS
10
42.3906
20
-32.1403
11
42.3918
21
-32.1339
0
LINE
8
BLACK
6
CONTINUOUS
10
42.3918
20
-32.1339
11
42.3918
21
-32.1339
0
LINE
8
BLACK
6
CONTINUOUS
10
42.3918
20
-32.1339
11
42.4636
21
-31.7266
0
LINE
8
BLACK
6
CONTINUOUS
10
42.4636
20
-31.7266
11
42.4725
21
-31.7022
0
LINE
8
BLACK
6
CONTINUOUS
10
42.4725
20
-31.7022
11
42.4725
21
-31.7022
0
LINE
8
BLACK
6
CONTINUOUS
10
42.4725
20
-31.7022
11
42.6792
21
-31.3441
0
LINE
8
BLACK
6
CONTINUOUS
10
42.6792
20
-31.3441
11
42.696
21
-31.3241
0
LINE
8
BLACK
6
CONTINUOUS
10
42.696
20
-31.3241
11
42.696
21
-31.3241
0
LINE
8
BLACK
6
CONTINUOUS
10
42.696
20
-31.3241
11
43.0127
21
-31.0583
0
LINE
8
BLACK
6
CONTINUOUS
10
43.0127
20
-31.0583
11
43.0127
21
-31.0583
0
LINE
8
BLACK
6
CONTINUOUS
10
43.0127
20
-31.0583
11
43.0353
21
-31.0453
0
LINE
8
BLACK
6
CONTINUOUS
10
43.0353
20
-31.0453
11
43.4238
21
-30.9039
0
LINE
8
BLACK
6
CONTINUOUS
10
43.4238
20
-30.9039
11
43.4335
21
-30.9022
0
LINE
8
BLACK
6
CONTINUOUS
10
43.4335
20
-30.9022
11
43.443
21
-30.8996
0
LINE
8
BLACK
6
CONTINUOUS
10
43.443
20
-30.8996
11
43.6465
21
-30.8818
0
LINE
8
BLACK
6
CONTINUOUS
10
43.6465
20
-30.8818
11
43.6497
21
-30.8812
0
LINE
8
BLACK
6
CONTINUOUS
10
43.6497
20
-30.8812
11
82.1498
21
-30.8812
0
LINE
8
BLACK
6
CONTINUOUS
10
82.1498
20
-30.8812
11
82.3435
21
-30.8643
0
LINE
8
BLACK
6
CONTINUOUS
10
82.3435
20
-30.8643
11
82.7104
21
-30.7308
0
LINE
8
BLACK
6
CONTINUOUS
10
82.7104
20
-30.7308
11
83.0069
21
-30.482
0
LINE
8
BLACK
6
CONTINUOUS
10
83.0069
20
-30.482
11
83.2004
21
-30.1468
0
LINE
8
BLACK
6
CONTINUOUS
10
83.2004
20
-30.1468
11
83.2688
21
-29.7591
0
LINE
8
BLACK
6
CONTINUOUS
10
83.2688
20
-29.7591
11
83.2687
21
-27.3778
0
LINE
8
BLACK
6
CONTINUOUS
10
83.2687
20
-27.3778
11
83.2699
21
-27.3714
0
LINE
8
BLACK
6
CONTINUOUS
10
83.2699
20
-27.3714
11
83.2699
21
-27.3714
0
LINE
8
BLACK
6
CONTINUOUS
10
83.2699
20
-27.3714
11
83.3417
21
-26.9641
0
LINE
8
BLACK
6
CONTINUOUS
10
83.3417
20
-26.9641
11
83.3506
21
-26.9397
0
LINE
8
BLACK
6
CONTINUOUS
10
83.3506
20
-26.9397
11
83.3506
21
-26.9397
0
LINE
8
BLACK
6
CONTINUOUS
10
83.3506
20
-26.9397
11
83.5574
21
-26.5816
0
LINE
8
BLACK
6
CONTINUOUS
10
83.5574
20
-26.5816
11
83.5741
21
-26.5616
0
LINE
8
BLACK
6
CONTINUOUS
10
83.5741
20
-26.5616
11
83.5741
21
-26.5616
0
LINE
8
BLACK
6
CONTINUOUS
10
83.5741
20
-26.5616
11
83.8909
21
-26.2958
0
LINE
8
BLACK
6
CONTINUOUS
10
83.8909
20
-26.2958
11
83.8909
21
-26.2958
0
LINE
8
BLACK
6
CONTINUOUS
10
83.8909
20
-26.2958
11
83.9134
21
-26.2828
0
LINE
8
BLACK
6
CONTINUOUS
10
83.9134
20
-26.2828
11
84.302
21
-26.1414
0
LINE
8
BLACK
6
CONTINUOUS
10
84.302
20
-26.1414
11
84.3116
21
-26.1397
0
LINE
8
BLACK
6
CONTINUOUS
10
84.3116
20
-26.1397
11
84.3211
21
-26.1371
0
LINE
8
BLACK
6
CONTINUOUS
10
84.3211
20
-26.1371
11
84.5246
21
-26.1193
0
LINE
8
BLACK
6
CONTINUOUS
10
84.5246
20
-26.1193
11
84.5278
21
-26.1187
0
LINE
8
BLACK
6
CONTINUOUS
10
84.5278
20
-26.1187
11
92.4784
21
-26.1187
0
LINE
8
BLACK
6
CONTINUOUS
10
92.4784
20
-26.1187
11
92.4842
21
-26.1198
0
LINE
8
BLACK
6
CONTINUOUS
10
84.5377
20
-26.2687
11
84.344
21
-26.2857
0
LINE
8
BLACK
6
CONTINUOUS
10
84.344
20
-26.2857
11
83.9771
21
-26.4192
0
LINE
8
BLACK
6
CONTINUOUS
10
83.9771
20
-26.4192
11
83.6806
21
-26.668
0
LINE
8
BLACK
6
CONTINUOUS
10
83.6806
20
-26.668
11
83.4871
21
-27.0032
0
LINE
8
BLACK
6
CONTINUOUS
10
83.4871
20
-27.0032
11
83.4188
21
-27.3909
0
LINE
8
BLACK
6
CONTINUOUS
10
83.4188
20
-27.3909
11
83.4188
21
-29.7722
0
LINE
8
BLACK
6
CONTINUOUS
10
83.4188
20
-29.7722
11
83.4176
21
-29.7786
0
LINE
8
BLACK
6
CONTINUOUS
10
83.4176
20
-29.7786
11
83.4176
21
-29.7786
0
LINE
8
BLACK
6
CONTINUOUS
10
83.4176
20
-29.7786
11
83.3458
21
-30.1859
0
LINE
8
BLACK
6
CONTINUOUS
10
83.3458
20
-30.1859
11
83.3369
21
-30.2103
0
LINE
8
BLACK
6
CONTINUOUS
10
83.3369
20
-30.2103
11
83.1301
21
-30.5684
0
LINE
8
BLACK
6
CONTINUOUS
10
83.1301
20
-30.5684
11
83.1134
21
-30.5884
0
LINE
8
BLACK
6
CONTINUOUS
10
83.1134
20
-30.5884
11
82.7966
21
-30.8542
0
LINE
8
BLACK
6
CONTINUOUS
10
82.7966
20
-30.8542
11
82.7741
21
-30.8672
0
LINE
8
BLACK
6
CONTINUOUS
10
82.7741
20
-30.8672
11
82.3855
21
-31.0086
0
LINE
8
BLACK
6
CONTINUOUS
10
82.3855
20
-31.0086
11
82.3759
21
-31.0103
0
LINE
8
BLACK
6
CONTINUOUS
10
82.3759
20
-31.0103
11
82.3664
21
-31.0129
0
LINE
8
BLACK
6
CONTINUOUS
10
82.3664
20
-31.0129
11
82.1629
21
-31.0307
0
LINE
8
BLACK
6
CONTINUOUS
10
82.1629
20
-31.0307
11
82.1597
21
-31.0312
0
LINE
8
BLACK
6
CONTINUOUS
10
82.1597
20
-31.0312
11
43.6595
21
-31.0312
0
LINE
8
BLACK
6
CONTINUOUS
10
43.6595
20
-31.0312
11
43.4659
21
-31.0482
0
LINE
8
BLACK
6
CONTINUOUS
10
43.4659
20
-31.0482
11
43.099
21
-31.1817
0
LINE
8
BLACK
6
CONTINUOUS
10
43.099
20
-31.1817
11
42.8025
21
-31.4305
0
LINE
8
BLACK
6
CONTINUOUS
10
42.8025
20
-31.4305
11
42.609
21
-31.7657
0
LINE
8
BLACK
6
CONTINUOUS
10
42.609
20
-31.7657
11
42.5406
21
-32.1534
0
LINE
8
BLACK
6
CONTINUOUS
10
42.5406
20
-32.1534
11
42.5406
21
-39.2873
0
LINE
8
BLACK
6
CONTINUOUS
10
42.5406
20
-39.2873
11
42.5576
21
-39.481
0
LINE
8
BLACK
6
CONTINUOUS
10
42.5576
20
-39.481
11
42.6911
21
-39.8479
0
LINE
8
BLACK
6
CONTINUOUS
10
42.6911
20
-39.8479
11
42.9399
21
-40.1444
0
LINE
8
BLACK
6
CONTINUOUS
10
42.9399
20
-40.1444
11
43.2751
21
-40.3379
0
LINE
8
BLACK
6
CONTINUOUS
10
43.2751
20
-40.3379
11
43.6628
21
-40.4062
0
LINE
8
BLACK
6
CONTINUOUS
10
43.6628
20
-40.4062
11
48.0186
21
-40.4062
0
LINE
8
BLACK
6
CONTINUOUS
10
48.0186
20
-40.4062
11
48.2123
21
-40.3893
0
LINE
8
BLACK
6
CONTINUOUS
10
48.2123
20
-40.3893
11
48.5791
21
-40.2558
0
LINE
8
BLACK
6
CONTINUOUS
10
48.5791
20
-40.2558
11
48.8756
21
-40.007
0
LINE
8
BLACK
6
CONTINUOUS
10
48.8756
20
-40.007
11
49.0691
21
-39.6718
0
LINE
8
BLACK
6
CONTINUOUS
10
49.0691
20
-39.6718
11
49.1375
21
-39.2841
0
LINE
8
BLACK
6
CONTINUOUS
10
49.1375
20
-39.2841
11
49.1375
21
-36.9028
0
LINE
8
BLACK
6
CONTINUOUS
10
49.1375
20
-36.9028
11
49.1386
21
-36.8964
0
LINE
8
BLACK
6
CONTINUOUS
10
49.1386
20
-36.8964
11
49.1386
21
-36.8964
0
LINE
8
BLACK
6
CONTINUOUS
10
49.1386
20
-36.8964
11
49.2104
21
-36.4891
0
LINE
8
BLACK
6
CONTINUOUS
10
49.2104
20
-36.4891
11
49.2194
21
-36.4647
0
LINE
8
BLACK
6
CONTINUOUS
10
49.2194
20
-36.4647
11
49.2194
21
-36.4647
0
LINE
8
BLACK
6
CONTINUOUS
10
49.2194
20
-36.4647
11
49.4261
21
-36.1066
0
LINE
8
BLACK
6
CONTINUOUS
10
49.4261
20
-36.1066
11
49.4428
21
-36.0866
0
LINE
8
BLACK
6
CONTINUOUS
10
49.4428
20
-36.0866
11
49.4428
21
-36.0866
0
LINE
8
BLACK
6
CONTINUOUS
10
49.4428
20
-36.0866
11
49.7596
21
-35.8208
0
LINE
8
BLACK
6
CONTINUOUS
10
49.7596
20
-35.8208
11
49.7596
21
-35.8208
0
LINE
8
BLACK
6
CONTINUOUS
10
49.7596
20
-35.8208
11
49.7822
21
-35.8078
0
LINE
8
BLACK
6
CONTINUOUS
10
49.7822
20
-35.8078
11
50.1707
21
-35.6664
0
LINE
8
BLACK
6
CONTINUOUS
10
50.1707
20
-35.6664
11
50.1804
21
-35.6647
0
LINE
8
BLACK
6
CONTINUOUS
10
50.1804
20
-35.6647
11
50.1898
21
-35.6621
0
LINE
8
BLACK
6
CONTINUOUS
10
50.1898
20
-35.6621
11
50.3933
21
-35.6443
0
LINE
8
BLACK
6
CONTINUOUS
10
50.3933
20
-35.6443
11
50.3966
21
-35.6437
0
LINE
8
BLACK
6
CONTINUOUS
10
50.3966
20
-35.6437
11
86.1186
21
-35.6437
0
LINE
8
BLACK
6
CONTINUOUS
10
86.1186
20
-35.6437
11
86.3123
21
-35.6268
0
LINE
8
BLACK
6
CONTINUOUS
10
86.3123
20
-35.6268
11
86.6791
21
-35.4933
0
LINE
8
BLACK
6
CONTINUOUS
10
86.6791
20
-35.4933
11
86.9756
21
-35.2445
0
LINE
8
BLACK
6
CONTINUOUS
10
86.9756
20
-35.2445
11
87.1691
21
-34.9093
0
LINE
8
BLACK
6
CONTINUOUS
10
87.1691
20
-34.9093
11
87.2375
21
-34.5216
0
LINE
8
BLACK
6
CONTINUOUS
10
87.2375
20
-34.5216
11
87.2375
21
-32.1403
0
LINE
8
BLACK
6
CONTINUOUS
10
87.2375
20
-32.1403
11
87.2386
21
-32.1339
0
LINE
8
BLACK
6
CONTINUOUS
10
87.2386
20
-32.1339
11
87.2386
21
-32.1339
0
LINE
8
BLACK
6
CONTINUOUS
10
87.2386
20
-32.1339
11
87.3104
21
-31.7266
0
LINE
8
BLACK
6
CONTINUOUS
10
87.3104
20
-31.7266
11
87.3194
21
-31.7022
0
LINE
8
BLACK
6
CONTINUOUS
10
87.3194
20
-31.7022
11
87.3194
21
-31.7022
0
LINE
8
BLACK
6
CONTINUOUS
10
87.3194
20
-31.7022
11
87.5261
21
-31.3441
0
LINE
8
BLACK
6
CONTINUOUS
10
87.5261
20
-31.3441
11
87.5428
21
-31.3241
0
LINE
8
BLACK
6
CONTINUOUS
10
87.5428
20
-31.3241
11
87.5428
21
-31.3241
0
LINE
8
BLACK
6
CONTINUOUS
10
87.5428
20
-31.3241
11
87.8596
21
-31.0583
0
LINE
8
BLACK
6
CONTINUOUS
10
87.8596
20
-31.0583
11
87.8596
21
-31.0583
0
LINE
8
BLACK
6
CONTINUOUS
10
87.8596
20
-31.0583
11
87.8822
21
-31.0453
0
LINE
8
BLACK
6
CONTINUOUS
10
87.8822
20
-31.0453
11
88.2707
21
-30.9039
0
LINE
8
BLACK
6
CONTINUOUS
10
88.2707
20
-30.9039
11
88.2804
21
-30.9022
0
LINE
8
BLACK
6
CONTINUOUS
10
88.2804
20
-30.9022
11
88.2898
21
-30.8996
0
LINE
8
BLACK
6
CONTINUOUS
10
88.2898
20
-30.8996
11
88.4933
21
-30.8818
0
LINE
8
BLACK
6
CONTINUOUS
10
88.4933
20
-30.8818
11
88.4966
21
-30.8812
0
LINE
8
BLACK
6
CONTINUOUS
10
88.4966
20
-30.8812
11
92.8655
21
-30.8812
0
LINE
8
BLACK
6
CONTINUOUS
10
92.8655
20
-30.8812
11
93.0591
21
-30.8643
0
LINE
8
BLACK
6
CONTINUOUS
10
93.0591
20
-30.8643
11
93.426
21
-30.7308
0
LINE
8
BLACK
6
CONTINUOUS
10
93.426
20
-30.7308
11
93.7225
21
-30.482
0
LINE
8
BLACK
6
CONTINUOUS
10
93.7225
20
-30.482
11
93.916
21
-30.1468
0
LINE
8
BLACK
6
CONTINUOUS
10
93.916
20
-30.1468
11
93.9844
21
-29.7591
0
LINE
8
BLACK
6
CONTINUOUS
10
93.9844
20
-29.7591
11
93.9844
21
-27.7872
0
LINE
8
BLACK
6
CONTINUOUS
10
93.9844
20
-27.7872
11
93.9095
21
-27.3141
0
LINE
8
BLACK
6
CONTINUOUS
10
93.9095
20
-27.3141
11
93.6948
21
-26.8928
0
LINE
8
BLACK
6
CONTINUOUS
10
93.6948
20
-26.8928
11
93.3604
21
-26.5584
0
LINE
8
BLACK
6
CONTINUOUS
10
93.3604
20
-26.5584
11
92.939
21
-26.3437
0
LINE
8
BLACK
6
CONTINUOUS
10
92.939
20
-26.3437
11
92.466
21
-26.2687
0
LINE
8
BLACK
6
CONTINUOUS
10
92.466
20
-26.2687
11
84.5377
21
-26.2687
0
LINE
8
BLACK
6
CONTINUOUS
10
279.016
20
-26.1199
11
279.016
21
-26.1199
0
LINE
8
BLACK
6
CONTINUOUS
10
279.016
20
-26.1199
11
279.423
21
-26.1917
0
LINE
8
BLACK
6
CONTINUOUS
10
279.423
20
-26.1917
11
279.448
21
-26.2006
0
LINE
8
BLACK
6
CONTINUOUS
10
279.448
20
-26.2006
11
279.448
21
-26.2006
0
LINE
8
BLACK
6
CONTINUOUS
10
279.448
20
-26.2006
11
279.806
21
-26.4074
0
LINE
8
BLACK
6
CONTINUOUS
10
279.806
20
-26.4074
11
279.826
21
-26.4241
0
LINE
8
BLACK
6
CONTINUOUS
10
279.826
20
-26.4241
11
279.826
21
-26.4241
0
LINE
8
BLACK
6
CONTINUOUS
10
279.826
20
-26.4241
11
280.092
21
-26.7408
0
LINE
8
BLACK
6
CONTINUOUS
10
280.092
20
-26.7408
11
280.092
21
-26.7409
0
LINE
8
BLACK
6
CONTINUOUS
10
280.092
20
-26.7409
11
280.105
21
-26.7634
0
LINE
8
BLACK
6
CONTINUOUS
10
280.105
20
-26.7634
11
280.246
21
-27.152
0
LINE
8
BLACK
6
CONTINUOUS
10
280.246
20
-27.152
11
280.248
21
-27.1616
0
LINE
8
BLACK
6
CONTINUOUS
10
280.248
20
-27.1616
11
280.25
21
-27.1711
0
LINE
8
BLACK
6
CONTINUOUS
10
280.25
20
-27.1711
11
280.268
21
-27.3746
0
LINE
8
BLACK
6
CONTINUOUS
10
280.268
20
-27.3746
11
280.269
21
-27.3778
0
LINE
8
BLACK
6
CONTINUOUS
10
280.269
20
-27.3778
11
280.269
21
-29.7623
0
LINE
8
BLACK
6
CONTINUOUS
10
280.269
20
-29.7623
11
280.286
21
-29.956
0
LINE
8
BLACK
6
CONTINUOUS
10
280.286
20
-29.956
11
280.419
21
-30.3229
0
LINE
8
BLACK
6
CONTINUOUS
10
280.419
20
-30.3229
11
280.668
21
-30.6194
0
LINE
8
BLACK
6
CONTINUOUS
10
280.668
20
-30.6194
11
281.003
21
-30.8129
0
LINE
8
BLACK
6
CONTINUOUS
10
281.003
20
-30.8129
11
281.391
21
-30.8812
0
LINE
8
BLACK
6
CONTINUOUS
10
281.391
20
-30.8812
11
319.888
21
-30.8812
0
LINE
8
BLACK
6
CONTINUOUS
10
319.888
20
-30.8812
11
319.894
21
-30.8824
0
LINE
8
BLACK
6
CONTINUOUS
10
319.894
20
-30.8824
11
319.894
21
-30.8824
0
LINE
8
BLACK
6
CONTINUOUS
10
319.894
20
-30.8824
11
320.301
21
-30.9542
0
LINE
8
BLACK
6
CONTINUOUS
10
320.301
20
-30.9542
11
320.326
21
-30.9631
0
LINE
8
BLACK
6
CONTINUOUS
10
320.326
20
-30.9631
11
320.326
21
-30.9631
0
LINE
8
BLACK
6
CONTINUOUS
10
320.326
20
-30.9631
11
320.684
21
-31.1699
0
LINE
8
BLACK
6
CONTINUOUS
10
320.684
20
-31.1699
11
320.704
21
-31.1866
0
LINE
8
BLACK
6
CONTINUOUS
10
320.704
20
-31.1866
11
320.704
21
-31.1866
0
LINE
8
BLACK
6
CONTINUOUS
10
320.704
20
-31.1866
11
320.97
21
-31.5033
0
LINE
8
BLACK
6
CONTINUOUS
10
320.97
20
-31.5033
11
320.97
21
-31.5034
0
LINE
8
BLACK
6
CONTINUOUS
10
320.97
20
-31.5034
11
320.983
21
-31.5259
0
LINE
8
BLACK
6
CONTINUOUS
10
320.983
20
-31.5259
11
321.124
21
-31.9145
0
LINE
8
BLACK
6
CONTINUOUS
10
321.124
20
-31.9145
11
321.126
21
-31.9241
0
LINE
8
BLACK
6
CONTINUOUS
10
321.126
20
-31.9241
11
321.129
21
-31.9336
0
LINE
8
BLACK
6
CONTINUOUS
10
321.129
20
-31.9336
11
321.146
21
-32.1371
0
LINE
8
BLACK
6
CONTINUOUS
10
321.146
20
-32.1371
11
321.147
21
-32.1403
0
LINE
8
BLACK
6
CONTINUOUS
10
321.147
20
-32.1403
11
321.147
21
-39.2972
0
LINE
8
BLACK
6
CONTINUOUS
10
321.147
20
-39.2972
11
321.146
21
-39.3036
0
LINE
8
BLACK
6
CONTINUOUS
10
321.146
20
-39.3036
11
321.146
21
-39.3036
0
LINE
8
BLACK
6
CONTINUOUS
10
321.146
20
-39.3036
11
321.074
21
-39.7109
0
LINE
8
BLACK
6
CONTINUOUS
10
321.074
20
-39.7109
11
321.065
21
-39.7353
0
LINE
8
BLACK
6
CONTINUOUS
10
321.065
20
-39.7353
11
320.858
21
-40.0934
0
LINE
8
BLACK
6
CONTINUOUS
10
320.858
20
-40.0934
11
320.842
21
-40.1134
0
LINE
8
BLACK
6
CONTINUOUS
10
320.842
20
-40.1134
11
320.525
21
-40.3792
0
LINE
8
BLACK
6
CONTINUOUS
10
320.525
20
-40.3792
11
320.502
21
-40.3922
0
LINE
8
BLACK
6
CONTINUOUS
10
320.502
20
-40.3922
11
320.114
21
-40.5336
0
LINE
8
BLACK
6
CONTINUOUS
10
320.114
20
-40.5336
11
320.104
21
-40.5353
0
LINE
8
BLACK
6
CONTINUOUS
10
320.104
20
-40.5353
11
320.095
21
-40.5379
0
LINE
8
BLACK
6
CONTINUOUS
10
320.095
20
-40.5379
11
319.891
21
-40.5557
0
LINE
8
BLACK
6
CONTINUOUS
10
319.891
20
-40.5557
11
319.888
21
-40.5562
0
LINE
8
BLACK
6
CONTINUOUS
10
319.888
20
-40.5562
11
315.509
21
-40.5562
0
LINE
8
BLACK
6
CONTINUOUS
10
315.509
20
-40.5562
11
315.503
21
-40.5551
0
LINE
8
BLACK
6
CONTINUOUS
10
315.503
20
-40.5551
11
315.503
21
-40.5551
0
LINE
8
BLACK
6
CONTINUOUS
10
315.503
20
-40.5551
11
315.095
21
-40.4833
0
LINE
8
BLACK
6
CONTINUOUS
10
315.095
20
-40.4833
11
315.071
21
-40.4744
0
LINE
8
BLACK
6
CONTINUOUS
10
315.071
20
-40.4744
11
314.713
21
-40.2676
0
LINE
8
BLACK
6
CONTINUOUS
10
314.713
20
-40.2676
11
314.693
21
-40.2509
0
LINE
8
BLACK
6
CONTINUOUS
10
314.693
20
-40.2509
11
314.427
21
-39.9341
0
LINE
8
BLACK
6
CONTINUOUS
10
314.427
20
-39.9341
11
314.414
21
-39.9116
0
LINE
8
BLACK
6
CONTINUOUS
10
314.414
20
-39.9116
11
314.273
21
-39.523
0
LINE
8
BLACK
6
CONTINUOUS
10
314.273
20
-39.523
11
314.271
21
-39.5134
0
LINE
8
BLACK
6
CONTINUOUS
10
314.271
20
-39.5134
11
314.268
21
-39.5039
0
LINE
8
BLACK
6
CONTINUOUS
10
314.268
20
-39.5039
11
314.251
21
-39.3004
0
LINE
8
BLACK
6
CONTINUOUS
10
314.251
20
-39.3004
11
314.25
21
-39.2972
0
LINE
8
BLACK
6
CONTINUOUS
10
314.25
20
-39.2972
11
314.25
21
-36.9127
0
LINE
8
BLACK
6
CONTINUOUS
10
314.25
20
-36.9127
11
314.233
21
-36.719
0
LINE
8
BLACK
6
CONTINUOUS
10
314.233
20
-36.719
11
314.1
21
-36.3521
0
LINE
8
BLACK
6
CONTINUOUS
10
314.1
20
-36.3521
11
313.851
21
-36.0556
0
LINE
8
BLACK
6
CONTINUOUS
10
313.851
20
-36.0556
11
313.516
21
-35.8621
0
LINE
8
BLACK
6
CONTINUOUS
10
313.516
20
-35.8621
11
313.128
21
-35.7937
0
LINE
8
BLACK
6
CONTINUOUS
10
313.128
20
-35.7937
11
277.409
21
-35.7937
0
LINE
8
BLACK
6
CONTINUOUS
10
277.409
20
-35.7937
11
277.403
21
-35.7926
0
LINE
8
BLACK
6
CONTINUOUS
10
277.403
20
-35.7926
11
277.403
21
-35.7926
0
LINE
8
BLACK
6
CONTINUOUS
10
277.403
20
-35.7926
11
276.995
21
-35.7208
0
LINE
8
BLACK
6
CONTINUOUS
10
276.995
20
-35.7208
11
276.971
21
-35.7119
0
LINE
8
BLACK
6
CONTINUOUS
10
276.971
20
-35.7119
11
276.613
21
-35.5051
0
LINE
8
BLACK
6
CONTINUOUS
10
276.613
20
-35.5051
11
276.593
21
-35.4884
0
LINE
8
BLACK
6
CONTINUOUS
10
276.593
20
-35.4884
11
276.327
21
-35.1716
0
LINE
8
BLACK
6
CONTINUOUS
10
276.327
20
-35.1716
11
276.314
21
-35.1491
0
LINE
8
BLACK
6
CONTINUOUS
10
276.314
20
-35.1491
11
276.173
21
-34.7605
0
LINE
8
BLACK
6
CONTINUOUS
10
276.173
20
-34.7605
11
276.171
21
-34.7509
0
LINE
8
BLACK
6
CONTINUOUS
10
276.171
20
-34.7509
11
276.168
21
-34.7414
0
LINE
8
BLACK
6
CONTINUOUS
10
276.168
20
-34.7414
11
276.151
21
-34.5379
0
LINE
8
BLACK
6
CONTINUOUS
10
276.151
20
-34.5379
11
276.15
21
-34.5347
0
LINE
8
BLACK
6
CONTINUOUS
10
276.15
20
-34.5347
11
276.15
21
-32.1502
0
LINE
8
BLACK
6
CONTINUOUS
10
276.15
20
-32.1502
11
276.133
21
-31.9565
0
LINE
8
BLACK
6
CONTINUOUS
10
276.133
20
-31.9565
11
276
21
-31.5896
0
LINE
8
BLACK
6
CONTINUOUS
10
276
20
-31.5896
11
275.751
21
-31.2931
0
LINE
8
BLACK
6
CONTINUOUS
10
275.751
20
-31.2931
11
275.416
21
-31.0996
0
LINE
8
BLACK
6
CONTINUOUS
10
275.416
20
-31.0996
11
275.028
21
-31.0312
0
LINE
8
BLACK
6
CONTINUOUS
10
275.028
20
-31.0312
11
270.662
21
-31.0312
0
LINE
8
BLACK
6
CONTINUOUS
10
270.662
20
-31.0312
11
270.656
21
-31.0301
0
LINE
8
BLACK
6
CONTINUOUS
10
270.656
20
-31.0301
11
270.656
21
-31.0301
0
LINE
8
BLACK
6
CONTINUOUS
10
270.656
20
-31.0301
11
270.249
21
-30.9583
0
LINE
8
BLACK
6
CONTINUOUS
10
270.249
20
-30.9583
11
270.224
21
-30.9494
0
LINE
8
BLACK
6
CONTINUOUS
10
270.224
20
-30.9494
11
269.866
21
-30.7426
0
LINE
8
BLACK
6
CONTINUOUS
10
269.866
20
-30.7426
11
269.846
21
-30.7259
0
LINE
8
BLACK
6
CONTINUOUS
10
269.846
20
-30.7259
11
269.58
21
-30.4091
0
LINE
8
BLACK
6
CONTINUOUS
10
269.58
20
-30.4091
11
269.567
21
-30.3866
0
LINE
8
BLACK
6
CONTINUOUS
10
269.567
20
-30.3866
11
269.426
21
-29.998
0
LINE
8
BLACK
6
CONTINUOUS
10
269.426
20
-29.998
11
269.424
21
-29.9884
0
LINE
8
BLACK
6
CONTINUOUS
10
269.424
20
-29.9884
11
269.421
21
-29.9789
0
LINE
8
BLACK
6
CONTINUOUS
10
269.421
20
-29.9789
11
269.404
21
-29.7754
0
LINE
8
BLACK
6
CONTINUOUS
10
269.404
20
-29.7754
11
269.403
21
-29.7722
0
LINE
8
BLACK
6
CONTINUOUS
10
269.403
20
-29.7722
11
269.403
21
-27.7747
0
LINE
8
BLACK
6
CONTINUOUS
10
269.403
20
-27.7747
11
269.404
21
-27.769
0
LINE
8
BLACK
6
CONTINUOUS
10
269.404
20
-27.769
11
269.482
21
-27.279
0
LINE
8
BLACK
6
CONTINUOUS
10
269.482
20
-27.279
11
269.489
21
-27.2566
0
LINE
8
BLACK
6
CONTINUOUS
10
269.489
20
-27.2566
11
269.714
21
-26.8141
0
LINE
8
BLACK
6
CONTINUOUS
10
269.714
20
-26.8141
11
269.728
21
-26.7951
0
LINE
8
BLACK
6
CONTINUOUS
10
269.728
20
-26.7951
11
270.079
21
-26.4439
0
LINE
8
BLACK
6
CONTINUOUS
10
270.079
20
-26.4439
11
270.098
21
-26.4301
0
LINE
8
BLACK
6
CONTINUOUS
10
270.098
20
-26.4301
11
270.541
21
-26.2046
0
LINE
8
BLACK
6
CONTINUOUS
10
270.541
20
-26.2046
11
270.554
21
-26.2003
0
LINE
8
BLACK
6
CONTINUOUS
10
270.554
20
-26.2003
11
270.563
21
-26.1974
0
LINE
8
BLACK
6
CONTINUOUS
10
270.563
20
-26.1974
11
271.053
21
-26.1198
0
LINE
8
BLACK
6
CONTINUOUS
10
271.053
20
-26.1198
11
271.059
21
-26.1187
0
LINE
8
BLACK
6
CONTINUOUS
10
271.059
20
-26.1187
11
279.01
21
-26.1187
0
LINE
8
BLACK
6
CONTINUOUS
10
279.01
20
-26.1187
11
279.016
21
-26.1199
0
LINE
8
BLACK
6
CONTINUOUS
10
271.072
20
-26.2687
11
270.599
21
-26.3437
0
LINE
8
BLACK
6
CONTINUOUS
10
270.599
20
-26.3437
11
270.177
21
-26.5584
0
LINE
8
BLACK
6
CONTINUOUS
10
270.177
20
-26.5584
11
269.843
21
-26.8928
0
LINE
8
BLACK
6
CONTINUOUS
10
269.843
20
-26.8928
11
269.628
21
-27.3141
0
LINE
8
BLACK
6
CONTINUOUS
10
269.628
20
-27.3141
11
269.553
21
-27.7872
0
LINE
8
BLACK
6
CONTINUOUS
10
269.553
20
-27.7872
11
269.553
21
-29.7623
0
LINE
8
BLACK
6
CONTINUOUS
10
269.553
20
-29.7623
11
269.57
21
-29.956
0
LINE
8
BLACK
6
CONTINUOUS
10
269.57
20
-29.956
11
269.704
21
-30.3229
0
LINE
8
BLACK
6
CONTINUOUS
10
269.704
20
-30.3229
11
269.952
21
-30.6194
0
LINE
8
BLACK
6
CONTINUOUS
10
269.952
20
-30.6194
11
270.288
21
-30.8129
0
LINE
8
BLACK
6
CONTINUOUS
10
270.288
20
-30.8129
11
270.675
21
-30.8812
0
LINE
8
BLACK
6
CONTINUOUS
10
270.675
20
-30.8812
11
275.041
21
-30.8812
0
LINE
8
BLACK
6
CONTINUOUS
10
275.041
20
-30.8812
11
275.047
21
-30.8824
0
LINE
8
BLACK
6
CONTINUOUS
10
275.047
20
-30.8824
11
275.047
21
-30.8824
0
LINE
8
BLACK
6
CONTINUOUS
10
275.047
20
-30.8824
11
275.455
21
-30.9542
0
LINE
8
BLACK
6
CONTINUOUS
10
275.455
20
-30.9542
11
275.479
21
-30.9631
0
LINE
8
BLACK
6
CONTINUOUS
10
275.479
20
-30.9631
11
275.479
21
-30.9631
0
LINE
8
BLACK
6
CONTINUOUS
10
275.479
20
-30.9631
11
275.837
21
-31.1699
0
LINE
8
BLACK
6
CONTINUOUS
10
275.837
20
-31.1699
11
275.857
21
-31.1866
0
LINE
8
BLACK
6
CONTINUOUS
10
275.857
20
-31.1866
11
275.857
21
-31.1866
0
LINE
8
BLACK
6
CONTINUOUS
10
275.857
20
-31.1866
11
276.123
21
-31.5033
0
LINE
8
BLACK
6
CONTINUOUS
10
276.123
20
-31.5033
11
276.123
21
-31.5034
0
LINE
8
BLACK
6
CONTINUOUS
10
276.123
20
-31.5034
11
276.136
21
-31.5259
0
LINE
8
BLACK
6
CONTINUOUS
10
276.136
20
-31.5259
11
276.277
21
-31.9145
0
LINE
8
BLACK
6
CONTINUOUS
10
276.277
20
-31.9145
11
276.279
21
-31.9241
0
LINE
8
BLACK
6
CONTINUOUS
10
276.279
20
-31.9241
11
276.282
21
-31.9336
0
LINE
8
BLACK
6
CONTINUOUS
10
276.282
20
-31.9336
11
276.299
21
-32.1371
0
LINE
8
BLACK
6
CONTINUOUS
10
276.299
20
-32.1371
11
276.3
21
-32.1403
0
LINE
8
BLACK
6
CONTINUOUS
10
276.3
20
-32.1403
11
276.3
21
-34.5248
0
LINE
8
BLACK
6
CONTINUOUS
10
276.3
20
-34.5248
11
276.317
21
-34.7185
0
LINE
8
BLACK
6
CONTINUOUS
10
276.317
20
-34.7185
11
276.45
21
-35.0854
0
LINE
8
BLACK
6
CONTINUOUS
10
276.45
20
-35.0854
11
276.699
21
-35.3819
0
LINE
8
BLACK
6
CONTINUOUS
10
276.699
20
-35.3819
11
277.034
21
-35.5754
0
LINE
8
BLACK
6
CONTINUOUS
10
277.034
20
-35.5754
11
277.422
21
-35.6437
0
LINE
8
BLACK
6
CONTINUOUS
10
277.422
20
-35.6437
11
313.141
21
-35.6437
0
LINE
8
BLACK
6
CONTINUOUS
10
313.141
20
-35.6437
11
313.147
21
-35.6449
0
LINE
8
BLACK
6
CONTINUOUS
10
313.147
20
-35.6449
11
313.147
21
-35.6449
0
LINE
8
BLACK
6
CONTINUOUS
10
313.147
20
-35.6449
11
313.555
21
-35.7167
0
LINE
8
BLACK
6
CONTINUOUS
10
313.555
20
-35.7167
11
313.579
21
-35.7256
0
LINE
8
BLACK
6
CONTINUOUS
10
313.579
20
-35.7256
11
313.579
21
-35.7256
0
LINE
8
BLACK
6
CONTINUOUS
10
313.579
20
-35.7256
11
313.937
21
-35.9324
0
LINE
8
BLACK
6
CONTINUOUS
10
313.937
20
-35.9324
11
313.957
21
-35.9491
0
LINE
8
BLACK
6
CONTINUOUS
10
313.957
20
-35.9491
11
313.957
21
-35.9491
0
LINE
8
BLACK
6
CONTINUOUS
10
313.957
20
-35.9491
11
314.223
21
-36.2659
0
LINE
8
BLACK
6
CONTINUOUS
10
314.223
20
-36.2659
11
314.223
21
-36.2659
0
LINE
8
BLACK
6
CONTINUOUS
10
314.223
20
-36.2659
11
314.236
21
-36.2884
0
LINE
8
BLACK
6
CONTINUOUS
10
314.236
20
-36.2884
11
314.377
21
-36.677
0
LINE
8
BLACK
6
CONTINUOUS
10
314.377
20
-36.677
11
314.379
21
-36.6866
0
LINE
8
BLACK
6
CONTINUOUS
10
314.379
20
-36.6866
11
314.382
21
-36.6961
0
LINE
8
BLACK
6
CONTINUOUS
10
314.382
20
-36.6961
11
314.399
21
-36.8996
0
LINE
8
BLACK
6
CONTINUOUS
10
314.399
20
-36.8996
11
314.4
21
-36.9028
0
LINE
8
BLACK
6
CONTINUOUS
10
314.4
20
-36.9028
11
314.4
21
-39.2873
0
LINE
8
BLACK
6
CONTINUOUS
10
314.4
20
-39.2873
11
314.417
21
-39.481
0
LINE
8
BLACK
6
CONTINUOUS
10
314.417
20
-39.481
11
314.55
21
-39.8479
0
LINE
8
BLACK
6
CONTINUOUS
10
314.55
20
-39.8479
11
314.799
21
-40.1444
0
LINE
8
BLACK
6
CONTINUOUS
10
314.799
20
-40.1444
11
315.134
21
-40.3379
0
LINE
8
BLACK
6
CONTINUOUS
10
315.134
20
-40.3379
11
315.522
21
-40.4062
0
LINE
8
BLACK
6
CONTINUOUS
10
315.522
20
-40.4062
11
319.878
21
-40.4062
0
LINE
8
BLACK
6
CONTINUOUS
10
319.878
20
-40.4062
11
320.072
21
-40.3893
0
LINE
8
BLACK
6
CONTINUOUS
10
320.072
20
-40.3893
11
320.438
21
-40.2558
0
LINE
8
BLACK
6
CONTINUOUS
10
320.438
20
-40.2558
11
320.735
21
-40.007
0
LINE
8
BLACK
6
CONTINUOUS
10
320.735
20
-40.007
11
320.929
21
-39.6718
0
LINE
8
BLACK
6
CONTINUOUS
10
320.929
20
-39.6718
11
320.997
21
-39.2841
0
LINE
8
BLACK
6
CONTINUOUS
10
320.997
20
-39.2841
11
320.997
21
-32.1502
0
LINE
8
BLACK
6
CONTINUOUS
10
320.997
20
-32.1502
11
320.98
21
-31.9565
0
LINE
8
BLACK
6
CONTINUOUS
10
320.98
20
-31.9565
11
320.846
21
-31.5896
0
LINE
8
BLACK
6
CONTINUOUS
10
320.846
20
-31.5896
11
320.598
21
-31.2931
0
LINE
8
BLACK
6
CONTINUOUS
10
320.598
20
-31.2931
11
320.262
21
-31.0996
0
LINE
8
BLACK
6
CONTINUOUS
10
320.262
20
-31.0996
11
319.875
21
-31.0312
0
LINE
8
BLACK
6
CONTINUOUS
10
319.875
20
-31.0312
11
281.378
21
-31.0312
0
LINE
8
BLACK
6
CONTINUOUS
10
281.378
20
-31.0312
11
281.371
21
-31.0301
0
LINE
8
BLACK
6
CONTINUOUS
10
281.371
20
-31.0301
11
281.371
21
-31.0301
0
LINE
8
BLACK
6
CONTINUOUS
10
281.371
20
-31.0301
11
280.964
21
-30.9583
0
LINE
8
BLACK
6
CONTINUOUS
10
280.964
20
-30.9583
11
280.94
21
-30.9494
0
LINE
8
BLACK
6
CONTINUOUS
10
280.94
20
-30.9494
11
280.582
21
-30.7426
0
LINE
8
BLACK
6
CONTINUOUS
10
280.582
20
-30.7426
11
280.562
21
-30.7259
0
LINE
8
BLACK
6
CONTINUOUS
10
280.562
20
-30.7259
11
280.296
21
-30.4091
0
LINE
8
BLACK
6
CONTINUOUS
10
280.296
20
-30.4091
11
280.283
21
-30.3866
0
LINE
8
BLACK
6
CONTINUOUS
10
280.283
20
-30.3866
11
280.141
21
-29.998
0
LINE
8
BLACK
6
CONTINUOUS
10
280.141
20
-29.998
11
280.14
21
-29.9884
0
LINE
8
BLACK
6
CONTINUOUS
10
280.14
20
-29.9884
11
280.137
21
-29.9789
0
LINE
8
BLACK
6
CONTINUOUS
10
280.137
20
-29.9789
11
280.119
21
-29.7754
0
LINE
8
BLACK
6
CONTINUOUS
10
280.119
20
-29.7754
11
280.119
21
-29.7722
0
LINE
8
BLACK
6
CONTINUOUS
10
280.119
20
-29.7722
11
280.119
21
-27.3877
0
LINE
8
BLACK
6
CONTINUOUS
10
280.119
20
-27.3877
11
280.102
21
-27.194
0
LINE
8
BLACK
6
CONTINUOUS
10
280.102
20
-27.194
11
279.968
21
-26.8271
0
LINE
8
BLACK
6
CONTINUOUS
10
279.968
20
-26.8271
11
279.719
21
-26.5306
0
LINE
8
BLACK
6
CONTINUOUS
10
279.719
20
-26.5306
11
279.384
21
-26.3371
0
LINE
8
BLACK
6
CONTINUOUS
10
279.384
20
-26.3371
11
278.997
21
-26.2687
0
LINE
8
BLACK
6
CONTINUOUS
10
278.997
20
-26.2687
11
271.072
21
-26.2687
0
LINE
8
BLACK
6
CONTINUOUS
10
107.363
20
-28.6669
11
106.996
21
-28.8005
0
LINE
8
BLACK
6
CONTINUOUS
10
106.996
20
-28.8005
11
106.699
21
-29.0493
0
LINE
8
BLACK
6
CONTINUOUS
10
106.699
20
-29.0493
11
106.506
21
-29.3845
0
LINE
8
BLACK
6
CONTINUOUS
10
106.506
20
-29.3845
11
106.436
21
-29.7786
0
LINE
8
BLACK
6
CONTINUOUS
10
106.436
20
-29.7786
11
106.365
21
-30.1859
0
LINE
8
BLACK
6
CONTINUOUS
10
106.365
20
-30.1859
11
106.356
21
-30.2103
0
LINE
8
BLACK
6
CONTINUOUS
10
106.356
20
-30.2103
11
106.149
21
-30.5684
0
LINE
8
BLACK
6
CONTINUOUS
10
106.149
20
-30.5684
11
106.132
21
-30.5884
0
LINE
8
BLACK
6
CONTINUOUS
10
106.132
20
-30.5884
11
105.815
21
-30.8542
0
LINE
8
BLACK
6
CONTINUOUS
10
105.815
20
-30.8542
11
105.793
21
-30.8672
0
LINE
8
BLACK
6
CONTINUOUS
10
105.793
20
-30.8672
11
105.404
21
-31.0086
0
LINE
8
BLACK
6
CONTINUOUS
10
105.404
20
-31.0086
11
105.395
21
-31.0103
0
LINE
8
BLACK
6
CONTINUOUS
10
105.395
20
-31.0103
11
105.385
21
-31.0129
0
LINE
8
BLACK
6
CONTINUOUS
10
105.385
20
-31.0129
11
105.182
21
-31.0307
0
LINE
8
BLACK
6
CONTINUOUS
10
105.182
20
-31.0307
11
105.178
21
-31.0312
0
LINE
8
BLACK
6
CONTINUOUS
10
105.178
20
-31.0312
11
100.8
21
-31.0312
0
LINE
8
BLACK
6
CONTINUOUS
10
100.8
20
-31.0312
11
100.793
21
-31.0301
0
LINE
8
BLACK
6
CONTINUOUS
10
100.793
20
-31.0301
11
100.793
21
-31.0301
0
LINE
8
BLACK
6
CONTINUOUS
10
100.793
20
-31.0301
11
100.386
21
-30.9583
0
LINE
8
BLACK
6
CONTINUOUS
10
100.386
20
-30.9583
11
100.362
21
-30.9494
0
LINE
8
BLACK
6
CONTINUOUS
10
100.362
20
-30.9494
11
100.003
21
-30.7426
0
LINE
8
BLACK
6
CONTINUOUS
10
100.003
20
-30.7426
11
99.9835
21
-30.7259
0
LINE
8
BLACK
6
CONTINUOUS
10
99.9835
20
-30.7259
11
99.7177
21
-30.4091
0
LINE
8
BLACK
6
CONTINUOUS
10
99.7177
20
-30.4091
11
99.7047
21
-30.3866
0
LINE
8
BLACK
6
CONTINUOUS
10
99.7047
20
-30.3866
11
99.5632
21
-29.998
0
LINE
8
BLACK
6
CONTINUOUS
10
99.5632
20
-29.998
11
99.5615
21
-29.9884
0
LINE
8
BLACK
6
CONTINUOUS
10
99.5615
20
-29.9884
11
99.559
21
-29.9789
0
LINE
8
BLACK
6
CONTINUOUS
10
99.559
20
-29.9789
11
99.5412
21
-29.7754
0
LINE
8
BLACK
6
CONTINUOUS
10
99.5412
20
-29.7754
11
99.5406
21
-29.7722
0
LINE
8
BLACK
6
CONTINUOUS
10
99.5406
20
-29.7722
11
99.5406
21
-27.7747
0
LINE
8
BLACK
6
CONTINUOUS
10
99.5406
20
-27.7747
11
99.5416
21
-27.769
0
LINE
8
BLACK
6
CONTINUOUS
10
99.5416
20
-27.769
11
99.6192
21
-27.279
0
LINE
8
BLACK
6
CONTINUOUS
10
99.6192
20
-27.279
11
99.6265
21
-27.2566
0
LINE
8
BLACK
6
CONTINUOUS
10
99.6265
20
-27.2566
11
99.852
21
-26.8141
0
LINE
8
BLACK
6
CONTINUOUS
10
99.852
20
-26.8141
11
99.8658
21
-26.7951
0
LINE
8
BLACK
6
CONTINUOUS
10
99.8658
20
-26.7951
11
100.217
21
-26.4439
0
LINE
8
BLACK
6
CONTINUOUS
10
100.217
20
-26.4439
11
100.236
21
-26.4301
0
LINE
8
BLACK
6
CONTINUOUS
10
100.236
20
-26.4301
11
100.679
21
-26.2046
0
LINE
8
BLACK
6
CONTINUOUS
10
100.679
20
-26.2046
11
100.692
21
-26.2003
0
LINE
8
BLACK
6
CONTINUOUS
10
100.692
20
-26.2003
11
100.701
21
-26.1974
0
LINE
8
BLACK
6
CONTINUOUS
10
100.701
20
-26.1974
11
101.191
21
-26.1198
0
LINE
8
BLACK
6
CONTINUOUS
10
101.191
20
-26.1198
11
101.197
21
-26.1187
0
LINE
8
BLACK
6
CONTINUOUS
10
101.197
20
-26.1187
11
128.197
21
-26.1187
0
LINE
8
BLACK
6
CONTINUOUS
10
128.197
20
-26.1187
11
128.203
21
-26.1198
0
LINE
8
BLACK
6
CONTINUOUS
10
128.203
20
-26.1198
11
128.693
21
-26.1974
0
LINE
8
BLACK
6
CONTINUOUS
10
128.693
20
-26.1974
11
128.715
21
-26.2046
0
LINE
8
BLACK
6
CONTINUOUS
10
128.715
20
-26.2046
11
128.715
21
-26.2046
0
LINE
8
BLACK
6
CONTINUOUS
10
128.715
20
-26.2046
11
129.158
21
-26.4301
0
LINE
8
BLACK
6
CONTINUOUS
10
129.158
20
-26.4301
11
129.177
21
-26.4439
0
LINE
8
BLACK
6
CONTINUOUS
10
129.177
20
-26.4439
11
129.528
21
-26.7951
0
LINE
8
BLACK
6
CONTINUOUS
10
129.528
20
-26.7951
11
129.542
21
-26.8141
0
LINE
8
BLACK
6
CONTINUOUS
10
129.542
20
-26.8141
11
129.767
21
-27.2566
0
LINE
8
BLACK
6
CONTINUOUS
10
129.767
20
-27.2566
11
129.771
21
-27.2678
0
LINE
8
BLACK
6
CONTINUOUS
10
129.771
20
-27.2678
11
129.775
21
-27.279
0
LINE
8
BLACK
6
CONTINUOUS
10
129.775
20
-27.279
11
129.852
21
-27.769
0
LINE
8
BLACK
6
CONTINUOUS
10
129.852
20
-27.769
11
129.853
21
-27.7747
0
LINE
8
BLACK
6
CONTINUOUS
10
129.853
20
-27.7747
11
129.853
21
-29.7722
0
LINE
8
BLACK
6
CONTINUOUS
10
129.853
20
-29.7722
11
129.852
21
-29.7786
0
LINE
8
BLACK
6
CONTINUOUS
10
129.852
20
-29.7786
11
129.852
21
-29.7786
0
LINE
8
BLACK
6
CONTINUOUS
10
129.852
20
-29.7786
11
129.78
21
-30.1859
0
LINE
8
BLACK
6
CONTINUOUS
10
129.78
20
-30.1859
11
129.771
21
-30.2103
0
LINE
8
BLACK
6
CONTINUOUS
10
129.771
20
-30.2103
11
129.565
21
-30.5684
0
LINE
8
BLACK
6
CONTINUOUS
10
129.565
20
-30.5684
11
129.548
21
-30.5884
0
LINE
8
BLACK
6
CONTINUOUS
10
129.548
20
-30.5884
11
129.231
21
-30.8542
0
LINE
8
BLACK
6
CONTINUOUS
10
129.231
20
-30.8542
11
129.208
21
-30.8672
0
LINE
8
BLACK
6
CONTINUOUS
10
129.208
20
-30.8672
11
128.82
21
-31.0086
0
LINE
8
BLACK
6
CONTINUOUS
10
128.82
20
-31.0086
11
128.81
21
-31.0103
0
LINE
8
BLACK
6
CONTINUOUS
10
128.81
20
-31.0103
11
128.801
21
-31.0129
0
LINE
8
BLACK
6
CONTINUOUS
10
128.801
20
-31.0129
11
128.597
21
-31.0307
0
LINE
8
BLACK
6
CONTINUOUS
10
128.597
20
-31.0307
11
128.594
21
-31.0312
0
LINE
8
BLACK
6
CONTINUOUS
10
128.594
20
-31.0312
11
126.597
21
-31.0312
0
LINE
8
BLACK
6
CONTINUOUS
10
126.597
20
-31.0312
11
126.59
21
-31.0301
0
LINE
8
BLACK
6
CONTINUOUS
10
126.59
20
-31.0301
11
126.59
21
-31.0301
0
LINE
8
BLACK
6
CONTINUOUS
10
126.59
20
-31.0301
11
126.183
21
-30.9583
0
LINE
8
BLACK
6
CONTINUOUS
10
126.183
20
-30.9583
11
126.158
21
-30.9494
0
LINE
8
BLACK
6
CONTINUOUS
10
126.158
20
-30.9494
11
125.8
21
-30.7426
0
LINE
8
BLACK
6
CONTINUOUS
10
125.8
20
-30.7426
11
125.78
21
-30.7259
0
LINE
8
BLACK
6
CONTINUOUS
10
125.78
20
-30.7259
11
125.515
21
-30.4091
0
LINE
8
BLACK
6
CONTINUOUS
10
125.515
20
-30.4091
11
125.502
21
-30.3866
0
LINE
8
BLACK
6
CONTINUOUS
10
125.502
20
-30.3866
11
125.36
21
-29.998
0
LINE
8
BLACK
6
CONTINUOUS
10
125.36
20
-29.998
11
125.358
21
-29.9884
0
LINE
8
BLACK
6
CONTINUOUS
10
125.358
20
-29.9884
11
125.356
21
-29.9789
0
LINE
8
BLACK
6
CONTINUOUS
10
125.356
20
-29.9789
11
125.338
21
-29.7722
0
LINE
8
BLACK
6
CONTINUOUS
10
125.338
20
-29.7722
11
125.321
21
-29.5752
0
LINE
8
BLACK
6
CONTINUOUS
10
125.321
20
-29.5752
11
125.187
21
-29.2084
0
LINE
8
BLACK
6
CONTINUOUS
10
125.187
20
-29.2084
11
124.938
21
-28.9119
0
LINE
8
BLACK
6
CONTINUOUS
10
124.938
20
-28.9119
11
124.603
21
-28.7184
0
LINE
8
BLACK
6
CONTINUOUS
10
124.603
20
-28.7184
11
124.215
21
-28.65
0
LINE
8
BLACK
6
CONTINUOUS
10
124.215
20
-28.65
11
107.556
21
-28.65
0
LINE
8
BLACK
6
CONTINUOUS
10
107.556
20
-28.65
11
107.363
21
-28.6669
0
LINE
8
BLACK
6
CONTINUOUS
10
124.235
20
-28.5011
11
124.235
21
-28.5011
0
LINE
8
BLACK
6
CONTINUOUS
10
124.235
20
-28.5011
11
124.642
21
-28.5729
0
LINE
8
BLACK
6
CONTINUOUS
10
124.642
20
-28.5729
11
124.667
21
-28.5819
0
LINE
8
BLACK
6
CONTINUOUS
10
124.667
20
-28.5819
11
124.667
21
-28.5819
0
LINE
8
BLACK
6
CONTINUOUS
10
124.667
20
-28.5819
11
125.025
21
-28.7886
0
LINE
8
BLACK
6
CONTINUOUS
10
125.025
20
-28.7886
11
125.045
21
-28.8053
0
LINE
8
BLACK
6
CONTINUOUS
10
125.045
20
-28.8053
11
125.045
21
-28.8053
0
LINE
8
BLACK
6
CONTINUOUS
10
125.045
20
-28.8053
11
125.31
21
-29.1221
0
LINE
8
BLACK
6
CONTINUOUS
10
125.31
20
-29.1221
11
125.31
21
-29.1221
0
LINE
8
BLACK
6
CONTINUOUS
10
125.31
20
-29.1221
11
125.323
21
-29.1447
0
LINE
8
BLACK
6
CONTINUOUS
10
125.323
20
-29.1447
11
125.465
21
-29.5332
0
LINE
8
BLACK
6
CONTINUOUS
10
125.465
20
-29.5332
11
125.467
21
-29.5429
0
LINE
8
BLACK
6
CONTINUOUS
10
125.467
20
-29.5429
11
125.469
21
-29.5523
0
LINE
8
BLACK
6
CONTINUOUS
10
125.469
20
-29.5523
11
125.487
21
-29.7591
0
LINE
8
BLACK
6
CONTINUOUS
10
125.487
20
-29.7591
11
125.504
21
-29.956
0
LINE
8
BLACK
6
CONTINUOUS
10
125.504
20
-29.956
11
125.638
21
-30.3229
0
LINE
8
BLACK
6
CONTINUOUS
10
125.638
20
-30.3229
11
125.887
21
-30.6194
0
LINE
8
BLACK
6
CONTINUOUS
10
125.887
20
-30.6194
11
126.222
21
-30.8129
0
LINE
8
BLACK
6
CONTINUOUS
10
126.222
20
-30.8129
11
126.61
21
-30.8812
0
LINE
8
BLACK
6
CONTINUOUS
10
126.61
20
-30.8812
11
128.584
21
-30.8812
0
LINE
8
BLACK
6
CONTINUOUS
10
128.584
20
-30.8812
11
128.778
21
-30.8643
0
LINE
8
BLACK
6
CONTINUOUS
10
128.778
20
-30.8643
11
129.145
21
-30.7308
0
LINE
8
BLACK
6
CONTINUOUS
10
129.145
20
-30.7308
11
129.441
21
-30.482
0
LINE
8
BLACK
6
CONTINUOUS
10
129.441
20
-30.482
11
129.635
21
-30.1468
0
LINE
8
BLACK
6
CONTINUOUS
10
129.635
20
-30.1468
11
129.703
21
-29.7591
0
LINE
8
BLACK
6
CONTINUOUS
10
129.703
20
-29.7591
11
129.703
21
-27.7872
0
LINE
8
BLACK
6
CONTINUOUS
10
129.703
20
-27.7872
11
129.628
21
-27.3141
0
LINE
8
BLACK
6
CONTINUOUS
10
129.628
20
-27.3141
11
129.414
21
-26.8928
0
LINE
8
BLACK
6
CONTINUOUS
10
129.414
20
-26.8928
11
129.079
21
-26.5584
0
LINE
8
BLACK
6
CONTINUOUS
10
129.079
20
-26.5584
11
128.658
21
-26.3437
0
LINE
8
BLACK
6
CONTINUOUS
10
128.658
20
-26.3437
11
128.185
21
-26.2687
0
LINE
8
BLACK
6
CONTINUOUS
10
128.185
20
-26.2687
11
101.209
21
-26.2687
0
LINE
8
BLACK
6
CONTINUOUS
10
101.209
20
-26.2687
11
100.736
21
-26.3437
0
LINE
8
BLACK
6
CONTINUOUS
10
100.736
20
-26.3437
11
100.315
21
-26.5584
0
LINE
8
BLACK
6
CONTINUOUS
10
100.315
20
-26.5584
11
99.9802
21
-26.8928
0
LINE
8
BLACK
6
CONTINUOUS
10
99.9802
20
-26.8928
11
99.7655
21
-27.3141
0
LINE
8
BLACK
6
CONTINUOUS
10
99.7655
20
-27.3141
11
99.6906
21
-27.7872
0
LINE
8
BLACK
6
CONTINUOUS
10
99.6906
20
-27.7872
11
99.6906
21
-29.7623
0
LINE
8
BLACK
6
CONTINUOUS
10
99.6906
20
-29.7623
11
99.7076
21
-29.956
0
LINE
8
BLACK
6
CONTINUOUS
10
99.7076
20
-29.956
11
99.8411
21
-30.3229
0
LINE
8
BLACK
6
CONTINUOUS
10
99.8411
20
-30.3229
11
100.09
21
-30.6194
0
LINE
8
BLACK
6
CONTINUOUS
10
100.09
20
-30.6194
11
100.425
21
-30.8129
0
LINE
8
BLACK
6
CONTINUOUS
10
100.425
20
-30.8129
11
100.813
21
-30.8812
0
LINE
8
BLACK
6
CONTINUOUS
10
100.813
20
-30.8812
11
105.169
21
-30.8812
0
LINE
8
BLACK
6
CONTINUOUS
10
105.169
20
-30.8812
11
105.362
21
-30.8643
0
LINE
8
BLACK
6
CONTINUOUS
10
105.362
20
-30.8643
11
105.729
21
-30.7308
0
LINE
8
BLACK
6
CONTINUOUS
10
105.729
20
-30.7308
11
106.026
21
-30.482
0
LINE
8
BLACK
6
CONTINUOUS
10
106.026
20
-30.482
11
106.219
21
-30.1468
0
LINE
8
BLACK
6
CONTINUOUS
10
106.219
20
-30.1468
11
106.289
21
-29.7526
0
LINE
8
BLACK
6
CONTINUOUS
10
106.289
20
-29.7526
11
106.36
21
-29.3454
0
LINE
8
BLACK
6
CONTINUOUS
10
106.36
20
-29.3454
11
106.369
21
-29.3209
0
LINE
8
BLACK
6
CONTINUOUS
10
106.369
20
-29.3209
11
106.369
21
-29.3209
0
LINE
8
BLACK
6
CONTINUOUS
10
106.369
20
-29.3209
11
106.576
21
-28.9628
0
LINE
8
BLACK
6
CONTINUOUS
10
106.576
20
-28.9628
11
106.593
21
-28.9429
0
LINE
8
BLACK
6
CONTINUOUS
10
106.593
20
-28.9429
11
106.593
21
-28.9428
0
LINE
8
BLACK
6
CONTINUOUS
10
106.593
20
-28.9428
11
106.91
21
-28.6771
0
LINE
8
BLACK
6
CONTINUOUS
10
106.91
20
-28.6771
11
106.91
21
-28.6771
0
LINE
8
BLACK
6
CONTINUOUS
10
106.91
20
-28.6771
11
106.932
21
-28.664
0
LINE
8
BLACK
6
CONTINUOUS
10
106.932
20
-28.664
11
107.321
21
-28.5226
0
LINE
8
BLACK
6
CONTINUOUS
10
107.321
20
-28.5226
11
107.33
21
-28.5209
0
LINE
8
BLACK
6
CONTINUOUS
10
107.33
20
-28.5209
11
107.34
21
-28.5184
0
LINE
8
BLACK
6
CONTINUOUS
10
107.34
20
-28.5184
11
107.543
21
-28.5006
0
LINE
8
BLACK
6
CONTINUOUS
10
107.543
20
-28.5006
11
107.547
21
-28.5
0
LINE
8
BLACK
6
CONTINUOUS
10
107.547
20
-28.5
11
124.228
21
-28.5
0
LINE
8
BLACK
6
CONTINUOUS
10
124.228
20
-28.5
11
124.235
21
-28.5011
0
LINE
8
BLACK
6
CONTINUOUS
10
239.125
20
-28.6669
11
238.758
21
-28.8005
0
LINE
8
BLACK
6
CONTINUOUS
10
238.758
20
-28.8005
11
238.462
21
-29.0493
0
LINE
8
BLACK
6
CONTINUOUS
10
238.462
20
-29.0493
11
238.268
21
-29.3845
0
LINE
8
BLACK
6
CONTINUOUS
10
238.268
20
-29.3845
11
238.199
21
-29.7786
0
LINE
8
BLACK
6
CONTINUOUS
10
238.199
20
-29.7786
11
238.127
21
-30.1859
0
LINE
8
BLACK
6
CONTINUOUS
10
238.127
20
-30.1859
11
238.118
21
-30.2103
0
LINE
8
BLACK
6
CONTINUOUS
10
238.118
20
-30.2103
11
237.911
21
-30.5684
0
LINE
8
BLACK
6
CONTINUOUS
10
237.911
20
-30.5684
11
237.895
21
-30.5884
0
LINE
8
BLACK
6
CONTINUOUS
10
237.895
20
-30.5884
11
237.578
21
-30.8542
0
LINE
8
BLACK
6
CONTINUOUS
10
237.578
20
-30.8542
11
237.555
21
-30.8672
0
LINE
8
BLACK
6
CONTINUOUS
10
237.555
20
-30.8672
11
237.167
21
-31.0086
0
LINE
8
BLACK
6
CONTINUOUS
10
237.167
20
-31.0086
11
237.157
21
-31.0103
0
LINE
8
BLACK
6
CONTINUOUS
10
237.157
20
-31.0103
11
237.148
21
-31.0129
0
LINE
8
BLACK
6
CONTINUOUS
10
237.148
20
-31.0129
11
236.944
21
-31.0307
0
LINE
8
BLACK
6
CONTINUOUS
10
236.944
20
-31.0307
11
236.941
21
-31.0312
0
LINE
8
BLACK
6
CONTINUOUS
10
236.941
20
-31.0312
11
235.737
21
-31.0312
0
LINE
8
BLACK
6
CONTINUOUS
10
235.737
20
-31.0312
11
235.731
21
-31.0301
0
LINE
8
BLACK
6
CONTINUOUS
10
235.731
20
-31.0301
11
235.731
21
-31.0301
0
LINE
8
BLACK
6
CONTINUOUS
10
235.731
20
-31.0301
11
235.324
21
-30.9583
0
LINE
8
BLACK
6
CONTINUOUS
10
235.324
20
-30.9583
11
235.299
21
-30.9494
0
LINE
8
BLACK
6
CONTINUOUS
10
235.299
20
-30.9494
11
234.941
21
-30.7426
0
LINE
8
BLACK
6
CONTINUOUS
10
234.941
20
-30.7426
11
234.921
21
-30.7259
0
LINE
8
BLACK
6
CONTINUOUS
10
234.921
20
-30.7259
11
234.655
21
-30.4091
0
LINE
8
BLACK
6
CONTINUOUS
10
234.655
20
-30.4091
11
234.642
21
-30.3866
0
LINE
8
BLACK
6
CONTINUOUS
10
234.642
20
-30.3866
11
234.501
21
-29.998
0
LINE
8
BLACK
6
CONTINUOUS
10
234.501
20
-29.998
11
234.499
21
-29.9884
0
LINE
8
BLACK
6
CONTINUOUS
10
234.499
20
-29.9884
11
234.496
21
-29.9789
0
LINE
8
BLACK
6
CONTINUOUS
10
234.496
20
-29.9789
11
234.479
21
-29.7754
0
LINE
8
BLACK
6
CONTINUOUS
10
234.479
20
-29.7754
11
234.478
21
-29.7722
0
LINE
8
BLACK
6
CONTINUOUS
10
234.478
20
-29.7722
11
234.478
21
-27.7747
0
LINE
8
BLACK
6
CONTINUOUS
10
234.478
20
-27.7747
11
234.479
21
-27.769
0
LINE
8
BLACK
6
CONTINUOUS
10
234.479
20
-27.769
11
234.557
21
-27.279
0
LINE
8
BLACK
6
CONTINUOUS
10
234.557
20
-27.279
11
234.564
21
-27.2566
0
LINE
8
BLACK
6
CONTINUOUS
10
234.564
20
-27.2566
11
234.789
21
-26.8141
0
LINE
8
BLACK
6
CONTINUOUS
10
234.789
20
-26.8141
11
234.803
21
-26.7951
0
LINE
8
BLACK
6
CONTINUOUS
10
234.803
20
-26.7951
11
235.154
21
-26.4439
0
LINE
8
BLACK
6
CONTINUOUS
10
235.154
20
-26.4439
11
235.173
21
-26.4301
0
LINE
8
BLACK
6
CONTINUOUS
10
235.173
20
-26.4301
11
235.616
21
-26.2046
0
LINE
8
BLACK
6
CONTINUOUS
10
235.616
20
-26.2046
11
235.629
21
-26.2003
0
LINE
8
BLACK
6
CONTINUOUS
10
235.629
20
-26.2003
11
235.638
21
-26.1974
0
LINE
8
BLACK
6
CONTINUOUS
10
235.638
20
-26.1974
11
236.128
21
-26.1198
0
LINE
8
BLACK
6
CONTINUOUS
10
236.128
20
-26.1198
11
236.134
21
-26.1187
0
LINE
8
BLACK
6
CONTINUOUS
10
236.134
20
-26.1187
11
262.341
21
-26.1187
0
LINE
8
BLACK
6
CONTINUOUS
10
262.341
20
-26.1187
11
262.347
21
-26.1198
0
LINE
8
BLACK
6
CONTINUOUS
10
262.347
20
-26.1198
11
262.837
21
-26.1974
0
LINE
8
BLACK
6
CONTINUOUS
10
262.837
20
-26.1974
11
262.859
21
-26.2046
0
LINE
8
BLACK
6
CONTINUOUS
10
262.859
20
-26.2046
11
262.859
21
-26.2046
0
LINE
8
BLACK
6
CONTINUOUS
10
262.859
20
-26.2046
11
263.302
21
-26.4301
0
LINE
8
BLACK
6
CONTINUOUS
10
263.302
20
-26.4301
11
263.321
21
-26.4439
0
LINE
8
BLACK
6
CONTINUOUS
10
263.321
20
-26.4439
11
263.672
21
-26.7951
0
LINE
8
BLACK
6
CONTINUOUS
10
263.672
20
-26.7951
11
263.686
21
-26.8141
0
LINE
8
BLACK
6
CONTINUOUS
10
263.686
20
-26.8141
11
263.911
21
-27.2566
0
LINE
8
BLACK
6
CONTINUOUS
10
263.911
20
-27.2566
11
263.915
21
-27.2678
0
LINE
8
BLACK
6
CONTINUOUS
10
263.915
20
-27.2678
11
263.918
21
-27.279
0
LINE
8
BLACK
6
CONTINUOUS
10
263.918
20
-27.279
11
263.996
21
-27.769
0
LINE
8
BLACK
6
CONTINUOUS
10
263.996
20
-27.769
11
263.997
21
-27.7747
0
LINE
8
BLACK
6
CONTINUOUS
10
263.997
20
-27.7747
11
263.997
21
-29.7722
0
LINE
8
BLACK
6
CONTINUOUS
10
263.997
20
-29.7722
11
263.996
21
-29.7786
0
LINE
8
BLACK
6
CONTINUOUS
10
263.996
20
-29.7786
11
263.996
21
-29.7786
0
LINE
8
BLACK
6
CONTINUOUS
10
263.996
20
-29.7786
11
263.924
21
-30.1859
0
LINE
8
BLACK
6
CONTINUOUS
10
263.924
20
-30.1859
11
263.915
21
-30.2103
0
LINE
8
BLACK
6
CONTINUOUS
10
263.915
20
-30.2103
11
263.708
21
-30.5684
0
LINE
8
BLACK
6
CONTINUOUS
10
263.708
20
-30.5684
11
263.692
21
-30.5884
0
LINE
8
BLACK
6
CONTINUOUS
10
263.692
20
-30.5884
11
263.375
21
-30.8542
0
LINE
8
BLACK
6
CONTINUOUS
10
263.375
20
-30.8542
11
263.352
21
-30.8672
0
LINE
8
BLACK
6
CONTINUOUS
10
263.352
20
-30.8672
11
262.964
21
-31.0086
0
LINE
8
BLACK
6
CONTINUOUS
10
262.964
20
-31.0086
11
262.954
21
-31.0103
0
LINE
8
BLACK
6
CONTINUOUS
10
262.954
20
-31.0103
11
262.945
21
-31.0129
0
LINE
8
BLACK
6
CONTINUOUS
10
262.945
20
-31.0129
11
262.741
21
-31.0307
0
LINE
8
BLACK
6
CONTINUOUS
10
262.741
20
-31.0307
11
262.738
21
-31.0312
0
LINE
8
BLACK
6
CONTINUOUS
10
262.738
20
-31.0312
11
258.359
21
-31.0312
0
LINE
8
BLACK
6
CONTINUOUS
10
258.359
20
-31.0312
11
258.353
21
-31.0301
0
LINE
8
BLACK
6
CONTINUOUS
10
258.353
20
-31.0301
11
258.353
21
-31.0301
0
LINE
8
BLACK
6
CONTINUOUS
10
258.353
20
-31.0301
11
257.945
21
-30.9583
0
LINE
8
BLACK
6
CONTINUOUS
10
257.945
20
-30.9583
11
257.921
21
-30.9494
0
LINE
8
BLACK
6
CONTINUOUS
10
257.921
20
-30.9494
11
257.563
21
-30.7426
0
LINE
8
BLACK
6
CONTINUOUS
10
257.563
20
-30.7426
11
257.543
21
-30.7259
0
LINE
8
BLACK
6
CONTINUOUS
10
257.543
20
-30.7259
11
257.277
21
-30.4091
0
LINE
8
BLACK
6
CONTINUOUS
10
257.277
20
-30.4091
11
257.264
21
-30.3866
0
LINE
8
BLACK
6
CONTINUOUS
10
257.264
20
-30.3866
11
257.123
21
-29.998
0
LINE
8
BLACK
6
CONTINUOUS
10
257.123
20
-29.998
11
257.121
21
-29.9884
0
LINE
8
BLACK
6
CONTINUOUS
10
257.121
20
-29.9884
11
257.118
21
-29.9789
0
LINE
8
BLACK
6
CONTINUOUS
10
257.118
20
-29.9789
11
257.1
21
-29.7722
0
LINE
8
BLACK
6
CONTINUOUS
10
257.1
20
-29.7722
11
257.083
21
-29.5752
0
LINE
8
BLACK
6
CONTINUOUS
10
257.083
20
-29.5752
11
256.95
21
-29.2084
0
LINE
8
BLACK
6
CONTINUOUS
10
256.95
20
-29.2084
11
256.701
21
-28.9119
0
LINE
8
BLACK
6
CONTINUOUS
10
256.701
20
-28.9119
11
256.366
21
-28.7184
0
LINE
8
BLACK
6
CONTINUOUS
10
256.366
20
-28.7184
11
255.978
21
-28.65
0
LINE
8
BLACK
6
CONTINUOUS
10
255.978
20
-28.65
11
239.319
21
-28.65
0
LINE
8
BLACK
6
CONTINUOUS
10
239.319
20
-28.65
11
239.125
21
-28.6669
0
LINE
8
BLACK
6
CONTINUOUS
10
255.997
20
-28.5011
11
255.997
21
-28.5011
0
LINE
8
BLACK
6
CONTINUOUS
10
255.997
20
-28.5011
11
256.405
21
-28.5729
0
LINE
8
BLACK
6
CONTINUOUS
10
256.405
20
-28.5729
11
256.429
21
-28.5819
0
LINE
8
BLACK
6
CONTINUOUS
10
256.429
20
-28.5819
11
256.429
21
-28.5819
0
LINE
8
BLACK
6
CONTINUOUS
10
256.429
20
-28.5819
11
256.787
21
-28.7886
0
LINE
8
BLACK
6
CONTINUOUS
10
256.787
20
-28.7886
11
256.807
21
-28.8053
0
LINE
8
BLACK
6
CONTINUOUS
10
256.807
20
-28.8053
11
256.807
21
-28.8053
0
LINE
8
BLACK
6
CONTINUOUS
10
256.807
20
-28.8053
11
257.073
21
-29.1221
0
LINE
8
BLACK
6
CONTINUOUS
10
257.073
20
-29.1221
11
257.073
21
-29.1221
0
LINE
8
BLACK
6
CONTINUOUS
10
257.073
20
-29.1221
11
257.086
21
-29.1447
0
LINE
8
BLACK
6
CONTINUOUS
10
257.086
20
-29.1447
11
257.227
21
-29.5332
0
LINE
8
BLACK
6
CONTINUOUS
10
257.227
20
-29.5332
11
257.229
21
-29.5429
0
LINE
8
BLACK
6
CONTINUOUS
10
257.229
20
-29.5429
11
257.232
21
-29.5523
0
LINE
8
BLACK
6
CONTINUOUS
10
257.232
20
-29.5523
11
257.25
21
-29.7591
0
LINE
8
BLACK
6
CONTINUOUS
10
257.25
20
-29.7591
11
257.267
21
-29.956
0
LINE
8
BLACK
6
CONTINUOUS
10
257.267
20
-29.956
11
257.4
21
-30.3229
0
LINE
8
BLACK
6
CONTINUOUS
10
257.4
20
-30.3229
11
257.649
21
-30.6194
0
LINE
8
BLACK
6
CONTINUOUS
10
257.649
20
-30.6194
11
257.984
21
-30.8129
0
LINE
8
BLACK
6
CONTINUOUS
10
257.984
20
-30.8129
11
258.372
21
-30.8812
0
LINE
8
BLACK
6
CONTINUOUS
10
258.372
20
-30.8812
11
262.728
21
-30.8812
0
LINE
8
BLACK
6
CONTINUOUS
10
262.728
20
-30.8812
11
262.922
21
-30.8643
0
LINE
8
BLACK
6
CONTINUOUS
10
262.922
20
-30.8643
11
263.288
21
-30.7308
0
LINE
8
BLACK
6
CONTINUOUS
10
263.288
20
-30.7308
11
263.585
21
-30.482
0
LINE
8
BLACK
6
CONTINUOUS
10
263.585
20
-30.482
11
263.779
21
-30.1468
0
LINE
8
BLACK
6
CONTINUOUS
10
263.779
20
-30.1468
11
263.847
21
-29.7591
0
LINE
8
BLACK
6
CONTINUOUS
10
263.847
20
-29.7591
11
263.847
21
-27.7872
0
LINE
8
BLACK
6
CONTINUOUS
10
263.847
20
-27.7872
11
263.772
21
-27.3141
0
LINE
8
BLACK
6
CONTINUOUS
10
263.772
20
-27.3141
11
263.557
21
-26.8928
0
LINE
8
BLACK
6
CONTINUOUS
10
263.557
20
-26.8928
11
263.223
21
-26.5584
0
LINE
8
BLACK
6
CONTINUOUS
10
263.223
20
-26.5584
11
262.801
21
-26.3437
0
LINE
8
BLACK
6
CONTINUOUS
10
262.801
20
-26.3437
11
262.328
21
-26.2687
0
LINE
8
BLACK
6
CONTINUOUS
10
262.328
20
-26.2687
11
236.147
21
-26.2687
0
LINE
8
BLACK
6
CONTINUOUS
10
236.147
20
-26.2687
11
235.674
21
-26.3437
0
LINE
8
BLACK
6
CONTINUOUS
10
235.674
20
-26.3437
11
235.252
21
-26.5584
0
LINE
8
BLACK
6
CONTINUOUS
10
235.252
20
-26.5584
11
234.918
21
-26.8928
0
LINE
8
BLACK
6
CONTINUOUS
10
234.918
20
-26.8928
11
234.703
21
-27.3141
0
LINE
8
BLACK
6
CONTINUOUS
10
234.703
20
-27.3141
11
234.628
21
-27.7872
0
LINE
8
BLACK
6
CONTINUOUS
10
234.628
20
-27.7872
11
234.628
21
-29.7623
0
LINE
8
BLACK
6
CONTINUOUS
10
234.628
20
-29.7623
11
234.645
21
-29.956
0
LINE
8
BLACK
6
CONTINUOUS
10
234.645
20
-29.956
11
234.779
21
-30.3229
0
LINE
8
BLACK
6
CONTINUOUS
10
234.779
20
-30.3229
11
235.027
21
-30.6194
0
LINE
8
BLACK
6
CONTINUOUS
10
235.027
20
-30.6194
11
235.363
21
-30.8129
0
LINE
8
BLACK
6
CONTINUOUS
10
235.363
20
-30.8129
11
235.75
21
-30.8812
0
LINE
8
BLACK
6
CONTINUOUS
10
235.75
20
-30.8812
11
236.931
21
-30.8812
0
LINE
8
BLACK
6
CONTINUOUS
10
236.931
20
-30.8812
11
237.125
21
-30.8643
0
LINE
8
BLACK
6
CONTINUOUS
10
237.125
20
-30.8643
11
237.492
21
-30.7308
0
LINE
8
BLACK
6
CONTINUOUS
10
237.492
20
-30.7308
11
237.788
21
-30.482
0
LINE
8
BLACK
6
CONTINUOUS
10
237.788
20
-30.482
11
237.982
21
-30.1468
0
LINE
8
BLACK
6
CONTINUOUS
10
237.982
20
-30.1468
11
238.051
21
-29.7526
0
LINE
8
BLACK
6
CONTINUOUS
10
238.051
20
-29.7526
11
238.123
21
-29.3454
0
LINE
8
BLACK
6
CONTINUOUS
10
238.123
20
-29.3454
11
238.132
21
-29.3209
0
LINE
8
BLACK
6
CONTINUOUS
10
238.132
20
-29.3209
11
238.132
21
-29.3209
0
LINE
8
BLACK
6
CONTINUOUS
10
238.132
20
-29.3209
11
238.339
21
-28.9628
0
LINE
8
BLACK
6
CONTINUOUS
10
238.339
20
-28.9628
11
238.355
21
-28.9429
0
LINE
8
BLACK
6
CONTINUOUS
10
238.355
20
-28.9429
11
238.355
21
-28.9428
0
LINE
8
BLACK
6
CONTINUOUS
10
238.355
20
-28.9428
11
238.672
21
-28.6771
0
LINE
8
BLACK
6
CONTINUOUS
10
238.672
20
-28.6771
11
238.672
21
-28.6771
0
LINE
8
BLACK
6
CONTINUOUS
10
238.672
20
-28.6771
11
238.695
21
-28.664
0
LINE
8
BLACK
6
CONTINUOUS
10
238.695
20
-28.664
11
239.083
21
-28.5226
0
LINE
8
BLACK
6
CONTINUOUS
10
239.083
20
-28.5226
11
239.093
21
-28.5209
0
LINE
8
BLACK
6
CONTINUOUS
10
239.093
20
-28.5209
11
239.102
21
-28.5184
0
LINE
8
BLACK
6
CONTINUOUS
10
239.102
20
-28.5184
11
239.306
21
-28.5006
0
LINE
8
BLACK
6
CONTINUOUS
10
239.306
20
-28.5006
11
239.309
21
-28.5
0
LINE
8
BLACK
6
CONTINUOUS
10
239.309
20
-28.5
11
255.991
21
-28.5
0
LINE
8
BLACK
6
CONTINUOUS
10
255.991
20
-28.5
11
255.997
21
-28.5011
  0
ENDSEC
  0
EOF
