G04 #@! TF.GenerationSoftware,KiCad,Pcbnew,(5.0.0)*
G04 #@! TF.CreationDate,2018-12-12T20:22:31-08:00*
G04 #@! TF.ProjectId,Orbit,4F726269742E6B696361645F70636200,rev?*
G04 #@! TF.SameCoordinates,Original*
G04 #@! TF.FileFunction,Profile,NP*
%FSLAX46Y46*%
G04 Gerber Fmt 4.6, Leading zero omitted, Abs format (unit mm)*
G04 Created by KiCad (PCBNEW (5.0.0)) date 12/12/18 20:22:31*
%MOMM*%
%LPD*%
G01*
G04 APERTURE LIST*
%ADD10C,0.150000*%
%ADD11C,0.200000*%
G04 APERTURE END LIST*
D10*
X197258723Y-142695823D02*
G75*
G03X198793100Y-143167100I1026377J608223D01*
G01*
X184633049Y-118402928D02*
G75*
G03X184188100Y-120091200I571051J-1053272D01*
G01*
X166278777Y-142695823D02*
G75*
G02X164744400Y-143167100I-1026377J608223D01*
G01*
X178904451Y-118402928D02*
G75*
G02X179349400Y-120091200I-571051J-1053272D01*
G01*
X194468750Y-112712500D02*
X194468750Y-107156250D01*
X194468750Y-112712500D02*
X184619900Y-118414800D01*
X200025000Y-101600000D02*
X194468750Y-107156250D01*
X169068750Y-112712500D02*
X169068750Y-107156250D01*
X200025000Y-34528125D02*
X200025000Y-75406250D01*
X200025000Y-101600000D02*
X200025000Y-75406250D01*
X184188100Y-120091200D02*
X197256400Y-142684500D01*
X198793100Y-143167100D02*
X226631500Y-127127000D01*
X243681250Y-123825000D02*
X238125000Y-123825000D01*
X238125000Y-123825000D02*
X236791500Y-123825000D01*
X236791500Y-123825000D02*
X226631500Y-127127000D01*
X126746000Y-123825000D02*
X136906000Y-127127000D01*
X125412500Y-123825000D02*
X126746000Y-123825000D01*
X184943750Y-24606250D02*
X136921875Y-24606250D01*
X251618750Y-128984375D02*
G75*
G02X250428125Y-127793750I0J1190625D01*
G01*
X271065625Y-128984375D02*
X251618750Y-128984375D01*
X272256250Y-133350000D02*
X272256250Y-130175000D01*
X271065625Y-128984375D02*
G75*
G02X272256250Y-130175000I0J-1190625D01*
G01*
X134937500Y-130175000D02*
X134937500Y-144859375D01*
X120253125Y-128984375D02*
X133746875Y-128984375D01*
X136128125Y-146050000D02*
G75*
G02X134937500Y-144859375I0J1190625D01*
G01*
X133746875Y-128984375D02*
G75*
G02X134937500Y-130175000I0J-1190625D01*
G01*
X92471875Y-128984375D02*
X111521875Y-128984375D01*
X91281250Y-133746875D02*
G75*
G02X90090625Y-134937500I-1190625J0D01*
G01*
X91281250Y-130175000D02*
X91281250Y-133746875D01*
X91281250Y-130175000D02*
G75*
G02X92471875Y-128984375I1190625J0D01*
G01*
X228600000Y-130175000D02*
G75*
G02X229790625Y-128984375I1190625J0D01*
G01*
X228600000Y-144859375D02*
G75*
G02X227409375Y-146050000I-1190625J0D01*
G01*
X228600000Y-130175000D02*
X228600000Y-144859375D01*
X243284375Y-128984375D02*
X229790625Y-128984375D01*
X83343750Y-29765625D02*
G75*
G02X82153125Y-30956250I-1190625J0D01*
G01*
X42465625Y-32146875D02*
G75*
G02X43656250Y-30956250I1190625J0D01*
G01*
X82153125Y-30956250D02*
X43656250Y-30956250D01*
X83343750Y-27384375D02*
X83343750Y-29765625D01*
X281384375Y-30956250D02*
G75*
G02X280193750Y-29765625I0J1190625D01*
G01*
X280193750Y-29765625D02*
X280193750Y-27384375D01*
X319881250Y-30956250D02*
X281384375Y-30956250D01*
X279003125Y-26193750D02*
G75*
G02X280193750Y-27384375I0J-1190625D01*
G01*
X139303125Y-27781250D02*
X139303125Y-29765625D01*
X327818750Y-40481250D02*
G75*
G02X326628125Y-39290625I0J1190625D01*
G01*
X321071875Y-39290625D02*
G75*
G02X319881250Y-40481250I-1190625J0D01*
G01*
X319881250Y-30956250D02*
G75*
G02X321071875Y-32146875I0J-1190625D01*
G01*
X326628125Y-32146875D02*
G75*
G02X327818750Y-30956250I1190625J0D01*
G01*
X333375000Y-30956250D02*
X327818750Y-30956250D01*
X332184375Y-40481250D02*
X327818750Y-40481250D01*
X326628125Y-39290625D02*
X326628125Y-32146875D01*
X321071875Y-32146875D02*
X321071875Y-39290625D01*
X83343750Y-27384375D02*
G75*
G02X84534375Y-26193750I1190625J0D01*
G01*
X35718750Y-30956250D02*
G75*
G02X36909375Y-32146875I0J-1190625D01*
G01*
X43656250Y-40481250D02*
G75*
G02X42465625Y-39290625I0J1190625D01*
G01*
X36909375Y-39290625D02*
G75*
G02X35718750Y-40481250I-1190625J0D01*
G01*
X35718750Y-40481250D02*
X31353125Y-40481250D01*
X30162500Y-30956250D02*
X35718750Y-30956250D01*
X36909375Y-39290625D02*
X36909375Y-32146875D01*
X42465625Y-32146875D02*
X42465625Y-39290625D01*
X35718750Y-125412500D02*
G75*
G02X36909375Y-126603125I0J-1190625D01*
G01*
X42465625Y-126603125D02*
G75*
G02X43656250Y-125412500I1190625J0D01*
G01*
X44053125Y-134937500D02*
G75*
G02X42465625Y-133350000I0J1587500D01*
G01*
X36909375Y-133350000D02*
G75*
G02X35321875Y-134937500I-1587500J0D01*
G01*
X120253125Y-128984375D02*
G75*
G02X118665625Y-127396875I0J1587500D01*
G01*
X113109375Y-127396875D02*
G75*
G02X111521875Y-128984375I-1587500J0D01*
G01*
X118665625Y-125015625D02*
G75*
G02X119856250Y-123825000I1190625J0D01*
G01*
X111918750Y-123825000D02*
G75*
G02X113109375Y-125015625I0J-1190625D01*
G01*
X273843750Y-134937500D02*
G75*
G02X272256250Y-133350000I0J1587500D01*
G01*
X244871875Y-127396875D02*
G75*
G02X243284375Y-128984375I-1587500J0D01*
G01*
X243681250Y-123825000D02*
G75*
G02X244871875Y-125015625I0J-1190625D01*
G01*
X250428125Y-125015625D02*
G75*
G02X251618750Y-123825000I1190625J0D01*
G01*
X328215625Y-134937500D02*
G75*
G02X326628125Y-133350000I0J1587500D01*
G01*
X321071875Y-133350000D02*
G75*
G02X319484375Y-134937500I-1587500J0D01*
G01*
X326628125Y-126603125D02*
G75*
G02X327818750Y-125412500I1190625J0D01*
G01*
X319881250Y-125412500D02*
G75*
G02X321071875Y-126603125I0J-1190625D01*
G01*
X269478125Y-27781250D02*
G75*
G02X271065625Y-26193750I1587500J0D01*
G01*
X270668750Y-30956250D02*
G75*
G02X269478125Y-29765625I0J1190625D01*
G01*
X263921875Y-29765625D02*
G75*
G02X262731250Y-30956250I-1190625J0D01*
G01*
X262334375Y-26193750D02*
G75*
G02X263921875Y-27781250I0J-1587500D01*
G01*
X235743750Y-30956250D02*
G75*
G02X234553125Y-29765625I0J1190625D01*
G01*
X234553125Y-27781250D02*
G75*
G02X236140625Y-26193750I1587500J0D01*
G01*
X227409375Y-24606250D02*
G75*
G02X228996875Y-26193750I0J-1587500D01*
G01*
X228996875Y-29765625D02*
G75*
G02X227806250Y-30956250I-1190625J0D01*
G01*
X99615625Y-27781250D02*
G75*
G02X101203125Y-26193750I1587500J0D01*
G01*
X100806250Y-30956250D02*
G75*
G02X99615625Y-29765625I0J1190625D01*
G01*
X94059375Y-29765625D02*
G75*
G02X92868750Y-30956250I-1190625J0D01*
G01*
X92471875Y-26193750D02*
G75*
G02X94059375Y-27781250I0J-1587500D01*
G01*
X136525000Y-30956250D02*
G75*
G02X135334375Y-29765625I0J1190625D01*
G01*
X135334375Y-26193750D02*
G75*
G02X136921875Y-24606250I1587500J0D01*
G01*
X128190625Y-26193750D02*
G75*
G02X129778125Y-27781250I0J-1587500D01*
G01*
X129778125Y-29765625D02*
G75*
G02X128587500Y-30956250I-1190625J0D01*
G01*
X273843750Y-134937500D02*
X319484375Y-134937500D01*
X251618750Y-123825000D02*
X255984375Y-123825000D01*
X244871875Y-127396875D02*
X244871875Y-125015625D01*
X250428125Y-125015625D02*
X250428125Y-127793750D01*
X328215625Y-134937500D02*
X333375000Y-134937500D01*
X319881250Y-125412500D02*
X315515625Y-125412500D01*
X321071875Y-126603125D02*
X321071875Y-133350000D01*
X326628125Y-126603125D02*
X326628125Y-133350000D01*
X111918750Y-123825000D02*
X107553125Y-123825000D01*
X48021875Y-125412500D02*
X43656250Y-125412500D01*
X35321875Y-134937500D02*
X30162500Y-134937500D01*
X36909375Y-126603125D02*
X36909375Y-133350000D01*
X42465625Y-133350000D02*
X42465625Y-126603125D01*
X90090625Y-134937500D02*
X44053125Y-134937500D01*
X113109375Y-125015625D02*
X113109375Y-127396875D01*
X118665625Y-125015625D02*
X118665625Y-127396875D01*
X270668750Y-30956250D02*
X275034375Y-30956250D01*
X262334375Y-26193750D02*
X236140625Y-26193750D01*
X263921875Y-27781250D02*
X263921875Y-29765625D01*
X269478125Y-29765625D02*
X269478125Y-27781250D01*
X100806250Y-30956250D02*
X105171875Y-30956250D01*
X101203125Y-26193750D02*
X128190625Y-26193750D01*
X94059375Y-29765625D02*
X94059375Y-27781250D01*
X99615625Y-27781250D02*
X99615625Y-29765625D01*
X136525000Y-30956250D02*
X138112500Y-30956250D01*
X235743750Y-30956250D02*
X236934375Y-30956250D01*
X234553125Y-27781250D02*
X234553125Y-29765625D01*
X227409375Y-24606250D02*
X184943750Y-24606250D01*
X228996875Y-29765625D02*
X228996875Y-26193750D01*
X255984375Y-28575000D02*
X251618750Y-28575000D01*
X92471875Y-26193750D02*
X84534375Y-26193750D01*
X129778125Y-29765625D02*
X129778125Y-27781250D01*
X107553125Y-28575000D02*
X112712500Y-28575000D01*
X135334375Y-29765625D02*
X135334375Y-26193750D01*
D11*
X333375000Y-158750000D02*
X333375000Y-134937500D01*
X30162500Y-158750000D02*
X333375000Y-158750000D01*
X30162500Y-134937500D02*
X30162500Y-158750000D01*
D10*
X227409375Y-146050000D02*
X136128125Y-146050000D01*
X30162500Y-30956250D02*
X30162500Y-13493750D01*
X333375000Y-13493750D02*
X30162500Y-13493750D01*
X333375000Y-30956250D02*
X333375000Y-13493750D01*
X279003125Y-26193750D02*
X271065625Y-26193750D01*
X140096875Y-26987500D02*
X148828125Y-26987500D01*
X139303125Y-27781250D02*
G75*
G02X140096875Y-26987500I793750J0D01*
G01*
X139303125Y-29765625D02*
G75*
G02X138112500Y-30956250I-1190625J0D01*
G01*
X224234375Y-27781250D02*
X224234375Y-29765625D01*
X223440625Y-26987500D02*
X214709375Y-26987500D01*
X223440625Y-26987500D02*
G75*
G02X224234375Y-27781250I0J-793750D01*
G01*
X225425000Y-30956250D02*
G75*
G02X224234375Y-29765625I0J1190625D01*
G01*
X163512500Y-101600000D02*
X163512500Y-77787500D01*
X163512500Y-57943750D02*
X163512500Y-77787500D01*
X163512500Y-57943750D02*
X163512500Y-46037500D01*
X163512500Y-46037500D02*
X163512500Y-34528125D01*
X30162500Y-41671875D02*
G75*
G02X31353125Y-40481250I1190625J0D01*
G01*
X332184375Y-40481250D02*
G75*
G02X333375000Y-41671875I0J-1190625D01*
G01*
X276225000Y-32146875D02*
X276225000Y-34528125D01*
X213915625Y-32146875D02*
X213915625Y-27781250D01*
X276225000Y-129778125D02*
G75*
G03X277415625Y-130968750I1190625J0D01*
G01*
X276225000Y-127396875D02*
G75*
G03X275034375Y-126206250I-1190625J0D01*
G01*
X257175000Y-125015625D02*
G75*
G03X258365625Y-126206250I1190625J0D01*
G01*
X257175000Y-125015625D02*
G75*
G03X255984375Y-123825000I-1190625J0D01*
G01*
X212725000Y-33337500D02*
X201215625Y-33337500D01*
X314325000Y-36909375D02*
X314325000Y-39290625D01*
X225425000Y-30956250D02*
X227806250Y-30956250D01*
X257175000Y-29765625D02*
G75*
G03X255984375Y-28575000I-1190625J0D01*
G01*
X276225000Y-34528125D02*
G75*
G03X277415625Y-35718750I1190625J0D01*
G01*
X257175000Y-29765625D02*
G75*
G03X258365625Y-30956250I1190625J0D01*
G01*
X276225000Y-32146875D02*
G75*
G03X275034375Y-30956250I-1190625J0D01*
G01*
X212725000Y-33337500D02*
G75*
G03X213915625Y-32146875I0J1190625D01*
G01*
X332184375Y-125412500D02*
X327818750Y-125412500D01*
X258365625Y-126206250D02*
X275034375Y-126206250D01*
X333375000Y-41671875D02*
X333375000Y-124221875D01*
X313134375Y-130968750D02*
X277415625Y-130968750D01*
X276225000Y-129778125D02*
X276225000Y-127396875D01*
X314325000Y-126603125D02*
X314325000Y-129778125D01*
X262731250Y-30956250D02*
X258365625Y-30956250D01*
X251618750Y-28575000D02*
X239315625Y-28575000D01*
X201215625Y-33337500D02*
G75*
G03X200025000Y-34528125I0J-1190625D01*
G01*
X332184375Y-125412500D02*
G75*
G03X333375000Y-124221875I0J1190625D01*
G01*
X319881250Y-40481250D02*
X315515625Y-40481250D01*
X313134375Y-35718750D02*
X277415625Y-35718750D01*
X236934375Y-30956250D02*
G75*
G03X238125000Y-29765625I0J1190625D01*
G01*
X214709375Y-26987500D02*
G75*
G03X213915625Y-27781250I0J-793750D01*
G01*
X239315625Y-28575000D02*
G75*
G03X238125000Y-29765625I0J-1190625D01*
G01*
X313134375Y-130968750D02*
G75*
G03X314325000Y-129778125I0J1190625D01*
G01*
X315515625Y-125412500D02*
G75*
G03X314325000Y-126603125I0J-1190625D01*
G01*
X314325000Y-39290625D02*
G75*
G03X315515625Y-40481250I1190625J0D01*
G01*
X314325000Y-36909375D02*
G75*
G03X313134375Y-35718750I-1190625J0D01*
G01*
X162321875Y-33337500D02*
G75*
G02X163512500Y-34528125I0J-1190625D01*
G01*
X149621875Y-32146875D02*
X149621875Y-27781250D01*
X106362500Y-125015625D02*
G75*
G02X105171875Y-126206250I-1190625J0D01*
G01*
X106362500Y-125015625D02*
G75*
G02X107553125Y-123825000I1190625J0D01*
G01*
X87312500Y-127396875D02*
G75*
G02X88503125Y-126206250I1190625J0D01*
G01*
X87312500Y-129778125D02*
G75*
G02X86121875Y-130968750I-1190625J0D01*
G01*
X50403125Y-130968750D02*
G75*
G02X49212500Y-129778125I0J1190625D01*
G01*
X48021875Y-125412500D02*
G75*
G02X49212500Y-126603125I0J-1190625D01*
G01*
X31353125Y-125412500D02*
G75*
G02X30162500Y-124221875I0J1190625D01*
G01*
X49212500Y-39290625D02*
G75*
G02X48021875Y-40481250I-1190625J0D01*
G01*
X49212500Y-36909375D02*
G75*
G02X50403125Y-35718750I1190625J0D01*
G01*
X87312500Y-34528125D02*
G75*
G02X86121875Y-35718750I-1190625J0D01*
G01*
X87312500Y-32146875D02*
G75*
G02X88503125Y-30956250I1190625J0D01*
G01*
X106362500Y-29765625D02*
G75*
G02X105171875Y-30956250I-1190625J0D01*
G01*
X106362500Y-29765625D02*
G75*
G02X107553125Y-28575000I1190625J0D01*
G01*
X124221875Y-28575000D02*
G75*
G02X125412500Y-29765625I0J-1190625D01*
G01*
X126603125Y-30956250D02*
G75*
G02X125412500Y-29765625I0J1190625D01*
G01*
X148828125Y-26987500D02*
G75*
G02X149621875Y-27781250I0J-793750D01*
G01*
X150812500Y-33337500D02*
G75*
G02X149621875Y-32146875I0J1190625D01*
G01*
X163512500Y-101600000D02*
X169068750Y-107156250D01*
X31353125Y-125412500D02*
X35718750Y-125412500D01*
X105171875Y-126206250D02*
X88503125Y-126206250D01*
X87312500Y-32146875D02*
X87312500Y-34528125D01*
X49212500Y-36909375D02*
X49212500Y-39290625D01*
X128587500Y-30956250D02*
X126603125Y-30956250D01*
X150812500Y-33337500D02*
X162321875Y-33337500D01*
X164744400Y-143167100D02*
X136906000Y-127127000D01*
X119856250Y-123825000D02*
X125412500Y-123825000D01*
X87312500Y-129778125D02*
X87312500Y-127396875D01*
X50403125Y-130968750D02*
X86121875Y-130968750D01*
X49212500Y-126603125D02*
X49212500Y-129778125D01*
X30162500Y-41671875D02*
X30162500Y-124221875D01*
X179349400Y-120091200D02*
X166281100Y-142684500D01*
X169068750Y-112712500D02*
X178917600Y-118414800D01*
X112712500Y-28575000D02*
X124221875Y-28575000D01*
X88503125Y-30956250D02*
X92868750Y-30956250D01*
X50403125Y-35718750D02*
X86121875Y-35718750D01*
X43656250Y-40481250D02*
X48021875Y-40481250D01*
M02*
