G04 #@! TF.GenerationSoftware,KiCad,Pcbnew,(5.0.0)*
G04 #@! TF.CreationDate,2018-12-12T20:22:31-08:00*
G04 #@! TF.ProjectId,Orbit,4F726269742E6B696361645F70636200,rev?*
G04 #@! TF.SameCoordinates,Original*
G04 #@! TF.FileFunction,Soldermask,Top*
G04 #@! TF.FilePolarity,Negative*
%FSLAX46Y46*%
G04 Gerber Fmt 4.6, Leading zero omitted, Abs format (unit mm)*
G04 Created by KiCad (PCBNEW (5.0.0)) date 12/12/18 20:22:31*
%MOMM*%
%LPD*%
G01*
G04 APERTURE LIST*
%ADD10C,1.187400*%
%ADD11C,1.900000*%
%ADD12C,1.600000*%
%ADD13C,1.600000*%
%ADD14C,4.387800*%
%ADD15C,2.150000*%
%ADD16C,1.050000*%
%ADD17O,1.400000X2.500000*%
%ADD18O,1.400000X2.000000*%
%ADD19C,5.400000*%
%ADD20C,3.448000*%
%ADD21C,2.540000*%
G04 APERTURE END LIST*
D10*
G04 #@! TO.C,J3*
X42227500Y-40735250D03*
X40957500Y-40735250D03*
X37147500Y-40735250D03*
X38417500Y-40735250D03*
X39687500Y-40735250D03*
G04 #@! TD*
G04 #@! TO.C,J5*
X135096250Y-31210250D03*
X133826250Y-31210250D03*
X130016250Y-31210250D03*
X131286250Y-31210250D03*
X132556250Y-31210250D03*
G04 #@! TD*
G04 #@! TO.C,J6*
X37147500Y-125158500D03*
X38417500Y-125158500D03*
X42227500Y-125158500D03*
X40957500Y-125158500D03*
X39687500Y-125158500D03*
G04 #@! TD*
G04 #@! TO.C,J9*
X99377500Y-31210250D03*
X98107500Y-31210250D03*
X94297500Y-31210250D03*
X95567500Y-31210250D03*
X96837500Y-31210250D03*
G04 #@! TD*
G04 #@! TO.C,J10*
X113347500Y-123571000D03*
X114617500Y-123571000D03*
X118427500Y-123571000D03*
X117157500Y-123571000D03*
X115887500Y-123571000D03*
G04 #@! TD*
G04 #@! TO.C,J13*
X326390000Y-40735250D03*
X325120000Y-40735250D03*
X321310000Y-40735250D03*
X322580000Y-40735250D03*
X323850000Y-40735250D03*
G04 #@! TD*
G04 #@! TO.C,J17*
X234315000Y-31210250D03*
X233045000Y-31210250D03*
X229235000Y-31210250D03*
X230505000Y-31210250D03*
X231775000Y-31210250D03*
G04 #@! TD*
G04 #@! TO.C,J18*
X245110000Y-123571000D03*
X246380000Y-123571000D03*
X250190000Y-123571000D03*
X248920000Y-123571000D03*
X247650000Y-123571000D03*
G04 #@! TD*
G04 #@! TO.C,J19*
X269240000Y-31210250D03*
X267970000Y-31210250D03*
X264160000Y-31210250D03*
X265430000Y-31210250D03*
X266700000Y-31210250D03*
G04 #@! TD*
G04 #@! TO.C,J20*
X321310000Y-125158500D03*
X322580000Y-125158500D03*
X326390000Y-125158500D03*
X325120000Y-125158500D03*
X323850000Y-125158500D03*
G04 #@! TD*
G04 #@! TO.C,J7*
X42227500Y-31210250D03*
X40957500Y-31210250D03*
X37147500Y-31210250D03*
X38417500Y-31210250D03*
X39687500Y-31210250D03*
G04 #@! TD*
G04 #@! TO.C,J14*
X326390000Y-31210250D03*
X325120000Y-31210250D03*
X321310000Y-31210250D03*
X322580000Y-31210250D03*
X323850000Y-31210250D03*
G04 #@! TD*
D11*
G04 #@! TO.C,J1*
X162726882Y-112736118D03*
X167676629Y-107786371D03*
D12*
X162444039Y-116271652D03*
D13*
X162656171Y-116059520D02*
X162231907Y-116483784D01*
D12*
X159969165Y-112241144D03*
D13*
X160181297Y-112029012D02*
X159757033Y-112453276D01*
D12*
X162797592Y-109412716D03*
D13*
X163009724Y-109200584D02*
X162585460Y-109624848D01*
D12*
X164918913Y-107291396D03*
D13*
X165131045Y-107079264D02*
X164706781Y-107503528D01*
G04 #@! TD*
D11*
G04 #@! TO.C,J11*
X200810618Y-112736118D03*
X195860871Y-107786371D03*
D12*
X204346152Y-113018961D03*
D13*
X204134020Y-112806829D02*
X204558284Y-113231093D01*
D12*
X200315644Y-115493835D03*
D13*
X200103512Y-115281703D02*
X200527776Y-115705967D01*
D12*
X197487216Y-112665408D03*
D13*
X197275084Y-112453276D02*
X197699348Y-112877540D01*
D12*
X195365896Y-110544087D03*
D13*
X195153764Y-110331955D02*
X195578028Y-110756219D01*
G04 #@! TD*
D14*
G04 #@! TO.C,MX3*
X77787500Y-45243750D03*
D15*
X72707500Y-45243750D03*
X82867500Y-45243750D03*
G04 #@! TD*
G04 #@! TO.C,MX27*
X140017500Y-97631250D03*
X129857500Y-97631250D03*
D14*
X134937500Y-97631250D03*
G04 #@! TD*
D16*
G04 #@! TO.C,USB1*
X147352500Y-31650000D03*
X141572500Y-31650000D03*
D17*
X140142500Y-32180000D03*
X148782500Y-32180000D03*
D18*
X140142500Y-28000000D03*
X148782500Y-28000000D03*
G04 #@! TD*
D16*
G04 #@! TO.C,USB2*
X221965000Y-31650000D03*
X216185000Y-31650000D03*
D17*
X214755000Y-32180000D03*
X223395000Y-32180000D03*
D18*
X214755000Y-28000000D03*
X223395000Y-28000000D03*
G04 #@! TD*
D15*
G04 #@! TO.C,MX7*
X159067500Y-42862500D03*
X148907500Y-42862500D03*
D14*
X153987500Y-42862500D03*
G04 #@! TD*
G04 #@! TO.C,MX36*
X228600000Y-40481250D03*
D15*
X223520000Y-40481250D03*
X233680000Y-40481250D03*
G04 #@! TD*
D14*
G04 #@! TO.C,MX1*
X39687500Y-50006250D03*
D15*
X34607500Y-50006250D03*
X44767500Y-50006250D03*
G04 #@! TD*
G04 #@! TO.C,MX2*
X63817500Y-45243750D03*
X53657500Y-45243750D03*
D14*
X58737500Y-45243750D03*
G04 #@! TD*
G04 #@! TO.C,MX4*
X96837500Y-40481250D03*
D15*
X91757500Y-40481250D03*
X101917500Y-40481250D03*
G04 #@! TD*
G04 #@! TO.C,MX5*
X120967500Y-38100000D03*
X110807500Y-38100000D03*
D14*
X115887500Y-38100000D03*
G04 #@! TD*
D15*
G04 #@! TO.C,MX6*
X140017500Y-40481250D03*
X129857500Y-40481250D03*
D14*
X134937500Y-40481250D03*
G04 #@! TD*
G04 #@! TO.C,MX8*
X39687500Y-69056250D03*
D15*
X34607500Y-69056250D03*
X44767500Y-69056250D03*
G04 #@! TD*
G04 #@! TO.C,MX9*
X63817500Y-64293750D03*
X53657500Y-64293750D03*
D14*
X58737500Y-64293750D03*
G04 #@! TD*
G04 #@! TO.C,MX10*
X77787500Y-64293750D03*
D15*
X72707500Y-64293750D03*
X82867500Y-64293750D03*
G04 #@! TD*
G04 #@! TO.C,MX11*
X101917500Y-59531250D03*
X91757500Y-59531250D03*
D14*
X96837500Y-59531250D03*
G04 #@! TD*
G04 #@! TO.C,MX12*
X115887500Y-57150000D03*
D15*
X110807500Y-57150000D03*
X120967500Y-57150000D03*
G04 #@! TD*
D14*
G04 #@! TO.C,MX13*
X134937500Y-59531250D03*
D15*
X129857500Y-59531250D03*
X140017500Y-59531250D03*
G04 #@! TD*
G04 #@! TO.C,MX14*
X159067500Y-61912500D03*
X148907500Y-61912500D03*
D14*
X153987500Y-61912500D03*
G04 #@! TD*
D15*
G04 #@! TO.C,MX15*
X44767500Y-88106250D03*
X34607500Y-88106250D03*
D14*
X39687500Y-88106250D03*
G04 #@! TD*
G04 #@! TO.C,MX16*
X58737500Y-83343750D03*
D15*
X53657500Y-83343750D03*
X63817500Y-83343750D03*
G04 #@! TD*
D14*
G04 #@! TO.C,MX17*
X77787500Y-83343750D03*
D15*
X72707500Y-83343750D03*
X82867500Y-83343750D03*
G04 #@! TD*
D14*
G04 #@! TO.C,MX18*
X96837500Y-78581250D03*
D15*
X91757500Y-78581250D03*
X101917500Y-78581250D03*
G04 #@! TD*
G04 #@! TO.C,MX19*
X120967500Y-76200000D03*
X110807500Y-76200000D03*
D14*
X115887500Y-76200000D03*
G04 #@! TD*
D15*
G04 #@! TO.C,MX20*
X140017500Y-78581250D03*
X129857500Y-78581250D03*
D14*
X134937500Y-78581250D03*
G04 #@! TD*
G04 #@! TO.C,MX21*
X153987500Y-80962500D03*
D15*
X148907500Y-80962500D03*
X159067500Y-80962500D03*
G04 #@! TD*
D14*
G04 #@! TO.C,MX22*
X39687500Y-107156250D03*
D15*
X34607500Y-107156250D03*
X44767500Y-107156250D03*
G04 #@! TD*
D14*
G04 #@! TO.C,MX23*
X58737500Y-102393750D03*
D15*
X53657500Y-102393750D03*
X63817500Y-102393750D03*
G04 #@! TD*
D14*
G04 #@! TO.C,MX24*
X77787500Y-102393750D03*
D15*
X72707500Y-102393750D03*
X82867500Y-102393750D03*
G04 #@! TD*
G04 #@! TO.C,MX25*
X101917500Y-97631250D03*
X91757500Y-97631250D03*
D14*
X96837500Y-97631250D03*
G04 #@! TD*
G04 #@! TO.C,MX26*
X115887500Y-95250000D03*
D15*
X110807500Y-95250000D03*
X120967500Y-95250000D03*
G04 #@! TD*
G04 #@! TO.C,MX28*
X159067500Y-100012500D03*
X148907500Y-100012500D03*
D14*
X153987500Y-100012500D03*
G04 #@! TD*
G04 #@! TO.C,MX29*
X58737500Y-121443750D03*
D15*
X53657500Y-121443750D03*
X63817500Y-121443750D03*
G04 #@! TD*
G04 #@! TO.C,MX30*
X82867500Y-121443750D03*
X72707500Y-121443750D03*
D14*
X77787500Y-121443750D03*
G04 #@! TD*
G04 #@! TO.C,MX31*
X96837500Y-116681250D03*
D15*
X91757500Y-116681250D03*
X101917500Y-116681250D03*
G04 #@! TD*
G04 #@! TO.C,MX32*
X120967500Y-114300000D03*
X110807500Y-114300000D03*
D14*
X115887500Y-114300000D03*
G04 #@! TD*
D15*
G04 #@! TO.C,MX33*
X149357367Y-121203806D03*
X139694633Y-118064194D03*
D14*
X144526000Y-119634000D03*
G04 #@! TD*
D15*
G04 #@! TO.C,MX35*
X214630000Y-42862500D03*
X204470000Y-42862500D03*
D14*
X209550000Y-42862500D03*
G04 #@! TD*
G04 #@! TO.C,MX37*
X247650000Y-38100000D03*
D15*
X242570000Y-38100000D03*
X252730000Y-38100000D03*
G04 #@! TD*
G04 #@! TO.C,MX38*
X271780000Y-40481250D03*
X261620000Y-40481250D03*
D14*
X266700000Y-40481250D03*
G04 #@! TD*
D15*
G04 #@! TO.C,MX39*
X290830000Y-45243750D03*
X280670000Y-45243750D03*
D14*
X285750000Y-45243750D03*
G04 #@! TD*
G04 #@! TO.C,MX40*
X304800000Y-45243750D03*
D15*
X299720000Y-45243750D03*
X309880000Y-45243750D03*
G04 #@! TD*
G04 #@! TO.C,MX41*
X328930000Y-50006250D03*
X318770000Y-50006250D03*
D14*
X323850000Y-50006250D03*
G04 #@! TD*
G04 #@! TO.C,MX42*
X209550000Y-61912500D03*
D15*
X204470000Y-61912500D03*
X214630000Y-61912500D03*
G04 #@! TD*
G04 #@! TO.C,MX43*
X233680000Y-59531250D03*
X223520000Y-59531250D03*
D14*
X228600000Y-59531250D03*
G04 #@! TD*
D15*
G04 #@! TO.C,MX44*
X252730000Y-57150000D03*
X242570000Y-57150000D03*
D14*
X247650000Y-57150000D03*
G04 #@! TD*
G04 #@! TO.C,MX45*
X266700000Y-59531250D03*
D15*
X261620000Y-59531250D03*
X271780000Y-59531250D03*
G04 #@! TD*
G04 #@! TO.C,MX46*
X290830000Y-64293750D03*
X280670000Y-64293750D03*
D14*
X285750000Y-64293750D03*
G04 #@! TD*
G04 #@! TO.C,MX47*
X304800000Y-64293750D03*
D15*
X299720000Y-64293750D03*
X309880000Y-64293750D03*
G04 #@! TD*
G04 #@! TO.C,MX48*
X328930000Y-69056250D03*
X318770000Y-69056250D03*
D14*
X323850000Y-69056250D03*
G04 #@! TD*
G04 #@! TO.C,MX49*
X209550000Y-80962500D03*
D15*
X204470000Y-80962500D03*
X214630000Y-80962500D03*
G04 #@! TD*
D14*
G04 #@! TO.C,MX50*
X228600000Y-78581250D03*
D15*
X223520000Y-78581250D03*
X233680000Y-78581250D03*
G04 #@! TD*
G04 #@! TO.C,MX51*
X252730000Y-76200000D03*
X242570000Y-76200000D03*
D14*
X247650000Y-76200000D03*
G04 #@! TD*
G04 #@! TO.C,MX52*
X266700000Y-78581250D03*
D15*
X261620000Y-78581250D03*
X271780000Y-78581250D03*
G04 #@! TD*
D14*
G04 #@! TO.C,MX53*
X285750000Y-83343750D03*
D15*
X280670000Y-83343750D03*
X290830000Y-83343750D03*
G04 #@! TD*
G04 #@! TO.C,MX54*
X309880000Y-83343750D03*
X299720000Y-83343750D03*
D14*
X304800000Y-83343750D03*
G04 #@! TD*
G04 #@! TO.C,MX55*
X323850000Y-88106250D03*
D15*
X318770000Y-88106250D03*
X328930000Y-88106250D03*
G04 #@! TD*
G04 #@! TO.C,MX56*
X214630000Y-100012500D03*
X204470000Y-100012500D03*
D14*
X209550000Y-100012500D03*
G04 #@! TD*
G04 #@! TO.C,MX57*
X228600000Y-97631250D03*
D15*
X223520000Y-97631250D03*
X233680000Y-97631250D03*
G04 #@! TD*
G04 #@! TO.C,MX58*
X252730000Y-95250000D03*
X242570000Y-95250000D03*
D14*
X247650000Y-95250000D03*
G04 #@! TD*
G04 #@! TO.C,MX59*
X266700000Y-97631250D03*
D15*
X261620000Y-97631250D03*
X271780000Y-97631250D03*
G04 #@! TD*
G04 #@! TO.C,MX60*
X290830000Y-102393750D03*
X280670000Y-102393750D03*
D14*
X285750000Y-102393750D03*
G04 #@! TD*
G04 #@! TO.C,MX61*
X304800000Y-102393750D03*
D15*
X299720000Y-102393750D03*
X309880000Y-102393750D03*
G04 #@! TD*
G04 #@! TO.C,MX62*
X328930000Y-107156250D03*
X318770000Y-107156250D03*
D14*
X323850000Y-107156250D03*
G04 #@! TD*
D15*
G04 #@! TO.C,MX64*
X223842867Y-118064194D03*
X214180133Y-121203806D03*
D14*
X219011500Y-119634000D03*
G04 #@! TD*
D15*
G04 #@! TO.C,MX65*
X252730000Y-114300000D03*
X242570000Y-114300000D03*
D14*
X247650000Y-114300000D03*
G04 #@! TD*
G04 #@! TO.C,MX66*
X266700000Y-116681250D03*
D15*
X261620000Y-116681250D03*
X271780000Y-116681250D03*
G04 #@! TD*
D14*
G04 #@! TO.C,MX67*
X285750000Y-121443750D03*
D15*
X280670000Y-121443750D03*
X290830000Y-121443750D03*
G04 #@! TD*
D14*
G04 #@! TO.C,MX68*
X304800000Y-121443750D03*
D15*
X299720000Y-121443750D03*
X309880000Y-121443750D03*
G04 #@! TD*
D19*
G04 #@! TO.C,MH1*
X106362500Y-69056250D03*
G04 #@! TD*
G04 #@! TO.C,MH2*
X257175000Y-69056250D03*
G04 #@! TD*
D14*
G04 #@! TO.C,MXE-1*
X47942500Y-47593250D03*
X47942500Y-71469250D03*
D20*
X32702500Y-47593250D03*
X32702500Y-71469250D03*
D15*
X39687500Y-54451250D03*
X39687500Y-64611250D03*
D14*
X39687500Y-59531250D03*
G04 #@! TD*
G04 #@! TO.C,MXE-2*
X39687500Y-97631250D03*
D15*
X39687500Y-102711250D03*
X39687500Y-92551250D03*
D20*
X32702500Y-109569250D03*
X32702500Y-85693250D03*
D14*
X47942500Y-109569250D03*
X47942500Y-85693250D03*
G04 #@! TD*
G04 #@! TO.C,MXE-3*
X68262500Y-121443750D03*
D15*
X63182500Y-121443750D03*
X73342500Y-121443750D03*
D20*
X56324500Y-128428750D03*
X80200500Y-128428750D03*
D14*
X56324500Y-113188750D03*
X80200500Y-113188750D03*
G04 #@! TD*
G04 #@! TO.C,MXE-4*
X323850000Y-59531250D03*
D15*
X323850000Y-64611250D03*
X323850000Y-54451250D03*
D20*
X330835000Y-71469250D03*
X330835000Y-47593250D03*
D14*
X315595000Y-71469250D03*
X315595000Y-47593250D03*
G04 #@! TD*
G04 #@! TO.C,MXE-5*
X315595000Y-85693250D03*
X315595000Y-109569250D03*
D20*
X330835000Y-85693250D03*
X330835000Y-109569250D03*
D15*
X323850000Y-92551250D03*
X323850000Y-102711250D03*
D14*
X323850000Y-97631250D03*
G04 #@! TD*
G04 #@! TO.C,MXE-6*
X295275000Y-121443750D03*
D15*
X290195000Y-121443750D03*
X300355000Y-121443750D03*
D20*
X283337000Y-128428750D03*
X307213000Y-128428750D03*
D14*
X283337000Y-113188750D03*
X307213000Y-113188750D03*
G04 #@! TD*
G04 #@! TO.C,MX34*
X164592000Y-126619000D03*
D15*
X160192591Y-124079000D03*
X168991409Y-129159000D03*
G04 #@! TD*
G04 #@! TO.C,MX63*
X203344909Y-124079000D03*
X194546091Y-129159000D03*
D14*
X198945500Y-126619000D03*
G04 #@! TD*
D21*
G04 #@! TO.C,FID1*
X32543750Y-15875000D03*
G04 #@! TD*
G04 #@! TO.C,FID2*
X330993750Y-15875000D03*
G04 #@! TD*
G04 #@! TO.C,FID3*
X32543750Y-156368750D03*
G04 #@! TD*
M02*
