G04 #@! TF.GenerationSoftware,KiCad,Pcbnew,(5.0.0)*
G04 #@! TF.CreationDate,2018-12-12T20:22:31-08:00*
G04 #@! TF.ProjectId,Orbit,4F726269742E6B696361645F70636200,rev?*
G04 #@! TF.SameCoordinates,Original*
G04 #@! TF.FileFunction,Paste,Bot*
G04 #@! TF.FilePolarity,Positive*
%FSLAX46Y46*%
G04 Gerber Fmt 4.6, Leading zero omitted, Abs format (unit mm)*
G04 Created by KiCad (PCBNEW (5.0.0)) date 12/12/18 20:22:31*
%MOMM*%
%LPD*%
G01*
G04 APERTURE LIST*
%ADD10R,0.250000X0.700000*%
%ADD11R,0.700000X0.250000*%
%ADD12R,0.772500X0.772500*%
%ADD13R,0.700000X1.300000*%
%ADD14R,0.750000X0.800000*%
%ADD15R,0.600000X1.450000*%
%ADD16R,0.300000X1.450000*%
%ADD17R,1.200000X0.900000*%
%ADD18R,0.700000X0.600000*%
%ADD19R,0.700000X1.000000*%
%ADD20R,2.030000X1.140000*%
%ADD21R,1.300000X0.700000*%
%ADD22R,0.800000X0.900000*%
%ADD23R,0.800000X0.750000*%
%ADD24C,1.100000*%
%ADD25C,0.100000*%
%ADD26R,1.400000X1.200000*%
%ADD27R,1.200000X1.400000*%
G04 APERTURE END LIST*
D10*
G04 #@! TO.C,U3*
X237568250Y-117028211D03*
X237068250Y-117028211D03*
X236568250Y-117028211D03*
X236068250Y-117028211D03*
X235568250Y-117028211D03*
X235068250Y-117028211D03*
X234568250Y-117028211D03*
X234068250Y-117028211D03*
X233568250Y-117028211D03*
X233068250Y-117028211D03*
X232568250Y-117028211D03*
D11*
X231668250Y-116128211D03*
X231668250Y-115628211D03*
X231668250Y-115128211D03*
X231668250Y-114628211D03*
X231668250Y-114128211D03*
X231668250Y-113628211D03*
X231668250Y-113128211D03*
X231668250Y-112628211D03*
X231668250Y-112128211D03*
X231668250Y-111628211D03*
X231668250Y-111128211D03*
D10*
X232568250Y-110228211D03*
X233068250Y-110228211D03*
X233568250Y-110228211D03*
X234068250Y-110228211D03*
X234568250Y-110228211D03*
X235068250Y-110228211D03*
X235568250Y-110228211D03*
X236068250Y-110228211D03*
X236568250Y-110228211D03*
X237068250Y-110228211D03*
X237568250Y-110228211D03*
D11*
X238468250Y-111128211D03*
X238468250Y-111628211D03*
X238468250Y-112128211D03*
X238468250Y-112628211D03*
X238468250Y-113128211D03*
X238468250Y-113628211D03*
X238468250Y-114128211D03*
X238468250Y-114628211D03*
X238468250Y-115128211D03*
X238468250Y-115628211D03*
X238468250Y-116128211D03*
D12*
X233137000Y-111696961D03*
X234424500Y-111696961D03*
X235712000Y-111696961D03*
X236999500Y-111696961D03*
X233137000Y-112984461D03*
X234424500Y-112984461D03*
X235712000Y-112984461D03*
X236999500Y-112984461D03*
X233137000Y-114271961D03*
X234424500Y-114271961D03*
X235712000Y-114271961D03*
X236999500Y-114271961D03*
X233137000Y-115559461D03*
X234424500Y-115559461D03*
X235712000Y-115559461D03*
X236999500Y-115559461D03*
G04 #@! TD*
D13*
G04 #@! TO.C,R25*
X124648000Y-103251000D03*
X122748000Y-103251000D03*
G04 #@! TD*
D14*
G04 #@! TO.C,C13*
X232029000Y-106184000D03*
X232029000Y-107684000D03*
G04 #@! TD*
D15*
G04 #@! TO.C,USB1*
X147687500Y-33095000D03*
X141237500Y-33095000D03*
X146912500Y-33095000D03*
X142012500Y-33095000D03*
D16*
X142712500Y-33095000D03*
X146212500Y-33095000D03*
X143212500Y-33095000D03*
X145712500Y-33095000D03*
X143712500Y-33095000D03*
X145212500Y-33095000D03*
X144712500Y-33095000D03*
X144212500Y-33095000D03*
G04 #@! TD*
D15*
G04 #@! TO.C,USB2*
X222300000Y-33095000D03*
X215850000Y-33095000D03*
X221525000Y-33095000D03*
X216625000Y-33095000D03*
D16*
X217325000Y-33095000D03*
X220825000Y-33095000D03*
X217825000Y-33095000D03*
X220325000Y-33095000D03*
X218325000Y-33095000D03*
X219825000Y-33095000D03*
X219325000Y-33095000D03*
X218825000Y-33095000D03*
G04 #@! TD*
D17*
G04 #@! TO.C,D49*
X315531500Y-65943750D03*
X315531500Y-62643750D03*
G04 #@! TD*
D18*
G04 #@! TO.C,U4*
X218138500Y-38573750D03*
X220138500Y-38573750D03*
X218138500Y-36673750D03*
D19*
X220138500Y-36873750D03*
G04 #@! TD*
D17*
G04 #@! TO.C,D1*
X47625000Y-54831250D03*
X47625000Y-51531250D03*
G04 #@! TD*
G04 #@! TO.C,D2*
X65881250Y-46893750D03*
X65881250Y-43593750D03*
G04 #@! TD*
G04 #@! TO.C,D3*
X84931250Y-46893750D03*
X84931250Y-43593750D03*
G04 #@! TD*
G04 #@! TO.C,D4*
X103981250Y-42131250D03*
X103981250Y-38831250D03*
G04 #@! TD*
G04 #@! TO.C,D5*
X123031250Y-39750000D03*
X123031250Y-36450000D03*
G04 #@! TD*
G04 #@! TO.C,D6*
X126206250Y-36450000D03*
X126206250Y-39750000D03*
G04 #@! TD*
G04 #@! TO.C,D7*
X161131250Y-41212500D03*
X161131250Y-44512500D03*
G04 #@! TD*
G04 #@! TO.C,D8*
X47625000Y-64231250D03*
X47625000Y-67531250D03*
G04 #@! TD*
G04 #@! TO.C,D9*
X65881250Y-65943750D03*
X65881250Y-62643750D03*
G04 #@! TD*
G04 #@! TO.C,D10*
X84931250Y-65943750D03*
X84931250Y-62643750D03*
G04 #@! TD*
G04 #@! TO.C,D11*
X103981250Y-61181250D03*
X103981250Y-57881250D03*
G04 #@! TD*
G04 #@! TO.C,D12*
X123031250Y-58800000D03*
X123031250Y-55500000D03*
G04 #@! TD*
G04 #@! TO.C,D13*
X126206250Y-55500000D03*
X126206250Y-58800000D03*
G04 #@! TD*
G04 #@! TO.C,D14*
X161131250Y-60262500D03*
X161131250Y-63562500D03*
G04 #@! TD*
G04 #@! TO.C,D15*
X47625000Y-78518750D03*
X47625000Y-81818750D03*
G04 #@! TD*
G04 #@! TO.C,D16*
X65881250Y-84993750D03*
X65881250Y-81693750D03*
G04 #@! TD*
G04 #@! TO.C,D17*
X84931250Y-84993750D03*
X84931250Y-81693750D03*
G04 #@! TD*
G04 #@! TO.C,D18*
X103981250Y-76931250D03*
X103981250Y-80231250D03*
G04 #@! TD*
G04 #@! TO.C,D19*
X123031250Y-74550000D03*
X123031250Y-77850000D03*
G04 #@! TD*
G04 #@! TO.C,D20*
X126206250Y-74550000D03*
X126206250Y-77850000D03*
G04 #@! TD*
G04 #@! TO.C,D21*
X161131250Y-82612500D03*
X161131250Y-79312500D03*
G04 #@! TD*
G04 #@! TO.C,D22*
X47625000Y-105631250D03*
X47625000Y-102331250D03*
G04 #@! TD*
G04 #@! TO.C,D23*
X65881250Y-100743750D03*
X65881250Y-104043750D03*
G04 #@! TD*
G04 #@! TO.C,D24*
X84931250Y-104043750D03*
X84931250Y-100743750D03*
G04 #@! TD*
G04 #@! TO.C,D25*
X103981250Y-93600000D03*
X103981250Y-96900000D03*
G04 #@! TD*
G04 #@! TO.C,D26*
X107156250Y-93600000D03*
X107156250Y-96900000D03*
G04 #@! TD*
G04 #@! TO.C,D27*
X142081250Y-95981250D03*
X142081250Y-99281250D03*
G04 #@! TD*
G04 #@! TO.C,D28*
X161131250Y-101662500D03*
X161131250Y-98362500D03*
G04 #@! TD*
G04 #@! TO.C,D29*
X51593750Y-119793750D03*
X51593750Y-123093750D03*
G04 #@! TD*
G04 #@! TO.C,D30*
X84931250Y-119793750D03*
X84931250Y-123093750D03*
G04 #@! TD*
G04 #@! TO.C,D31*
X103981250Y-112650000D03*
X103981250Y-115950000D03*
G04 #@! TD*
G04 #@! TO.C,D32*
X107156250Y-112650000D03*
X107156250Y-115950000D03*
G04 #@! TD*
G04 #@! TO.C,D33*
X151765000Y-121030000D03*
X151765000Y-117730000D03*
G04 #@! TD*
G04 #@! TO.C,D34*
X157988000Y-122429000D03*
X157988000Y-125729000D03*
G04 #@! TD*
D20*
G04 #@! TO.C,F1*
X141287500Y-48012500D03*
X141287500Y-50412500D03*
G04 #@! TD*
D21*
G04 #@! TO.C,R2*
X51308000Y-53025000D03*
X51308000Y-54925000D03*
G04 #@! TD*
G04 #@! TO.C,R3*
X65881250Y-49850000D03*
X65881250Y-51750000D03*
G04 #@! TD*
G04 #@! TO.C,R4*
X84931250Y-51750000D03*
X84931250Y-49850000D03*
G04 #@! TD*
G04 #@! TO.C,R5*
X103981250Y-45087500D03*
X103981250Y-46987500D03*
G04 #@! TD*
G04 #@! TO.C,R6*
X123031250Y-44606250D03*
X123031250Y-42706250D03*
G04 #@! TD*
G04 #@! TO.C,R7*
X126206250Y-42706250D03*
X126206250Y-44606250D03*
G04 #@! TD*
G04 #@! TO.C,R8*
X161131250Y-49368750D03*
X161131250Y-47468750D03*
G04 #@! TD*
D13*
G04 #@! TO.C,R9*
X155890000Y-111633000D03*
X153990000Y-111633000D03*
G04 #@! TD*
G04 #@! TO.C,R10*
X155890000Y-114681000D03*
X153990000Y-114681000D03*
G04 #@! TD*
D21*
G04 #@! TO.C,R11*
X50800000Y-75250000D03*
X50800000Y-77150000D03*
G04 #@! TD*
G04 #@! TO.C,R12*
X65881250Y-70800000D03*
X65881250Y-68900000D03*
G04 #@! TD*
G04 #@! TO.C,R13*
X84931250Y-68900000D03*
X84931250Y-70800000D03*
G04 #@! TD*
G04 #@! TO.C,R14*
X103187500Y-66037500D03*
X103187500Y-64137500D03*
G04 #@! TD*
G04 #@! TO.C,R15*
X123031250Y-63656250D03*
X123031250Y-61756250D03*
G04 #@! TD*
G04 #@! TO.C,R16*
X126206250Y-61756250D03*
X126206250Y-63656250D03*
G04 #@! TD*
G04 #@! TO.C,R17*
X161131250Y-66518750D03*
X161131250Y-68418750D03*
G04 #@! TD*
G04 #@! TO.C,R18*
X47625000Y-91437500D03*
X47625000Y-89537500D03*
G04 #@! TD*
G04 #@! TO.C,R19*
X65881250Y-87950000D03*
X65881250Y-89850000D03*
G04 #@! TD*
G04 #@! TO.C,R20*
X84931250Y-89850000D03*
X84931250Y-87950000D03*
G04 #@! TD*
G04 #@! TO.C,R21*
X103981250Y-83187500D03*
X103981250Y-85087500D03*
G04 #@! TD*
G04 #@! TO.C,R22*
X123031250Y-80806250D03*
X123031250Y-82706250D03*
G04 #@! TD*
G04 #@! TO.C,R23*
X126206250Y-82706250D03*
X126206250Y-80806250D03*
G04 #@! TD*
G04 #@! TO.C,R24*
X161131250Y-85568750D03*
X161131250Y-87468750D03*
G04 #@! TD*
G04 #@! TO.C,R26*
X44450000Y-112868750D03*
X44450000Y-110968750D03*
G04 #@! TD*
G04 #@! TO.C,R27*
X65881250Y-107000000D03*
X65881250Y-108900000D03*
G04 #@! TD*
G04 #@! TO.C,R28*
X84931250Y-108900000D03*
X84931250Y-107000000D03*
G04 #@! TD*
G04 #@! TO.C,R29*
X103981250Y-99856250D03*
X103981250Y-101756250D03*
G04 #@! TD*
G04 #@! TO.C,R30*
X107156250Y-101756250D03*
X107156250Y-99856250D03*
G04 #@! TD*
G04 #@! TO.C,R31*
X129778125Y-103740625D03*
X129778125Y-101840625D03*
G04 #@! TD*
G04 #@! TO.C,R32*
X161131250Y-106518750D03*
X161131250Y-104618750D03*
G04 #@! TD*
G04 #@! TO.C,R34*
X52387500Y-127950000D03*
X52387500Y-126050000D03*
G04 #@! TD*
G04 #@! TO.C,R35*
X84931250Y-126050000D03*
X84931250Y-127950000D03*
G04 #@! TD*
G04 #@! TO.C,R36*
X103981250Y-120806250D03*
X103981250Y-118906250D03*
G04 #@! TD*
G04 #@! TO.C,R37*
X107156250Y-118906250D03*
X107156250Y-120806250D03*
G04 #@! TD*
G04 #@! TO.C,R38*
X149479000Y-123891000D03*
X149479000Y-125791000D03*
G04 #@! TD*
G04 #@! TO.C,R39*
X156972000Y-128717000D03*
X156972000Y-130617000D03*
G04 #@! TD*
G04 #@! TO.C,R40*
X149479000Y-130617000D03*
X149479000Y-128717000D03*
G04 #@! TD*
G04 #@! TO.C,R41*
X145923000Y-43907750D03*
X145923000Y-42007750D03*
G04 #@! TD*
G04 #@! TO.C,R42*
X142875000Y-42007750D03*
X142875000Y-43907750D03*
G04 #@! TD*
D13*
G04 #@! TO.C,R43*
X151450000Y-34925000D03*
X153350000Y-34925000D03*
G04 #@! TD*
D21*
G04 #@! TO.C,R44*
X138112500Y-39531250D03*
X138112500Y-41431250D03*
G04 #@! TD*
D18*
G04 #@! TO.C,U2*
X143399000Y-39145250D03*
X145399000Y-39145250D03*
X143399000Y-37245250D03*
D19*
X145399000Y-37445250D03*
G04 #@! TD*
D22*
G04 #@! TO.C,Q1*
X152720000Y-123714000D03*
X154620000Y-123714000D03*
X153670000Y-125714000D03*
G04 #@! TD*
D12*
G04 #@! TO.C,U1*
X129693250Y-110463750D03*
X129693250Y-111751250D03*
X129693250Y-113038750D03*
X129693250Y-114326250D03*
X128405750Y-110463750D03*
X128405750Y-111751250D03*
X128405750Y-113038750D03*
X128405750Y-114326250D03*
X127118250Y-110463750D03*
X127118250Y-111751250D03*
X127118250Y-113038750D03*
X127118250Y-114326250D03*
X125830750Y-110463750D03*
X125830750Y-111751250D03*
X125830750Y-113038750D03*
X125830750Y-114326250D03*
D10*
X130262000Y-108995000D03*
X129762000Y-108995000D03*
X129262000Y-108995000D03*
X128762000Y-108995000D03*
X128262000Y-108995000D03*
X127762000Y-108995000D03*
X127262000Y-108995000D03*
X126762000Y-108995000D03*
X126262000Y-108995000D03*
X125762000Y-108995000D03*
X125262000Y-108995000D03*
D11*
X124362000Y-109895000D03*
X124362000Y-110395000D03*
X124362000Y-110895000D03*
X124362000Y-111395000D03*
X124362000Y-111895000D03*
X124362000Y-112395000D03*
X124362000Y-112895000D03*
X124362000Y-113395000D03*
X124362000Y-113895000D03*
X124362000Y-114395000D03*
X124362000Y-114895000D03*
D10*
X125262000Y-115795000D03*
X125762000Y-115795000D03*
X126262000Y-115795000D03*
X126762000Y-115795000D03*
X127262000Y-115795000D03*
X127762000Y-115795000D03*
X128262000Y-115795000D03*
X128762000Y-115795000D03*
X129262000Y-115795000D03*
X129762000Y-115795000D03*
X130262000Y-115795000D03*
D11*
X131162000Y-114895000D03*
X131162000Y-114395000D03*
X131162000Y-113895000D03*
X131162000Y-113395000D03*
X131162000Y-112895000D03*
X131162000Y-112395000D03*
X131162000Y-111895000D03*
X131162000Y-111395000D03*
X131162000Y-110895000D03*
X131162000Y-110395000D03*
X131162000Y-109895000D03*
G04 #@! TD*
D14*
G04 #@! TO.C,C2*
X131318000Y-121400000D03*
X131318000Y-119900000D03*
G04 #@! TD*
D23*
G04 #@! TO.C,C3*
X135370000Y-112776000D03*
X133870000Y-112776000D03*
G04 #@! TD*
D14*
G04 #@! TO.C,C4*
X133985000Y-117741000D03*
X133985000Y-119241000D03*
G04 #@! TD*
G04 #@! TO.C,C5*
X121666000Y-118098000D03*
X121666000Y-116598000D03*
G04 #@! TD*
D23*
G04 #@! TO.C,C6*
X123964000Y-106172000D03*
X125464000Y-106172000D03*
G04 #@! TD*
G04 #@! TO.C,C7*
X131203000Y-106680000D03*
X132703000Y-106680000D03*
G04 #@! TD*
D13*
G04 #@! TO.C,R33*
X39685000Y-116681250D03*
X37785000Y-116681250D03*
G04 #@! TD*
D23*
G04 #@! TO.C,C8*
X225945000Y-110109000D03*
X227445000Y-110109000D03*
G04 #@! TD*
D14*
G04 #@! TO.C,C9*
X223520000Y-114415000D03*
X223520000Y-112915000D03*
G04 #@! TD*
D23*
G04 #@! TO.C,C10*
X237859000Y-121158000D03*
X236359000Y-121158000D03*
G04 #@! TD*
G04 #@! TO.C,C11*
X239026000Y-107950000D03*
X240526000Y-107950000D03*
G04 #@! TD*
G04 #@! TO.C,C12*
X227977000Y-118364000D03*
X229477000Y-118364000D03*
G04 #@! TD*
D14*
G04 #@! TO.C,C14*
X240012039Y-118298711D03*
X240012039Y-119798711D03*
G04 #@! TD*
D17*
G04 #@! TO.C,D36*
X202406250Y-41212500D03*
X202406250Y-44512500D03*
G04 #@! TD*
G04 #@! TO.C,D37*
X235743750Y-42131250D03*
X235743750Y-38831250D03*
G04 #@! TD*
G04 #@! TO.C,D38*
X254793750Y-36450000D03*
X254793750Y-39750000D03*
G04 #@! TD*
G04 #@! TO.C,D39*
X273843750Y-42131250D03*
X273843750Y-38831250D03*
G04 #@! TD*
G04 #@! TO.C,D40*
X292893750Y-46893750D03*
X292893750Y-43593750D03*
G04 #@! TD*
G04 #@! TO.C,D41*
X311943750Y-41212500D03*
X311943750Y-44512500D03*
G04 #@! TD*
G04 #@! TO.C,D42*
X315531500Y-54831250D03*
X315531500Y-51531250D03*
G04 #@! TD*
G04 #@! TO.C,D43*
X202406250Y-60262500D03*
X202406250Y-63562500D03*
G04 #@! TD*
G04 #@! TO.C,D44*
X235743750Y-61181250D03*
X235743750Y-57881250D03*
G04 #@! TD*
G04 #@! TO.C,D45*
X254793750Y-55500000D03*
X254793750Y-58800000D03*
G04 #@! TD*
G04 #@! TO.C,D46*
X273843750Y-61181250D03*
X273843750Y-57881250D03*
G04 #@! TD*
G04 #@! TO.C,D47*
X292893750Y-65943750D03*
X292893750Y-62643750D03*
G04 #@! TD*
G04 #@! TO.C,D48*
X311943750Y-62643750D03*
X311943750Y-65943750D03*
G04 #@! TD*
G04 #@! TO.C,D50*
X202406250Y-79312500D03*
X202406250Y-82612500D03*
G04 #@! TD*
G04 #@! TO.C,D51*
X235743750Y-80231250D03*
X235743750Y-76931250D03*
G04 #@! TD*
G04 #@! TO.C,D52*
X254793750Y-74550000D03*
X254793750Y-77850000D03*
G04 #@! TD*
G04 #@! TO.C,D53*
X273843750Y-80231250D03*
X273843750Y-76931250D03*
G04 #@! TD*
G04 #@! TO.C,D54*
X292893750Y-81693750D03*
X292893750Y-84993750D03*
G04 #@! TD*
G04 #@! TO.C,D55*
X311943750Y-78518750D03*
X311943750Y-81818750D03*
G04 #@! TD*
G04 #@! TO.C,D56*
X315531500Y-78487000D03*
X315531500Y-81787000D03*
G04 #@! TD*
G04 #@! TO.C,D57*
X202311000Y-101726000D03*
X202311000Y-98426000D03*
G04 #@! TD*
G04 #@! TO.C,D58*
X221583250Y-99281250D03*
X221583250Y-95981250D03*
G04 #@! TD*
G04 #@! TO.C,D59*
X254793750Y-96900000D03*
X254793750Y-93600000D03*
G04 #@! TD*
G04 #@! TO.C,D60*
X273843750Y-95981250D03*
X273843750Y-99281250D03*
G04 #@! TD*
G04 #@! TO.C,D61*
X292893750Y-100743750D03*
X292893750Y-104043750D03*
G04 #@! TD*
G04 #@! TO.C,D62*
X311943750Y-104043750D03*
X311943750Y-100743750D03*
G04 #@! TD*
G04 #@! TO.C,D63*
X314325000Y-94393750D03*
X314325000Y-97693750D03*
G04 #@! TD*
G04 #@! TO.C,D64*
X205549500Y-125729000D03*
X205549500Y-122429000D03*
G04 #@! TD*
G04 #@! TO.C,D65*
X211201000Y-114364500D03*
X211201000Y-117664500D03*
G04 #@! TD*
G04 #@! TO.C,D66*
X254793750Y-112650000D03*
X254793750Y-115950000D03*
G04 #@! TD*
G04 #@! TO.C,D67*
X273843750Y-118331250D03*
X273843750Y-115031250D03*
G04 #@! TD*
G04 #@! TO.C,D68*
X277018750Y-115031250D03*
X277018750Y-118331250D03*
G04 #@! TD*
G04 #@! TO.C,D69*
X311943750Y-123093750D03*
X311943750Y-119793750D03*
G04 #@! TD*
D20*
G04 #@! TO.C,F2*
X215900000Y-48012500D03*
X215900000Y-50412500D03*
G04 #@! TD*
D22*
G04 #@! TO.C,Q2*
X212153500Y-127270000D03*
X211203500Y-129270000D03*
X213103500Y-129270000D03*
G04 #@! TD*
D21*
G04 #@! TO.C,R46*
X202406250Y-49368750D03*
X202406250Y-47468750D03*
G04 #@! TD*
G04 #@! TO.C,R47*
X235743750Y-46987500D03*
X235743750Y-45087500D03*
G04 #@! TD*
G04 #@! TO.C,R48*
X254793750Y-42706250D03*
X254793750Y-44606250D03*
G04 #@! TD*
G04 #@! TO.C,R49*
X273843750Y-46987500D03*
X273843750Y-45087500D03*
G04 #@! TD*
G04 #@! TO.C,R50*
X292893750Y-49850000D03*
X292893750Y-51750000D03*
G04 #@! TD*
G04 #@! TO.C,R51*
X310324500Y-51374000D03*
X310324500Y-53274000D03*
G04 #@! TD*
G04 #@! TO.C,R52*
X311943750Y-57787500D03*
X311943750Y-59687500D03*
G04 #@! TD*
G04 #@! TO.C,R53*
X202406250Y-68418750D03*
X202406250Y-66518750D03*
G04 #@! TD*
G04 #@! TO.C,R54*
X235743750Y-64137500D03*
X235743750Y-66037500D03*
G04 #@! TD*
G04 #@! TO.C,R55*
X254793750Y-63656250D03*
X254793750Y-61756250D03*
G04 #@! TD*
G04 #@! TO.C,R56*
X273843750Y-64137500D03*
X273843750Y-66037500D03*
G04 #@! TD*
G04 #@! TO.C,R57*
X292893750Y-70800000D03*
X292893750Y-68900000D03*
G04 #@! TD*
G04 #@! TO.C,R58*
X304006250Y-74768750D03*
X304006250Y-72868750D03*
G04 #@! TD*
G04 #@! TO.C,R59*
X310073000Y-72868750D03*
X310073000Y-74768750D03*
G04 #@! TD*
G04 #@! TO.C,R60*
X202406250Y-85568750D03*
X202406250Y-87468750D03*
G04 #@! TD*
G04 #@! TO.C,R61*
X235743750Y-85087500D03*
X235743750Y-83187500D03*
G04 #@! TD*
G04 #@! TO.C,R62*
X254793750Y-80806250D03*
X254793750Y-82706250D03*
G04 #@! TD*
G04 #@! TO.C,R63*
X273843750Y-85087500D03*
X273843750Y-83187500D03*
G04 #@! TD*
G04 #@! TO.C,R64*
X292893750Y-87950000D03*
X292893750Y-89850000D03*
G04 #@! TD*
G04 #@! TO.C,R65*
X311943750Y-91437500D03*
X311943750Y-89537500D03*
G04 #@! TD*
G04 #@! TO.C,R66*
X315118750Y-89537500D03*
X315118750Y-91437500D03*
G04 #@! TD*
D13*
G04 #@! TO.C,R67*
X240853000Y-105029000D03*
X238953000Y-105029000D03*
G04 #@! TD*
D21*
G04 #@! TO.C,R68*
X202311000Y-104682250D03*
X202311000Y-106582250D03*
G04 #@! TD*
G04 #@! TO.C,R69*
X221583250Y-104137500D03*
X221583250Y-102237500D03*
G04 #@! TD*
G04 #@! TO.C,R70*
X254793750Y-99856250D03*
X254793750Y-101756250D03*
G04 #@! TD*
G04 #@! TO.C,R71*
X273843750Y-104137500D03*
X273843750Y-102237500D03*
G04 #@! TD*
G04 #@! TO.C,R72*
X292893750Y-107000000D03*
X292893750Y-108900000D03*
G04 #@! TD*
G04 #@! TO.C,R73*
X315118750Y-105725000D03*
X315118750Y-103825000D03*
G04 #@! TD*
G04 #@! TO.C,R74*
X319087500Y-110968750D03*
X319087500Y-112868750D03*
G04 #@! TD*
G04 #@! TO.C,R75*
X207168750Y-130331250D03*
X207168750Y-128431250D03*
G04 #@! TD*
G04 #@! TO.C,R76*
X211232750Y-122266750D03*
X211232750Y-120366750D03*
G04 #@! TD*
G04 #@! TO.C,R77*
X254793750Y-120806250D03*
X254793750Y-118906250D03*
G04 #@! TD*
G04 #@! TO.C,R78*
X273843750Y-121287500D03*
X273843750Y-123187500D03*
G04 #@! TD*
G04 #@! TO.C,R79*
X277018750Y-123187500D03*
X277018750Y-121287500D03*
G04 #@! TD*
G04 #@! TO.C,R80*
X311943750Y-126050000D03*
X311943750Y-127950000D03*
G04 #@! TD*
G04 #@! TO.C,R81*
X216217500Y-129220000D03*
X216217500Y-127320000D03*
G04 #@! TD*
D13*
G04 #@! TO.C,R82*
X323916000Y-116713000D03*
X325816000Y-116713000D03*
G04 #@! TD*
D21*
G04 #@! TO.C,R83*
X220662500Y-43336250D03*
X220662500Y-41436250D03*
G04 #@! TD*
G04 #@! TO.C,R84*
X217614500Y-41436250D03*
X217614500Y-43336250D03*
G04 #@! TD*
G04 #@! TO.C,R85*
X235743750Y-33975000D03*
X235743750Y-35875000D03*
G04 #@! TD*
D13*
G04 #@! TO.C,R86*
X208912500Y-34925000D03*
X207012500Y-34925000D03*
G04 #@! TD*
D14*
G04 #@! TO.C,C1*
X124079000Y-119900000D03*
X124079000Y-121400000D03*
G04 #@! TD*
D21*
G04 #@! TO.C,R87*
X120904000Y-120462000D03*
X120904000Y-122362000D03*
G04 #@! TD*
D13*
G04 #@! TO.C,R88*
X227523000Y-106299000D03*
X229423000Y-106299000D03*
G04 #@! TD*
G04 #@! TO.C,R89*
X42738000Y-116681250D03*
X44638000Y-116681250D03*
G04 #@! TD*
G04 #@! TO.C,R90*
X34732000Y-116681250D03*
X32832000Y-116681250D03*
G04 #@! TD*
G04 #@! TO.C,R91*
X318931250Y-116713000D03*
X320831250Y-116713000D03*
G04 #@! TD*
G04 #@! TO.C,R92*
X330769000Y-116713000D03*
X328869000Y-116713000D03*
G04 #@! TD*
D24*
G04 #@! TO.C,SW1*
X171722321Y-116481853D03*
D25*
G36*
X170667898Y-116508167D02*
X171217898Y-115555539D01*
X172776744Y-116455539D01*
X172226744Y-117408167D01*
X170667898Y-116508167D01*
X170667898Y-116508167D01*
G37*
D24*
X175241679Y-122786147D03*
D25*
G36*
X174187256Y-122812461D02*
X174737256Y-121859833D01*
X176296102Y-122759833D01*
X175746102Y-123712461D01*
X174187256Y-122812461D01*
X174187256Y-122812461D01*
G37*
D24*
X169872321Y-119686147D03*
D25*
G36*
X168817898Y-119712461D02*
X169367898Y-118759833D01*
X170926744Y-119659833D01*
X170376744Y-120612461D01*
X168817898Y-119712461D01*
X168817898Y-119712461D01*
G37*
D24*
X177091679Y-119581853D03*
D25*
G36*
X176037256Y-119608167D02*
X176587256Y-118655539D01*
X178146102Y-119555539D01*
X177596102Y-120508167D01*
X176037256Y-119608167D01*
X176037256Y-119608167D01*
G37*
G04 #@! TD*
D24*
G04 #@! TO.C,SW2*
X191815179Y-116481853D03*
D25*
G36*
X191310756Y-117408167D02*
X190760756Y-116455539D01*
X192319602Y-115555539D01*
X192869602Y-116508167D01*
X191310756Y-117408167D01*
X191310756Y-117408167D01*
G37*
D24*
X188295821Y-122786147D03*
D25*
G36*
X187791398Y-123712461D02*
X187241398Y-122759833D01*
X188800244Y-121859833D01*
X189350244Y-122812461D01*
X187791398Y-123712461D01*
X187791398Y-123712461D01*
G37*
D24*
X193665179Y-119686147D03*
D25*
G36*
X193160756Y-120612461D02*
X192610756Y-119659833D01*
X194169602Y-118759833D01*
X194719602Y-119712461D01*
X193160756Y-120612461D01*
X193160756Y-120612461D01*
G37*
D24*
X186445821Y-119581853D03*
D25*
G36*
X185941398Y-120508167D02*
X185391398Y-119555539D01*
X186950244Y-118655539D01*
X187500244Y-119608167D01*
X185941398Y-120508167D01*
X185941398Y-120508167D01*
G37*
G04 #@! TD*
D17*
G04 #@! TO.C,D75*
X141351000Y-54103000D03*
X141351000Y-57403000D03*
G04 #@! TD*
G04 #@! TO.C,D76*
X215900000Y-57530000D03*
X215900000Y-54230000D03*
G04 #@! TD*
D26*
G04 #@! TO.C,Y1*
X126535000Y-119800000D03*
X128735000Y-119800000D03*
X128735000Y-121500000D03*
X126535000Y-121500000D03*
G04 #@! TD*
D27*
G04 #@! TO.C,Y2*
X225845000Y-112519461D03*
X225845000Y-114719461D03*
X227545000Y-114719461D03*
X227545000Y-112519461D03*
G04 #@! TD*
M02*
