M48
;DRILL file {KiCad (5.0.0)} date 12/12/18 20:22:32
;FORMAT={-:-/ absolute / inch / decimal}
FMAT,2
INCH,TZ
T1C0.0256
T2C0.0310
T3C0.0591
T4C0.0689
T5C0.1200
T6C0.1570
T7C0.1969
%
G90
G05
M72
T1
X8.5112Y-1.2461
X8.7388Y-1.2461
X5.5737Y-1.2461
X5.8013Y-1.2461
T2
X1.4625Y-1.2288
X1.5125Y-1.2288
X1.5625Y-1.2288
X1.6125Y-1.2288
X1.6625Y-1.2288
X9.65Y-4.865
X9.7Y-4.865
X9.75Y-4.865
X9.8Y-4.865
X9.85Y-4.865
X12.65Y-1.6038
X12.7Y-1.6038
X12.75Y-1.6038
X12.8Y-1.6038
X12.85Y-1.6038
X3.7125Y-1.2288
X3.7625Y-1.2288
X3.8125Y-1.2288
X3.8625Y-1.2288
X3.9125Y-1.2288
X9.025Y-1.2288
X9.075Y-1.2288
X9.125Y-1.2288
X9.175Y-1.2288
X9.225Y-1.2288
X1.4625Y-4.9275
X1.5125Y-4.9275
X1.5625Y-4.9275
X1.6125Y-4.9275
X1.6625Y-4.9275
X1.4625Y-1.6038
X1.5125Y-1.6038
X1.5625Y-1.6038
X1.6125Y-1.6038
X1.6625Y-1.6038
X4.4625Y-4.865
X4.5125Y-4.865
X4.5625Y-4.865
X4.6125Y-4.865
X4.6625Y-4.865
X12.65Y-4.9275
X12.7Y-4.9275
X12.75Y-4.9275
X12.8Y-4.9275
X12.85Y-4.9275
X12.65Y-1.2288
X12.7Y-1.2288
X12.75Y-1.2288
X12.8Y-1.2288
X12.85Y-1.2288
X10.4Y-1.2288
X10.45Y-1.2288
X10.5Y-1.2288
X10.55Y-1.2288
X10.6Y-1.2288
X5.1187Y-1.2288
X5.1688Y-1.2288
X5.2188Y-1.2288
X5.2687Y-1.2288
X5.3187Y-1.2288
T3
X7.7111Y-4.2436
X7.9059Y-4.4384
X6.4066Y-4.4384
X6.6014Y-4.2436
T4
X2.8625Y-1.7812
X3.2625Y-1.7812
X11.8Y-2.5312
X12.2Y-2.5312
X11.425Y-4.7812
X11.825Y-4.7812
X8.4323Y-4.7718
X8.8127Y-4.6482
X10.3Y-3.8438
X10.7Y-3.8438
X12.75Y-3.6437
X12.75Y-4.0438
X9.55Y-2.25
X9.95Y-2.25
X2.8625Y-3.2812
X3.2625Y-3.2812
X10.3Y-1.5938
X10.7Y-1.5938
X1.3625Y-4.2188
X1.7625Y-4.2188
X4.3625Y-1.5
X4.7625Y-1.5
X9.55Y-1.5
X9.95Y-1.5
X11.05Y-4.7812
X11.45Y-4.7812
X2.4875Y-4.7812
X2.8875Y-4.7812
X11.8Y-4.0312
X12.2Y-4.0312
X8.8Y-3.8438
X9.2Y-3.8438
X12.55Y-3.4688
X12.95Y-3.4688
X5.8625Y-3.9375
X6.2625Y-3.9375
X1.5625Y-3.6437
X1.5625Y-4.0438
X5.8625Y-2.4375
X6.2625Y-2.4375
X4.3625Y-4.5
X4.7625Y-4.5
X1.3625Y-2.7188
X1.7625Y-2.7188
X2.1125Y-2.5312
X2.5125Y-2.5312
X8.8Y-3.0938
X9.2Y-3.0938
X8.05Y-2.4375
X8.45Y-2.4375
X9.55Y-3.
X9.95Y-3.
X11.8Y-3.2812
X12.2Y-3.2812
X3.6125Y-3.8438
X4.0125Y-3.8438
X4.3625Y-3.
X4.7625Y-3.
X2.1125Y-1.7812
X2.5125Y-1.7812
X8.8Y-1.5938
X9.2Y-1.5938
X11.8Y-1.7812
X12.2Y-1.7812
X7.6593Y-5.085
X8.0057Y-4.885
X11.05Y-3.2812
X11.45Y-3.2812
X9.55Y-3.75
X9.95Y-3.75
X3.6125Y-3.0938
X4.0125Y-3.0938
X10.3Y-3.0938
X10.7Y-3.0938
X2.8625Y-4.7812
X3.2625Y-4.7812
X2.1125Y-3.2812
X2.5125Y-3.2812
X1.3625Y-1.9688
X1.7625Y-1.9688
X5.8625Y-1.6875
X6.2625Y-1.6875
X6.3068Y-4.885
X6.6532Y-5.085
X8.05Y-3.1875
X8.45Y-3.1875
X11.8Y-4.7812
X12.2Y-4.7812
X12.55Y-2.7188
X12.95Y-2.7188
X12.75Y-2.1437
X12.75Y-2.5437
X12.55Y-1.9688
X12.95Y-1.9688
X5.8625Y-3.1875
X6.2625Y-3.1875
X8.8Y-2.3438
X9.2Y-2.3438
X2.1125Y-4.7812
X2.5125Y-4.7812
X2.8625Y-4.0312
X3.2625Y-4.0312
X3.6125Y-1.5938
X4.0125Y-1.5938
X10.3Y-4.5938
X10.7Y-4.5938
X12.55Y-4.2188
X12.95Y-4.2188
X8.05Y-3.9375
X8.45Y-3.9375
X1.3625Y-3.4688
X1.7625Y-3.4688
X8.05Y-1.6875
X8.45Y-1.6875
X4.3625Y-3.75
X4.7625Y-3.75
X5.4998Y-4.6482
X5.8802Y-4.7718
X5.1125Y-3.0938
X5.5125Y-3.0938
X5.1125Y-1.5938
X5.5125Y-1.5938
X4.3625Y-2.25
X4.7625Y-2.25
X5.1125Y-3.8438
X5.5125Y-3.8438
X11.05Y-1.7812
X11.45Y-1.7812
X9.55Y-4.5
X9.95Y-4.5
X1.5625Y-2.1437
X1.5625Y-2.5437
X11.05Y-4.0312
X11.45Y-4.0312
X10.3Y-2.3438
X10.7Y-2.3438
X3.6125Y-4.5938
X4.0125Y-4.5938
X11.05Y-2.5312
X11.45Y-2.5312
X2.1125Y-4.0312
X2.5125Y-4.0312
X5.1125Y-2.3438
X5.5125Y-2.3438
X2.8625Y-2.5312
X3.2625Y-2.5312
X3.6125Y-2.3438
X4.0125Y-2.3438
T5
X13.025Y-1.8738
X13.025Y-2.8137
X1.2875Y-1.8738
X1.2875Y-2.8137
X11.155Y-5.0562
X12.095Y-5.0562
X13.025Y-3.3737
X13.025Y-4.3137
X2.2175Y-5.0562
X3.1575Y-5.0562
X1.2875Y-3.3737
X1.2875Y-4.3137
T6
X3.0625Y-2.5312
X3.8125Y-2.3438
X3.0625Y-1.7812
X12.Y-2.5312
X11.155Y-4.4562
X11.625Y-4.7812
X12.095Y-4.4562
X8.6225Y-4.71
X10.5Y-3.8438
X12.425Y-3.3737
X12.425Y-4.3137
X12.75Y-3.8438
X9.75Y-2.25
X3.0625Y-3.2812
X10.5Y-1.5938
X1.5625Y-4.2188
X4.5625Y-1.5
X9.75Y-1.5
X11.25Y-4.7812
X2.2175Y-4.4562
X2.6875Y-4.7812
X3.1575Y-4.4562
X12.Y-4.0312
X9.Y-3.8438
X12.75Y-3.4688
X6.0625Y-3.9375
X1.5625Y-3.8438
X1.8875Y-3.3737
X1.8875Y-4.3137
X6.0625Y-2.4375
X4.5625Y-4.5
X1.5625Y-2.7188
X2.3125Y-2.5312
X9.Y-3.0938
X8.25Y-2.4375
X9.75Y-3.
X12.Y-3.2812
X3.8125Y-3.8438
X4.5625Y-3.
X2.3125Y-1.7812
X9.Y-1.5938
X12.Y-1.7812
X7.8325Y-4.985
X11.25Y-3.2812
X9.75Y-3.75
X3.8125Y-3.0938
X10.5Y-3.0938
X3.0625Y-4.7812
X2.3125Y-3.2812
X1.5625Y-1.9688
X6.0625Y-1.6875
X6.48Y-4.985
X8.25Y-3.1875
X12.Y-4.7812
X12.75Y-2.7188
X12.425Y-1.8738
X12.425Y-2.8137
X12.75Y-2.3438
X12.75Y-1.9688
X6.0625Y-3.1875
X9.Y-2.3438
X2.3125Y-4.7812
X3.0625Y-4.0312
X3.8125Y-1.5938
X10.5Y-4.5938
X12.75Y-4.2188
X8.25Y-3.9375
X1.5625Y-3.4688
X8.25Y-1.6875
X4.5625Y-3.75
X5.69Y-4.71
X5.3125Y-3.0938
X5.3125Y-1.5938
X4.5625Y-2.25
X5.3125Y-3.8438
X11.25Y-1.7812
X9.75Y-4.5
X1.5625Y-2.3438
X1.8875Y-1.8738
X1.8875Y-2.8137
X11.25Y-4.0312
X10.5Y-2.3438
X3.8125Y-4.5938
X11.25Y-2.5312
X2.3125Y-4.0312
X5.3125Y-2.3438
T7
X10.125Y-2.7188
X4.1875Y-2.7188
T0
M30
