G04 #@! TF.GenerationSoftware,KiCad,Pcbnew,(5.0.0)*
G04 #@! TF.CreationDate,2020-01-09T12:02:49-05:00*
G04 #@! TF.ProjectId,split_65,73706C69745F36352E6B696361645F70,1.0*
G04 #@! TF.SameCoordinates,Original*
G04 #@! TF.FileFunction,Legend,Top*
G04 #@! TF.FilePolarity,Positive*
%FSLAX46Y46*%
G04 Gerber Fmt 4.6, Leading zero omitted, Abs format (unit mm)*
G04 Created by KiCad (PCBNEW (5.0.0)) date 01/09/20 12:02:49*
%MOMM*%
%LPD*%
G01*
G04 APERTURE LIST*
%ADD10C,4.387800*%
%ADD11C,2.150000*%
%ADD12C,1.050000*%
%ADD13O,1.400000X2.500000*%
%ADD14O,1.400000X2.000000*%
%ADD15O,1.600000X2.200000*%
%ADD16C,1.900000*%
%ADD17C,2.540000*%
%ADD18C,1.187400*%
%ADD19C,3.448000*%
G04 APERTURE END LIST*
%LPC*%
D10*
G04 #@! TO.C,MX20*
X123825728Y-100013088D03*
D11*
X118745728Y-100013088D03*
X128905728Y-100013088D03*
G04 #@! TD*
G04 #@! TO.C,MX29*
X176531008Y-119063200D03*
X166371008Y-119063200D03*
D10*
X171451008Y-119063200D03*
G04 #@! TD*
D11*
G04 #@! TO.C,MX25*
X100330560Y-119063200D03*
X90170560Y-119063200D03*
D10*
X95250560Y-119063200D03*
G04 #@! TD*
D11*
G04 #@! TO.C,MX21*
X147955840Y-100013088D03*
X137795840Y-100013088D03*
D10*
X142875840Y-100013088D03*
G04 #@! TD*
D12*
G04 #@! TO.C,USB1*
X64802500Y-50601042D03*
X59022500Y-50601042D03*
D13*
X57592500Y-51131042D03*
X66232500Y-51131042D03*
D14*
X57592500Y-46951042D03*
X66232500Y-46951042D03*
G04 #@! TD*
D15*
G04 #@! TO.C,J1*
X135812500Y-49336990D03*
X135812500Y-52336990D03*
X135812500Y-56336990D03*
X140412500Y-57436990D03*
D16*
X138112500Y-47736990D03*
X138112500Y-54736990D03*
G04 #@! TD*
D12*
G04 #@! TO.C,USB2*
X293404292Y-50601042D03*
X287624292Y-50601042D03*
D13*
X286194292Y-51131042D03*
X294834292Y-51131042D03*
D14*
X286194292Y-46951042D03*
X294834292Y-46951042D03*
G04 #@! TD*
D16*
G04 #@! TO.C,J9*
X214312290Y-54736990D03*
X214312290Y-47736990D03*
D15*
X216612290Y-57436990D03*
X212012290Y-56336990D03*
X212012290Y-52336990D03*
X212012290Y-49336990D03*
G04 #@! TD*
D17*
G04 #@! TO.C,FID2*
X23812600Y-38695475D03*
G04 #@! TD*
G04 #@! TO.C,FID4*
X342901440Y-38695475D03*
G04 #@! TD*
G04 #@! TO.C,FID6*
X23812600Y-157758475D03*
G04 #@! TD*
D18*
G04 #@! TO.C,J3*
X35560160Y-146106175D03*
X36830160Y-146106175D03*
X40640160Y-146106175D03*
X39370160Y-146106175D03*
X38100160Y-146106175D03*
G04 #@! TD*
G04 #@! TO.C,J4*
X109537960Y-146447490D03*
X110807960Y-146447490D03*
X112077960Y-146447490D03*
X108267960Y-146447490D03*
X106997960Y-146447490D03*
G04 #@! TD*
G04 #@! TO.C,J5*
X38100160Y-53832350D03*
X39370160Y-53832350D03*
X40640160Y-53832350D03*
X36830160Y-53832350D03*
X35560160Y-53832350D03*
G04 #@! TD*
G04 #@! TO.C,J6*
X97472920Y-53832350D03*
X98742920Y-53832350D03*
X102552920Y-53832350D03*
X101282920Y-53832350D03*
X100012920Y-53832350D03*
G04 #@! TD*
G04 #@! TO.C,J7*
X154623160Y-53832350D03*
X155893160Y-53832350D03*
X159703160Y-53832350D03*
X158433160Y-53832350D03*
X157163160Y-53832350D03*
G04 #@! TD*
G04 #@! TO.C,J8*
X195263320Y-53832350D03*
X196533320Y-53832350D03*
X197803320Y-53832350D03*
X193993320Y-53832350D03*
X192723320Y-53832350D03*
G04 #@! TD*
G04 #@! TO.C,J11*
X249873560Y-53832350D03*
X251143560Y-53832350D03*
X254953560Y-53832350D03*
X253683560Y-53832350D03*
X252413560Y-53832350D03*
G04 #@! TD*
G04 #@! TO.C,J12*
X328613880Y-53832350D03*
X329883880Y-53832350D03*
X331153880Y-53832350D03*
X327343880Y-53832350D03*
X326073880Y-53832350D03*
G04 #@! TD*
G04 #@! TO.C,J13*
X328613880Y-146106175D03*
X329883880Y-146106175D03*
X331153880Y-146106175D03*
X327343880Y-146106175D03*
X326073880Y-146106175D03*
G04 #@! TD*
G04 #@! TO.C,J14*
X221298440Y-146106175D03*
X222568440Y-146106175D03*
X226378440Y-146106175D03*
X225108440Y-146106175D03*
X223838440Y-146106175D03*
G04 #@! TD*
D11*
G04 #@! TO.C,MX0*
X33655168Y-61912864D03*
X23495168Y-61912864D03*
D10*
X28575168Y-61912864D03*
G04 #@! TD*
D11*
G04 #@! TO.C,MX1*
X57467808Y-61912864D03*
X47307808Y-61912864D03*
D10*
X52387808Y-61912864D03*
G04 #@! TD*
D11*
G04 #@! TO.C,MX2*
X76517920Y-61912864D03*
X66357920Y-61912864D03*
D10*
X71437920Y-61912864D03*
G04 #@! TD*
D11*
G04 #@! TO.C,MX3*
X95568032Y-61912864D03*
X85408032Y-61912864D03*
D10*
X90488032Y-61912864D03*
G04 #@! TD*
G04 #@! TO.C,MX4*
X109538144Y-61912864D03*
D11*
X104458144Y-61912864D03*
X114618144Y-61912864D03*
G04 #@! TD*
D10*
G04 #@! TO.C,MX5*
X128588256Y-61912864D03*
D11*
X123508256Y-61912864D03*
X133668256Y-61912864D03*
G04 #@! TD*
D10*
G04 #@! TO.C,MX6*
X147638368Y-61912864D03*
D11*
X142558368Y-61912864D03*
X152718368Y-61912864D03*
G04 #@! TD*
D10*
G04 #@! TO.C,MX7*
X166688480Y-61912864D03*
D11*
X161608480Y-61912864D03*
X171768480Y-61912864D03*
G04 #@! TD*
D10*
G04 #@! TO.C,MX8*
X28575168Y-80962976D03*
D11*
X23495168Y-80962976D03*
X33655168Y-80962976D03*
G04 #@! TD*
D10*
G04 #@! TO.C,MX9*
X57150336Y-80962976D03*
D11*
X52070336Y-80962976D03*
X62230336Y-80962976D03*
G04 #@! TD*
D10*
G04 #@! TO.C,MX10*
X80962976Y-80962976D03*
D11*
X75882976Y-80962976D03*
X86042976Y-80962976D03*
G04 #@! TD*
D10*
G04 #@! TO.C,MX11*
X100013088Y-80962976D03*
D11*
X94933088Y-80962976D03*
X105093088Y-80962976D03*
G04 #@! TD*
G04 #@! TO.C,MX12*
X124143200Y-80962976D03*
X113983200Y-80962976D03*
D10*
X119063200Y-80962976D03*
G04 #@! TD*
D11*
G04 #@! TO.C,MX13*
X143193312Y-80962976D03*
X133033312Y-80962976D03*
D10*
X138113312Y-80962976D03*
G04 #@! TD*
G04 #@! TO.C,MX14*
X157163424Y-80962976D03*
D11*
X152083424Y-80962976D03*
X162243424Y-80962976D03*
G04 #@! TD*
G04 #@! TO.C,MX15*
X33655168Y-100013088D03*
X23495168Y-100013088D03*
D10*
X28575168Y-100013088D03*
G04 #@! TD*
G04 #@! TO.C,MX18*
X85725504Y-100013088D03*
D11*
X80645504Y-100013088D03*
X90805504Y-100013088D03*
G04 #@! TD*
G04 #@! TO.C,MX19*
X109855616Y-100013088D03*
X99695616Y-100013088D03*
D10*
X104775616Y-100013088D03*
G04 #@! TD*
G04 #@! TO.C,MX22*
X161925952Y-100013088D03*
D11*
X156845952Y-100013088D03*
X167005952Y-100013088D03*
G04 #@! TD*
G04 #@! TO.C,MX23*
X33655168Y-119063200D03*
X23495168Y-119063200D03*
D10*
X28575168Y-119063200D03*
G04 #@! TD*
G04 #@! TO.C,MX24*
X76200378Y-127318200D03*
X52387878Y-127318200D03*
D19*
X76200378Y-112078200D03*
X52387878Y-112078200D03*
D11*
X69374128Y-119063200D03*
X59214128Y-119063200D03*
D10*
X64294128Y-119063200D03*
G04 #@! TD*
D11*
G04 #@! TO.C,MX26*
X119380672Y-119063200D03*
X109220672Y-119063200D03*
D10*
X114300672Y-119063200D03*
G04 #@! TD*
D11*
G04 #@! TO.C,MX27*
X138430784Y-119063200D03*
X128270784Y-119063200D03*
D10*
X133350784Y-119063200D03*
G04 #@! TD*
G04 #@! TO.C,MX28*
X152400896Y-119063200D03*
D11*
X147320896Y-119063200D03*
X157480896Y-119063200D03*
G04 #@! TD*
D10*
G04 #@! TO.C,MX30*
X28575168Y-138113312D03*
D11*
X23495168Y-138113312D03*
X33655168Y-138113312D03*
G04 #@! TD*
G04 #@! TO.C,MX31*
X81280448Y-138113312D03*
X71120448Y-138113312D03*
D10*
X76200448Y-138113312D03*
G04 #@! TD*
D11*
G04 #@! TO.C,MX32*
X59849072Y-138113312D03*
X49689072Y-138113312D03*
D10*
X54769072Y-138113312D03*
G04 #@! TD*
D11*
G04 #@! TO.C,MX33*
X83661712Y-138113312D03*
X73501712Y-138113312D03*
D10*
X78581712Y-138113312D03*
G04 #@! TD*
G04 #@! TO.C,MX34*
X97631824Y-138113312D03*
D11*
X92551824Y-138113312D03*
X102711824Y-138113312D03*
G04 #@! TD*
D10*
G04 #@! TO.C,MX35*
X102394352Y-138113312D03*
D11*
X97314352Y-138113312D03*
X107474352Y-138113312D03*
G04 #@! TD*
D10*
G04 #@! TO.C,MX36*
X157163312Y-146368312D03*
X119063312Y-146368312D03*
D19*
X157163312Y-131128312D03*
X119063312Y-131128312D03*
D11*
X143193312Y-138113312D03*
X133033312Y-138113312D03*
D10*
X138113312Y-138113312D03*
G04 #@! TD*
G04 #@! TO.C,MX37*
X152400826Y-146368312D03*
X128588326Y-146368312D03*
D19*
X152400826Y-131128312D03*
X128588326Y-131128312D03*
D11*
X145574576Y-138113312D03*
X135414576Y-138113312D03*
D10*
X140494576Y-138113312D03*
G04 #@! TD*
G04 #@! TO.C,MX38*
X185738676Y-61912864D03*
D11*
X180658676Y-61912864D03*
X190818676Y-61912864D03*
G04 #@! TD*
D10*
G04 #@! TO.C,MX39*
X204788788Y-61912864D03*
D11*
X199708788Y-61912864D03*
X209868788Y-61912864D03*
G04 #@! TD*
G04 #@! TO.C,MX40*
X228918900Y-61912864D03*
X218758900Y-61912864D03*
D10*
X223838900Y-61912864D03*
G04 #@! TD*
D11*
G04 #@! TO.C,MX41*
X247969012Y-61912864D03*
X237809012Y-61912864D03*
D10*
X242889012Y-61912864D03*
G04 #@! TD*
D11*
G04 #@! TO.C,MX42*
X267019124Y-61912864D03*
X256859124Y-61912864D03*
D10*
X261939124Y-61912864D03*
G04 #@! TD*
G04 #@! TO.C,MX43*
X280989236Y-61912864D03*
D11*
X275909236Y-61912864D03*
X286069236Y-61912864D03*
G04 #@! TD*
G04 #@! TO.C,MX44*
X305119348Y-61912864D03*
X294959348Y-61912864D03*
D10*
X300039348Y-61912864D03*
G04 #@! TD*
G04 #@! TO.C,MX45*
X321470654Y-70167864D03*
X297658154Y-70167864D03*
D19*
X321470654Y-54927864D03*
X297658154Y-54927864D03*
D11*
X314644404Y-61912864D03*
X304484404Y-61912864D03*
D10*
X309564404Y-61912864D03*
G04 #@! TD*
D11*
G04 #@! TO.C,MX46*
X324169460Y-61912864D03*
X314009460Y-61912864D03*
D10*
X319089460Y-61912864D03*
G04 #@! TD*
G04 #@! TO.C,MX47*
X338139572Y-61912864D03*
D11*
X333059572Y-61912864D03*
X343219572Y-61912864D03*
G04 #@! TD*
D10*
G04 #@! TO.C,MX48*
X176213620Y-80962976D03*
D11*
X171133620Y-80962976D03*
X181293620Y-80962976D03*
G04 #@! TD*
G04 #@! TO.C,MX49*
X200343732Y-80962976D03*
X190183732Y-80962976D03*
D10*
X195263732Y-80962976D03*
G04 #@! TD*
G04 #@! TO.C,MX50*
X214313844Y-80962976D03*
D11*
X209233844Y-80962976D03*
X219393844Y-80962976D03*
G04 #@! TD*
G04 #@! TO.C,MX51*
X238443956Y-80962976D03*
X228283956Y-80962976D03*
D10*
X233363956Y-80962976D03*
G04 #@! TD*
G04 #@! TO.C,MX52*
X252414068Y-80962976D03*
D11*
X247334068Y-80962976D03*
X257494068Y-80962976D03*
G04 #@! TD*
G04 #@! TO.C,MX53*
X276544180Y-80962976D03*
X266384180Y-80962976D03*
D10*
X271464180Y-80962976D03*
G04 #@! TD*
G04 #@! TO.C,MX54*
X290514292Y-80962976D03*
D11*
X285434292Y-80962976D03*
X295594292Y-80962976D03*
G04 #@! TD*
G04 #@! TO.C,MX55*
X319406932Y-80962976D03*
X309246932Y-80962976D03*
D10*
X314326932Y-80962976D03*
G04 #@! TD*
D11*
G04 #@! TO.C,MX56*
X343219572Y-80962976D03*
X333059572Y-80962976D03*
D10*
X338139572Y-80962976D03*
G04 #@! TD*
D11*
G04 #@! TO.C,MX57*
X186056148Y-100013088D03*
X175896148Y-100013088D03*
D10*
X180976148Y-100013088D03*
G04 #@! TD*
G04 #@! TO.C,MX58*
X200026260Y-100013088D03*
D11*
X194946260Y-100013088D03*
X205106260Y-100013088D03*
G04 #@! TD*
D10*
G04 #@! TO.C,MX59*
X219076372Y-100013088D03*
D11*
X213996372Y-100013088D03*
X224156372Y-100013088D03*
G04 #@! TD*
G04 #@! TO.C,MX60*
X243206484Y-100013088D03*
X233046484Y-100013088D03*
D10*
X238126484Y-100013088D03*
G04 #@! TD*
G04 #@! TO.C,MX61*
X257176596Y-100013088D03*
D11*
X252096596Y-100013088D03*
X262256596Y-100013088D03*
G04 #@! TD*
G04 #@! TO.C,MX62*
X281306708Y-100013088D03*
X271146708Y-100013088D03*
D10*
X276226708Y-100013088D03*
G04 #@! TD*
G04 #@! TO.C,MX63*
X319089390Y-108268088D03*
X295276890Y-108268088D03*
D19*
X319089390Y-93028088D03*
X295276890Y-93028088D03*
D11*
X312263140Y-100013088D03*
X302103140Y-100013088D03*
D10*
X307183140Y-100013088D03*
G04 #@! TD*
G04 #@! TO.C,MX64*
X338139572Y-100013088D03*
D11*
X333059572Y-100013088D03*
X343219572Y-100013088D03*
G04 #@! TD*
D10*
G04 #@! TO.C,MX65*
X190501204Y-119063200D03*
D11*
X185421204Y-119063200D03*
X195581204Y-119063200D03*
G04 #@! TD*
G04 #@! TO.C,MX66*
X214631316Y-119063200D03*
X204471316Y-119063200D03*
D10*
X209551316Y-119063200D03*
G04 #@! TD*
G04 #@! TO.C,MX67*
X228601428Y-119063200D03*
D11*
X223521428Y-119063200D03*
X233681428Y-119063200D03*
G04 #@! TD*
G04 #@! TO.C,MX68*
X252731540Y-119063200D03*
X242571540Y-119063200D03*
D10*
X247651540Y-119063200D03*
G04 #@! TD*
G04 #@! TO.C,MX69*
X266701652Y-119063200D03*
D11*
X261621652Y-119063200D03*
X271781652Y-119063200D03*
G04 #@! TD*
D10*
G04 #@! TO.C,MX70*
X292895556Y-119063200D03*
D11*
X287815556Y-119063200D03*
X297975556Y-119063200D03*
G04 #@! TD*
D10*
G04 #@! TO.C,MX71*
X319089460Y-119063200D03*
D11*
X314009460Y-119063200D03*
X324169460Y-119063200D03*
G04 #@! TD*
D10*
G04 #@! TO.C,MX72*
X338139572Y-119063200D03*
D11*
X333059572Y-119063200D03*
X343219572Y-119063200D03*
G04 #@! TD*
D10*
G04 #@! TO.C,MX73*
X195263732Y-138113312D03*
D11*
X190183732Y-138113312D03*
X200343732Y-138113312D03*
D19*
X176213732Y-131128312D03*
X214313732Y-131128312D03*
D10*
X176213732Y-146368312D03*
X214313732Y-146368312D03*
G04 #@! TD*
G04 #@! TO.C,MX74*
X188119940Y-138113312D03*
D11*
X183039940Y-138113312D03*
X193199940Y-138113312D03*
D19*
X176213690Y-131128312D03*
X200026190Y-131128312D03*
D10*
X176213690Y-146368312D03*
X200026190Y-146368312D03*
G04 #@! TD*
G04 #@! TO.C,MX75*
X221457636Y-138113312D03*
D11*
X216377636Y-138113312D03*
X226537636Y-138113312D03*
G04 #@! TD*
G04 #@! TO.C,MX76*
X243206484Y-138113312D03*
X233046484Y-138113312D03*
D10*
X238126484Y-138113312D03*
G04 #@! TD*
D11*
G04 #@! TO.C,MX77*
X250350276Y-138113312D03*
X240190276Y-138113312D03*
D10*
X245270276Y-138113312D03*
G04 #@! TD*
G04 #@! TO.C,MX78*
X266701652Y-138113312D03*
D11*
X261621652Y-138113312D03*
X271781652Y-138113312D03*
G04 #@! TD*
D10*
G04 #@! TO.C,MX79*
X269082916Y-138113312D03*
D11*
X264002916Y-138113312D03*
X274162916Y-138113312D03*
G04 #@! TD*
D10*
G04 #@! TO.C,MX80*
X300039348Y-138113312D03*
D11*
X294959348Y-138113312D03*
X305119348Y-138113312D03*
G04 #@! TD*
G04 #@! TO.C,MX81*
X324169460Y-138113312D03*
X314009460Y-138113312D03*
D10*
X319089460Y-138113312D03*
G04 #@! TD*
D11*
G04 #@! TO.C,MX82*
X343219572Y-138113312D03*
X333059572Y-138113312D03*
D10*
X338139572Y-138113312D03*
G04 #@! TD*
G04 #@! TO.C,MX16*
X54769072Y-100013088D03*
D11*
X49689072Y-100013088D03*
X59849072Y-100013088D03*
G04 #@! TD*
D10*
G04 #@! TO.C,MX17*
X59531600Y-100013088D03*
D11*
X54451600Y-100013088D03*
X64611600Y-100013088D03*
G04 #@! TD*
M02*
