G04 #@! TF.GenerationSoftware,KiCad,Pcbnew,(5.0.0)*
G04 #@! TF.CreationDate,2020-01-09T12:02:49-05:00*
G04 #@! TF.ProjectId,split_65,73706C69745F36352E6B696361645F70,1.0*
G04 #@! TF.SameCoordinates,Original*
G04 #@! TF.FileFunction,Profile,NP*
%FSLAX46Y46*%
G04 Gerber Fmt 4.6, Leading zero omitted, Abs format (unit mm)*
G04 Created by KiCad (PCBNEW (5.0.0)) date 01/09/20 12:02:49*
%MOMM*%
%LPD*%
G01*
G04 APERTURE LIST*
%ADD10C,0.150000*%
G04 APERTURE END LIST*
D10*
X256580765Y-54173665D02*
X284560570Y-54173665D01*
X191096115Y-54173665D02*
X179189815Y-54173665D01*
X161330365Y-54173665D02*
X173236665Y-54173665D01*
X95845715Y-54173665D02*
X67865910Y-54173665D01*
X104180125Y-54173665D02*
X133648442Y-54173756D01*
X42267365Y-54173665D02*
X55959610Y-54173665D01*
X22026655Y-54173665D02*
X33932955Y-54173665D01*
X33932955Y-145852175D02*
X22026655Y-145852175D01*
X105370755Y-145852175D02*
X42267365Y-145852175D01*
X113705165Y-145852175D02*
X114895795Y-145852175D01*
X332781085Y-145852175D02*
X344687385Y-145852175D01*
X228005645Y-145852175D02*
X324446675Y-145852175D01*
X218480605Y-145852175D02*
X219671235Y-145852175D01*
X283965255Y-43457995D02*
X297062185Y-43457995D01*
X209550880Y-43457995D02*
X219075920Y-43457995D01*
X132755245Y-43457995D02*
X142875600Y-43457995D01*
X55364295Y-43457995D02*
X68461225Y-43457995D01*
X54173665Y-44648625D02*
X54173665Y-49411145D01*
X69651855Y-44648625D02*
X69651855Y-49411145D01*
X131564615Y-44648625D02*
X131564615Y-49411145D01*
X144066230Y-44648625D02*
X144066230Y-49411145D01*
X208360250Y-44648625D02*
X208360250Y-49411145D01*
X220266550Y-49411145D02*
X220266550Y-44648625D01*
X282774625Y-44648625D02*
X282774625Y-49411145D01*
X298252815Y-49411145D02*
X298252815Y-44648625D01*
X297062185Y-43457995D02*
G75*
G02X298252815Y-44648625I0J-1190630D01*
G01*
X282774625Y-44648625D02*
G75*
G02X283965255Y-43457995I1190630J0D01*
G01*
X219075920Y-43457995D02*
G75*
G02X220266550Y-44648625I0J-1190630D01*
G01*
X208360250Y-44648625D02*
G75*
G02X209550880Y-43457995I1190630J0D01*
G01*
X142875600Y-43457995D02*
G75*
G02X144066230Y-44648625I0J-1190630D01*
G01*
X131564615Y-44648625D02*
G75*
G02X132755245Y-43457995I1190630J0D01*
G01*
X68461225Y-43457995D02*
G75*
G02X69651855Y-44648625I0J-1190630D01*
G01*
X54173665Y-44648625D02*
G75*
G02X55364295Y-43457995I1190630J0D01*
G01*
X33932955Y-50601775D02*
X20836025Y-50601775D01*
X332781085Y-50601775D02*
X345878015Y-50601775D01*
X299443445Y-50601775D02*
X324446675Y-50601775D01*
X256580765Y-50601775D02*
X281583995Y-50601775D01*
X221457180Y-50601775D02*
X248246355Y-50601775D01*
X199430525Y-50601775D02*
X207169620Y-50601775D01*
X161330365Y-50601775D02*
X191096115Y-50601775D01*
X145256860Y-50601775D02*
X152995955Y-50601775D01*
X104180125Y-50601775D02*
X130373985Y-50601775D01*
X70842485Y-50601775D02*
X95845715Y-50601775D01*
X42267365Y-50601775D02*
X52983035Y-50601775D01*
X299443445Y-50601775D02*
G75*
G02X298252815Y-49411145I0J1190630D01*
G01*
X282774625Y-49411145D02*
G75*
G02X281583995Y-50601775I-1190630J0D01*
G01*
X221457180Y-50601775D02*
G75*
G02X220266550Y-49411145I0J1190630D01*
G01*
X208360250Y-49411145D02*
G75*
G02X207169620Y-50601775I-1190630J0D01*
G01*
X145256860Y-50601775D02*
G75*
G02X144066230Y-49411145I0J1190630D01*
G01*
X131564615Y-49411145D02*
G75*
G02X130373985Y-50601775I-1190630J0D01*
G01*
X70842485Y-50601775D02*
G75*
G02X69651855Y-49411145I0J1190630D01*
G01*
X54173665Y-49411145D02*
G75*
G02X52983035Y-50601775I-1190630J0D01*
G01*
X33932955Y-149424065D02*
X20836025Y-149424065D01*
X105370755Y-149424065D02*
X42267365Y-149424065D01*
X332781085Y-149424065D02*
X345878015Y-149424065D01*
X228005645Y-149424065D02*
X324446675Y-149424065D01*
X331590455Y-52983035D02*
X331590455Y-51792405D01*
X325637305Y-52983035D02*
X325637305Y-51792405D01*
X255390135Y-52983035D02*
X255390135Y-51792405D01*
X249436985Y-52983035D02*
X249436985Y-51792405D01*
X198239895Y-52983035D02*
X198239895Y-51792405D01*
X192286745Y-52983035D02*
X192286745Y-51792405D01*
X192286745Y-52983035D02*
G75*
G02X191096115Y-54173665I-1190630J0D01*
G01*
X160139735Y-52983035D02*
X160139735Y-51792405D01*
X154186585Y-52983035D02*
X154186585Y-51792405D01*
X102989495Y-51792405D02*
X102989495Y-52983035D01*
X97036345Y-52983035D02*
X97036345Y-51792405D01*
X41076735Y-51792405D02*
X41076735Y-52983035D01*
X35123585Y-52983035D02*
X35123585Y-51792405D01*
X226815015Y-147042805D02*
X226815015Y-148233435D01*
X325637305Y-147042805D02*
X325637305Y-148233435D01*
X331590455Y-148233435D02*
X331590455Y-147042805D01*
X331590455Y-51792405D02*
G75*
G02X332781085Y-50601775I1190630J0D01*
G01*
X324446675Y-50601775D02*
G75*
G02X325637305Y-51792405I0J-1190630D01*
G01*
X255390135Y-51792405D02*
G75*
G02X256580765Y-50601775I1190630J0D01*
G01*
X248246355Y-50601775D02*
G75*
G02X249436985Y-51792405I0J-1190630D01*
G01*
X198239895Y-51792405D02*
G75*
G02X199430525Y-50601775I1190630J0D01*
G01*
X191096115Y-50601775D02*
G75*
G02X192286745Y-51792405I0J-1190630D01*
G01*
X160139735Y-51792405D02*
G75*
G02X161330365Y-50601775I1190630J0D01*
G01*
X152995955Y-50601775D02*
G75*
G02X154186585Y-51792405I0J-1190630D01*
G01*
X95845715Y-50601775D02*
G75*
G02X97036345Y-51792405I0J-1190630D01*
G01*
X102989495Y-51792405D02*
G75*
G02X104180125Y-50601775I1190630J0D01*
G01*
X35123585Y-147042805D02*
X35123585Y-148233435D01*
X41076735Y-148233435D02*
X41076735Y-147042805D01*
X106561385Y-148233435D02*
X106561385Y-147042805D01*
X112514535Y-151210010D02*
X112514535Y-147042805D01*
X33932955Y-50601775D02*
G75*
G02X35123585Y-51792405I0J-1190630D01*
G01*
X41076735Y-51792405D02*
G75*
G02X42267365Y-50601775I1190630J0D01*
G01*
X35123585Y-148233435D02*
G75*
G02X33932955Y-149424065I-1190630J0D01*
G01*
X42267365Y-149424065D02*
G75*
G02X41076735Y-148233435I0J1190630D01*
G01*
X106561385Y-148233435D02*
G75*
G02X105370755Y-149424065I-1190630J0D01*
G01*
X113705165Y-152400640D02*
G75*
G02X112514535Y-151210010I0J1190630D01*
G01*
X332781085Y-149424065D02*
G75*
G02X331590455Y-148233435I0J1190630D01*
G01*
X325637305Y-148233435D02*
G75*
G02X324446675Y-149424065I-1190630J0D01*
G01*
X228005645Y-149424065D02*
G75*
G02X226815015Y-148233435I0J1190630D01*
G01*
X220861865Y-151210010D02*
G75*
G02X219671235Y-152400640I-1190630J0D01*
G01*
X220861865Y-147042805D02*
X220861865Y-151210010D01*
X20836025Y-35718900D02*
X20836025Y-50601775D01*
X345878015Y-35718900D02*
X20836025Y-35718900D01*
X345878015Y-50601775D02*
X345878015Y-35718900D01*
X20836025Y-160735050D02*
X20836025Y-149424065D01*
X345878015Y-160735050D02*
X20836025Y-160735050D01*
X345878015Y-149424065D02*
X345878015Y-160735050D01*
X219671235Y-152400640D02*
X113705165Y-152400640D01*
X332781085Y-54173665D02*
G75*
G02X331590455Y-52983035I0J1190630D01*
G01*
X325637305Y-52983035D02*
G75*
G02X324446675Y-54173665I-1190630J0D01*
G01*
X256580765Y-54173665D02*
G75*
G02X255390135Y-52983035I0J1190630D01*
G01*
X249436985Y-52983035D02*
G75*
G02X248246355Y-54173665I-1190630J0D01*
G01*
X199430525Y-54173665D02*
G75*
G02X198239895Y-52983035I0J1190630D01*
G01*
X161330365Y-54173665D02*
G75*
G02X160139735Y-52983035I0J1190630D01*
G01*
X154186585Y-52983035D02*
G75*
G02X152995955Y-54173665I-1190630J0D01*
G01*
X104180125Y-54173665D02*
G75*
G02X102989495Y-52983035I0J1190630D01*
G01*
X97036345Y-52983035D02*
G75*
G02X95845715Y-54173665I-1190630J0D01*
G01*
X42267365Y-54173665D02*
G75*
G02X41076735Y-52983035I0J1190630D01*
G01*
X35123585Y-52983035D02*
G75*
G02X33932955Y-54173665I-1190630J0D01*
G01*
X33932955Y-145852175D02*
G75*
G02X35123585Y-147042805I0J-1190630D01*
G01*
X41076735Y-147042805D02*
G75*
G02X42267365Y-145852175I1190630J0D01*
G01*
X105370755Y-145852175D02*
G75*
G02X106561385Y-147042805I0J-1190630D01*
G01*
X112514535Y-147042805D02*
G75*
G02X113705165Y-145852175I1190630J0D01*
G01*
X219671235Y-145852175D02*
G75*
G02X220861865Y-147042805I0J-1190630D01*
G01*
X226815015Y-147042805D02*
G75*
G02X228005645Y-145852175I1190630J0D01*
G01*
X324446675Y-145852175D02*
G75*
G02X325637305Y-147042805I0J-1190630D01*
G01*
X331590455Y-147042805D02*
G75*
G02X332781085Y-145852175I1190630J0D01*
G01*
X66080076Y-46136990D02*
G75*
G02X66675392Y-46732306I0J-595316D01*
G01*
X135434390Y-46136990D02*
X140792234Y-46136990D01*
X134839074Y-46732306D02*
G75*
G02X135434390Y-46136990I595316J0D01*
G01*
X142578176Y-54173483D02*
G75*
G02X141387550Y-52982857I0J1190626D01*
G01*
X134839074Y-52982857D02*
G75*
G02X133648448Y-54173483I-1190626J0D01*
G01*
X141387550Y-46732306D02*
X141387550Y-52982857D01*
X142578182Y-54173756D02*
X152995955Y-54173665D01*
X66675392Y-46732306D02*
X66675392Y-52982857D01*
X57745652Y-46136990D02*
X66080076Y-46136990D01*
X140792234Y-46136990D02*
G75*
G02X141387550Y-46732306I0J-595316D01*
G01*
X57150336Y-52982857D02*
X57150336Y-46732306D01*
X57150336Y-46732306D02*
G75*
G02X57745652Y-46136990I595316J0D01*
G01*
X134839074Y-52982857D02*
X134839074Y-46732306D01*
X160139197Y-148232937D02*
G75*
G02X158948571Y-149423563I-1190626J0D01*
G01*
X169664205Y-93464141D02*
X169664205Y-110132905D01*
X160139197Y-147042311D02*
G75*
G02X161329823Y-145851685I1190626J0D01*
G01*
X166092327Y-92273515D02*
X168473579Y-92273515D01*
X170854831Y-111323531D02*
X177998587Y-111323531D01*
X57150336Y-52983124D02*
G75*
G02X55959710Y-54173750I-1190626J0D01*
G01*
X116086035Y-147042311D02*
X116086035Y-148232937D01*
X117276661Y-149423563D02*
G75*
G02X116086035Y-148232937I0J1190626D01*
G01*
X179189213Y-112514157D02*
X179200000Y-125100000D01*
X67866018Y-54173483D02*
G75*
G02X66675392Y-52982857I0J1190626D01*
G01*
X22026581Y-145851685D02*
G75*
G02X20835955Y-144661059I0J1190626D01*
G01*
X20835955Y-144661059D02*
X20835955Y-55364109D01*
X164901701Y-144661059D02*
X164900000Y-127500000D01*
X160139197Y-148232937D02*
X160139197Y-147042311D01*
X161329823Y-145851685D02*
X163711075Y-145851685D01*
X117276661Y-149423563D02*
X158948571Y-149423563D01*
X20835955Y-55364109D02*
G75*
G02X22026581Y-54173483I1190626J0D01*
G01*
X164901701Y-70842247D02*
X164901701Y-91082889D01*
X114895409Y-145851685D02*
G75*
G02X116086035Y-147042311I0J-1190626D01*
G01*
X177998587Y-126300000D02*
X166092327Y-126300000D01*
X164901701Y-144661059D02*
G75*
G02X163711075Y-145851685I-1190626J0D01*
G01*
X174426709Y-68460995D02*
G75*
G02X173236083Y-69651621I-1190626J0D01*
G01*
X177998587Y-111323531D02*
G75*
G02X179189213Y-112514157I0J-1190626D01*
G01*
X164900000Y-127490626D02*
G75*
G02X166090626Y-126300000I1190626J0D01*
G01*
X173236083Y-69651621D02*
X166092327Y-69651621D01*
X166092327Y-92273515D02*
G75*
G02X164901701Y-91082889I0J1190626D01*
G01*
X170854831Y-111323531D02*
G75*
G02X169664205Y-110132905I0J1190626D01*
G01*
X173236083Y-54173483D02*
G75*
G02X174426709Y-55364109I0J-1190626D01*
G01*
X168473579Y-92273515D02*
G75*
G02X169664205Y-93464141I0J-1190626D01*
G01*
X164901701Y-70842247D02*
G75*
G02X166092327Y-69651621I1190626J0D01*
G01*
X179209411Y-125100000D02*
G75*
G02X178000000Y-126300000I-1200037J0D01*
G01*
X174426709Y-55364109D02*
X174426709Y-68460995D01*
X285751764Y-52983035D02*
X285751764Y-46732306D01*
X216992766Y-46136990D02*
G75*
G02X217588082Y-46732306I0J-595316D01*
G01*
X211039606Y-46732306D02*
G75*
G02X211634922Y-46136990I595316J0D01*
G01*
X169664775Y-73223745D02*
X176808555Y-73223745D01*
X218778712Y-54173665D02*
G75*
G02X217588082Y-52983035I0J1190630D01*
G01*
X217588082Y-46732306D02*
X217588082Y-52983035D01*
X345878015Y-144661545D02*
X345878015Y-55364295D01*
X217289975Y-148233435D02*
X217289975Y-147042805D01*
X285751764Y-52983035D02*
G75*
G02X284561134Y-54173665I-1190630J0D01*
G01*
X217289975Y-147042805D02*
G75*
G02X218480605Y-145852175I1190630J0D01*
G01*
X177999185Y-72033115D02*
X177999185Y-55364295D01*
X296467452Y-52983124D02*
X323256045Y-52983035D01*
X218778714Y-54173756D02*
X248246355Y-54173665D01*
X211039606Y-52983035D02*
X211039606Y-46732306D01*
X285751764Y-46732306D02*
G75*
G02X286347080Y-46136990I595316J0D01*
G01*
X295276820Y-46732306D02*
X295276820Y-51792405D01*
X296467450Y-52983035D02*
G75*
G02X295276820Y-51792405I0J1190630D01*
G01*
X286347080Y-46136990D02*
X294681504Y-46136990D01*
X199430525Y-54173665D02*
X209848974Y-54173756D01*
X294681504Y-46136990D02*
G75*
G02X295276820Y-46732306I0J-595316D01*
G01*
X211039606Y-52983035D02*
G75*
G02X209848976Y-54173665I-1190630J0D01*
G01*
X332781085Y-54173665D02*
X344687385Y-54173665D01*
X211634922Y-46136990D02*
X216992766Y-46136990D01*
X324446675Y-54173665D02*
G75*
G02X323851360Y-53578350I0J595315D01*
G01*
X323256045Y-52983035D02*
G75*
G02X323851360Y-53578350I0J-595315D01*
G01*
X181571075Y-107752015D02*
X174427295Y-107752015D01*
X168474145Y-87511305D02*
X168474145Y-74414375D01*
X174427295Y-149424065D02*
X215504030Y-149424065D01*
X177701910Y-129183572D02*
X174725330Y-129183572D01*
X181571075Y-107752015D02*
G75*
G02X182761705Y-108942645I0J-1190630D01*
G01*
X345878015Y-144661545D02*
G75*
G02X344687385Y-145852175I-1190630J0D01*
G01*
X174130015Y-129778887D02*
G75*
G02X174725330Y-129183572I595315J0D01*
G01*
X173236665Y-106561385D02*
X173236665Y-89892565D01*
X168474145Y-131564615D02*
X168474145Y-144661545D01*
X182761705Y-129183355D02*
X182761705Y-108942645D01*
X173236665Y-147042805D02*
X173236665Y-148233435D01*
X177701911Y-129183355D02*
G75*
G02X178297226Y-129778670I0J-595315D01*
G01*
X177999185Y-55364295D02*
G75*
G02X179189815Y-54173665I1190630J0D01*
G01*
X174130014Y-129778670D02*
G75*
G02X173534699Y-130373985I-595315J0D01*
G01*
X344687385Y-54173665D02*
G75*
G02X345878015Y-55364295I0J-1190630D01*
G01*
X169664775Y-145852175D02*
X172046035Y-145852175D01*
X172046035Y-88701935D02*
X169664775Y-88701935D01*
X178892542Y-130374204D02*
X181571075Y-130373985D01*
X178892541Y-130373985D02*
G75*
G02X178297226Y-129778670I0J595315D01*
G01*
X217289975Y-148233435D02*
G75*
G02X216099345Y-149424065I-1190630J0D01*
G01*
X215504030Y-149424065D02*
X216099345Y-149424065D01*
X173534698Y-130374204D02*
X169665150Y-130374204D01*
X174427295Y-107752015D02*
G75*
G02X173236665Y-106561385I0J1190630D01*
G01*
X169664775Y-145852175D02*
G75*
G02X168474145Y-144661545I0J1190630D01*
G01*
X169664775Y-88701935D02*
G75*
G02X168474145Y-87511305I0J1190630D01*
G01*
X172046035Y-88701935D02*
G75*
G02X173236665Y-89892565I0J-1190630D01*
G01*
X182761705Y-129183355D02*
G75*
G02X181571075Y-130373985I-1190630J0D01*
G01*
X174427295Y-149424065D02*
G75*
G02X173236665Y-148233435I0J1190630D01*
G01*
X168474145Y-131564615D02*
G75*
G02X169664775Y-130373985I1190630J0D01*
G01*
X172046035Y-145852175D02*
G75*
G02X173236665Y-147042805I0J-1190630D01*
G01*
X168474145Y-74414375D02*
G75*
G02X169664775Y-73223745I1190630J0D01*
G01*
X177999185Y-72033115D02*
G75*
G02X176808555Y-73223745I-1190630J0D01*
G01*
M02*
