M48
;DRILL file {KiCad (5.0.0)} date 01/09/20 12:06:34
;FORMAT={-:-/ absolute / metric / decimal}
FMAT,2
METRIC,TZ
T1C0.400
T2C0.600
T3C1.000
T4C1.040
T5C1.470
T6C0.650
T7C0.787
T8C1.500
T9C1.750
T10C3.048
T11C3.988
%
G90
G05
M71
T1
X35.58Y-114.13
X38.41Y-124.45
X38.65Y-128.237
X39.58Y-83.63
X39.68Y-102.77
X41.14Y-108.39
X41.83Y-106.4
X45.577Y-107.933
X46.3Y-83.58
X46.34Y-102.8
X46.99Y-107.168
X48.86Y-128.8
X52.36Y-107.512
X54.791Y-131.778
X55.02Y-111.32
X55.93Y-112.98
X57.96Y-64.65
X59.56Y-56.19
X60.67Y-53.83
X60.935Y-55.07
X62.95Y-55.07
X63.182Y-53.752
X65.74Y-54.98
X65.97Y-64.55
X66.71Y-120.72
X67.83Y-132.01
X69.03Y-56.49
X122.66Y-121.976
X122.69Y-123.385
X123.855Y-121.737
X126.64Y-121.75
X128.01Y-113.18
X128.998Y-112.518
X130.36Y-103.49
X136.49Y-64.13
X137.612Y-64.898
X138.59Y-64.898
X139.9Y-64.13
X203.94Y-141.03
X214.144Y-103.53
X214.164Y-104.54
X232.724Y-140.83
X235.914Y-140.83
X269.327Y-121.94
X272.054Y-140.835
X272.595Y-130.688
X272.974Y-120.32
X275.014Y-116.83
X275.1Y-103.534
X275.112Y-104.543
X275.914Y-115.93
X276.214Y-140.89
X277.074Y-83.68
X278.334Y-102.78
X280.364Y-114.76
X283.854Y-58.505
X285.274Y-83.68
X285.864Y-134.77
X286.434Y-64.62
X287.914Y-102.76
X288.164Y-56.24
X289.264Y-53.69
X289.569Y-54.87
X290.274Y-120.
X291.26Y-110.34
X291.594Y-54.86
X291.731Y-132.072
X291.744Y-133.05
X291.844Y-53.69
X292.924Y-56.28
X294.804Y-64.58
X297.584Y-133.43
X298.254Y-121.41
T3
X84.43Y-106.98
X84.43Y-109.52
X84.43Y-112.06
X86.97Y-106.98
X86.97Y-109.52
X86.97Y-112.06
X305.864Y-109.95
X305.864Y-112.49
X305.864Y-115.03
X308.404Y-109.95
X308.404Y-112.49
X308.404Y-115.03
T4
X58.262Y-105.093
X60.802Y-105.093
X53.499Y-105.093
X56.039Y-105.093
T5
X243.842Y-116.523
X250.192Y-113.983
X272.417Y-97.473
X278.767Y-94.933
X124.778Y-59.373
X131.128Y-56.833
X239.079Y-59.373
X245.429Y-56.833
X136.685Y-135.573
X143.035Y-133.033
X289.086Y-116.523
X295.436Y-113.983
X98.584Y-135.573
X104.934Y-133.033
X303.373Y-97.473
X309.723Y-94.933
X100.966Y-97.473
X107.316Y-94.933
X262.892Y-116.523
X269.242Y-113.983
X24.765Y-97.473
X31.115Y-94.933
X315.279Y-59.373
X321.629Y-56.833
X24.765Y-78.423
X31.115Y-75.883
X234.316Y-97.473
X240.666Y-94.933
X153.353Y-78.423
X159.703Y-75.883
X217.648Y-135.573
X223.998Y-133.033
X50.959Y-135.573
X57.309Y-133.033
X334.33Y-116.523
X340.68Y-113.983
X55.722Y-97.473
X62.072Y-94.933
X134.303Y-78.423
X140.653Y-75.883
X229.554Y-78.423
X235.904Y-75.883
X53.34Y-78.423
X59.69Y-75.883
X48.578Y-59.373
X54.928Y-56.833
X265.273Y-135.573
X271.623Y-133.033
X334.33Y-135.573
X340.68Y-133.033
X224.791Y-116.523
X231.141Y-113.983
X74.772Y-135.573
X81.122Y-133.033
X310.517Y-78.423
X316.867Y-75.883
X200.979Y-59.373
X207.329Y-56.833
X215.266Y-97.473
X221.616Y-94.933
X162.878Y-59.373
X169.228Y-56.833
X315.279Y-116.523
X321.629Y-113.983
X241.46Y-135.573
X247.81Y-133.033
X86.678Y-59.373
X93.028Y-56.833
X258.129Y-59.373
X264.479Y-56.833
X129.541Y-116.523
X135.891Y-113.983
X139.066Y-97.473
X145.416Y-94.933
X205.741Y-116.523
X212.091Y-113.983
X220.029Y-59.373
X226.379Y-56.833
X305.754Y-59.373
X312.104Y-56.833
X67.628Y-59.373
X73.978Y-56.833
X334.33Y-78.423
X340.68Y-75.883
X24.765Y-135.573
X31.115Y-133.033
X286.704Y-78.423
X293.054Y-75.883
X50.959Y-97.473
X57.309Y-94.933
X177.166Y-97.473
X183.516Y-94.933
X181.929Y-59.373
X188.279Y-56.833
X262.892Y-135.573
X269.242Y-133.033
X91.441Y-116.523
X97.791Y-113.983
X186.691Y-116.523
X193.041Y-113.983
X110.491Y-116.523
X116.841Y-113.983
X267.654Y-78.423
X274.004Y-75.883
X134.303Y-135.573
X140.653Y-133.033
X234.316Y-135.573
X240.666Y-133.033
X96.203Y-78.423
X102.553Y-75.883
X248.604Y-78.423
X254.954Y-75.883
X296.229Y-135.573
X302.579Y-133.033
X148.591Y-116.523
X154.941Y-113.983
X334.33Y-59.373
X340.68Y-56.833
X72.39Y-135.573
X78.74Y-133.033
X120.016Y-97.473
X126.366Y-94.933
X210.504Y-78.423
X216.854Y-75.883
X24.765Y-116.523
X31.115Y-113.983
X296.229Y-59.373
X302.579Y-56.833
X105.728Y-59.373
X112.078Y-56.833
X184.31Y-135.573
X190.66Y-133.033
X77.153Y-78.423
X83.503Y-75.883
X172.404Y-78.423
X178.754Y-75.883
X24.765Y-59.373
X31.115Y-56.833
X253.367Y-97.473
X259.717Y-94.933
X143.828Y-59.373
X150.178Y-56.833
X277.179Y-59.373
X283.529Y-56.833
X81.916Y-97.473
X88.266Y-94.933
X196.216Y-97.473
X202.566Y-94.933
X60.484Y-116.523
X66.834Y-113.983
X191.454Y-135.573
X197.804Y-133.033
X158.116Y-97.473
X164.466Y-94.933
X334.33Y-97.473
X340.68Y-94.933
X93.822Y-135.573
X100.172Y-133.033
X191.454Y-78.423
X197.804Y-75.883
X115.253Y-78.423
X121.603Y-75.883
X315.279Y-135.573
X321.629Y-133.033
X167.641Y-116.523
X173.991Y-113.983
T6
X59.023Y-50.601
X64.802Y-50.601
X287.624Y-50.601
X293.404Y-50.601
T7
X106.998Y-146.447
X108.268Y-146.447
X109.538Y-146.447
X110.808Y-146.447
X112.078Y-146.447
X192.723Y-53.832
X193.993Y-53.832
X195.263Y-53.832
X196.533Y-53.832
X197.803Y-53.832
X97.473Y-53.832
X98.743Y-53.832
X100.013Y-53.832
X101.283Y-53.832
X102.553Y-53.832
X35.56Y-53.832
X36.83Y-53.832
X38.1Y-53.832
X39.37Y-53.832
X40.64Y-53.832
X221.298Y-146.106
X222.568Y-146.106
X223.838Y-146.106
X225.108Y-146.106
X226.378Y-146.106
X35.56Y-146.106
X36.83Y-146.106
X38.1Y-146.106
X39.37Y-146.106
X40.64Y-146.106
X326.074Y-146.106
X327.344Y-146.106
X328.614Y-146.106
X329.884Y-146.106
X331.154Y-146.106
X326.074Y-53.832
X327.344Y-53.832
X328.614Y-53.832
X329.884Y-53.832
X331.154Y-53.832
X154.623Y-53.832
X155.893Y-53.832
X157.163Y-53.832
X158.433Y-53.832
X159.703Y-53.832
X249.874Y-53.832
X251.144Y-53.832
X252.414Y-53.832
X253.684Y-53.832
X254.954Y-53.832
T8
X138.112Y-47.737
X138.112Y-54.737
X214.312Y-47.737
X214.312Y-54.737
T9
X209.234Y-80.963
X219.394Y-80.963
X23.495Y-119.063
X33.655Y-119.063
X294.959Y-61.913
X305.119Y-61.913
X104.458Y-61.913
X114.618Y-61.913
X183.04Y-138.113
X193.2Y-138.113
X75.883Y-80.963
X86.043Y-80.963
X171.134Y-80.963
X181.294Y-80.963
X23.495Y-61.913
X33.655Y-61.913
X252.097Y-100.013
X262.257Y-100.013
X142.558Y-61.913
X152.718Y-61.913
X275.909Y-61.913
X286.069Y-61.913
X80.646Y-100.013
X90.806Y-100.013
X194.946Y-100.013
X205.106Y-100.013
X59.214Y-119.063
X69.374Y-119.063
X190.184Y-138.113
X200.344Y-138.113
X156.846Y-100.013
X167.006Y-100.013
X333.06Y-100.013
X343.22Y-100.013
X92.552Y-138.113
X102.712Y-138.113
X190.184Y-80.963
X200.344Y-80.963
X113.983Y-80.963
X124.143Y-80.963
X314.009Y-138.113
X324.169Y-138.113
X166.371Y-119.063
X176.531Y-119.063
X242.572Y-119.063
X252.732Y-119.063
X271.147Y-100.013
X281.307Y-100.013
X123.508Y-61.913
X133.668Y-61.913
X237.809Y-61.913
X247.969Y-61.913
X135.415Y-138.113
X145.575Y-138.113
X287.816Y-119.063
X297.976Y-119.063
X97.314Y-138.113
X107.474Y-138.113
X302.103Y-100.013
X312.263Y-100.013
X99.696Y-100.013
X109.856Y-100.013
X261.622Y-119.063
X271.782Y-119.063
X23.495Y-100.013
X33.655Y-100.013
X314.009Y-61.913
X324.169Y-61.913
X23.495Y-80.963
X33.655Y-80.963
X233.046Y-100.013
X243.206Y-100.013
X152.083Y-80.963
X162.243Y-80.963
X216.378Y-138.113
X226.538Y-138.113
X49.689Y-138.113
X59.849Y-138.113
X333.06Y-119.063
X343.22Y-119.063
X54.452Y-100.013
X64.612Y-100.013
X133.033Y-80.963
X143.193Y-80.963
X228.284Y-80.963
X238.444Y-80.963
X52.07Y-80.963
X62.23Y-80.963
X47.308Y-61.913
X57.468Y-61.913
X264.003Y-138.113
X274.163Y-138.113
X333.06Y-138.113
X343.22Y-138.113
X223.521Y-119.063
X233.681Y-119.063
X73.502Y-138.113
X83.662Y-138.113
X309.247Y-80.963
X319.407Y-80.963
X199.709Y-61.913
X209.869Y-61.913
X213.996Y-100.013
X224.156Y-100.013
X161.608Y-61.913
X171.768Y-61.913
X314.009Y-119.063
X324.169Y-119.063
X240.19Y-138.113
X250.35Y-138.113
X85.408Y-61.913
X95.568Y-61.913
X256.859Y-61.913
X267.019Y-61.913
X128.271Y-119.063
X138.431Y-119.063
X137.796Y-100.013
X147.956Y-100.013
X204.471Y-119.063
X214.631Y-119.063
X218.759Y-61.913
X228.919Y-61.913
X304.484Y-61.913
X314.644Y-61.913
X66.358Y-61.913
X76.518Y-61.913
X333.06Y-80.963
X343.22Y-80.963
X23.495Y-138.113
X33.655Y-138.113
X285.434Y-80.963
X295.594Y-80.963
X49.689Y-100.013
X59.849Y-100.013
X175.896Y-100.013
X186.056Y-100.013
X180.659Y-61.913
X190.819Y-61.913
X261.622Y-138.113
X271.782Y-138.113
X90.171Y-119.063
X100.331Y-119.063
X185.421Y-119.063
X195.581Y-119.063
X109.221Y-119.063
X119.381Y-119.063
X266.384Y-80.963
X276.544Y-80.963
X133.033Y-138.113
X143.193Y-138.113
X233.046Y-138.113
X243.206Y-138.113
X94.933Y-80.963
X105.093Y-80.963
X247.334Y-80.963
X257.494Y-80.963
X294.959Y-138.113
X305.119Y-138.113
X147.321Y-119.063
X157.481Y-119.063
X333.06Y-61.913
X343.22Y-61.913
X71.12Y-138.113
X81.28Y-138.113
X118.746Y-100.013
X128.906Y-100.013
T10
X119.063Y-131.128
X157.163Y-131.128
X176.214Y-131.128
X200.026Y-131.128
X52.388Y-112.078
X76.2Y-112.078
X176.214Y-131.128
X214.314Y-131.128
X128.588Y-131.128
X152.401Y-131.128
X295.277Y-93.028
X319.089Y-93.028
X297.658Y-54.928
X321.471Y-54.928
T11
X123.826Y-100.013
X214.314Y-80.963
X28.575Y-119.063
X300.039Y-61.913
X109.538Y-61.913
X176.214Y-146.368
X188.12Y-138.113
X200.026Y-146.368
X80.963Y-80.963
X176.214Y-80.963
X28.575Y-61.913
X257.177Y-100.013
X147.638Y-61.913
X280.989Y-61.913
X85.726Y-100.013
X200.026Y-100.013
X52.388Y-127.318
X64.294Y-119.063
X76.2Y-127.318
X176.214Y-146.368
X195.264Y-138.113
X214.314Y-146.368
X161.926Y-100.013
X338.14Y-100.013
X97.632Y-138.113
X195.264Y-80.963
X119.063Y-80.963
X319.089Y-138.113
X171.451Y-119.063
X247.652Y-119.063
X276.227Y-100.013
X128.588Y-61.913
X242.889Y-61.913
X128.588Y-146.368
X140.495Y-138.113
X152.401Y-146.368
X292.896Y-119.063
X102.394Y-138.113
X295.277Y-108.268
X307.183Y-100.013
X319.089Y-108.268
X104.776Y-100.013
X266.702Y-119.063
X28.575Y-100.013
X319.089Y-61.913
X28.575Y-80.963
X238.126Y-100.013
X157.163Y-80.963
X221.458Y-138.113
X54.769Y-138.113
X338.14Y-119.063
X59.532Y-100.013
X138.113Y-80.963
X233.364Y-80.963
X57.15Y-80.963
X52.388Y-61.913
X269.083Y-138.113
X338.14Y-138.113
X228.601Y-119.063
X78.582Y-138.113
X314.327Y-80.963
X204.789Y-61.913
X219.076Y-100.013
X166.688Y-61.913
X319.089Y-119.063
X245.27Y-138.113
X90.488Y-61.913
X261.939Y-61.913
X133.351Y-119.063
X142.876Y-100.013
X209.551Y-119.063
X223.839Y-61.913
X297.658Y-70.168
X309.564Y-61.913
X321.471Y-70.168
X71.438Y-61.913
X338.14Y-80.963
X28.575Y-138.113
X290.514Y-80.963
X54.769Y-100.013
X180.976Y-100.013
X185.739Y-61.913
X266.702Y-138.113
X95.251Y-119.063
X190.501Y-119.063
X114.301Y-119.063
X271.464Y-80.963
X119.063Y-146.368
X138.113Y-138.113
X157.163Y-146.368
X238.126Y-138.113
X100.013Y-80.963
X252.414Y-80.963
X300.039Y-138.113
X152.401Y-119.063
X338.14Y-61.913
X76.2Y-138.113
T2
X286.194Y-46.651G85X286.194Y-47.251
G05
X286.194Y-50.581G85X286.194Y-51.681
G05
X294.834Y-46.651G85X294.834Y-47.251
G05
X294.834Y-50.581G85X294.834Y-51.681
G05
X135.812Y-49.037G85X135.812Y-49.637
G05
X135.812Y-52.037G85X135.812Y-52.637
G05
X135.812Y-56.037G85X135.812Y-56.637
G05
X140.412Y-57.137G85X140.412Y-57.737
G05
X212.012Y-49.037G85X212.012Y-49.637
G05
X212.012Y-52.037G85X212.012Y-52.637
G05
X212.012Y-56.037G85X212.012Y-56.637
G05
X216.612Y-57.137G85X216.612Y-57.737
G05
X57.592Y-46.651G85X57.592Y-47.251
G05
X57.592Y-50.581G85X57.592Y-51.681
G05
X66.233Y-46.651G85X66.233Y-47.251
G05
X66.233Y-50.581G85X66.233Y-51.681
G05
T0
M30
