G04 #@! TF.GenerationSoftware,KiCad,Pcbnew,(5.0.0)*
G04 #@! TF.CreationDate,2020-01-09T12:02:49-05:00*
G04 #@! TF.ProjectId,split_65,73706C69745F36352E6B696361645F70,1.0*
G04 #@! TF.SameCoordinates,Original*
G04 #@! TF.FileFunction,Copper,L1,Top,Signal*
G04 #@! TF.FilePolarity,Positive*
%FSLAX46Y46*%
G04 Gerber Fmt 4.6, Leading zero omitted, Abs format (unit mm)*
G04 Created by KiCad (PCBNEW (5.0.0)) date 01/09/20 12:02:49*
%MOMM*%
%LPD*%
G01*
G04 APERTURE LIST*
G04 #@! TA.AperFunction,NonConductor*
%ADD10C,0.300000*%
G04 #@! TD*
G04 #@! TA.AperFunction,ComponentPad*
%ADD11C,2.250000*%
G04 #@! TD*
G04 #@! TA.AperFunction,ComponentPad*
%ADD12C,1.700000*%
G04 #@! TD*
G04 #@! TA.AperFunction,ComponentPad*
%ADD13O,1.000000X2.100000*%
G04 #@! TD*
G04 #@! TA.AperFunction,ComponentPad*
%ADD14O,1.000000X1.600000*%
G04 #@! TD*
G04 #@! TA.AperFunction,ComponentPad*
%ADD15O,1.200000X1.800000*%
G04 #@! TD*
G04 #@! TA.AperFunction,BGAPad,CuDef*
%ADD16C,1.000000*%
G04 #@! TD*
G04 #@! TA.AperFunction,ComponentPad*
%ADD17C,1.905000*%
G04 #@! TD*
G04 #@! TA.AperFunction,ComponentPad*
%ADD18R,1.905000X1.905000*%
G04 #@! TD*
G04 #@! TA.AperFunction,ViaPad*
%ADD19C,0.800000*%
G04 #@! TD*
G04 #@! TA.AperFunction,Conductor*
%ADD20C,0.381000*%
G04 #@! TD*
G04 #@! TA.AperFunction,Conductor*
%ADD21C,0.254000*%
G04 #@! TD*
G04 APERTURE END LIST*
D10*
X319566568Y-154114042D02*
X319780854Y-154185471D01*
X320137997Y-154185471D01*
X320280854Y-154114042D01*
X320352282Y-154042614D01*
X320423711Y-153899757D01*
X320423711Y-153756900D01*
X320352282Y-153614042D01*
X320280854Y-153542614D01*
X320137997Y-153471185D01*
X319852282Y-153399757D01*
X319709425Y-153328328D01*
X319637997Y-153256900D01*
X319566568Y-153114042D01*
X319566568Y-152971185D01*
X319637997Y-152828328D01*
X319709425Y-152756900D01*
X319852282Y-152685471D01*
X320209425Y-152685471D01*
X320423711Y-152756900D01*
X321066568Y-153185471D02*
X321066568Y-154685471D01*
X321066568Y-153256900D02*
X321209425Y-153185471D01*
X321495140Y-153185471D01*
X321637997Y-153256900D01*
X321709425Y-153328328D01*
X321780854Y-153471185D01*
X321780854Y-153899757D01*
X321709425Y-154042614D01*
X321637997Y-154114042D01*
X321495140Y-154185471D01*
X321209425Y-154185471D01*
X321066568Y-154114042D01*
X322637997Y-154185471D02*
X322495140Y-154114042D01*
X322423711Y-153971185D01*
X322423711Y-152685471D01*
X323209425Y-154185471D02*
X323209425Y-153185471D01*
X323209425Y-152685471D02*
X323137997Y-152756900D01*
X323209425Y-152828328D01*
X323280854Y-152756900D01*
X323209425Y-152685471D01*
X323209425Y-152828328D01*
X323709425Y-153185471D02*
X324280854Y-153185471D01*
X323923711Y-152685471D02*
X323923711Y-153971185D01*
X323995140Y-154114042D01*
X324137997Y-154185471D01*
X324280854Y-154185471D01*
X326566568Y-152685471D02*
X326280854Y-152685471D01*
X326137997Y-152756900D01*
X326066568Y-152828328D01*
X325923711Y-153042614D01*
X325852282Y-153328328D01*
X325852282Y-153899757D01*
X325923711Y-154042614D01*
X325995140Y-154114042D01*
X326137997Y-154185471D01*
X326423711Y-154185471D01*
X326566568Y-154114042D01*
X326637997Y-154042614D01*
X326709425Y-153899757D01*
X326709425Y-153542614D01*
X326637997Y-153399757D01*
X326566568Y-153328328D01*
X326423711Y-153256900D01*
X326137997Y-153256900D01*
X325995140Y-153328328D01*
X325923711Y-153399757D01*
X325852282Y-153542614D01*
X328066568Y-152685471D02*
X327352282Y-152685471D01*
X327280854Y-153399757D01*
X327352282Y-153328328D01*
X327495140Y-153256900D01*
X327852282Y-153256900D01*
X327995140Y-153328328D01*
X328066568Y-153399757D01*
X328137997Y-153542614D01*
X328137997Y-153899757D01*
X328066568Y-154042614D01*
X327995140Y-154114042D01*
X327852282Y-154185471D01*
X327495140Y-154185471D01*
X327352282Y-154114042D01*
X327280854Y-154042614D01*
X329923711Y-154185471D02*
X329923711Y-152685471D01*
X330495140Y-152685471D01*
X330637997Y-152756900D01*
X330709425Y-152828328D01*
X330780854Y-152971185D01*
X330780854Y-153185471D01*
X330709425Y-153328328D01*
X330637997Y-153399757D01*
X330495140Y-153471185D01*
X329923711Y-153471185D01*
X332280854Y-154042614D02*
X332209425Y-154114042D01*
X331995140Y-154185471D01*
X331852282Y-154185471D01*
X331637997Y-154114042D01*
X331495140Y-153971185D01*
X331423711Y-153828328D01*
X331352282Y-153542614D01*
X331352282Y-153328328D01*
X331423711Y-153042614D01*
X331495140Y-152899757D01*
X331637997Y-152756900D01*
X331852282Y-152685471D01*
X331995140Y-152685471D01*
X332209425Y-152756900D01*
X332280854Y-152828328D01*
X333423711Y-153399757D02*
X333637997Y-153471185D01*
X333709425Y-153542614D01*
X333780854Y-153685471D01*
X333780854Y-153899757D01*
X333709425Y-154042614D01*
X333637997Y-154114042D01*
X333495140Y-154185471D01*
X332923711Y-154185471D01*
X332923711Y-152685471D01*
X333423711Y-152685471D01*
X333566568Y-152756900D01*
X333637997Y-152828328D01*
X333709425Y-152971185D01*
X333709425Y-153114042D01*
X333637997Y-153256900D01*
X333566568Y-153328328D01*
X333423711Y-153399757D01*
X332923711Y-153399757D01*
X336423711Y-154185471D02*
X335923711Y-153471185D01*
X335566568Y-154185471D02*
X335566568Y-152685471D01*
X336137997Y-152685471D01*
X336280854Y-152756900D01*
X336352282Y-152828328D01*
X336423711Y-152971185D01*
X336423711Y-153185471D01*
X336352282Y-153328328D01*
X336280854Y-153399757D01*
X336137997Y-153471185D01*
X335566568Y-153471185D01*
X337637997Y-154114042D02*
X337495140Y-154185471D01*
X337209425Y-154185471D01*
X337066568Y-154114042D01*
X336995140Y-153971185D01*
X336995140Y-153399757D01*
X337066568Y-153256900D01*
X337209425Y-153185471D01*
X337495140Y-153185471D01*
X337637997Y-153256900D01*
X337709425Y-153399757D01*
X337709425Y-153542614D01*
X336995140Y-153685471D01*
X338209425Y-153185471D02*
X338566568Y-154185471D01*
X338923711Y-153185471D01*
X340280854Y-154185471D02*
X339423711Y-154185471D01*
X339852282Y-154185471D02*
X339852282Y-152685471D01*
X339709425Y-152899757D01*
X339566568Y-153042614D01*
X339423711Y-153114042D01*
X340923711Y-154042614D02*
X340995140Y-154114042D01*
X340923711Y-154185471D01*
X340852282Y-154114042D01*
X340923711Y-154042614D01*
X340923711Y-154185471D01*
X341923711Y-152685471D02*
X342066568Y-152685471D01*
X342209425Y-152756900D01*
X342280854Y-152828328D01*
X342352282Y-152971185D01*
X342423711Y-153256900D01*
X342423711Y-153614042D01*
X342352282Y-153899757D01*
X342280854Y-154042614D01*
X342209425Y-154114042D01*
X342066568Y-154185471D01*
X341923711Y-154185471D01*
X341780854Y-154114042D01*
X341709425Y-154042614D01*
X341637997Y-153899757D01*
X341566568Y-153614042D01*
X341566568Y-153256900D01*
X341637997Y-152971185D01*
X341709425Y-152828328D01*
X341780854Y-152756900D01*
X341923711Y-152685471D01*
X324566568Y-156735471D02*
X323709425Y-156735471D01*
X324137997Y-156735471D02*
X324137997Y-155235471D01*
X323995140Y-155449757D01*
X323852282Y-155592614D01*
X323709425Y-155664042D01*
X325495140Y-155235471D02*
X325637997Y-155235471D01*
X325780854Y-155306900D01*
X325852282Y-155378328D01*
X325923711Y-155521185D01*
X325995140Y-155806900D01*
X325995140Y-156164042D01*
X325923711Y-156449757D01*
X325852282Y-156592614D01*
X325780854Y-156664042D01*
X325637997Y-156735471D01*
X325495140Y-156735471D01*
X325352282Y-156664042D01*
X325280854Y-156592614D01*
X325209425Y-156449757D01*
X325137997Y-156164042D01*
X325137997Y-155806900D01*
X325209425Y-155521185D01*
X325280854Y-155378328D01*
X325352282Y-155306900D01*
X325495140Y-155235471D01*
X326637997Y-156164042D02*
X327780854Y-156164042D01*
X328423711Y-155378328D02*
X328495140Y-155306900D01*
X328637997Y-155235471D01*
X328995140Y-155235471D01*
X329137997Y-155306900D01*
X329209425Y-155378328D01*
X329280854Y-155521185D01*
X329280854Y-155664042D01*
X329209425Y-155878328D01*
X328352282Y-156735471D01*
X329280854Y-156735471D01*
X329780854Y-155235471D02*
X330780854Y-155235471D01*
X330137997Y-156735471D01*
X331352282Y-156164042D02*
X332495140Y-156164042D01*
X333137997Y-155378328D02*
X333209425Y-155306900D01*
X333352282Y-155235471D01*
X333709425Y-155235471D01*
X333852282Y-155306900D01*
X333923711Y-155378328D01*
X333995140Y-155521185D01*
X333995140Y-155664042D01*
X333923711Y-155878328D01*
X333066568Y-156735471D01*
X333995140Y-156735471D01*
X334923711Y-155235471D02*
X335066568Y-155235471D01*
X335209425Y-155306900D01*
X335280854Y-155378328D01*
X335352282Y-155521185D01*
X335423711Y-155806900D01*
X335423711Y-156164042D01*
X335352282Y-156449757D01*
X335280854Y-156592614D01*
X335209425Y-156664042D01*
X335066568Y-156735471D01*
X334923711Y-156735471D01*
X334780854Y-156664042D01*
X334709425Y-156592614D01*
X334637997Y-156449757D01*
X334566568Y-156164042D01*
X334566568Y-155806900D01*
X334637997Y-155521185D01*
X334709425Y-155378328D01*
X334780854Y-155306900D01*
X334923711Y-155235471D01*
X336852282Y-156735471D02*
X335995140Y-156735471D01*
X336423711Y-156735471D02*
X336423711Y-155235471D01*
X336280854Y-155449757D01*
X336137997Y-155592614D01*
X335995140Y-155664042D01*
X337566568Y-156735471D02*
X337852282Y-156735471D01*
X337995140Y-156664042D01*
X338066568Y-156592614D01*
X338209425Y-156378328D01*
X338280854Y-156092614D01*
X338280854Y-155521185D01*
X338209425Y-155378328D01*
X338137997Y-155306900D01*
X337995140Y-155235471D01*
X337709425Y-155235471D01*
X337566568Y-155306900D01*
X337495140Y-155378328D01*
X337423711Y-155521185D01*
X337423711Y-155878328D01*
X337495140Y-156021185D01*
X337566568Y-156092614D01*
X337709425Y-156164042D01*
X337995140Y-156164042D01*
X338137997Y-156092614D01*
X338209425Y-156021185D01*
X338280854Y-155878328D01*
D11*
G04 #@! TO.P,MX20,2*
G04 #@! TO.N,Net-(D19-Pad2)*
X126365728Y-94933088D03*
G04 #@! TO.P,MX20,1*
G04 #@! TO.N,COL5*
X120015728Y-97473088D03*
G04 #@! TD*
D12*
G04 #@! TO.P,J10,6*
G04 #@! TO.N,GNDA*
X305863540Y-115030000D03*
G04 #@! TO.P,J10,5*
G04 #@! TO.N,RESET-R*
X308403540Y-115030000D03*
G04 #@! TO.P,J10,4*
G04 #@! TO.N,MOSI-R*
X305863540Y-112490000D03*
G04 #@! TO.P,J10,3*
G04 #@! TO.N,SCK-R*
X308403540Y-112490000D03*
G04 #@! TO.P,J10,2*
G04 #@! TO.N,+5VA*
X305863540Y-109950000D03*
G04 #@! TO.P,J10,1*
G04 #@! TO.N,MISO-R*
X308403540Y-109950000D03*
G04 #@! TD*
G04 #@! TO.P,J2,1*
G04 #@! TO.N,MISO*
X86970000Y-106980000D03*
G04 #@! TO.P,J2,2*
G04 #@! TO.N,+5V*
X84430000Y-106980000D03*
G04 #@! TO.P,J2,3*
G04 #@! TO.N,SCK*
X86970000Y-109520000D03*
G04 #@! TO.P,J2,4*
G04 #@! TO.N,MOSI*
X84430000Y-109520000D03*
G04 #@! TO.P,J2,5*
G04 #@! TO.N,RESET*
X86970000Y-112060000D03*
G04 #@! TO.P,J2,6*
G04 #@! TO.N,GND*
X84430000Y-112060000D03*
G04 #@! TD*
D11*
G04 #@! TO.P,MX29,1*
G04 #@! TO.N,COL7*
X167641008Y-116523200D03*
G04 #@! TO.P,MX29,2*
G04 #@! TO.N,Net-(D28-Pad2)*
X173991008Y-113983200D03*
G04 #@! TD*
G04 #@! TO.P,MX25,1*
G04 #@! TO.N,COL3*
X91440560Y-116523200D03*
G04 #@! TO.P,MX25,2*
G04 #@! TO.N,Net-(D24-Pad2)*
X97790560Y-113983200D03*
G04 #@! TD*
G04 #@! TO.P,MX21,1*
G04 #@! TO.N,COL6*
X139065840Y-97473088D03*
G04 #@! TO.P,MX21,2*
G04 #@! TO.N,Net-(D20-Pad2)*
X145415840Y-94933088D03*
G04 #@! TD*
D13*
G04 #@! TO.P,USB1,13*
G04 #@! TO.N,GND*
X57592500Y-51131042D03*
X66232500Y-51131042D03*
D14*
X57592500Y-46951042D03*
X66232500Y-46951042D03*
G04 #@! TD*
D15*
G04 #@! TO.P,J1,1*
G04 #@! TO.N,GND*
X135812500Y-49336990D03*
G04 #@! TO.P,J1,2*
G04 #@! TO.N,SCL*
X135812500Y-52336990D03*
G04 #@! TO.P,J1,3*
G04 #@! TO.N,SDA*
X135812500Y-56336990D03*
G04 #@! TO.P,J1,4*
G04 #@! TO.N,+5V*
X140412500Y-57436990D03*
G04 #@! TD*
D13*
G04 #@! TO.P,USB2,13*
G04 #@! TO.N,GNDA*
X286194292Y-51131042D03*
X294834292Y-51131042D03*
D14*
X286194292Y-46951042D03*
X294834292Y-46951042D03*
G04 #@! TD*
D15*
G04 #@! TO.P,J9,4*
G04 #@! TO.N,+5VA*
X216612290Y-57436990D03*
G04 #@! TO.P,J9,3*
G04 #@! TO.N,SDA-R*
X212012290Y-56336990D03*
G04 #@! TO.P,J9,2*
G04 #@! TO.N,SCL-R*
X212012290Y-52336990D03*
G04 #@! TO.P,J9,1*
G04 #@! TO.N,GNDA*
X212012290Y-49336990D03*
G04 #@! TD*
D16*
G04 #@! TO.P,FID2,~*
G04 #@! TO.N,N/C*
X23812600Y-38695475D03*
G04 #@! TD*
G04 #@! TO.P,FID4,~*
G04 #@! TO.N,N/C*
X342901440Y-38695475D03*
G04 #@! TD*
G04 #@! TO.P,FID6,~*
G04 #@! TO.N,N/C*
X23812600Y-157758475D03*
G04 #@! TD*
D11*
G04 #@! TO.P,MX0,1*
G04 #@! TO.N,COL0*
X24765168Y-59372864D03*
G04 #@! TO.P,MX0,2*
G04 #@! TO.N,Net-(D0-Pad2)*
X31115168Y-56832864D03*
G04 #@! TD*
G04 #@! TO.P,MX1,1*
G04 #@! TO.N,COL1*
X48577808Y-59372864D03*
G04 #@! TO.P,MX1,2*
G04 #@! TO.N,Net-(D1-Pad2)*
X54927808Y-56832864D03*
G04 #@! TD*
G04 #@! TO.P,MX2,1*
G04 #@! TO.N,COL2*
X67627920Y-59372864D03*
G04 #@! TO.P,MX2,2*
G04 #@! TO.N,Net-(D2-Pad2)*
X73977920Y-56832864D03*
G04 #@! TD*
G04 #@! TO.P,MX3,1*
G04 #@! TO.N,COL3*
X86678032Y-59372864D03*
G04 #@! TO.P,MX3,2*
G04 #@! TO.N,Net-(D3-Pad2)*
X93028032Y-56832864D03*
G04 #@! TD*
G04 #@! TO.P,MX4,2*
G04 #@! TO.N,Net-(D4-Pad2)*
X112078144Y-56832864D03*
G04 #@! TO.P,MX4,1*
G04 #@! TO.N,COL4*
X105728144Y-59372864D03*
G04 #@! TD*
G04 #@! TO.P,MX5,2*
G04 #@! TO.N,Net-(D5-Pad2)*
X131128256Y-56832864D03*
G04 #@! TO.P,MX5,1*
G04 #@! TO.N,COL5*
X124778256Y-59372864D03*
G04 #@! TD*
G04 #@! TO.P,MX6,2*
G04 #@! TO.N,Net-(D6-Pad2)*
X150178368Y-56832864D03*
G04 #@! TO.P,MX6,1*
G04 #@! TO.N,COL6*
X143828368Y-59372864D03*
G04 #@! TD*
G04 #@! TO.P,MX7,2*
G04 #@! TO.N,Net-(D7-Pad2)*
X169228480Y-56832864D03*
G04 #@! TO.P,MX7,1*
G04 #@! TO.N,COL7*
X162878480Y-59372864D03*
G04 #@! TD*
G04 #@! TO.P,MX8,2*
G04 #@! TO.N,Net-(D8-Pad2)*
X31115168Y-75882976D03*
G04 #@! TO.P,MX8,1*
G04 #@! TO.N,COL0*
X24765168Y-78422976D03*
G04 #@! TD*
G04 #@! TO.P,MX9,2*
G04 #@! TO.N,Net-(D9-Pad2)*
X59690336Y-75882976D03*
G04 #@! TO.P,MX9,1*
G04 #@! TO.N,COL1*
X53340336Y-78422976D03*
G04 #@! TD*
G04 #@! TO.P,MX10,2*
G04 #@! TO.N,Net-(D10-Pad2)*
X83502976Y-75882976D03*
G04 #@! TO.P,MX10,1*
G04 #@! TO.N,COL3*
X77152976Y-78422976D03*
G04 #@! TD*
G04 #@! TO.P,MX11,2*
G04 #@! TO.N,Net-(D11-Pad2)*
X102553088Y-75882976D03*
G04 #@! TO.P,MX11,1*
G04 #@! TO.N,COL4*
X96203088Y-78422976D03*
G04 #@! TD*
G04 #@! TO.P,MX12,1*
G04 #@! TO.N,COL5*
X115253200Y-78422976D03*
G04 #@! TO.P,MX12,2*
G04 #@! TO.N,Net-(D12-Pad2)*
X121603200Y-75882976D03*
G04 #@! TD*
G04 #@! TO.P,MX13,1*
G04 #@! TO.N,COL6*
X134303312Y-78422976D03*
G04 #@! TO.P,MX13,2*
G04 #@! TO.N,Net-(D13-Pad2)*
X140653312Y-75882976D03*
G04 #@! TD*
G04 #@! TO.P,MX14,2*
G04 #@! TO.N,Net-(D14-Pad2)*
X159703424Y-75882976D03*
G04 #@! TO.P,MX14,1*
G04 #@! TO.N,COL7*
X153353424Y-78422976D03*
G04 #@! TD*
G04 #@! TO.P,MX15,1*
G04 #@! TO.N,COL0*
X24765168Y-97473088D03*
G04 #@! TO.P,MX15,2*
G04 #@! TO.N,Net-(D15-Pad2)*
X31115168Y-94933088D03*
G04 #@! TD*
G04 #@! TO.P,MX18,2*
G04 #@! TO.N,Net-(D17-Pad2)*
X88265504Y-94933088D03*
G04 #@! TO.P,MX18,1*
G04 #@! TO.N,COL3*
X81915504Y-97473088D03*
G04 #@! TD*
G04 #@! TO.P,MX19,1*
G04 #@! TO.N,COL4*
X100965616Y-97473088D03*
G04 #@! TO.P,MX19,2*
G04 #@! TO.N,Net-(D18-Pad2)*
X107315616Y-94933088D03*
G04 #@! TD*
G04 #@! TO.P,MX22,2*
G04 #@! TO.N,Net-(D21-Pad2)*
X164465952Y-94933088D03*
G04 #@! TO.P,MX22,1*
G04 #@! TO.N,COL7*
X158115952Y-97473088D03*
G04 #@! TD*
G04 #@! TO.P,MX23,1*
G04 #@! TO.N,COL0*
X24765168Y-116523200D03*
G04 #@! TO.P,MX23,2*
G04 #@! TO.N,Net-(D22-Pad2)*
X31115168Y-113983200D03*
G04 #@! TD*
G04 #@! TO.P,MX24,1*
G04 #@! TO.N,COL1*
X60484128Y-116523200D03*
G04 #@! TO.P,MX24,2*
G04 #@! TO.N,Net-(D23-Pad2)*
X66834128Y-113983200D03*
G04 #@! TD*
G04 #@! TO.P,MX26,1*
G04 #@! TO.N,COL4*
X110490672Y-116523200D03*
G04 #@! TO.P,MX26,2*
G04 #@! TO.N,Net-(D25-Pad2)*
X116840672Y-113983200D03*
G04 #@! TD*
G04 #@! TO.P,MX27,1*
G04 #@! TO.N,COL5*
X129540784Y-116523200D03*
G04 #@! TO.P,MX27,2*
G04 #@! TO.N,Net-(D26-Pad2)*
X135890784Y-113983200D03*
G04 #@! TD*
G04 #@! TO.P,MX28,2*
G04 #@! TO.N,Net-(D27-Pad2)*
X154940896Y-113983200D03*
G04 #@! TO.P,MX28,1*
G04 #@! TO.N,COL6*
X148590896Y-116523200D03*
G04 #@! TD*
G04 #@! TO.P,MX30,2*
G04 #@! TO.N,Net-(D29-Pad2)*
X31115168Y-133033312D03*
G04 #@! TO.P,MX30,1*
G04 #@! TO.N,COL0*
X24765168Y-135573312D03*
G04 #@! TD*
G04 #@! TO.P,MX31,1*
G04 #@! TO.N,COL3*
X72390448Y-135573312D03*
G04 #@! TO.P,MX31,2*
G04 #@! TO.N,Net-(D31-Pad2)*
X78740448Y-133033312D03*
G04 #@! TD*
G04 #@! TO.P,MX32,1*
G04 #@! TO.N,COL1*
X50959072Y-135573312D03*
G04 #@! TO.P,MX32,2*
G04 #@! TO.N,Net-(D30-Pad2)*
X57309072Y-133033312D03*
G04 #@! TD*
G04 #@! TO.P,MX33,1*
G04 #@! TO.N,COL3*
X74771712Y-135573312D03*
G04 #@! TO.P,MX33,2*
G04 #@! TO.N,Net-(D31-Pad2)*
X81121712Y-133033312D03*
G04 #@! TD*
G04 #@! TO.P,MX34,2*
G04 #@! TO.N,Net-(D32-Pad2)*
X100171824Y-133033312D03*
G04 #@! TO.P,MX34,1*
G04 #@! TO.N,COL4*
X93821824Y-135573312D03*
G04 #@! TD*
G04 #@! TO.P,MX35,2*
G04 #@! TO.N,Net-(D32-Pad2)*
X104934352Y-133033312D03*
G04 #@! TO.P,MX35,1*
G04 #@! TO.N,COL4*
X98584352Y-135573312D03*
G04 #@! TD*
G04 #@! TO.P,MX36,1*
G04 #@! TO.N,COL5*
X134303312Y-135573312D03*
G04 #@! TO.P,MX36,2*
G04 #@! TO.N,Net-(D33-Pad2)*
X140653312Y-133033312D03*
G04 #@! TD*
G04 #@! TO.P,MX37,1*
G04 #@! TO.N,COL5*
X136684576Y-135573312D03*
G04 #@! TO.P,MX37,2*
G04 #@! TO.N,Net-(D33-Pad2)*
X143034576Y-133033312D03*
G04 #@! TD*
G04 #@! TO.P,MX38,2*
G04 #@! TO.N,Net-(D35-Pad2)*
X188278676Y-56832864D03*
G04 #@! TO.P,MX38,1*
G04 #@! TO.N,COL0-R*
X181928676Y-59372864D03*
G04 #@! TD*
G04 #@! TO.P,MX39,2*
G04 #@! TO.N,Net-(D36-Pad2)*
X207328788Y-56832864D03*
G04 #@! TO.P,MX39,1*
G04 #@! TO.N,COL1-R*
X200978788Y-59372864D03*
G04 #@! TD*
G04 #@! TO.P,MX40,1*
G04 #@! TO.N,COL2-R*
X220028900Y-59372864D03*
G04 #@! TO.P,MX40,2*
G04 #@! TO.N,Net-(D37-Pad2)*
X226378900Y-56832864D03*
G04 #@! TD*
G04 #@! TO.P,MX41,1*
G04 #@! TO.N,COL3-R*
X239079012Y-59372864D03*
G04 #@! TO.P,MX41,2*
G04 #@! TO.N,Net-(D38-Pad2)*
X245429012Y-56832864D03*
G04 #@! TD*
G04 #@! TO.P,MX42,1*
G04 #@! TO.N,COL4-R*
X258129124Y-59372864D03*
G04 #@! TO.P,MX42,2*
G04 #@! TO.N,Net-(D39-Pad2)*
X264479124Y-56832864D03*
G04 #@! TD*
G04 #@! TO.P,MX43,2*
G04 #@! TO.N,Net-(D40-Pad2)*
X283529236Y-56832864D03*
G04 #@! TO.P,MX43,1*
G04 #@! TO.N,COL5-R*
X277179236Y-59372864D03*
G04 #@! TD*
G04 #@! TO.P,MX44,1*
G04 #@! TO.N,COL6-R*
X296229348Y-59372864D03*
G04 #@! TO.P,MX44,2*
G04 #@! TO.N,Net-(D41-Pad2)*
X302579348Y-56832864D03*
G04 #@! TD*
G04 #@! TO.P,MX45,1*
G04 #@! TO.N,COL7-R*
X305754404Y-59372864D03*
G04 #@! TO.P,MX45,2*
G04 #@! TO.N,Net-(D42-Pad2)*
X312104404Y-56832864D03*
G04 #@! TD*
G04 #@! TO.P,MX46,1*
G04 #@! TO.N,COL7-R*
X315279460Y-59372864D03*
G04 #@! TO.P,MX46,2*
G04 #@! TO.N,Net-(D42-Pad2)*
X321629460Y-56832864D03*
G04 #@! TD*
G04 #@! TO.P,MX47,2*
G04 #@! TO.N,Net-(D43-Pad2)*
X340679572Y-56832864D03*
G04 #@! TO.P,MX47,1*
G04 #@! TO.N,COL8-R*
X334329572Y-59372864D03*
G04 #@! TD*
G04 #@! TO.P,MX48,2*
G04 #@! TO.N,Net-(D44-Pad2)*
X178753620Y-75882976D03*
G04 #@! TO.P,MX48,1*
G04 #@! TO.N,COL0-R*
X172403620Y-78422976D03*
G04 #@! TD*
G04 #@! TO.P,MX49,1*
G04 #@! TO.N,COL1-R*
X191453732Y-78422976D03*
G04 #@! TO.P,MX49,2*
G04 #@! TO.N,Net-(D45-Pad2)*
X197803732Y-75882976D03*
G04 #@! TD*
G04 #@! TO.P,MX50,2*
G04 #@! TO.N,Net-(D46-Pad2)*
X216853844Y-75882976D03*
G04 #@! TO.P,MX50,1*
G04 #@! TO.N,COL2-R*
X210503844Y-78422976D03*
G04 #@! TD*
G04 #@! TO.P,MX51,1*
G04 #@! TO.N,COL3-R*
X229553956Y-78422976D03*
G04 #@! TO.P,MX51,2*
G04 #@! TO.N,Net-(D47-Pad2)*
X235903956Y-75882976D03*
G04 #@! TD*
G04 #@! TO.P,MX52,2*
G04 #@! TO.N,Net-(D48-Pad2)*
X254954068Y-75882976D03*
G04 #@! TO.P,MX52,1*
G04 #@! TO.N,COL4-R*
X248604068Y-78422976D03*
G04 #@! TD*
G04 #@! TO.P,MX53,1*
G04 #@! TO.N,COL5-R*
X267654180Y-78422976D03*
G04 #@! TO.P,MX53,2*
G04 #@! TO.N,Net-(D49-Pad2)*
X274004180Y-75882976D03*
G04 #@! TD*
G04 #@! TO.P,MX54,2*
G04 #@! TO.N,Net-(D50-Pad2)*
X293054292Y-75882976D03*
G04 #@! TO.P,MX54,1*
G04 #@! TO.N,COL6-R*
X286704292Y-78422976D03*
G04 #@! TD*
G04 #@! TO.P,MX55,1*
G04 #@! TO.N,COL7-R*
X310516932Y-78422976D03*
G04 #@! TO.P,MX55,2*
G04 #@! TO.N,Net-(D51-Pad2)*
X316866932Y-75882976D03*
G04 #@! TD*
G04 #@! TO.P,MX56,1*
G04 #@! TO.N,COL8-R*
X334329572Y-78422976D03*
G04 #@! TO.P,MX56,2*
G04 #@! TO.N,Net-(D52-Pad2)*
X340679572Y-75882976D03*
G04 #@! TD*
G04 #@! TO.P,MX57,1*
G04 #@! TO.N,COL0-R*
X177166148Y-97473088D03*
G04 #@! TO.P,MX57,2*
G04 #@! TO.N,Net-(D53-Pad2)*
X183516148Y-94933088D03*
G04 #@! TD*
G04 #@! TO.P,MX58,2*
G04 #@! TO.N,Net-(D54-Pad2)*
X202566260Y-94933088D03*
G04 #@! TO.P,MX58,1*
G04 #@! TO.N,COL1-R*
X196216260Y-97473088D03*
G04 #@! TD*
G04 #@! TO.P,MX59,2*
G04 #@! TO.N,Net-(D55-Pad2)*
X221616372Y-94933088D03*
G04 #@! TO.P,MX59,1*
G04 #@! TO.N,COL2-R*
X215266372Y-97473088D03*
G04 #@! TD*
G04 #@! TO.P,MX60,1*
G04 #@! TO.N,COL3-R*
X234316484Y-97473088D03*
G04 #@! TO.P,MX60,2*
G04 #@! TO.N,Net-(D56-Pad2)*
X240666484Y-94933088D03*
G04 #@! TD*
G04 #@! TO.P,MX61,2*
G04 #@! TO.N,Net-(D57-Pad2)*
X259716596Y-94933088D03*
G04 #@! TO.P,MX61,1*
G04 #@! TO.N,COL4-R*
X253366596Y-97473088D03*
G04 #@! TD*
G04 #@! TO.P,MX62,1*
G04 #@! TO.N,COL5-R*
X272416708Y-97473088D03*
G04 #@! TO.P,MX62,2*
G04 #@! TO.N,Net-(D58-Pad2)*
X278766708Y-94933088D03*
G04 #@! TD*
G04 #@! TO.P,MX63,1*
G04 #@! TO.N,COL7-R*
X303373140Y-97473088D03*
G04 #@! TO.P,MX63,2*
G04 #@! TO.N,Net-(D59-Pad2)*
X309723140Y-94933088D03*
G04 #@! TD*
G04 #@! TO.P,MX64,2*
G04 #@! TO.N,Net-(D60-Pad2)*
X340679572Y-94933088D03*
G04 #@! TO.P,MX64,1*
G04 #@! TO.N,COL8-R*
X334329572Y-97473088D03*
G04 #@! TD*
G04 #@! TO.P,MX65,2*
G04 #@! TO.N,Net-(D61-Pad2)*
X193041204Y-113983200D03*
G04 #@! TO.P,MX65,1*
G04 #@! TO.N,COL0-R*
X186691204Y-116523200D03*
G04 #@! TD*
G04 #@! TO.P,MX66,1*
G04 #@! TO.N,COL1-R*
X205741316Y-116523200D03*
G04 #@! TO.P,MX66,2*
G04 #@! TO.N,Net-(D62-Pad2)*
X212091316Y-113983200D03*
G04 #@! TD*
G04 #@! TO.P,MX67,2*
G04 #@! TO.N,Net-(D63-Pad2)*
X231141428Y-113983200D03*
G04 #@! TO.P,MX67,1*
G04 #@! TO.N,COL2-R*
X224791428Y-116523200D03*
G04 #@! TD*
G04 #@! TO.P,MX68,1*
G04 #@! TO.N,COL3-R*
X243841540Y-116523200D03*
G04 #@! TO.P,MX68,2*
G04 #@! TO.N,Net-(D64-Pad2)*
X250191540Y-113983200D03*
G04 #@! TD*
G04 #@! TO.P,MX69,2*
G04 #@! TO.N,Net-(D65-Pad2)*
X269241652Y-113983200D03*
G04 #@! TO.P,MX69,1*
G04 #@! TO.N,COL4-R*
X262891652Y-116523200D03*
G04 #@! TD*
G04 #@! TO.P,MX70,2*
G04 #@! TO.N,Net-(D66-Pad2)*
X295435556Y-113983200D03*
G04 #@! TO.P,MX70,1*
G04 #@! TO.N,COL5-R*
X289085556Y-116523200D03*
G04 #@! TD*
G04 #@! TO.P,MX71,2*
G04 #@! TO.N,Net-(D67-Pad2)*
X321629460Y-113983200D03*
G04 #@! TO.P,MX71,1*
G04 #@! TO.N,COL7-R*
X315279460Y-116523200D03*
G04 #@! TD*
G04 #@! TO.P,MX72,2*
G04 #@! TO.N,Net-(D68-Pad2)*
X340679572Y-113983200D03*
G04 #@! TO.P,MX72,1*
G04 #@! TO.N,COL8-R*
X334329572Y-116523200D03*
G04 #@! TD*
G04 #@! TO.P,MX73,2*
G04 #@! TO.N,Net-(D69-Pad2)*
X197803732Y-133033312D03*
G04 #@! TO.P,MX73,1*
G04 #@! TO.N,COL0-R*
X191453732Y-135573312D03*
G04 #@! TD*
G04 #@! TO.P,MX74,2*
G04 #@! TO.N,Net-(D69-Pad2)*
X190659940Y-133033312D03*
G04 #@! TO.P,MX74,1*
G04 #@! TO.N,COL0-R*
X184309940Y-135573312D03*
G04 #@! TD*
G04 #@! TO.P,MX75,2*
G04 #@! TO.N,Net-(D70-Pad2)*
X223997636Y-133033312D03*
G04 #@! TO.P,MX75,1*
G04 #@! TO.N,COL2-R*
X217647636Y-135573312D03*
G04 #@! TD*
G04 #@! TO.P,MX76,1*
G04 #@! TO.N,COL3-R*
X234316484Y-135573312D03*
G04 #@! TO.P,MX76,2*
G04 #@! TO.N,Net-(D71-Pad2)*
X240666484Y-133033312D03*
G04 #@! TD*
G04 #@! TO.P,MX77,1*
G04 #@! TO.N,COL3-R*
X241460276Y-135573312D03*
G04 #@! TO.P,MX77,2*
G04 #@! TO.N,Net-(D71-Pad2)*
X247810276Y-133033312D03*
G04 #@! TD*
G04 #@! TO.P,MX78,2*
G04 #@! TO.N,Net-(D72-Pad2)*
X269241652Y-133033312D03*
G04 #@! TO.P,MX78,1*
G04 #@! TO.N,COL4-R*
X262891652Y-135573312D03*
G04 #@! TD*
G04 #@! TO.P,MX79,2*
G04 #@! TO.N,Net-(D72-Pad2)*
X271622916Y-133033312D03*
G04 #@! TO.P,MX79,1*
G04 #@! TO.N,COL4-R*
X265272916Y-135573312D03*
G04 #@! TD*
G04 #@! TO.P,MX80,2*
G04 #@! TO.N,Net-(D73-Pad2)*
X302579348Y-133033312D03*
G04 #@! TO.P,MX80,1*
G04 #@! TO.N,COL5-R*
X296229348Y-135573312D03*
G04 #@! TD*
G04 #@! TO.P,MX81,1*
G04 #@! TO.N,COL7-R*
X315279460Y-135573312D03*
G04 #@! TO.P,MX81,2*
G04 #@! TO.N,Net-(D74-Pad2)*
X321629460Y-133033312D03*
G04 #@! TD*
G04 #@! TO.P,MX82,1*
G04 #@! TO.N,COL8-R*
X334329572Y-135573312D03*
G04 #@! TO.P,MX82,2*
G04 #@! TO.N,Net-(D75-Pad2)*
X340679572Y-133033312D03*
G04 #@! TD*
G04 #@! TO.P,MX16,2*
G04 #@! TO.N,Net-(D16-Pad2)*
X57309072Y-94933088D03*
G04 #@! TO.P,MX16,1*
G04 #@! TO.N,COL1*
X50959072Y-97473088D03*
D17*
G04 #@! TO.P,MX16,3*
G04 #@! TO.N,CAPSLOCK*
X53499072Y-105093088D03*
D18*
G04 #@! TO.P,MX16,4*
G04 #@! TO.N,Net-(MX16-Pad4)*
X56039072Y-105093088D03*
G04 #@! TD*
D11*
G04 #@! TO.P,MX17,2*
G04 #@! TO.N,Net-(D16-Pad2)*
X62071600Y-94933088D03*
G04 #@! TO.P,MX17,1*
G04 #@! TO.N,COL1*
X55721600Y-97473088D03*
D17*
G04 #@! TO.P,MX17,3*
G04 #@! TO.N,CAPSLOCK*
X60801600Y-105093088D03*
D18*
G04 #@! TO.P,MX17,4*
G04 #@! TO.N,Net-(MX16-Pad4)*
X58261600Y-105093088D03*
G04 #@! TD*
D19*
G04 #@! TO.N,GND*
X69030000Y-56490000D03*
X46990000Y-107168300D03*
X55020000Y-111320000D03*
G04 #@! TO.N,+5V*
X41830000Y-106400000D03*
X55930000Y-112980000D03*
X139900000Y-64130000D03*
X136490000Y-64130000D03*
X35580000Y-114130000D03*
X38410000Y-124450000D03*
X48860000Y-128800000D03*
X52360002Y-107511568D03*
X130360000Y-103490000D03*
G04 #@! TO.N,ROW0*
X57960000Y-64649998D03*
X65970000Y-64550000D03*
G04 #@! TO.N,ROW1*
X39580000Y-83630000D03*
X46300000Y-83580000D03*
G04 #@! TO.N,ROW2*
X39680000Y-102770000D03*
X46340000Y-102800000D03*
G04 #@! TO.N,ROW3*
X123854696Y-121736613D03*
X126640000Y-121750000D03*
X66710000Y-120720000D03*
X38650000Y-128237011D03*
G04 #@! TO.N,VCC*
X60935200Y-55070000D03*
X62949999Y-55070000D03*
G04 #@! TO.N,SCL*
X122660000Y-121975579D03*
X122690000Y-123385190D03*
X138590000Y-64898300D03*
X128998376Y-112518376D03*
G04 #@! TO.N,SDA*
X128010000Y-113180000D03*
X137612197Y-64898300D03*
G04 #@! TO.N,COL1*
X54791405Y-131778015D03*
G04 #@! TO.N,COL2*
X67830199Y-132009801D03*
G04 #@! TO.N,GNDA*
X283853511Y-58504504D03*
X291260000Y-110340000D03*
G04 #@! TO.N,+5VA*
X290273540Y-120000000D03*
X275013540Y-116830000D03*
X285863540Y-134770000D03*
X272973540Y-120320000D03*
X272595164Y-130688376D03*
G04 #@! TO.N,ROW0-R*
X286433540Y-64620000D03*
X294803540Y-64580000D03*
G04 #@! TO.N,ROW1-R*
X285273540Y-83680000D03*
X277073540Y-83680000D03*
G04 #@! TO.N,ROW2-R*
X287913540Y-102760000D03*
X278333540Y-102780000D03*
G04 #@! TO.N,ROW3-R*
X298253540Y-121410000D03*
X269326929Y-121940000D03*
G04 #@! TO.N,ROW4-R*
X232723540Y-140830000D03*
X235913540Y-140830000D03*
X272053540Y-140835200D03*
X276213540Y-140890000D03*
G04 #@! TO.N,VDD*
X291593540Y-54860000D03*
X289568740Y-54870000D03*
G04 #@! TO.N,SCL-R*
X291731419Y-132072121D03*
X275099579Y-103533961D03*
X214143540Y-103530000D03*
G04 #@! TO.N,SDA-R*
X291744191Y-133049839D03*
X275112052Y-104543172D03*
X214163540Y-104540000D03*
G04 #@! TO.N,COL1-R*
X203940000Y-141030000D03*
G04 #@! TO.N,COL6-R*
X297583540Y-133430000D03*
G04 #@! TO.N,VBUS*
X41140000Y-108390000D03*
X45577349Y-107933327D03*
G04 #@! TO.N,VDC*
X275913540Y-115930000D03*
X280363540Y-114760000D03*
G04 #@! TO.N,Net-(R41-Pad1)*
X63181729Y-53751729D03*
X65740000Y-54980000D03*
G04 #@! TO.N,Net-(R42-Pad1)*
X60670000Y-53830000D03*
X59560000Y-56190000D03*
G04 #@! TO.N,Net-(R89-Pad1)*
X291843540Y-53690000D03*
X292923540Y-56280000D03*
G04 #@! TO.N,Net-(R90-Pad1)*
X289263540Y-53690000D03*
X288163540Y-56240000D03*
G04 #@! TD*
D20*
G04 #@! TO.N,GND*
X70050000Y-57510000D02*
X69030000Y-56490000D01*
X72484619Y-57510000D02*
X70050000Y-57510000D01*
X72484619Y-57549649D02*
X72484619Y-57510000D01*
X73261135Y-58326165D02*
X72484619Y-57549649D01*
X75471221Y-57510000D02*
X75471221Y-57549649D01*
X91534731Y-57510000D02*
X75471221Y-57510000D01*
X91534731Y-57549649D02*
X91534731Y-57510000D01*
X94521333Y-57549649D02*
X93744817Y-58326165D01*
X94521333Y-57510000D02*
X94521333Y-57549649D01*
X110584843Y-57510000D02*
X94521333Y-57510000D01*
X132621557Y-57510000D02*
X132621557Y-57549649D01*
X92311247Y-58326165D02*
X91534731Y-57549649D01*
X132670000Y-57510000D02*
X132621557Y-57510000D01*
X136793500Y-53386500D02*
X132670000Y-57510000D01*
X111361359Y-58326165D02*
X110584843Y-57549649D01*
X75471221Y-57549649D02*
X74694705Y-58326165D01*
X136793500Y-50617990D02*
X136793500Y-53386500D01*
X93744817Y-58326165D02*
X92311247Y-58326165D01*
X135812500Y-49336990D02*
X135812500Y-49636990D01*
X113571445Y-57549649D02*
X112794929Y-58326165D01*
X135812500Y-49636990D02*
X136793500Y-50617990D01*
X110584843Y-57549649D02*
X110584843Y-57510000D01*
X132621557Y-57549649D02*
X131845041Y-58326165D01*
X113571445Y-57510000D02*
X113571445Y-57549649D01*
X74694705Y-58326165D02*
X73261135Y-58326165D01*
X131845041Y-58326165D02*
X130411471Y-58326165D01*
X130411471Y-58326165D02*
X129634955Y-57549649D01*
X112794929Y-58326165D02*
X111361359Y-58326165D01*
X129634955Y-57549649D02*
X129634955Y-57510000D01*
X129634955Y-57510000D02*
X113571445Y-57510000D01*
X46990000Y-107168300D02*
X50868300Y-107168300D01*
X54620001Y-110920001D02*
X55020000Y-111320000D01*
X50868300Y-107168300D02*
X54620001Y-110920001D01*
G04 #@! TO.N,+5V*
X42395685Y-106400000D02*
X41830000Y-106400000D01*
X51550000Y-106400000D02*
X42395685Y-106400000D01*
X55930000Y-112980000D02*
X55930000Y-110780000D01*
X139900000Y-64130000D02*
X136490000Y-64130000D01*
X140412500Y-63617500D02*
X139900000Y-64130000D01*
X140412500Y-57436990D02*
X140412500Y-63617500D01*
X55930000Y-110780000D02*
X52750000Y-107600000D01*
X52750000Y-107600000D02*
X51550000Y-106400000D01*
X52448434Y-107600000D02*
X52360002Y-107511568D01*
X52750000Y-107600000D02*
X52448434Y-107600000D01*
X55930000Y-113545685D02*
X55930000Y-112980000D01*
X57870000Y-115485685D02*
X55930000Y-113545685D01*
X57870000Y-127690000D02*
X57870000Y-115485685D01*
X54620000Y-130940000D02*
X57870000Y-127690000D01*
X48860000Y-128800000D02*
X51000000Y-130940000D01*
X51000000Y-130940000D02*
X54620000Y-130940000D01*
X38410000Y-126810000D02*
X38410000Y-124450000D01*
X48860000Y-128800000D02*
X40400000Y-128800000D01*
X40400000Y-128800000D02*
X38410000Y-126810000D01*
X35580000Y-112650000D02*
X41830000Y-106400000D01*
X35580000Y-114130000D02*
X35580000Y-112650000D01*
X136490000Y-64130000D02*
X136490000Y-65270000D01*
X136490000Y-65270000D02*
X137330000Y-66110000D01*
X137330000Y-71620000D02*
X136210000Y-72740000D01*
X137330000Y-66110000D02*
X137330000Y-71620000D01*
X136820000Y-72130000D02*
X136210000Y-72740000D01*
X130360000Y-102924315D02*
X130360000Y-103490000D01*
X130600000Y-102684315D02*
X130360000Y-102924315D01*
X136210000Y-72740000D02*
X130600000Y-78350000D01*
X130600000Y-78350000D02*
X130600000Y-102684315D01*
G04 #@! TO.N,ROW0*
X57960000Y-64649998D02*
X65870002Y-64649998D01*
X65870002Y-64649998D02*
X65970000Y-64550000D01*
G04 #@! TO.N,ROW1*
X39580000Y-83630000D02*
X46250000Y-83630000D01*
X46250000Y-83630000D02*
X46300000Y-83580000D01*
G04 #@! TO.N,ROW2*
X46310000Y-102770000D02*
X46340000Y-102800000D01*
X39680000Y-102770000D02*
X46310000Y-102770000D01*
G04 #@! TO.N,ROW3*
X123854696Y-121736613D02*
X126626613Y-121736613D01*
X126626613Y-121736613D02*
X126640000Y-121750000D01*
X66710000Y-120960000D02*
X66710000Y-120720000D01*
X55110000Y-132560000D02*
X66710000Y-120960000D01*
X42295674Y-132560000D02*
X55110000Y-132560000D01*
X38650000Y-128237011D02*
X38650000Y-128914326D01*
X38650000Y-128914326D02*
X42295674Y-132560000D01*
G04 #@! TO.N,VCC*
X60935200Y-55070000D02*
X62949999Y-55070000D01*
D21*
G04 #@! TO.N,SCL*
X122690000Y-122005579D02*
X122660000Y-121975579D01*
X122690000Y-123385190D02*
X122690000Y-122005579D01*
X138330000Y-65158300D02*
X138330000Y-71950000D01*
X138590000Y-64898300D02*
X138330000Y-65158300D01*
X138330000Y-71950000D02*
X131541811Y-78738189D01*
X131541811Y-78738189D02*
X131541811Y-109974941D01*
X131541811Y-109974941D02*
X129398375Y-112118377D01*
X129398375Y-112118377D02*
X128998376Y-112518376D01*
G04 #@! TO.N,SDA*
X128010000Y-112614315D02*
X128010000Y-113180000D01*
X137612197Y-64898300D02*
X137870000Y-65156103D01*
X137870000Y-65156103D02*
X137870000Y-71780474D01*
X137870000Y-71780474D02*
X131110001Y-78540473D01*
X131110001Y-78540473D02*
X131110000Y-109410000D01*
X131110000Y-109410000D02*
X128010000Y-112510000D01*
X128010000Y-112510000D02*
X128010000Y-112614315D01*
D20*
G04 #@! TO.N,COL0*
X24765168Y-59372864D02*
X24765168Y-78422976D01*
X24765168Y-78422976D02*
X24765168Y-97473088D01*
X24765168Y-99064078D02*
X24765168Y-116523200D01*
X24765168Y-97473088D02*
X24765168Y-99064078D01*
X24765168Y-116523200D02*
X24765168Y-135573312D01*
G04 #@! TO.N,COL1*
X48577808Y-73660448D02*
X53340336Y-78422976D01*
X48577808Y-59372864D02*
X48577808Y-73660448D01*
X53340336Y-95091824D02*
X50959072Y-97473088D01*
X53340336Y-78422976D02*
X53340336Y-95091824D01*
X60484128Y-114932210D02*
X60484128Y-116523200D01*
X60484128Y-114543852D02*
X60484128Y-114932210D01*
X52084071Y-106143795D02*
X60484128Y-114543852D01*
X52084071Y-98598087D02*
X52084071Y-106143795D01*
X50959072Y-97473088D02*
X52084071Y-98598087D01*
X54130610Y-97473088D02*
X50959072Y-97473088D01*
X55721600Y-97473088D02*
X54130610Y-97473088D01*
X60484128Y-116523200D02*
X60484128Y-126048256D01*
X60484128Y-126048256D02*
X60484128Y-126085292D01*
X60484128Y-126085292D02*
X54791405Y-131778015D01*
G04 #@! TO.N,COL2*
X67830199Y-115669801D02*
X67830199Y-132009801D01*
X68752919Y-114747081D02*
X67830199Y-115669801D01*
X67627920Y-59372864D02*
X68752919Y-60497863D01*
X68752919Y-60497863D02*
X68752919Y-114747081D01*
G04 #@! TO.N,COL3*
X86678032Y-68897920D02*
X77152976Y-78422976D01*
X86678032Y-59372864D02*
X86678032Y-68897920D01*
X77152976Y-92710560D02*
X81915504Y-97473088D01*
X77152976Y-78422976D02*
X77152976Y-92710560D01*
X89849570Y-116523200D02*
X91440560Y-116523200D01*
X86530258Y-116523200D02*
X89849570Y-116523200D01*
X81915504Y-111908446D02*
X86530258Y-116523200D01*
X81915504Y-97473088D02*
X81915504Y-111908446D01*
X76362702Y-135573312D02*
X74771712Y-135573312D01*
X80791798Y-135573312D02*
X76362702Y-135573312D01*
X91440560Y-124924550D02*
X80791798Y-135573312D01*
X91440560Y-116523200D02*
X91440560Y-124924550D01*
X74771712Y-135573312D02*
X72390448Y-135573312D01*
G04 #@! TO.N,COL4*
X105728144Y-68897920D02*
X96203088Y-78422976D01*
X105728144Y-59372864D02*
X105728144Y-68897920D01*
X96203088Y-92710560D02*
X100965616Y-97473088D01*
X96203088Y-78422976D02*
X96203088Y-92710560D01*
X100965616Y-106998144D02*
X110490672Y-116523200D01*
X100965616Y-97473088D02*
X100965616Y-106998144D01*
X100175342Y-135573312D02*
X98584352Y-135573312D01*
X111615671Y-124132983D02*
X100175342Y-135573312D01*
X111615671Y-117648199D02*
X111615671Y-124132983D01*
X110490672Y-116523200D02*
X111615671Y-117648199D01*
X96993362Y-135573312D02*
X93821824Y-135573312D01*
X98584352Y-135573312D02*
X96993362Y-135573312D01*
G04 #@! TO.N,COL5*
X124778256Y-68897920D02*
X115253200Y-78422976D01*
X124778256Y-59372864D02*
X124778256Y-68897920D01*
X115253200Y-92710560D02*
X120015728Y-97473088D01*
X115253200Y-78422976D02*
X115253200Y-92710560D01*
X120015728Y-106998144D02*
X129540784Y-116523200D01*
X120015728Y-97473088D02*
X120015728Y-106998144D01*
X133178313Y-134448313D02*
X134303312Y-135573312D01*
X130665783Y-131935783D02*
X133178313Y-134448313D01*
X130665783Y-117648199D02*
X130665783Y-131935783D01*
X129540784Y-116523200D02*
X130665783Y-117648199D01*
X134303312Y-135573312D02*
X136684576Y-135573312D01*
G04 #@! TO.N,COL6*
X143828368Y-68897920D02*
X134303312Y-78422976D01*
X143828368Y-59372864D02*
X143828368Y-68897920D01*
X134303312Y-92710560D02*
X139065840Y-97473088D01*
X134303312Y-78422976D02*
X134303312Y-92710560D01*
X139065840Y-106998144D02*
X148590896Y-116523200D01*
X139065840Y-97473088D02*
X139065840Y-106998144D01*
G04 #@! TO.N,GNDA*
X212012290Y-49636990D02*
X212012290Y-49336990D01*
X283853511Y-58504504D02*
X278520962Y-58504504D01*
X275992014Y-58350000D02*
X260106624Y-58350000D01*
X276462451Y-57879563D02*
X275992014Y-58350000D01*
X257180871Y-57320753D02*
X256151624Y-58350000D01*
X237101512Y-58350000D02*
X222006400Y-58350000D01*
X219696052Y-57320752D02*
X212012290Y-49636990D01*
X278520962Y-58504504D02*
X277896021Y-57879563D01*
X259077376Y-57320752D02*
X257180871Y-57320753D01*
X238130759Y-57320753D02*
X237101512Y-58350000D01*
X277896021Y-57879563D02*
X276462451Y-57879563D01*
X256151624Y-58350000D02*
X241056512Y-58350000D01*
X241056512Y-58350000D02*
X240027264Y-57320752D01*
X220977152Y-57320752D02*
X219696052Y-57320752D01*
X260106624Y-58350000D02*
X259077376Y-57320752D01*
X240027264Y-57320752D02*
X238130759Y-57320753D01*
X222006400Y-58350000D02*
X220977152Y-57320752D01*
X291030000Y-110570000D02*
X291260000Y-110340000D01*
X291030000Y-115210000D02*
X291030000Y-110570000D01*
X291890000Y-116070000D02*
X291030000Y-115210000D01*
X305863540Y-115030000D02*
X304823540Y-116070000D01*
X304823540Y-116070000D02*
X291890000Y-116070000D01*
G04 #@! TO.N,+5VA*
X275013540Y-118280000D02*
X272973540Y-120320000D01*
X275013540Y-116830000D02*
X275013540Y-118280000D01*
X305863540Y-109970000D02*
X305863540Y-109950000D01*
X299218857Y-118466415D02*
X299307125Y-118466415D01*
X299273540Y-118521098D02*
X299273540Y-135345700D01*
X297518851Y-137100389D02*
X297518851Y-139175164D01*
X297518851Y-139175164D02*
X296428704Y-140265311D01*
X299218857Y-118466415D02*
X299273540Y-118521098D01*
X296428704Y-140265311D02*
X291358851Y-140265311D01*
X286263539Y-135169999D02*
X285863540Y-134770000D01*
X291358851Y-140265311D02*
X286263539Y-135169999D01*
X299273540Y-135345700D02*
X297518851Y-137100389D01*
X269809843Y-120320000D02*
X268558628Y-121571215D01*
X268558628Y-121571215D02*
X268558628Y-126651840D01*
X268558628Y-126651840D02*
X272195165Y-130288377D01*
X272995163Y-131088375D02*
X272595164Y-130688376D01*
X272195165Y-130288377D02*
X272595164Y-130688376D01*
X272973540Y-120320000D02*
X269809843Y-120320000D01*
X276676788Y-134770000D02*
X272995163Y-131088375D01*
X285863540Y-134770000D02*
X276676788Y-134770000D01*
X260029661Y-59063315D02*
X258845909Y-57879563D01*
X262585633Y-59063315D02*
X260029661Y-59063315D01*
X221774932Y-58908810D02*
X220745685Y-57879563D01*
X217593290Y-57436990D02*
X216612290Y-57436990D01*
X264301325Y-60779007D02*
X262585633Y-59063315D01*
X264301325Y-95517785D02*
X264301325Y-60779007D01*
X275013540Y-116830000D02*
X275013540Y-106230000D01*
X275013540Y-106230000D02*
X264301325Y-95517785D01*
X258845909Y-57879563D02*
X257412339Y-57879563D01*
X256383092Y-58908810D02*
X240825044Y-58908810D01*
X257412339Y-57879563D02*
X256383092Y-58908810D01*
X239795797Y-57879563D02*
X238362227Y-57879563D01*
X240825044Y-58908810D02*
X239795797Y-57879563D01*
X238362227Y-57879563D02*
X237332980Y-58908810D01*
X237332980Y-58908810D02*
X221774932Y-58908810D01*
X220745685Y-57879563D02*
X218035863Y-57879563D01*
X218035863Y-57879563D02*
X217593290Y-57436990D01*
X301104638Y-116690000D02*
X299273540Y-118521098D01*
X306006626Y-116690000D02*
X301104638Y-116690000D01*
X307150000Y-115546626D02*
X306006626Y-116690000D01*
X305863540Y-109950000D02*
X307150000Y-111236460D01*
X307150000Y-111236460D02*
X307150000Y-115546626D01*
X297381253Y-116628811D02*
X299218857Y-118466415D01*
X290273540Y-118189158D02*
X291833887Y-116628811D01*
X290273540Y-120000000D02*
X290273540Y-118189158D01*
X291833887Y-116628811D02*
X297381253Y-116628811D01*
D21*
G04 #@! TO.N,ROW0-R*
X286433540Y-64620000D02*
X294763540Y-64620000D01*
X294763540Y-64620000D02*
X294803540Y-64580000D01*
G04 #@! TO.N,ROW1-R*
X285273540Y-83680000D02*
X277073540Y-83680000D01*
G04 #@! TO.N,ROW2-R*
X287913540Y-102760000D02*
X278353540Y-102760000D01*
X278353540Y-102760000D02*
X278333540Y-102780000D01*
G04 #@! TO.N,ROW3-R*
X269356929Y-121970000D02*
X269326929Y-121940000D01*
X276943540Y-134040000D02*
X269356929Y-126453389D01*
X286163540Y-134040000D02*
X276943540Y-134040000D01*
X291893540Y-139770000D02*
X286163540Y-134040000D01*
X298313540Y-121470000D02*
X298313540Y-135605226D01*
X269356929Y-126453389D02*
X269356929Y-121970000D01*
X298253540Y-121410000D02*
X298313540Y-121470000D01*
X298313540Y-135605226D02*
X297023540Y-136895226D01*
X297023540Y-136895226D02*
X297023540Y-138970000D01*
X297023540Y-138970000D02*
X296223540Y-139770000D01*
X296223540Y-139770000D02*
X291893540Y-139770000D01*
G04 #@! TO.N,ROW4-R*
X232723540Y-140830000D02*
X235913540Y-140830000D01*
X272053540Y-140835200D02*
X276158740Y-140835200D01*
X276158740Y-140835200D02*
X276213540Y-140890000D01*
D20*
G04 #@! TO.N,VDD*
X291593540Y-54860000D02*
X289578740Y-54860000D01*
X289578740Y-54860000D02*
X289568740Y-54870000D01*
D21*
G04 #@! TO.N,SCL-R*
X275125618Y-103560000D02*
X275099579Y-103533961D01*
X275474212Y-103560000D02*
X275125618Y-103560000D01*
X286635756Y-114721544D02*
X275474212Y-103560000D01*
X291731419Y-132072121D02*
X286635756Y-126976458D01*
X286635756Y-126976458D02*
X286635756Y-114721544D01*
X212012290Y-53490990D02*
X212012290Y-52336990D01*
X213257489Y-54736189D02*
X212012290Y-53490990D01*
X213257489Y-73416723D02*
X213257489Y-54736189D01*
X208054043Y-78620169D02*
X213257489Y-73416723D01*
X208054043Y-98570503D02*
X208054043Y-78620169D01*
X213013540Y-103530000D02*
X208054043Y-98570503D01*
X214143540Y-103530000D02*
X213013540Y-103530000D01*
G04 #@! TO.N,SDA-R*
X286203945Y-114900405D02*
X275846712Y-104543172D01*
X286203945Y-127550405D02*
X286203945Y-114900405D01*
X291703379Y-133049839D02*
X286203945Y-127550405D01*
X275846712Y-104543172D02*
X275112052Y-104543172D01*
X291744191Y-133049839D02*
X291703379Y-133049839D01*
X212012290Y-57490990D02*
X212012290Y-56336990D01*
X207622232Y-78441308D02*
X212793540Y-73270000D01*
X213412868Y-104540000D02*
X207622232Y-98749364D01*
X212793540Y-73270000D02*
X212793540Y-58272240D01*
X214163540Y-104540000D02*
X213412868Y-104540000D01*
X207622232Y-98749364D02*
X207622232Y-78441308D01*
X212793540Y-58272240D02*
X212012290Y-57490990D01*
G04 #@! TO.N,COL0-R*
X173994610Y-78422976D02*
X172403620Y-78422976D01*
X178329726Y-78422976D02*
X173994610Y-78422976D01*
X181928676Y-74824026D02*
X178329726Y-78422976D01*
X181928676Y-59372864D02*
X181928676Y-74824026D01*
X176041149Y-96348089D02*
X177166148Y-97473088D01*
X176041149Y-88377609D02*
X176041149Y-96348089D01*
X173616475Y-85952935D02*
X176041149Y-88377609D01*
X172403620Y-78422976D02*
X173616475Y-79635831D01*
X173616475Y-79635831D02*
X173616475Y-85952935D01*
X186691204Y-114932210D02*
X186691204Y-116523200D01*
X186691204Y-109130222D02*
X186691204Y-114932210D01*
X177166148Y-99605166D02*
X186691204Y-109130222D01*
X177166148Y-97473088D02*
X177166148Y-99605166D01*
X186691204Y-133192048D02*
X184309940Y-135573312D01*
X186691204Y-116523200D02*
X186691204Y-133192048D01*
X185900930Y-135573312D02*
X191453732Y-135573312D01*
X184309940Y-135573312D02*
X185900930Y-135573312D01*
G04 #@! TO.N,COL1-R*
X200978788Y-68897920D02*
X191453732Y-78422976D01*
X200978788Y-59372864D02*
X200978788Y-68897920D01*
X191453732Y-92710560D02*
X196216260Y-97473088D01*
X191453732Y-78422976D02*
X191453732Y-92710560D01*
X196216260Y-106998144D02*
X205741316Y-116523200D01*
X196216260Y-97473088D02*
X196216260Y-106998144D01*
X205741316Y-116523200D02*
X205741316Y-139228684D01*
X205741316Y-139228684D02*
X203940000Y-141030000D01*
G04 #@! TO.N,COL2-R*
X220028900Y-68897920D02*
X210503844Y-78422976D01*
X220028900Y-59372864D02*
X220028900Y-68897920D01*
X210503844Y-92710560D02*
X215266372Y-97473088D01*
X210503844Y-78422976D02*
X210503844Y-92710560D01*
X215266372Y-106998144D02*
X224791428Y-116523200D01*
X215266372Y-97473088D02*
X215266372Y-106998144D01*
X224791428Y-128429520D02*
X217647636Y-135573312D01*
X224791428Y-116523200D02*
X224791428Y-128429520D01*
G04 #@! TO.N,COL3-R*
X239079012Y-68897920D02*
X229553956Y-78422976D01*
X239079012Y-59372864D02*
X239079012Y-68897920D01*
X229553956Y-92710560D02*
X234316484Y-97473088D01*
X229553956Y-78422976D02*
X229553956Y-92710560D01*
X234316484Y-106998144D02*
X243841540Y-116523200D01*
X234316484Y-97473088D02*
X234316484Y-106998144D01*
X243841540Y-133192048D02*
X241460276Y-135573312D01*
X243841540Y-116523200D02*
X243841540Y-133192048D01*
X234316484Y-135573312D02*
X241460276Y-135573312D01*
G04 #@! TO.N,COL4-R*
X258129124Y-68897920D02*
X248604068Y-78422976D01*
X258129124Y-59372864D02*
X258129124Y-68897920D01*
X248604068Y-92710560D02*
X253366596Y-97473088D01*
X248604068Y-78422976D02*
X248604068Y-92710560D01*
X261766653Y-115398201D02*
X262891652Y-116523200D01*
X253366596Y-106998144D02*
X261766653Y-115398201D01*
X253366596Y-97473088D02*
X253366596Y-106998144D01*
X262891652Y-116523200D02*
X262891652Y-135573312D01*
X262891652Y-135573312D02*
X265272916Y-135573312D01*
G04 #@! TO.N,COL5-R*
X277179236Y-68897920D02*
X267654180Y-78422976D01*
X277179236Y-59372864D02*
X277179236Y-68897920D01*
X267654180Y-92710560D02*
X272416708Y-97473088D01*
X267654180Y-78422976D02*
X267654180Y-92710560D01*
X272416708Y-99854352D02*
X289085556Y-116523200D01*
X272416708Y-97473088D02*
X272416708Y-99854352D01*
X289085556Y-128429520D02*
X296229348Y-135573312D01*
X289085556Y-116523200D02*
X289085556Y-128429520D01*
G04 #@! TO.N,COL6-R*
X287829291Y-77297977D02*
X286704292Y-78422976D01*
X287829291Y-76594649D02*
X287829291Y-77297977D01*
X296229348Y-68194592D02*
X287829291Y-76594649D01*
X296229348Y-59372864D02*
X296229348Y-68194592D01*
X294793540Y-133430000D02*
X297583540Y-133430000D01*
X286704292Y-100507646D02*
X290515357Y-104318711D01*
X290515357Y-104318711D02*
X290515357Y-117209505D01*
X290515357Y-117209505D02*
X289517366Y-118207496D01*
X289517366Y-118207496D02*
X289517366Y-128153826D01*
X286704292Y-78422976D02*
X286704292Y-100507646D01*
X289517366Y-128153826D02*
X294793540Y-133430000D01*
D20*
G04 #@! TO.N,VBUS*
X41596673Y-107933327D02*
X45011664Y-107933327D01*
X45011664Y-107933327D02*
X45577349Y-107933327D01*
X41140000Y-108390000D02*
X41596673Y-107933327D01*
G04 #@! TO.N,VDC*
X279963541Y-115159999D02*
X280363540Y-114760000D01*
X279853540Y-115270000D02*
X279963541Y-115159999D01*
X275913540Y-115930000D02*
X276573540Y-115270000D01*
X276573540Y-115270000D02*
X279853540Y-115270000D01*
D21*
G04 #@! TO.N,COL7-R*
X305754404Y-59372864D02*
X315279460Y-59372864D01*
X311641931Y-77297977D02*
X310516932Y-78422976D01*
X316404459Y-72535449D02*
X311641931Y-77297977D01*
X316404459Y-60497863D02*
X316404459Y-72535449D01*
X315279460Y-59372864D02*
X316404459Y-60497863D01*
X310516932Y-90329296D02*
X303373140Y-97473088D01*
X310516932Y-78422976D02*
X310516932Y-90329296D01*
X314154461Y-115398201D02*
X315279460Y-116523200D01*
X314154461Y-113991815D02*
X314154461Y-115398201D01*
X303373140Y-103210494D02*
X314154461Y-113991815D01*
X303373140Y-97473088D02*
X303373140Y-103210494D01*
X315279460Y-118114190D02*
X315279460Y-135573312D01*
X315279460Y-116523200D02*
X315279460Y-118114190D01*
G04 #@! TO.N,COL8-R*
X334329572Y-59372864D02*
X334329572Y-78422976D01*
X334329572Y-78422976D02*
X334329572Y-97473088D01*
X334329572Y-97473088D02*
X334329572Y-116523200D01*
X334329572Y-118114190D02*
X334329572Y-135573312D01*
X334329572Y-116523200D02*
X334329572Y-118114190D01*
G04 #@! TO.N,Net-(R41-Pad1)*
X65174315Y-54980000D02*
X65740000Y-54980000D01*
X65110000Y-54980000D02*
X65174315Y-54980000D01*
X63181729Y-53751729D02*
X63881729Y-53751729D01*
X63881729Y-53751729D02*
X65110000Y-54980000D01*
G04 #@! TO.N,Net-(R42-Pad1)*
X59560000Y-55430000D02*
X59560000Y-56190000D01*
X60670000Y-53830000D02*
X60670000Y-54320000D01*
X60670000Y-54320000D02*
X59560000Y-55430000D01*
G04 #@! TO.N,Net-(R89-Pad1)*
X292863540Y-56220000D02*
X292923540Y-56280000D01*
X291843540Y-53690000D02*
X292863540Y-54710000D01*
X292863540Y-54710000D02*
X292863540Y-56220000D01*
G04 #@! TO.N,Net-(R90-Pad1)*
X288063540Y-56140000D02*
X288163540Y-56240000D01*
X289263540Y-53690000D02*
X288063540Y-54890000D01*
X288063540Y-54890000D02*
X288063540Y-56140000D01*
D20*
G04 #@! TO.N,COL7*
X162878480Y-68897920D02*
X153353424Y-78422976D01*
X162878480Y-59372864D02*
X162878480Y-68897920D01*
X153353424Y-92710560D02*
X158115952Y-97473088D01*
X153353424Y-78422976D02*
X153353424Y-92710560D01*
X158115952Y-106998144D02*
X167641008Y-116523200D01*
X158115952Y-97473088D02*
X158115952Y-106998144D01*
G04 #@! TD*
M02*
